<?xml version="1.0" encoding="utf-8"?>
<!-- Generator: Adobe Illustrator 16.0.0, SVG Export Plug-In . SVG Version: 6.00 Build 0)  -->
<!DOCTYPE svg PUBLIC "-//W3C//DTD SVG 1.1//EN" "http://www.w3.org/Graphics/SVG/1.1/DTD/svg11.dtd">
<svg version="1.1" id="Layer_1" xmlns="http://www.w3.org/2000/svg" xmlns:xlink="http://www.w3.org/1999/xlink" x="0px" y="0px"
	 width="16px" height="16px" viewBox="0 0 16 16" enable-background="new 0 0 16 16" xml:space="preserve">
<path fill="#BCBCBC" d="M15.645,13.904C15.882,14.141,16,14.43,16,14.77c0,0.333-0.122,0.621-0.365,0.865
	C15.391,15.878,15.103,16,14.77,16c-0.347,0-0.635-0.122-0.865-0.365l-3.299-3.289c-1.147,0.795-2.426,1.192-3.836,1.192
	c-0.917,0-1.793-0.178-2.629-0.533c-0.837-0.355-1.558-0.837-2.164-1.442C1.37,10.957,0.89,10.235,0.534,9.399
	C0.178,8.562,0,7.686,0,6.769C0,5.853,0.178,4.976,0.534,4.14C0.89,3.303,1.37,2.582,1.976,1.976C2.582,1.37,3.303,0.89,4.14,0.534
	C4.976,0.178,5.853,0,6.769,0c0.917,0,1.793,0.178,2.63,0.534c0.836,0.356,1.558,0.836,2.163,1.442
	c0.605,0.605,1.087,1.327,1.442,2.164c0.355,0.836,0.533,1.713,0.533,2.629c0,1.411-0.397,2.689-1.192,3.836L15.645,13.904
	L15.645,13.904z M9.812,9.812c0.843-0.843,1.265-1.857,1.265-3.043c0-1.186-0.422-2.2-1.265-3.043
	C8.97,2.883,7.955,2.461,6.769,2.461c-1.186,0-2.2,0.421-3.043,1.265C2.883,4.569,2.461,5.583,2.461,6.769
	c0,1.186,0.421,2.201,1.265,3.043c0.843,0.843,1.857,1.265,3.043,1.265C7.955,11.077,8.97,10.655,9.812,9.812z"/>
<g>
</g>
<g>
</g>
<g>
</g>
<g>
</g>
<g>
</g>
<g>
</g>
<g>
</g>
<g>
</g>
<g>
</g>
<g>
</g>
<g>
</g>
<g>
</g>
<g>
</g>
<g>
</g>
<g>
</g>
</svg>
