<?xml version="1.0"?>
<svg version="1.1" xmlns="http://www.w3.org/2000/svg" xmlns:xlink="http://www.w3.org/1999/xlink" width="141" height="36">
    <desc iVinci="yes" version="4.6" gridStep="20" showGrid="no" snapToGrid="no" codePlatform="0"/>
    <g id="Layer1" name="Layer 1" opacity="1">
        <g id="Shape1">
            <desc shapeID="1" type="0" basicInfo-basicType="0" basicInfo-roundedRectRadius="12" basicInfo-polygonSides="6" basicInfo-starPoints="5" bounding="rect(-9.85,-11.45,19.7,22.9)" text="" font-familyName="" font-pixelSize="20" font-bold="0" font-underline="0" font-alignment="1" strokeStyle="0" markerStart="0" markerEnd="0" shadowEnabled="0" shadowOffsetX="0" shadowOffsetY="2" shadowBlur="4" shadowOpacity="160" blurEnabled="0" blurRadius="4" transform="matrix(1,0,0,1,49.65,13.55)" pers-center="0,0" pers-size="0,0" pers-start="0,0" pers-end="0,0" locked="0" mesh="" flag=""/>
            <path id="shapePath1" d="M39.8,13.6 L39.8,13.5 C39.8,7.2 44.4,2.1 50.9,2.1 C54.9,2.1 57.3,3.5 59.3,5.5 L56.3,9.1 C54.7,7.5 53,6.6 50.9,6.6 C47.3,6.6 44.7,9.7 44.7,13.5 C44.7,17.3 47.2,20.5 50.9,20.5 C53.3,20.5 54.8,19.5 56.5,17.9 L59.5,21 C57.3,23.5 54.8,25 50.7,25 C44.5,25 39.8,20 39.8,13.6 Z" style="stroke:none;fill-rule:evenodd;fill:#ffffff;fill-opacity:1;"/>
        </g>
        <g id="Shape2">
            <desc shapeID="2" type="0" basicInfo-basicType="0" basicInfo-roundedRectRadius="12" basicInfo-polygonSides="6" basicInfo-starPoints="5" bounding="rect(-9,-11.05,18,22.1)" text="" font-familyName="" font-pixelSize="20" font-bold="0" font-underline="0" font-alignment="1" strokeStyle="0" markerStart="0" markerEnd="0" shadowEnabled="0" shadowOffsetX="0" shadowOffsetY="2" shadowBlur="4" shadowOpacity="160" blurEnabled="0" blurRadius="4" transform="matrix(1,0,0,1,72.2,13.55)" pers-center="0,0" pers-size="0,0" pers-start="0,0" pers-end="0,0" locked="0" mesh="" flag=""/>
            <path id="shapePath2" d="M63.2,2.5 L67.9,2.5 L67.9,11.2 L76.5,11.2 L76.5,2.5 L81.2,2.5 L81.2,24.6 L76.5,24.6 L76.5,15.7 L67.9,15.7 L67.9,24.6 L63.2,24.6 L63.2,2.5 Z" style="stroke:none;fill-rule:evenodd;fill:#ffffff;fill-opacity:1;"/>
        </g>
        <g id="Shape3">
            <desc shapeID="3" type="0" basicInfo-basicType="0" basicInfo-roundedRectRadius="12" basicInfo-polygonSides="6" basicInfo-starPoints="5" bounding="rect(-8.15,-11.05,16.3,22.1)" text="" font-familyName="" font-pixelSize="20" font-bold="0" font-underline="0" font-alignment="1" strokeStyle="0" markerStart="0" markerEnd="0" shadowEnabled="0" shadowOffsetX="0" shadowOffsetY="2" shadowBlur="4" shadowOpacity="160" blurEnabled="0" blurRadius="4" transform="matrix(1,0,0,1,95.05,13.55)" pers-center="0,0" pers-size="0,0" pers-start="0,0" pers-end="0,0" locked="0" mesh="" flag=""/>
            <path id="shapePath3" d="M86.9,2.5 L103,2.5 L103,6.8 L91.6,6.8 L91.6,11.3 L101.6,11.3 L101.6,15.6 L91.6,15.6 L91.6,20.3 L103.2,20.3 L103.2,24.6 L86.9,24.6 L86.9,2.5 Z" style="stroke:none;fill-rule:evenodd;fill:#ffffff;fill-opacity:1;"/>
        </g>
        <g id="Shape4">
            <desc shapeID="4" type="0" basicInfo-basicType="0" basicInfo-roundedRectRadius="12" basicInfo-polygonSides="6" basicInfo-starPoints="5" bounding="rect(-8.15,-11.05,16.3,22.1)" text="" font-familyName="" font-pixelSize="20" font-bold="0" font-underline="0" font-alignment="1" strokeStyle="0" markerStart="0" markerEnd="0" shadowEnabled="0" shadowOffsetX="0" shadowOffsetY="2" shadowBlur="4" shadowOpacity="160" blurEnabled="0" blurRadius="4" transform="matrix(1,0,0,1,116.05,13.55)" pers-center="0,0" pers-size="0,0" pers-start="0,0" pers-end="0,0" locked="0" mesh="" flag=""/>
            <path id="shapePath4" d="M107.9,2.5 L124.2,2.5 L124.2,6.9 L112.6,6.9 L112.6,11.6 L122.8,11.6 L122.8,16 L112.6,16 L112.6,24.6 L107.9,24.6 L107.9,2.5 Z" style="stroke:none;fill-rule:evenodd;fill:#ffffff;fill-opacity:1;"/>
        </g>
        <g id="Shape5">
            <desc shapeID="5" type="0" basicInfo-basicType="0" basicInfo-roundedRectRadius="12" basicInfo-polygonSides="6" basicInfo-starPoints="5" bounding="rect(-10.45,-10.95,20.9,21.9)" text="" font-familyName="" font-pixelSize="20" font-bold="0" font-underline="0" font-alignment="1" strokeStyle="0" markerStart="0" markerEnd="0" shadowEnabled="0" shadowOffsetX="0" shadowOffsetY="2" shadowBlur="4" shadowOpacity="160" blurEnabled="0" blurRadius="4" transform="matrix(1,0,0,1,17.85,17.85)" pers-center="0,0" pers-size="0,0" pers-start="0,0" pers-end="0,0" locked="0" mesh="" flag=""/>
            <path id="shapePath5" d="M18,25.8 C13.7,25.8 10.3,22.2 10.3,17.8 C10.3,13.4 13.7,9.9 18,9.9 C21.5,9.9 24.4,12.3 25.3,15.6 L28.3,15.6 C27.3,10.6 23.1,6.9 18,6.9 C12.1,6.9 7.4,11.8 7.4,17.8 C7.4,23.9 12.1,28.8 18,28.8 C23.1,28.8 27.3,25.1 28.3,20.1 L25.3,20.1 C24.4,23.4 21.5,25.8 18,25.8 Z" style="stroke:none;fill-rule:evenodd;fill:#ffffff;fill-opacity:1;"/>
        </g>
        <g id="Shape6">
            <desc shapeID="6" type="0" basicInfo-basicType="0" basicInfo-roundedRectRadius="12" basicInfo-polygonSides="6" basicInfo-starPoints="5" bounding="rect(-2.6,-2.25,5.2,4.5)" text="" font-familyName="" font-pixelSize="20" font-bold="0" font-underline="0" font-alignment="1" strokeStyle="0" markerStart="0" markerEnd="0" shadowEnabled="0" shadowOffsetX="0" shadowOffsetY="2" shadowBlur="4" shadowOpacity="160" blurEnabled="0" blurRadius="4" transform="matrix(1,0,0,1,15.4,23.25)" pers-center="0,0" pers-size="0,0" pers-start="0,0" pers-end="0,0" locked="0" mesh="" flag=""/>
            <path id="shapePath6" d="M12.8,23.2 C14.1,24.6 15.9,25.5 18,25.5 L18,22.3 C16.8,22.3 15.7,21.8 14.9,21 L12.8,23.2 Z" style="stroke:none;fill-rule:evenodd;fill:#ffffff;fill-opacity:1;"/>
        </g>
        <g id="Shape7">
            <desc shapeID="7" type="0" basicInfo-basicType="0" basicInfo-roundedRectRadius="12" basicInfo-polygonSides="6" basicInfo-starPoints="5" bounding="rect(-3.7,-5.35,7.4,10.7)" text="" font-familyName="" font-pixelSize="20" font-bold="0" font-underline="0" font-alignment="1" strokeStyle="0" markerStart="0" markerEnd="0" shadowEnabled="0" shadowOffsetX="0" shadowOffsetY="2" shadowBlur="4" shadowOpacity="160" blurEnabled="0" blurRadius="4" transform="matrix(1,0,0,1,14.3,15.55)" pers-center="0,0" pers-size="0,0" pers-start="0,0" pers-end="0,0" locked="0" mesh="" flag=""/>
            <path id="shapePath7" d="M10.6,17.8 C10.6,18.9 10.9,20 11.2,20.9 L14.1,19.6 C13.8,19.1 13.7,18.5 13.7,17.8 C13.7,15.4 15.6,13.4 18,13.4 L18,10.2 C13.9,10.2 10.6,13.6 10.6,17.8 Z" style="stroke:none;fill-rule:evenodd;fill:#f38b00;fill-opacity:1;"/>
        </g>
        <g id="Shape8">
            <desc shapeID="8" type="0" basicInfo-basicType="0" basicInfo-roundedRectRadius="12" basicInfo-polygonSides="6" basicInfo-starPoints="5" bounding="rect(-2.75,-2.45,5.5,4.9)" text="" font-familyName="" font-pixelSize="20" font-bold="0" font-underline="0" font-alignment="1" strokeStyle="0" markerStart="0" markerEnd="0" shadowEnabled="0" shadowOffsetX="0" shadowOffsetY="2" shadowBlur="4" shadowOpacity="160" blurEnabled="0" blurRadius="4" transform="matrix(1,0,0,1,22.25,13.15)" pers-center="0,0" pers-size="0,0" pers-start="0,0" pers-end="0,0" locked="0" mesh="" flag=""/>
            <path id="shapePath8" d="M20.6,10.7 L19.5,13.7 C20.4,14.1 21.2,14.8 21.7,15.6 L25,15.6 C24.3,13.4 22.7,11.6 20.6,10.7 Z" style="stroke:none;fill-rule:evenodd;fill:#ffffff;fill-opacity:1;"/>
        </g>
        <g id="Shape9">
            <desc shapeID="9" type="0" basicInfo-basicType="0" basicInfo-roundedRectRadius="12" basicInfo-polygonSides="6" basicInfo-starPoints="5" bounding="rect(-2.75,-2.4,5.5,4.8)" text="" font-familyName="" font-pixelSize="20" font-bold="0" font-underline="0" font-alignment="1" strokeStyle="0" markerStart="0" markerEnd="0" shadowEnabled="0" shadowOffsetX="0" shadowOffsetY="2" shadowBlur="4" shadowOpacity="160" blurEnabled="0" blurRadius="4" transform="matrix(1,0,0,1,22.25,22.5)" pers-center="0,0" pers-size="0,0" pers-start="0,0" pers-end="0,0" locked="0" mesh="" flag=""/>
            <path id="shapePath9" d="M19.5,22 L20.6,24.9 C22.7,24.1 24.3,22.3 25,20.1 L21.7,20.1 C21.2,20.9 20.4,21.6 19.5,22 Z" style="stroke:none;fill-rule:evenodd;fill:#f38b00;fill-opacity:1;"/>
        </g>
        <g id="Shape10">
            <desc shapeID="10" type="0" basicInfo-basicType="0" basicInfo-roundedRectRadius="12" basicInfo-polygonSides="6" basicInfo-starPoints="5" bounding="rect(-2.05,-3.6,4.1,7.2)" text="" font-familyName="" font-pixelSize="20" font-bold="0" font-underline="0" font-alignment="1" strokeStyle="0" markerStart="0" markerEnd="0" shadowEnabled="0" shadowOffsetX="0" shadowOffsetY="2" shadowBlur="4" shadowOpacity="160" blurEnabled="0" blurRadius="4" transform="matrix(1,0,0,1,2.95,21.4)" pers-center="0,0" pers-size="0,0" pers-start="0,0" pers-end="0,0" locked="0" mesh="" flag=""/>
            <path id="shapePath10" d="M4.4,22.1 C4.3,21.9 4.3,21.8 4.3,21.6 C4.2,21.4 4.2,21.3 4.1,21.1 C4.1,21.1 4.1,21 4.1,21 C4.1,20.9 4.1,20.7 4,20.6 C4,20.5 4,20.5 4,20.4 C4,20.3 4,20.2 4,20.1 C3.9,20 3.9,19.9 3.9,19.8 C3.8,19.2 3.8,18.5 3.8,17.8 L0.9,17.8 C0.9,18.6 0.9,19.3 1,20 C1,20.2 1.1,20.4 1.1,20.6 C1.1,20.6 1.1,20.7 1.1,20.7 C1.1,20.9 1.2,21.1 1.2,21.2 C1.2,21.3 1.2,21.4 1.3,21.5 C1.3,21.6 1.3,21.7 1.3,21.8 C1.4,21.9 1.4,22 1.4,22.2 C1.4,22.2 1.5,22.3 1.5,22.4 C1.5,22.6 1.5,22.7 1.6,22.8 C1.6,22.9 1.6,22.9 1.6,23 C1.8,23.7 2.1,24.3 2.3,25 L5,23.8 C4.8,23.2 4.6,22.7 4.4,22.1 Z" style="stroke:none;fill-rule:evenodd;fill:#ffffff;fill-opacity:1;"/>
        </g>
        <g id="Shape11">
            <desc shapeID="11" type="0" basicInfo-basicType="0" basicInfo-roundedRectRadius="12" basicInfo-polygonSides="6" basicInfo-starPoints="5" bounding="rect(-14.5,-7.75,29,15.5)" text="" font-familyName="" font-pixelSize="20" font-bold="0" font-underline="0" font-alignment="1" strokeStyle="0" markerStart="0" markerEnd="0" shadowEnabled="0" shadowOffsetX="0" shadowOffsetY="2" shadowBlur="4" shadowOpacity="160" blurEnabled="0" blurRadius="4" transform="matrix(1,0,0,1,20.4,27.85)" pers-center="0,0" pers-size="0,0" pers-start="0,0" pers-end="0,0" locked="0" mesh="" flag=""/>
            <path id="shapePath11" d="M18,32.6 C14.1,32.6 10.5,30.9 7.9,28.2 L5.9,30.4 C9,33.6 13.2,35.6 18,35.6 C26.7,35.6 33.8,28.8 34.9,20.1 L32,20.1 C30.9,27.1 25,32.6 18,32.6 Z" style="stroke:none;fill-rule:evenodd;fill:#f38b00;fill-opacity:1;"/>
        </g>
        <g id="Shape12">
            <desc shapeID="12" type="0" basicInfo-basicType="0" basicInfo-roundedRectRadius="12" basicInfo-polygonSides="6" basicInfo-starPoints="5" bounding="rect(-13.05,-6.2,26.1,12.4)" text="" font-familyName="" font-pixelSize="20" font-bold="0" font-underline="0" font-alignment="1" strokeStyle="0" markerStart="0" markerEnd="0" shadowEnabled="0" shadowOffsetX="0" shadowOffsetY="2" shadowBlur="4" shadowOpacity="160" blurEnabled="0" blurRadius="4" transform="matrix(1,0,0,1,15.15,6.3)" pers-center="0,0" pers-size="0,0" pers-start="0,0" pers-end="0,0" locked="0" mesh="" flag=""/>
            <path id="shapePath12" d="M18,3.1 C21.1,3.1 24.1,4.2 26.4,6 L28.2,3.6 C25.3,1.4 21.8,0.1 18,0.1 C10.7,0.1 4.5,4.8 2.1,11.4 L4.8,12.5 C6.8,7 12,3.1 18,3.1 Z" style="stroke:none;fill-rule:evenodd;fill:#f38b00;fill-opacity:1;"/>
        </g>
        <g id="Shape13">
            <desc shapeID="13" type="0" basicInfo-basicType="0" basicInfo-roundedRectRadius="12" basicInfo-polygonSides="6" basicInfo-starPoints="5" bounding="rect(-2.45,-3.6,4.9,7.2)" text="" font-familyName="" font-pixelSize="20" font-bold="0" font-underline="0" font-alignment="1" strokeStyle="0" markerStart="0" markerEnd="0" shadowEnabled="0" shadowOffsetX="0" shadowOffsetY="2" shadowBlur="4" shadowOpacity="160" blurEnabled="0" blurRadius="4" transform="matrix(1,0,0,1,32.45,12)" pers-center="0,0" pers-size="0,0" pers-start="0,0" pers-end="0,0" locked="0" mesh="" flag=""/>
            <path id="shapePath13" d="M32,15.6 L34.9,15.6 C34.6,13 33.7,10.6 32.4,8.4 L30,10 C31,11.7 31.7,13.6 32,15.6 Z" style="stroke:none;fill-rule:evenodd;fill:#ffffff;fill-opacity:1;"/>
        </g>
        <g id="Shape14">
            <desc shapeID="14" type="0" basicInfo-basicType="0" basicInfo-roundedRectRadius="12" basicInfo-polygonSides="6" basicInfo-starPoints="5" bounding="rect(-4.85,-5.55,9.7,11.1)" text="" font-familyName="" font-pixelSize="20" font-bold="0" font-underline="0" font-alignment="1" strokeStyle="0" markerStart="0" markerEnd="0" shadowEnabled="0" shadowOffsetX="0" shadowOffsetY="2" shadowBlur="4" shadowOpacity="160" blurEnabled="0" blurRadius="4" transform="matrix(1,0,0,1,26.75,10.05)" pers-center="0,0" pers-size="0,0" pers-start="0,0" pers-end="0,0" locked="0" mesh="" flag=""/>
            <path id="shapePath14" d="M28.7,15.6 L31.6,15.6 C30.8,10.5 27.5,6.3 23,4.5 L21.9,7.3 C25.4,8.6 27.9,11.8 28.7,15.6 Z" style="stroke:none;fill-rule:evenodd;fill:#f38b00;fill-opacity:1;"/>
        </g>
        <g id="Shape15">
            <desc shapeID="15" type="0" basicInfo-basicType="0" basicInfo-roundedRectRadius="12" basicInfo-polygonSides="6" basicInfo-starPoints="5" bounding="rect(-6.45,-5.1,12.9,10.2)" text="" font-familyName="" font-pixelSize="20" font-bold="0" font-underline="0" font-alignment="1" strokeStyle="0" markerStart="0" markerEnd="0" shadowEnabled="0" shadowOffsetX="0" shadowOffsetY="2" shadowBlur="4" shadowOpacity="160" blurEnabled="0" blurRadius="4" transform="matrix(1,0,0,1,11.55,8.6)" pers-center="0,0" pers-size="0,0" pers-start="0,0" pers-end="0,0" locked="0" mesh="" flag=""/>
            <path id="shapePath15" d="M18,6.5 L18,3.5 C12.1,3.5 7.1,7.3 5.1,12.6 L7.8,13.7 C9.4,9.5 13.3,6.5 18,6.5 Z" style="stroke:none;fill-rule:evenodd;fill:#ffffff;fill-opacity:1;"/>
        </g>
        <g id="Shape16">
            <desc shapeID="16" type="0" basicInfo-basicType="0" basicInfo-roundedRectRadius="12" basicInfo-polygonSides="6" basicInfo-starPoints="5" bounding="rect(-4.9,-6.7,9.8,13.4)" text="" font-familyName="" font-pixelSize="20" font-bold="0" font-underline="0" font-alignment="1" strokeStyle="0" markerStart="0" markerEnd="0" shadowEnabled="0" shadowOffsetX="0" shadowOffsetY="2" shadowBlur="4" shadowOpacity="160" blurEnabled="0" blurRadius="4" transform="matrix(1,0,0,1,9,24.5)" pers-center="0,0" pers-size="0,0" pers-start="0,0" pers-end="0,0" locked="0" mesh="" flag=""/>
            <path id="shapePath16" d="M7,17.8 L4.1,17.8 C4.1,23.9 7.7,29 12.8,31.2 L13.9,28.4 C9.9,26.7 7,22.6 7,17.8 Z" style="stroke:none;fill-rule:evenodd;fill:#f38b00;fill-opacity:1;"/>
        </g>
        <g id="Shape17">
            <desc shapeID="17" type="0" basicInfo-basicType="0" basicInfo-roundedRectRadius="12" basicInfo-polygonSides="6" basicInfo-starPoints="5" bounding="rect(-6.8,-6.05,13.6,12.1)" text="" font-familyName="" font-pixelSize="20" font-bold="0" font-underline="0" font-alignment="1" strokeStyle="0" markerStart="0" markerEnd="0" shadowEnabled="0" shadowOffsetX="0" shadowOffsetY="2" shadowBlur="4" shadowOpacity="160" blurEnabled="0" blurRadius="4" transform="matrix(1,0,0,1,24.8,26.15)" pers-center="0,0" pers-size="0,0" pers-start="0,0" pers-end="0,0" locked="0" mesh="" flag=""/>
            <path id="shapePath17" d="M18,29.2 L18,32.2 C24.9,32.2 30.6,26.9 31.6,20.1 L28.7,20.1 C27.7,25.3 23.3,29.2 18,29.2 Z" style="stroke:none;fill-rule:evenodd;fill:#ffffff;fill-opacity:1;"/>
        </g>
    </g>
    <g id="Layer2" name="Layer 2" opacity="1">
        <g id="Shape18">
            <desc shapeID="18" type="2" basicInfo-basicType="0" basicInfo-roundedRectRadius="12" basicInfo-polygonSides="6" basicInfo-starPoints="5" bounding="rect(-49.5685,-4.63413,99.1374,9.26823)" text="STYLE GUIDE" font-familyName="Gotham" font-pixelSize="10" font-bold="0" font-underline="0" font-alignment="0" strokeStyle="0" markerStart="0" markerEnd="0" shadowEnabled="0" shadowOffsetX="0" shadowOffsetY="2" shadowBlur="4" shadowOpacity="160" blurEnabled="0" blurRadius="4" transform="matrix(1,0,0,1,91.4457,32.3212)" pers-center="0,0" pers-size="0,0" pers-start="0,0" pers-end="0,0" locked="0" mesh="" flag=""/>
            <path id="shapePath18" d="M45.2332,35.7962 C46.7032,35.7962 47.7332,35.0162 47.7332,33.7062 L47.7332,33.6862 C47.7332,32.5262 46.9732,31.9962 45.4932,31.6362 C44.1432,31.3162 43.8232,31.0762 43.8232,30.5362 L43.8232,30.5162 C43.8232,30.0562 44.2432,29.6862 44.9632,29.6862 C45.6032,29.6862 46.2332,29.9362 46.8632,30.4062 L47.5232,29.4762 C46.8132,28.9062 46.0032,28.5962 44.9832,28.5962 C43.5932,28.5962 42.5932,29.4262 42.5932,30.6262 L42.5932,30.6462 C42.5932,31.9362 43.4332,32.3762 44.9232,32.7362 C46.2232,33.0362 46.5032,33.3062 46.5032,33.8062 L46.5032,33.8262 C46.5032,34.3462 46.0232,34.7062 45.2632,34.7062 C44.4032,34.7062 43.7232,34.3762 43.0532,33.7962 L42.3132,34.6762 C43.1532,35.4262 44.1632,35.7962 45.2332,35.7962 M50.7532,35.6962 L51.9932,35.6962 L51.9932,29.8362 L54.2132,29.8362 L54.2132,28.6962 L48.5332,28.6962 L48.5332,29.8362 L50.7532,29.8362 L50.7532,35.6962 M57.562,35.6962 L58.802,35.6962 L58.802,32.9062 L61.582,28.6962 L60.172,28.6962 L58.192,31.7862 L56.242,28.6962 L54.782,28.6962 L57.562,32.9362 L57.562,35.6962 M62.6582,35.6962 L67.5682,35.6962 L67.5682,34.5762 L63.8882,34.5762 L63.8882,28.6962 L62.6582,28.6962 L62.6582,35.6962 M68.8457,35.6962 L74.0857,35.6962 L74.0857,34.5962 L70.0757,34.5962 L70.0757,32.7162 L73.5857,32.7162 L73.5857,31.6162 L70.0757,31.6162 L70.0757,29.7962 L74.0357,29.7962 L74.0357,28.6962 L68.8457,28.6962 L68.8457,35.6962 M81.8532,35.8162 C83.0932,35.8162 84.0832,35.3162 84.7732,34.7262 L84.7732,31.7862 L81.7932,31.7862 L81.7932,32.8562 L83.5832,32.8562 L83.5832,34.1662 C83.1532,34.4862 82.5532,34.6962 81.8932,34.6962 C80.4632,34.6962 79.5132,33.6362 79.5132,32.1962 L79.5132,32.1762 C79.5132,30.8362 80.4932,29.7062 81.7832,29.7062 C82.6732,29.7062 83.2032,29.9962 83.7432,30.4562 L84.5232,29.5262 C83.8032,28.9162 83.0532,28.5762 81.8332,28.5762 C79.7232,28.5762 78.2232,30.2362 78.2232,32.1962 L78.2232,32.2162 C78.2232,34.2562 79.6632,35.8162 81.8532,35.8162 M89.2313,35.8062 C91.0613,35.8062 92.2413,34.7562 92.2413,32.6662 L92.2413,28.6962 L91.0113,28.6962 L91.0113,32.7262 C91.0113,34.0162 90.3413,34.6662 89.2513,34.6662 C88.1513,34.6662 87.4813,33.9762 87.4813,32.6762 L87.4813,28.6962 L86.2513,28.6962 L86.2513,32.7262 C86.2513,34.7562 87.4113,35.8062 89.2313,35.8062 M93.9938,35.6962 L95.2238,35.6962 L95.2238,28.6962 L93.9938,28.6962 L93.9938,35.6962 M97.0801,35.6962 L99.6901,35.6962 C101.89,35.6962 103.41,34.1662 103.41,32.1962 L103.41,32.1762 C103.41,30.2062 101.89,28.6962 99.6901,28.6962 L97.0801,28.6962 L97.0801,35.6962 M99.6901,29.8162 C101.16,29.8162 102.12,30.8262 102.12,32.1962 L102.12,32.2162 C102.12,33.5862 101.16,34.5762 99.6901,34.5762 L98.3101,34.5762 L98.3101,29.8162 L99.6901,29.8162 M104.893,35.6962 L110.133,35.6962 L110.133,34.5962 L106.123,34.5962 L106.123,32.7162 L109.633,32.7162 L109.633,31.6162 L106.123,31.6162 L106.123,29.7962 L110.083,29.7962 L110.083,28.6962 L104.893,28.6962 L104.893,35.6962 Z" style="stroke:none;fill-rule:nonzero;fill:#f18a21;fill-opacity:1;"/>
        </g>
    </g>
</svg>
