<?xml version="1.0"?>
<svg version="1.1" xmlns="http://www.w3.org/2000/svg" xmlns:xlink="http://www.w3.org/1999/xlink" width="141" height="36">
    <desc iVinci="yes" version="4.6" gridStep="20" showGrid="no" snapToGrid="no" codePlatform="0"/>
    <g id="Layer1" name="Layer 1" opacity="1">
        <g id="Shape1">
            <desc shapeID="1" type="0" basicInfo-basicType="0" basicInfo-roundedRectRadius="12" basicInfo-polygonSides="6" basicInfo-starPoints="5" bounding="rect(-9.85,-11.45,19.7,22.9)" text="" font-familyName="" font-pixelSize="20" font-bold="0" font-underline="0" font-alignment="1" strokeStyle="0" markerStart="0" markerEnd="0" shadowEnabled="0" shadowOffsetX="0" shadowOffsetY="2" shadowBlur="4" shadowOpacity="160" blurEnabled="0" blurRadius="4" transform="matrix(1,0,0,1,49.65,13.55)" pers-center="0,0" pers-size="0,0" pers-start="0,0" pers-end="0,0" locked="0" mesh="" flag=""/>
            <path id="shapePath1" d="M39.8,13.6 L39.8,13.5 C39.8,7.2 44.4,2.1 50.9,2.1 C54.9,2.1 57.3,3.5 59.3,5.5 L56.3,9.1 C54.7,7.5 53,6.6 50.9,6.6 C47.3,6.6 44.7,9.7 44.7,13.5 C44.7,17.3 47.2,20.5 50.9,20.5 C53.3,20.5 54.8,19.5 56.5,17.9 L59.5,21 C57.3,23.5 54.8,25 50.7,25 C44.5,25 39.8,20 39.8,13.6 Z" style="stroke:none;fill-rule:evenodd;fill:#435363;fill-opacity:1;"/>
        </g>
        <g id="Shape2">
            <desc shapeID="2" type="0" basicInfo-basicType="0" basicInfo-roundedRectRadius="12" basicInfo-polygonSides="6" basicInfo-starPoints="5" bounding="rect(-9,-11.05,18,22.1)" text="" font-familyName="" font-pixelSize="20" font-bold="0" font-underline="0" font-alignment="1" strokeStyle="0" markerStart="0" markerEnd="0" shadowEnabled="0" shadowOffsetX="0" shadowOffsetY="2" shadowBlur="4" shadowOpacity="160" blurEnabled="0" blurRadius="4" transform="matrix(1,0,0,1,72.2,13.55)" pers-center="0,0" pers-size="0,0" pers-start="0,0" pers-end="0,0" locked="0" mesh="" flag=""/>
            <path id="shapePath2" d="M63.2,2.5 L67.9,2.5 L67.9,11.2 L76.5,11.2 L76.5,2.5 L81.2,2.5 L81.2,24.6 L76.5,24.6 L76.5,15.7 L67.9,15.7 L67.9,24.6 L63.2,24.6 L63.2,2.5 Z" style="stroke:none;fill-rule:evenodd;fill:#435363;fill-opacity:1;"/>
        </g>
        <g id="Shape3">
            <desc shapeID="3" type="0" basicInfo-basicType="0" basicInfo-roundedRectRadius="12" basicInfo-polygonSides="6" basicInfo-starPoints="5" bounding="rect(-8.15,-11.05,16.3,22.1)" text="" font-familyName="" font-pixelSize="20" font-bold="0" font-underline="0" font-alignment="1" strokeStyle="0" markerStart="0" markerEnd="0" shadowEnabled="0" shadowOffsetX="0" shadowOffsetY="2" shadowBlur="4" shadowOpacity="160" blurEnabled="0" blurRadius="4" transform="matrix(1,0,0,1,95.05,13.55)" pers-center="0,0" pers-size="0,0" pers-start="0,0" pers-end="0,0" locked="0" mesh="" flag=""/>
            <path id="shapePath3" d="M86.9,2.5 L103,2.5 L103,6.8 L91.6,6.8 L91.6,11.3 L101.6,11.3 L101.6,15.6 L91.6,15.6 L91.6,20.3 L103.2,20.3 L103.2,24.6 L86.9,24.6 L86.9,2.5 Z" style="stroke:none;fill-rule:evenodd;fill:#435363;fill-opacity:1;"/>
        </g>
        <g id="Shape4">
            <desc shapeID="4" type="0" basicInfo-basicType="0" basicInfo-roundedRectRadius="12" basicInfo-polygonSides="6" basicInfo-starPoints="5" bounding="rect(-8.15,-11.05,16.3,22.1)" text="" font-familyName="" font-pixelSize="20" font-bold="0" font-underline="0" font-alignment="1" strokeStyle="0" markerStart="0" markerEnd="0" shadowEnabled="0" shadowOffsetX="0" shadowOffsetY="2" shadowBlur="4" shadowOpacity="160" blurEnabled="0" blurRadius="4" transform="matrix(1,0,0,1,116.05,13.55)" pers-center="0,0" pers-size="0,0" pers-start="0,0" pers-end="0,0" locked="0" mesh="" flag=""/>
            <path id="shapePath4" d="M107.9,2.5 L124.2,2.5 L124.2,6.9 L112.6,6.9 L112.6,11.6 L122.8,11.6 L122.8,16 L112.6,16 L112.6,24.6 L107.9,24.6 L107.9,2.5 Z" style="stroke:none;fill-rule:evenodd;fill:#435363;fill-opacity:1;"/>
        </g>
        <g id="Shape5">
            <desc shapeID="5" type="0" basicInfo-basicType="0" basicInfo-roundedRectRadius="12" basicInfo-polygonSides="6" basicInfo-starPoints="5" bounding="rect(-10.45,-10.95,20.9,21.9)" text="" font-familyName="" font-pixelSize="20" font-bold="0" font-underline="0" font-alignment="1" strokeStyle="0" markerStart="0" markerEnd="0" shadowEnabled="0" shadowOffsetX="0" shadowOffsetY="2" shadowBlur="4" shadowOpacity="160" blurEnabled="0" blurRadius="4" transform="matrix(1,0,0,1,17.85,17.85)" pers-center="0,0" pers-size="0,0" pers-start="0,0" pers-end="0,0" locked="0" mesh="" flag=""/>
            <path id="shapePath5" d="M18,25.8 C13.7,25.8 10.3,22.2 10.3,17.8 C10.3,13.4 13.7,9.9 18,9.9 C21.5,9.9 24.4,12.3 25.3,15.6 L28.3,15.6 C27.3,10.6 23.1,6.9 18,6.9 C12.1,6.9 7.4,11.8 7.4,17.8 C7.4,23.9 12.1,28.8 18,28.8 C23.1,28.8 27.3,25.1 28.3,20.1 L25.3,20.1 C24.4,23.4 21.5,25.8 18,25.8 Z" style="stroke:none;fill-rule:evenodd;fill:#435363;fill-opacity:1;"/>
        </g>
        <g id="Shape6">
            <desc shapeID="6" type="0" basicInfo-basicType="0" basicInfo-roundedRectRadius="12" basicInfo-polygonSides="6" basicInfo-starPoints="5" bounding="rect(-2.6,-2.25,5.2,4.5)" text="" font-familyName="" font-pixelSize="20" font-bold="0" font-underline="0" font-alignment="1" strokeStyle="0" markerStart="0" markerEnd="0" shadowEnabled="0" shadowOffsetX="0" shadowOffsetY="2" shadowBlur="4" shadowOpacity="160" blurEnabled="0" blurRadius="4" transform="matrix(1,0,0,1,15.4,23.25)" pers-center="0,0" pers-size="0,0" pers-start="0,0" pers-end="0,0" locked="0" mesh="" flag=""/>
            <path id="shapePath6" d="M12.8,23.2 C14.1,24.6 15.9,25.5 18,25.5 L18,22.3 C16.8,22.3 15.7,21.8 14.9,21 L12.8,23.2 Z" style="stroke:none;fill-rule:evenodd;fill:#435363;fill-opacity:1;"/>
        </g>
        <g id="Shape7">
            <desc shapeID="7" type="0" basicInfo-basicType="0" basicInfo-roundedRectRadius="12" basicInfo-polygonSides="6" basicInfo-starPoints="5" bounding="rect(-3.7,-5.35,7.4,10.7)" text="" font-familyName="" font-pixelSize="20" font-bold="0" font-underline="0" font-alignment="1" strokeStyle="0" markerStart="0" markerEnd="0" shadowEnabled="0" shadowOffsetX="0" shadowOffsetY="2" shadowBlur="4" shadowOpacity="160" blurEnabled="0" blurRadius="4" transform="matrix(1,0,0,1,14.3,15.55)" pers-center="0,0" pers-size="0,0" pers-start="0,0" pers-end="0,0" locked="0" mesh="" flag=""/>
            <path id="shapePath7" d="M10.6,17.8 C10.6,18.9 10.9,20 11.2,20.9 L14.1,19.6 C13.8,19.1 13.7,18.5 13.7,17.8 C13.7,15.4 15.6,13.4 18,13.4 L18,10.2 C13.9,10.2 10.6,13.6 10.6,17.8 Z" style="stroke:none;fill-rule:evenodd;fill:#f38b00;fill-opacity:1;"/>
        </g>
        <g id="Shape8">
            <desc shapeID="8" type="0" basicInfo-basicType="0" basicInfo-roundedRectRadius="12" basicInfo-polygonSides="6" basicInfo-starPoints="5" bounding="rect(-2.75,-2.45,5.5,4.9)" text="" font-familyName="" font-pixelSize="20" font-bold="0" font-underline="0" font-alignment="1" strokeStyle="0" markerStart="0" markerEnd="0" shadowEnabled="0" shadowOffsetX="0" shadowOffsetY="2" shadowBlur="4" shadowOpacity="160" blurEnabled="0" blurRadius="4" transform="matrix(1,0,0,1,22.25,13.15)" pers-center="0,0" pers-size="0,0" pers-start="0,0" pers-end="0,0" locked="0" mesh="" flag=""/>
            <path id="shapePath8" d="M20.6,10.7 L19.5,13.7 C20.4,14.1 21.2,14.8 21.7,15.6 L25,15.6 C24.3,13.4 22.7,11.6 20.6,10.7 Z" style="stroke:none;fill-rule:evenodd;fill:#435363;fill-opacity:1;"/>
        </g>
        <g id="Shape9">
            <desc shapeID="9" type="0" basicInfo-basicType="0" basicInfo-roundedRectRadius="12" basicInfo-polygonSides="6" basicInfo-starPoints="5" bounding="rect(-2.75,-2.4,5.5,4.8)" text="" font-familyName="" font-pixelSize="20" font-bold="0" font-underline="0" font-alignment="1" strokeStyle="0" markerStart="0" markerEnd="0" shadowEnabled="0" shadowOffsetX="0" shadowOffsetY="2" shadowBlur="4" shadowOpacity="160" blurEnabled="0" blurRadius="4" transform="matrix(1,0,0,1,22.25,22.5)" pers-center="0,0" pers-size="0,0" pers-start="0,0" pers-end="0,0" locked="0" mesh="" flag=""/>
            <path id="shapePath9" d="M19.5,22 L20.6,24.9 C22.7,24.1 24.3,22.3 25,20.1 L21.7,20.1 C21.2,20.9 20.4,21.6 19.5,22 Z" style="stroke:none;fill-rule:evenodd;fill:#f38b00;fill-opacity:1;"/>
        </g>
        <g id="Shape10">
            <desc shapeID="10" type="0" basicInfo-basicType="0" basicInfo-roundedRectRadius="12" basicInfo-polygonSides="6" basicInfo-starPoints="5" bounding="rect(-2.05,-3.6,4.1,7.2)" text="" font-familyName="" font-pixelSize="20" font-bold="0" font-underline="0" font-alignment="1" strokeStyle="0" markerStart="0" markerEnd="0" shadowEnabled="0" shadowOffsetX="0" shadowOffsetY="2" shadowBlur="4" shadowOpacity="160" blurEnabled="0" blurRadius="4" transform="matrix(1,0,0,1,2.95,21.4)" pers-center="0,0" pers-size="0,0" pers-start="0,0" pers-end="0,0" locked="0" mesh="" flag=""/>
            <path id="shapePath10" d="M4.4,22.1 C4.3,21.9 4.3,21.8 4.3,21.6 C4.2,21.4 4.2,21.3 4.1,21.1 C4.1,21.1 4.1,21 4.1,21 C4.1,20.9 4.1,20.7 4,20.6 C4,20.5 4,20.5 4,20.4 C4,20.3 4,20.2 4,20.1 C3.9,20 3.9,19.9 3.9,19.8 C3.8,19.2 3.8,18.5 3.8,17.8 L0.9,17.8 C0.9,18.6 0.9,19.3 1,20 C1,20.2 1.1,20.4 1.1,20.6 C1.1,20.6 1.1,20.7 1.1,20.7 C1.1,20.9 1.2,21.1 1.2,21.2 C1.2,21.3 1.2,21.4 1.3,21.5 C1.3,21.6 1.3,21.7 1.3,21.8 C1.4,21.9 1.4,22 1.4,22.2 C1.4,22.2 1.5,22.3 1.5,22.4 C1.5,22.6 1.5,22.7 1.6,22.8 C1.6,22.9 1.6,22.9 1.6,23 C1.8,23.7 2.1,24.3 2.3,25 L5,23.8 C4.8,23.2 4.6,22.7 4.4,22.1 Z" style="stroke:none;fill-rule:evenodd;fill:#435363;fill-opacity:1;"/>
        </g>
        <g id="Shape11">
            <desc shapeID="11" type="0" basicInfo-basicType="0" basicInfo-roundedRectRadius="12" basicInfo-polygonSides="6" basicInfo-starPoints="5" bounding="rect(-14.5,-7.75,29,15.5)" text="" font-familyName="" font-pixelSize="20" font-bold="0" font-underline="0" font-alignment="1" strokeStyle="0" markerStart="0" markerEnd="0" shadowEnabled="0" shadowOffsetX="0" shadowOffsetY="2" shadowBlur="4" shadowOpacity="160" blurEnabled="0" blurRadius="4" transform="matrix(1,0,0,1,20.4,27.85)" pers-center="0,0" pers-size="0,0" pers-start="0,0" pers-end="0,0" locked="0" mesh="" flag=""/>
            <path id="shapePath11" d="M18,32.6 C14.1,32.6 10.5,30.9 7.9,28.2 L5.9,30.4 C9,33.6 13.2,35.6 18,35.6 C26.7,35.6 33.8,28.8 34.9,20.1 L32,20.1 C30.9,27.1 25,32.6 18,32.6 Z" style="stroke:none;fill-rule:evenodd;fill:#f38b00;fill-opacity:1;"/>
        </g>
        <g id="Shape12">
            <desc shapeID="12" type="0" basicInfo-basicType="0" basicInfo-roundedRectRadius="12" basicInfo-polygonSides="6" basicInfo-starPoints="5" bounding="rect(-13.05,-6.2,26.1,12.4)" text="" font-familyName="" font-pixelSize="20" font-bold="0" font-underline="0" font-alignment="1" strokeStyle="0" markerStart="0" markerEnd="0" shadowEnabled="0" shadowOffsetX="0" shadowOffsetY="2" shadowBlur="4" shadowOpacity="160" blurEnabled="0" blurRadius="4" transform="matrix(1,0,0,1,15.15,6.3)" pers-center="0,0" pers-size="0,0" pers-start="0,0" pers-end="0,0" locked="0" mesh="" flag=""/>
            <path id="shapePath12" d="M18,3.1 C21.1,3.1 24.1,4.2 26.4,6 L28.2,3.6 C25.3,1.4 21.8,0.1 18,0.1 C10.7,0.1 4.5,4.8 2.1,11.4 L4.8,12.5 C6.8,7 12,3.1 18,3.1 Z" style="stroke:none;fill-rule:evenodd;fill:#f38b00;fill-opacity:1;"/>
        </g>
        <g id="Shape13">
            <desc shapeID="13" type="0" basicInfo-basicType="0" basicInfo-roundedRectRadius="12" basicInfo-polygonSides="6" basicInfo-starPoints="5" bounding="rect(-2.45,-3.6,4.9,7.2)" text="" font-familyName="" font-pixelSize="20" font-bold="0" font-underline="0" font-alignment="1" strokeStyle="0" markerStart="0" markerEnd="0" shadowEnabled="0" shadowOffsetX="0" shadowOffsetY="2" shadowBlur="4" shadowOpacity="160" blurEnabled="0" blurRadius="4" transform="matrix(1,0,0,1,32.45,12)" pers-center="0,0" pers-size="0,0" pers-start="0,0" pers-end="0,0" locked="0" mesh="" flag=""/>
            <path id="shapePath13" d="M32,15.6 L34.9,15.6 C34.6,13 33.7,10.6 32.4,8.4 L30,10 C31,11.7 31.7,13.6 32,15.6 Z" style="stroke:none;fill-rule:evenodd;fill:#435363;fill-opacity:1;"/>
        </g>
        <g id="Shape14">
            <desc shapeID="14" type="0" basicInfo-basicType="0" basicInfo-roundedRectRadius="12" basicInfo-polygonSides="6" basicInfo-starPoints="5" bounding="rect(-4.85,-5.55,9.7,11.1)" text="" font-familyName="" font-pixelSize="20" font-bold="0" font-underline="0" font-alignment="1" strokeStyle="0" markerStart="0" markerEnd="0" shadowEnabled="0" shadowOffsetX="0" shadowOffsetY="2" shadowBlur="4" shadowOpacity="160" blurEnabled="0" blurRadius="4" transform="matrix(1,0,0,1,26.75,10.05)" pers-center="0,0" pers-size="0,0" pers-start="0,0" pers-end="0,0" locked="0" mesh="" flag=""/>
            <path id="shapePath14" d="M28.7,15.6 L31.6,15.6 C30.8,10.5 27.5,6.3 23,4.5 L21.9,7.3 C25.4,8.6 27.9,11.8 28.7,15.6 Z" style="stroke:none;fill-rule:evenodd;fill:#f38b00;fill-opacity:1;"/>
        </g>
        <g id="Shape15">
            <desc shapeID="15" type="0" basicInfo-basicType="0" basicInfo-roundedRectRadius="12" basicInfo-polygonSides="6" basicInfo-starPoints="5" bounding="rect(-6.45,-5.1,12.9,10.2)" text="" font-familyName="" font-pixelSize="20" font-bold="0" font-underline="0" font-alignment="1" strokeStyle="0" markerStart="0" markerEnd="0" shadowEnabled="0" shadowOffsetX="0" shadowOffsetY="2" shadowBlur="4" shadowOpacity="160" blurEnabled="0" blurRadius="4" transform="matrix(1,0,0,1,11.55,8.6)" pers-center="0,0" pers-size="0,0" pers-start="0,0" pers-end="0,0" locked="0" mesh="" flag=""/>
            <path id="shapePath15" d="M18,6.5 L18,3.5 C12.1,3.5 7.1,7.3 5.1,12.6 L7.8,13.7 C9.4,9.5 13.3,6.5 18,6.5 Z" style="stroke:none;fill-rule:evenodd;fill:#435363;fill-opacity:1;"/>
        </g>
        <g id="Shape16">
            <desc shapeID="16" type="0" basicInfo-basicType="0" basicInfo-roundedRectRadius="12" basicInfo-polygonSides="6" basicInfo-starPoints="5" bounding="rect(-4.9,-6.7,9.8,13.4)" text="" font-familyName="" font-pixelSize="20" font-bold="0" font-underline="0" font-alignment="1" strokeStyle="0" markerStart="0" markerEnd="0" shadowEnabled="0" shadowOffsetX="0" shadowOffsetY="2" shadowBlur="4" shadowOpacity="160" blurEnabled="0" blurRadius="4" transform="matrix(1,0,0,1,9,24.5)" pers-center="0,0" pers-size="0,0" pers-start="0,0" pers-end="0,0" locked="0" mesh="" flag=""/>
            <path id="shapePath16" d="M7,17.8 L4.1,17.8 C4.1,23.9 7.7,29 12.8,31.2 L13.9,28.4 C9.9,26.7 7,22.6 7,17.8 Z" style="stroke:none;fill-rule:evenodd;fill:#f38b00;fill-opacity:1;"/>
        </g>
        <g id="Shape17">
            <desc shapeID="17" type="0" basicInfo-basicType="0" basicInfo-roundedRectRadius="12" basicInfo-polygonSides="6" basicInfo-starPoints="5" bounding="rect(-6.8,-6.05,13.6,12.1)" text="" font-familyName="" font-pixelSize="20" font-bold="0" font-underline="0" font-alignment="1" strokeStyle="0" markerStart="0" markerEnd="0" shadowEnabled="0" shadowOffsetX="0" shadowOffsetY="2" shadowBlur="4" shadowOpacity="160" blurEnabled="0" blurRadius="4" transform="matrix(1,0,0,1,24.8,26.15)" pers-center="0,0" pers-size="0,0" pers-start="0,0" pers-end="0,0" locked="0" mesh="" flag=""/>
            <path id="shapePath17" d="M18,29.2 L18,32.2 C24.9,32.2 30.6,26.9 31.6,20.1 L28.7,20.1 C27.7,25.3 23.3,29.2 18,29.2 Z" style="stroke:none;fill-rule:evenodd;fill:#435363;fill-opacity:1;"/>
        </g>
    </g>
    <g id="Layer2" name="Layer 2" opacity="1">
        <g id="Shape18">
            <desc shapeID="18" type="2" basicInfo-basicType="0" basicInfo-roundedRectRadius="12" basicInfo-polygonSides="6" basicInfo-starPoints="5" bounding="rect(-49.5685,-4.63413,99.1374,9.26823)" text="EXAMPLE" font-familyName="Gotham" font-pixelSize="10" font-bold="0" font-underline="0" font-alignment="0" strokeStyle="0" markerStart="0" markerEnd="0" shadowEnabled="0" shadowOffsetX="0" shadowOffsetY="2" shadowBlur="4" shadowOpacity="160" blurEnabled="0" blurRadius="4" transform="matrix(1,0,0,1,91.4457,32.3212)" pers-center="0,0" pers-size="0,0" pers-start="0,0" pers-end="0,0" locked="0" mesh="" flag=""/>
            <path id="shapePath18" d="M42.7832,35.6962 L48.0232,35.6962 L48.0232,34.5962 L44.0132,34.5962 L44.0132,32.7162 L47.5232,32.7162 L47.5232,31.6162 L44.0132,31.6162 L44.0132,29.7962 L47.9732,29.7962 L47.9732,28.6962 L42.7832,28.6962 L42.7832,35.6962 M53.9807,28.6962 L52.2307,31.2362 L50.4907,28.6962 L49.0407,28.6962 L51.4707,32.1362 L48.9407,35.6962 L50.3507,35.6962 L52.1907,33.0262 L54.0407,35.6962 L55.4907,35.6962 L52.9507,32.1162 L55.3907,28.6962 L53.9807,28.6962 M56.0113,35.6962 L57.2714,35.6962 L57.9913,34.0062 L61.3013,34.0062 L62.0113,35.6962 L63.3113,35.6962 L60.2313,28.6462 L59.0914,28.6462 L56.0113,35.6962 M58.4413,32.9162 L59.6413,30.1162 L60.8513,32.9162 L58.4413,32.9162 M64.502,35.6962 L65.712,35.6962 L65.712,30.6962 L67.902,33.9762 L67.942,33.9762 L70.152,30.6762 L70.152,35.6962 L71.382,35.6962 L71.382,28.6962 L70.072,28.6962 L67.942,32.0062 L65.812,28.6962 L64.502,28.6962 L64.502,35.6962 M73.1739,35.6962 L74.4038,35.6962 L74.4038,33.4462 L75.7939,33.4462 C77.3338,33.4462 78.5938,32.6262 78.5938,31.0562 L78.5938,31.0362 C78.5938,29.6262 77.5739,28.6962 75.9339,28.6962 L73.1739,28.6962 L73.1739,35.6962 M74.4038,32.3362 L74.4038,29.8162 L75.8338,29.8162 C76.7538,29.8162 77.3438,30.2462 77.3438,31.0662 L77.3438,31.0862 C77.3438,31.8162 76.7638,32.3362 75.8338,32.3362 L74.4038,32.3362 M79.8457,35.6962 L84.7557,35.6962 L84.7557,34.5762 L81.0757,34.5762 L81.0757,28.6962 L79.8457,28.6962 L79.8457,35.6962 M86.0332,35.6962 L91.2732,35.6962 L91.2732,34.5962 L87.2632,34.5962 L87.2632,32.7162 L90.7732,32.7162 L90.7732,31.6162 L87.2632,31.6162 L87.2632,29.7962 L91.2232,29.7962 L91.2232,28.6962 L86.0332,28.6962 L86.0332,35.6962 Z" style="stroke:none;fill-rule:nonzero;fill:#f18a21;fill-opacity:1;"/>
        </g>
    </g>
</svg>
