<?xml version="1.0" encoding="utf-8"?>
<!-- Generator: Adobe Illustrator 18.1.1, SVG Export Plug-In . SVG Version: 6.00 Build 0)  -->
<svg version="1.1" id="Layer_1" xmlns="http://www.w3.org/2000/svg" xmlns:xlink="http://www.w3.org/1999/xlink" x="0px" y="0px"
	 viewBox="0 0 1600 1600" enable-background="new 0 0 1600 1600" xml:space="preserve">
<g>
	<g>
		<path fill="#404447" d="M811.7,1055.7c-142.1,0-257.9-115.8-257.9-257.9s115.8-257.9,257.9-257.9c117.2,0,216.8,79.1,247.6,186.1
			h99.6c-33.7-161.2-175.8-282.8-347.3-282.8c-194.9,0-354.6,159.7-354.6,354.6s159.7,354.6,354.6,354.6
			c171.4,0,313.6-121.6,347.3-282.8h-99.6C1028.6,978,928.9,1055.7,811.7,1055.7"/>
		<path fill="#404447" d="M638.8,972.2c44,44,105.5,71.8,174.4,71.8V941.4c-39.6,0-74.7-16.1-101.1-42.5L638.8,972.2z"/>
		<path fill="#404447" d="M565.6,797.8c0,35.2,7.3,68.9,20.5,99.6l93.8-41c-7.3-17.6-11.7-36.6-11.7-57.1
			c0-79.1,64.5-143.6,143.6-143.6V553.1C676.9,553.1,565.6,663,565.6,797.8"/>
		<path fill="#404447" d="M901.1,569.2l-36.6,95.2c30.8,11.7,55.7,33.7,71.8,61.5h111.4C1025.6,654.2,971.4,597.1,901.1,569.2"/>
		<path fill="#404447" d="M864.5,931.1l36.6,95.2c70.3-27.8,124.5-85,146.5-158.2H936.3C920.1,897.4,893.8,919.4,864.5,931.1"/>
		<path fill="#404447" d="M357.5,935.5c-1.5-5.9-2.9-10.3-4.4-16.1c0,0,0,0,0-1.5c-1.5-4.4-2.9-10.3-4.4-14.7c0-1.5,0-1.5,0-2.9
			c-1.5-4.4-1.5-8.8-2.9-13.2c0-1.5,0-4.4-1.5-5.9c0-2.9-1.5-7.3-1.5-10.3s-1.5-5.9-1.5-8.8c-2.9-20.5-4.4-42.5-4.4-63h-96.7
			c0,23.4,1.5,46.9,4.4,68.9l0,0v1.5c1.5,5.9,1.5,11.7,2.9,19c0,1.5,0,2.9,1.5,4.4c1.5,4.4,1.5,10.3,2.9,14.7c0,2.9,1.5,5.9,1.5,7.3
			c1.5,4.4,1.5,7.3,2.9,11.7c1.5,2.9,1.5,7.3,2.9,10.3s1.5,5.9,2.9,8.8c1.5,4.4,2.9,8.8,2.9,11.7c0,1.5,1.5,2.9,1.5,4.4l0,0
			c7.3,22,14.7,44,23.4,64.5l89.4-39.6C369.2,972.2,363.4,954.6,357.5,935.5z"/>
		<path fill="#404447" d="M811.7,1274c-130.4,0-250.5-52.7-335.5-139.2l-68.9,68.9c104,104,246.2,167,404.4,167
			c291.6,0,533.3-218.3,568.5-501.1h-98.2C1246.9,1098.2,1050.5,1274,811.7,1274"/>
		<path fill="#404447" d="M811.7,323.1c107,0,205.1,35.2,284.2,95.2l58.6-77.7c-95.2-71.8-213.9-114.3-342.9-114.3
			c-243.2,0-449.8,150.9-533.3,364.8l90.8,35.2C438.1,449.1,611,323.1,811.7,323.1"/>
		<path fill="#404447" d="M1282.1,727.5h98.2c-10.3-83.5-39.6-162.6-82.1-231.5l-82.1,51.3C1248.4,600,1271.8,661.5,1282.1,727.5"/>
		<path fill="#404447" d="M1172.2,727.5h98.2C1244,561.9,1131.1,425.6,980.2,367l-35.2,90.8C1059.3,501.8,1147.3,602.9,1172.2,727.5
			"/>
		<path fill="#404447" d="M811.7,431.5L811.7,431.5v-96.7l0,0c-196.3,0-363.4,123.1-430.8,296l90.8,35.2
			C524.5,529.7,656.4,431.5,811.7,431.5"/>
		<path fill="#404447" d="M445.4,797.8L445.4,797.8h-96.7l0,0c0,194.9,120.1,361.9,291.6,430.8l36.6-89.4
			C540.7,1085,445.4,953.1,445.4,797.8"/>
		<path fill="#404447" d="M811.7,1165.6v96.7c231.5,0,423.4-170,457.1-391.2h-96.7C1138.5,1038.1,990.5,1165.6,811.7,1165.6"/>
	</g>
	<path fill="#404447" d="M1572.7,1569H27.3V31h1545.4V1569z M31.3,1565h1537.4V35H31.3V1565z"/>
</g>
</svg>
