<?xml version="1.0" encoding="utf-8"?>
<!-- Generator: Adobe Illustrator 18.1.1, SVG Export Plug-In . SVG Version: 6.00 Build 0)  -->
<svg version="1.1" id="Layer_1" xmlns="http://www.w3.org/2000/svg" xmlns:xlink="http://www.w3.org/1999/xlink" x="0px" y="0px"
	 viewBox="0 0 93 61.5" enable-background="new 0 0 93 61.5" xml:space="preserve">
<g>
	<g>
		<g>
			<path fill="#404447" d="M86.3,61.5H44c-3.7,0-6.6-3-6.6-6.6c0-3.7,3-6.6,6.6-6.6h42.3c3.7,0,6.6,3,6.6,6.6
				C93,58.5,90,61.5,86.3,61.5L86.3,61.5z"/>
		</g>
	</g>
	<g>
		<g>
			<path fill="#404447" d="M6.6,61.5c-1.7,0-3.4-0.6-4.7-1.9c-2.6-2.6-2.6-6.8,0-9.4l19.4-19.4L1.9,11.3c-2.6-2.6-2.6-6.8,0-9.4
				c2.6-2.6,6.8-2.6,9.4,0l24.1,24.1c2.6,2.6,2.6,6.8,0,9.4L11.3,59.5C10,60.8,8.3,61.5,6.6,61.5L6.6,61.5z"/>
		</g>
	</g>
</g>
</svg>
