<?xml version="1.0" encoding="utf-8"?>
<!-- Generator: Adobe Illustrator 18.1.1, SVG Export Plug-In . SVG Version: 6.00 Build 0)  -->
<svg version="1.1" id="Layer_1" xmlns="http://www.w3.org/2000/svg" xmlns:xlink="http://www.w3.org/1999/xlink" x="0px" y="0px"
	 viewBox="0 0 600 600" enable-background="new 0 0 600 600" xml:space="preserve">
<g>
	<g>
		<g>
			<path fill="#404447" d="M301.1,371.3c-3.9,0-7.9-1.1-11.8-2.8L12.4,212.9C4.5,208.9,0,201,0,192.6c0-8.5,4.5-16.4,12.4-20.9
				L287.6,17.2c7.3-3.9,16.4-3.9,23.1,0l276.9,155.1c7.3,3.9,12.4,12.4,12.4,20.9s-4.5,16.4-12.4,20.9L312.4,368.5
				C309,370.2,305.1,371.3,301.1,371.3L301.1,371.3z M72.7,192.6l228.4,128l226.7-126.9l-228.9-128L72.7,192.6L72.7,192.6z"/>
		</g>
		<g>
			<path fill="#404447" d="M301.1,478.5c-3.9,0-7.9-1.1-11.8-2.8L12.4,320c-11.3-6.2-15.8-20.9-9-32.1c6.2-11.3,20.9-15.8,32.1-9
				l265.6,148.9L564.5,280c11.3-6.2,25.9-2.3,32.1,9s2.3,25.9-9,32.1L312.4,475.7C309,477.3,305.1,478.5,301.1,478.5L301.1,478.5z"
				/>
		</g>
		<g>
			<path fill="#404447" d="M301.1,585.6c-3.9,0-7.9-1.1-11.8-2.8L12.4,427.2C1.1,421-3.4,406.3,3.4,395c6.2-11.3,20.9-15.8,32.1-9
				l265.6,148.9l263.3-147.7c11.3-6.2,25.9-2.3,32.1,9s2.3,25.9-9,32.1L312.4,582.2C309,584.5,305.1,585.6,301.1,585.6L301.1,585.6z
				"/>
		</g>
	</g>
	<g>
		<g>
			<path fill="#404447" d="M298.3,249.5c-29.9,0-54.7-24.2-54.7-54.7c0-29.9,24.2-54.7,54.7-54.7c29.9,0,54.7,24.2,54.7,54.7
				C353,225.3,328.8,249.5,298.3,249.5L298.3,249.5z M298.3,158.7c-20.3,0-36.1,16.4-36.1,36.1c0,20.3,16.4,36.1,36.1,36.1
				c20.3,0,36.1-16.4,36.1-36.1C335,175.1,318.6,158.7,298.3,158.7L298.3,158.7z"/>
		</g>
		<g>
			<g>
				<path fill="#404447" d="M264.5,170c-2.3,0-4.5-1.1-6.2-2.8l-12.4-12.4c-3.4-3.4-3.4-9,0-13c3.4-3.4,9-3.4,13,0l12.4,12.4
					c3.4,3.4,3.4,9,0,13C269,168.9,266.7,170,264.5,170L264.5,170z"/>
			</g>
			<g>
				<path fill="#404447" d="M345.7,251.2c-2.3,0-4.5-1.1-6.2-2.8l-14.7-14.7c-3.4-3.4-3.4-9,0-13c3.4-3.4,9-3.4,13,0l14.7,14.7
					c3.4,3.4,3.4,9,0,13C350.2,250.1,347.9,251.2,345.7,251.2L345.7,251.2z"/>
			</g>
		</g>
		<g>
			<g>
				<path fill="#404447" d="M332.7,170c-2.3,0-4.5-1.1-6.2-2.8c-3.4-3.4-3.4-9,0-13l12.4-12.4c3.4-3.4,9-3.4,13,0
					c3.4,3.4,3.4,9,0,13l-12.4,12.4C337.2,168.9,335,170,332.7,170L332.7,170z"/>
			</g>
			<g>
				<path fill="#404447" d="M251.5,251.2c-2.3,0-4.5-1.1-6.2-2.8c-3.4-3.4-3.4-9,0-13l15.2-14.7c3.4-3.4,9-3.4,13,0
					c3.4,3.4,3.4,9,0,13l-15.2,14.7C256,250.1,253.8,251.2,251.5,251.2L251.5,251.2z"/>
			</g>
		</g>
		<g>
			<g>
				<path fill="#404447" d="M298.3,155.9c-5.1,0-9-3.9-9-9v-18c0-5.1,3.9-9,9-9s9,3.9,9,9v18C307.9,152,303.4,155.9,298.3,155.9
					L298.3,155.9z"/>
			</g>
			<g>
				<path fill="#404447" d="M298.3,270.4L298.3,270.4c-5.1,0-9-3.9-9-9v-20.9c0-5.1,3.9-9,9-9l0,0c5.1,0,9,3.9,9,9v20.9
					C307.3,266.4,303.4,270.4,298.3,270.4L298.3,270.4z"/>
			</g>
		</g>
		<g>
			<g>
				<path fill="#404447" d="M364.8,204.4h-18c-5.1,0-9-3.9-9-9s3.9-9,9-9h18c5.1,0,9,3.9,9,9C373.9,200.5,369.9,204.4,364.8,204.4
					L364.8,204.4z"/>
			</g>
			<g>
				<path fill="#404447" d="M253.2,204.4h-20.9c-5.1,0-9-3.9-9-9s3.9-9,9-9h20.9c5.1,0,9,3.9,9,9S258.3,204.4,253.2,204.4
					L253.2,204.4z"/>
			</g>
		</g>
	</g>
</g>
</svg>
