<?xml version="1.0" encoding="utf-8"?>
<!-- Generator: Adobe Illustrator 18.1.1, SVG Export Plug-In . SVG Version: 6.00 Build 0)  -->
<svg version="1.1" id="Layer_1" xmlns="http://www.w3.org/2000/svg" xmlns:xlink="http://www.w3.org/1999/xlink" x="0px" y="0px"
	 viewBox="0 0 96.4 96.4" enable-background="new 0 0 96.4 96.4" xml:space="preserve">
<g>
	<g>
		<path fill="#404447" d="M92.3,96.4H4c-2.2,0-4-1.8-4-4V4c0-2.2,1.8-4,4-4h88.3c2.2,0,4,1.8,4,4v88.3
			C96.4,94.5,94.5,96.4,92.3,96.4L92.3,96.4z M8.1,88.3h80.2V8.1H8.1V88.3L8.1,88.3z"/>
	</g>
	<g>
		<path fill="#404447" d="M76.3,39.4H60.7c-2.2,0-4-1.8-4-4c0-2.2,1.8-4,4-4h15.6c2.2,0,4,1.8,4,4C80.4,37.6,78.6,39.4,76.3,39.4
			L76.3,39.4z"/>
	</g>
	<g>
		<path fill="#404447" d="M33.9,39.4h-13c-2.2,0-4-1.8-4-4c0-2.2,1.8-4,4-4h13c2.2,0,4,1.8,4,4C37.9,37.6,36.1,39.4,33.9,39.4
			L33.9,39.4z"/>
	</g>
	<g>
		<path fill="#404447" d="M33.9,69.1h-13c-2.2,0-4-1.8-4-4c0-2.2,1.8-4,4-4h13c2.2,0,4,1.8,4,4C37.9,67.3,36.1,69.1,33.9,69.1
			L33.9,69.1z"/>
	</g>
	<g>
		<path fill="#404447" d="M48.5,46.2H35c-2.2,0-4-1.8-4-4V28.6c0-2.2,1.8-4,4-4h13.5c2.2,0,4,1.8,4,4v13.5
			C52.6,44.4,50.7,46.2,48.5,46.2L48.5,46.2z M39.1,38.1h5.4v-5.4h-5.4V38.1L39.1,38.1z"/>
	</g>
	<g>
		<path fill="#404447" d="M76.3,69.1H60.7c-2.2,0-4-1.8-4-4c0-2.2,1.8-4,4-4h15.6c2.2,0,4,1.8,4,4C80.4,67.3,78.6,69.1,76.3,69.1
			L76.3,69.1z"/>
	</g>
	<g>
		<path fill="#404447" d="M48.5,75.8H35c-2.2,0-4-1.8-4-4V58.3c0-2.2,1.8-4,4-4h13.5c2.2,0,4,1.8,4,4v13.5
			C52.6,74,50.7,75.8,48.5,75.8L48.5,75.8z M39.1,67.7h5.4v-5.4h-5.4V67.7L39.1,67.7z"/>
	</g>
	<g>
		<path fill="#404447" d="M18.9,69.1c-2.2,0-4-1.8-4-4V18.3c0-2.2,1.8-4,4-4c2.2,0,4,1.8,4,4V65C22.9,67.3,21.1,69.1,18.9,69.1
			L18.9,69.1z"/>
	</g>
</g>
</svg>
