<?xml version="1.0" encoding="utf-8"?>
<!-- Generator: Adobe Illustrator 18.1.1, SVG Export Plug-In . SVG Version: 6.00 Build 0)  -->
<svg version="1.1" id="Layer_1" xmlns="http://www.w3.org/2000/svg" xmlns:xlink="http://www.w3.org/1999/xlink" x="0px" y="0px"
	 viewBox="0 0 94.2 92.7" enable-background="new 0 0 94.2 92.7" xml:space="preserve">
<g>
	<g>
		<path fill="#404447" d="M90.2,92.7H4c-2.2,0-4-1.8-4-4V4c0-2.2,1.8-4,4-4h86.3c2.2,0,4,1.8,4,4v84.7
			C94.2,90.9,92.4,92.7,90.2,92.7L90.2,92.7z M7.9,84.7h78.3V7.9H7.9V84.7L7.9,84.7z"/>
	</g>
	<g>
		<g>
			<g>
				<path fill="#404447" d="M31.5,58.2c-0.3,0-0.6-0.1-0.8-0.2c-0.4-0.3-0.6-0.7-0.6-1.2V29c0-0.6,0.4-1.1,0.9-1.3l15.7-5.9
					c0.4-0.2,0.9-0.1,1.3,0.2c0.4,0.3,0.6,0.7,0.6,1.2v27.8c0,0.6-0.4,1.1-0.9,1.3L32,58.1C31.8,58.2,31.7,58.2,31.5,58.2L31.5,58.2
					z M32.9,30v24.8l12.9-4.9V25.1L32.9,30L32.9,30z"/>
			</g>
			<g>
				<path fill="#404447" d="M34.7,35.8c-0.3,0-0.6-0.2-0.7-0.5c-0.1-0.4,0-0.8,0.4-0.9l9.4-3.5c0.4-0.1,0.8,0,0.9,0.4
					c0.1,0.4,0,0.8-0.4,0.9L35,35.7C34.9,35.8,34.8,35.8,34.7,35.8L34.7,35.8z"/>
			</g>
			<g>
				<path fill="#404447" d="M34.7,44.8c-0.3,0-0.6-0.2-0.7-0.5c-0.1-0.4,0-0.8,0.4-0.9l9.4-3.5c0.4-0.1,0.8,0,0.9,0.4
					c0.1,0.4,0,0.8-0.4,0.9L35,44.8C34.9,44.8,34.8,44.8,34.7,44.8L34.7,44.8z"/>
			</g>
			<g>
				<path fill="#404447" d="M34.7,49.3c-0.3,0-0.6-0.2-0.7-0.5c-0.1-0.4,0-0.8,0.4-0.9l9.4-3.5c0.4-0.1,0.8,0,0.9,0.4
					c0.1,0.4,0,0.8-0.4,0.9L35,49.3C34.9,49.3,34.8,49.3,34.7,49.3L34.7,49.3z"/>
			</g>
			<g>
				<path fill="#404447" d="M34.7,40.3c-0.3,0-0.6-0.2-0.7-0.5c-0.1-0.4,0-0.8,0.4-0.9l9.4-3.5c0.4-0.1,0.8,0,0.9,0.4
					c0.1,0.4,0,0.8-0.4,0.9L35,40.3C34.9,40.3,34.8,40.3,34.7,40.3L34.7,40.3z"/>
			</g>
		</g>
		<g>
			<g>
				<path fill="#404447" d="M57.1,55.3c-0.4,0-0.7-0.3-0.7-0.7v-8.1c0-0.2,0.1-0.4,0.3-0.6c0.2-0.1,0.4-0.2,0.6-0.1l5.8,2.2
					c0.4,0.1,0.5,0.5,0.4,0.9c-0.1,0.4-0.5,0.5-0.9,0.4l-4.8-1.8v7.1C57.8,55,57.5,55.3,57.1,55.3L57.1,55.3z"/>
			</g>
			<g>
				<path fill="#404447" d="M57.1,56c-0.2,0-0.3,0-0.5-0.1l-9.9-3.7c-0.5-0.2-0.9-0.7-0.9-1.3V23.1c0-0.5,0.2-0.9,0.6-1.2
					c0.4-0.3,0.9-0.3,1.3-0.2l15.7,5.9c0.5,0.2,0.9,0.7,0.9,1.3l0,19.7c0,0.4-0.1,0.7-0.4,1l-5.8,5.9C57.9,55.9,57.5,56,57.1,56
					L57.1,56z M48.6,49.9l8.2,3.1l4.7-4.9l0-18.1l-12.9-4.9V49.9L48.6,49.9z"/>
			</g>
			<g>
				<path fill="#404447" d="M60,35.9c-0.1,0-0.2,0-0.2,0l-9.4-3.5c-0.4-0.1-0.5-0.5-0.4-0.9c0.1-0.4,0.5-0.5,0.9-0.4l9.4,3.5
					c0.4,0.1,0.5,0.5,0.4,0.9C60.5,35.7,60.2,35.9,60,35.9L60,35.9z"/>
			</g>
			<g>
				<path fill="#404447" d="M60,44.9c-0.1,0-0.2,0-0.2,0l-9.4-3.5c-0.4-0.1-0.5-0.5-0.4-0.9c0.1-0.4,0.5-0.5,0.9-0.4l9.4,3.5
					c0.4,0.1,0.5,0.5,0.4,0.9C60.5,44.8,60.2,44.9,60,44.9L60,44.9z"/>
			</g>
			<g>
				<path fill="#404447" d="M60,40.4c-0.1,0-0.2,0-0.2,0l-9.4-3.5c-0.4-0.1-0.5-0.5-0.4-0.9c0.1-0.4,0.5-0.5,0.9-0.4l9.4,3.5
					c0.4,0.1,0.5,0.5,0.4,0.9C60.5,40.2,60.2,40.4,60,40.4L60,40.4z"/>
			</g>
		</g>
	</g>
	<g>
		<path fill="#404447" d="M77.4,65H16.8c-1.1,0-2-0.9-2-2V16.8c0-1.1,0.9-2,2-2h60.5c1.1,0,2,0.9,2,2V63C79.4,64.1,78.5,65,77.4,65
			L77.4,65z M18.8,61h56.6V18.8H18.8V61L18.8,61z"/>
	</g>
</g>
</svg>
