<?xml version="1.0" encoding="utf-8"?>
<!-- Generator: Adobe Illustrator 18.1.1, SVG Export Plug-In . SVG Version: 6.00 Build 0)  -->
<svg version="1.1" id="Layer_1" xmlns="http://www.w3.org/2000/svg" xmlns:xlink="http://www.w3.org/1999/xlink" x="0px" y="0px"
	 viewBox="0 0 93.2 93.2" enable-background="new 0 0 93.2 93.2" xml:space="preserve">
<g>
	<g>
		<path fill="#404447" d="M89.2,93.2H3.9c-2.2,0-3.9-1.7-3.9-3.9V3.9C0,1.7,1.7,0,3.9,0h85.3c2.2,0,3.9,1.7,3.9,3.9v85.3
			C93.2,91.4,91.4,93.2,89.2,93.2L89.2,93.2z M7.8,85.3h77.5V7.8H7.8V85.3L7.8,85.3z"/>
	</g>
	<path fill="#404447" d="M19.3,18.2V74h55.3V18.2H19.3z M47,27.7c4.2,0,8,1.4,11.1,3.7L56.2,34c-2.6-1.9-5.8-3.1-9.2-3.1
		c-6.5,0-12.2,4.1-14.4,9.9l-2.9-1.2C32.3,32.6,39.1,27.7,47,27.7z M35.1,46.4c0,5.1,3.1,9.4,7.5,11.2l-1.2,2.9
		c-2.8-1.1-5.1-3.1-6.8-5.5c-1.7-2.4-2.7-5.4-2.7-8.6H35.1z M32.9,40.9c1.1-2.8,3-5.3,5.5-7c2.4-1.7,5.4-2.7,8.6-2.7v3.2
		c-5.1,0-9.4,3.2-11.1,7.7L32.9,40.9z M35.5,46.4c0-6.4,5.2-11.6,11.5-11.6c5.6,0,10.2,4,11.3,9.3h-3.2C54,40.6,50.8,38,47,38
		c-4.6,0-8.4,3.8-8.4,8.5s3.8,8.5,8.4,8.5c3.8,0,7-2.6,8.1-6.1h3.2c-1.1,5.3-5.7,9.3-11.3,9.3C40.6,58.1,35.5,52.9,35.5,46.4z
		 M51,44.1c-0.5-0.9-1.4-1.6-2.3-2l1.2-3.1c2.3,0.9,4,2.8,4.8,5.2H51z M54.6,48.8c-0.7,2.4-2.5,4.3-4.8,5.2l-1.2-3.1
		c1-0.4,1.8-1.1,2.3-2H54.6z M42.3,46.4c0,0.7,0.1,1.3,0.4,1.9l-3.1,1.4c-0.4-1-0.7-2.1-0.7-3.2c0-4.4,3.6-8.1,8-8.1v3.4
		C44.4,41.8,42.3,43.9,42.3,46.4z M47,51.1v3.4c-2.2,0-4.2-0.9-5.7-2.4l2.4-2.4C44.5,50.6,45.7,51.1,47,51.1z M47,58.5
		c5.8,0,10.6-4.2,11.7-9.7h3.2c-1.1,7.3-7.4,12.8-14.9,12.8V58.5z M58.7,44.1c-0.8-4.1-3.6-7.4-7.4-8.9l1.1-3
		c4.9,1.9,8.6,6.4,9.4,11.8H58.7z M29.9,54c-0.3-0.7-0.6-1.4-0.8-2.1c0-0.1,0-0.1,0-0.2c0-0.1-0.1-0.3-0.1-0.4c0-0.1,0-0.2-0.1-0.3
		c0-0.1-0.1-0.2-0.1-0.3c0-0.1-0.1-0.3-0.1-0.4c0-0.1,0-0.2-0.1-0.3c0-0.2-0.1-0.3-0.1-0.5c0-0.1,0-0.1,0-0.2c0-0.2-0.1-0.4-0.1-0.6
		c0,0,0,0,0,0c-0.1-0.7-0.1-1.5-0.1-2.3h3.2c0,0.7,0,1.4,0.1,2.1c0,0.1,0,0.2,0,0.3c0,0.1,0,0.2,0.1,0.4c0,0.1,0,0.1,0,0.2
		c0,0.1,0.1,0.3,0.1,0.4c0,0,0,0.1,0,0.1c0,0.2,0.1,0.3,0.1,0.5c0,0,0,0,0,0c0,0.2,0.1,0.4,0.2,0.5c0.2,0.6,0.4,1.2,0.6,1.8L29.9,54
		z M47,65.2c-5.1,0-9.8-2.1-13.2-5.5l2.2-2.3C38.9,60.3,42.7,62,47,62c7.7,0,14.2-5.8,15.3-13.2h3.2C64.3,58,56.5,65.2,47,65.2z
		 M62.3,44.1C62,42,61.2,40,60.1,38.2l2.7-1.7c1.4,2.3,2.3,4.8,2.7,7.6H62.3z"/>
</g>
</svg>
