<?xml version="1.0" encoding="utf-8"?>
<!-- Generator: Adobe Illustrator 18.1.1, SVG Export Plug-In . SVG Version: 6.00 Build 0)  -->
<svg version="1.1" id="Layer_1" xmlns="http://www.w3.org/2000/svg" xmlns:xlink="http://www.w3.org/1999/xlink" x="0px" y="0px"
	 viewBox="0 0 120.6 59.8" enable-background="new 0 0 120.6 59.8" xml:space="preserve">
<g>
	<g>
		<g>
			<path fill="#404447" d="M80.9,32.6H61.6c-1.5,0-2.7-1.2-2.7-2.7c0-1.5,1.2-2.7,2.7-2.7h18.2l15-15.9c0.5-0.5,1.2-0.8,2-0.8H117
				c1.5,0,2.7,1.2,2.7,2.7s-1.2,2.7-2.7,2.7H98l-15,15.9C82.4,32.3,81.7,32.6,80.9,32.6L80.9,32.6z"/>
		</g>
		<g>
			<path fill="#404447" d="M107.3,26.5c-0.7,0-1.4-0.3-1.9-0.8c-1.1-1.1-1.1-2.8,0-3.8l8.6-8.6l-8.6-8.6c-1.1-1.1-1.1-2.8,0-3.8
				c1.1-1.1,2.8-1.1,3.8,0l10.5,10.5c1.1,1.1,1.1,2.8,0,3.8l-10.5,10.5C108.7,26.2,108,26.5,107.3,26.5L107.3,26.5z"/>
		</g>
		<g>
			<path fill="#404447" d="M117,49.4H96.8c-0.7,0-1.5-0.3-2-0.8l-15-15.9H61.6c-1.5,0-2.7-1.2-2.7-2.7c0-1.5,1.2-2.7,2.7-2.7h19.4
				c0.7,0,1.5,0.3,2,0.8l15,15.9h19c1.5,0,2.7,1.2,2.7,2.7C119.7,48.1,118.5,49.4,117,49.4L117,49.4z"/>
		</g>
		<g>
			<path fill="#404447" d="M107.3,59.8c-0.7,0-1.4-0.3-1.9-0.8c-1.1-1.1-1.1-2.8,0-3.8l8.6-8.6l-8.6-8.6c-1.1-1.1-1.1-2.8,0-3.8
				c1.1-1.1,2.8-1.1,3.8,0l10.5,10.5c1.1,1.1,1.1,2.8,0,3.8L109.3,59C108.7,59.5,108,59.8,107.3,59.8L107.3,59.8z"/>
		</g>
	</g>
	<g>
		<path fill="#404447" d="M24.6,47.5c-11.2,0-20.7-2.9-24.5-6.9c0,0-0.1,0.1-0.1,0.1v6.5c3.3,4.4,13.3,7.6,25.1,7.6
			c11.6,0,21.5-3.1,24.9-7.4v-6.8c-0.1-0.2-0.3-0.3-0.4-0.5C46.2,44.4,36.3,47.5,24.6,47.5z"/>
		<path fill="#404447" d="M49.6,25.2c-1.2,1.5-3.2,2.9-5.9,4.1c-4.8,2.1-11.6,3.4-19.1,3.4c-7.5,0-14.3-1.3-19.1-3.4
			c-2.3-1-4.2-2.2-5.4-3.5c0,0-0.1,0.1-0.1,0.1v6.5c0.1,0.1,0.2,0.2,0.3,0.3c1.2,1.5,3.2,2.8,5.7,3.9c4.8,2.1,11.6,3.4,19.1,3.4
			s14.3-1.3,19.1-3.4c2.2-1,4-2.1,5.2-3.3c0.2-0.2,0.4-0.5,0.6-0.7v-6.8C49.9,25.5,49.7,25.3,49.6,25.2z"/>
		<path fill="#404447" d="M6.2,21.5c4.5,2.2,11.3,3.5,18.8,3.5c7.6,0,14.3-1.4,18.9-3.6c2.3-1.1,4-2.4,5-3.9
			c0.6-0.9,0.9-1.8,0.9-2.8c0-5.6-11.1-10.2-24.8-10.2C11.3,4.7,0.2,9.2,0.2,14.9c0,0.8,0.2,1.6,0.6,2.3C1.7,18.8,3.6,20.3,6.2,21.5
			z"/>
	</g>
</g>
</svg>
