<?xml version="1.0" encoding="utf-8"?>
<!-- Generator: Adobe Illustrator 18.1.1, SVG Export Plug-In . SVG Version: 6.00 Build 0)  -->
<svg version="1.1" id="Layer_1" xmlns="http://www.w3.org/2000/svg" xmlns:xlink="http://www.w3.org/1999/xlink" x="0px" y="0px"
	 viewBox="0 0 94.7 94.7" enable-background="new 0 0 94.7 94.7" xml:space="preserve">
<g>
	<g>
		<path fill="#404447" d="M90.8,94.7H4c-2.2,0-4-1.8-4-4V4c0-2.2,1.8-4,4-4h86.8c2.2,0,4,1.8,4,4v86.8C94.7,93,93,94.7,90.8,94.7
			L90.8,94.7z M7.9,86.8h78.8V7.9H7.9V86.8L7.9,86.8z"/>
	</g>
	<g id="Logo">
		<polygon fill="#404447" points="36.6,37.2 36.6,37.2 29.4,44.4 46.9,62 54.2,54.8 64.5,44.4 57.3,37.2 57.3,37.1 36.6,37.1 		"/>
		<path fill="#404447" d="M46.9,17.9L21.3,32.5v29.4l25.6,14.7l25.6-14.7V32.5L46.9,17.9z M67.6,59.1L46.9,71L26.2,59.1V35.3
			l20.7-11.9l20.7,11.9V59.1z"/>
	</g>
</g>
</svg>
