<?xml version="1.0" encoding="utf-8"?>
<!-- Generator: Adobe Illustrator 18.1.1, SVG Export Plug-In . SVG Version: 6.00 Build 0)  -->
<svg version="1.1" id="Layer_1" xmlns="http://www.w3.org/2000/svg" xmlns:xlink="http://www.w3.org/1999/xlink" x="0px" y="0px"
	 viewBox="0 0 600 600" enable-background="new 0 0 600 600" xml:space="preserve">
<g>
	<path fill="#404447" d="M260.2,131.3c-43.8,7.5-83.8,14.4-115.3,43.8c-12.3,11.7-23.5,24.6-34.7,37.4c-5.3,5.9-14.9,6.9-20.3,1.6
		c-1.6-1.6-2.1-6.4-0.5-8.5c3.2-4.8,7.5-9.1,12.3-12.8c9.6-6.4,19.2-12.8,29.4-18.1c6.4-3.2,6.4-6.4,3.7-11.7
		c-12.3-23.5-24.6-46.4-36.3-69.9c-4.3-9.1-8.5-17.6-13.3-26.7c-2.7-4.8-2.1-8.5,1.1-12.8c13.3-19.2,32.6-31,53.9-40
		c23.5-10.1,48-16.5,74.2-12.3c2.1,0.5,4.3,0.5,6.4,1.1c12.3,1.6,17.6,8.5,20.3,21.4c5.9,32,13.9,64.1,20.8,96.1
		c1.1,5.3,3.2,6.9,9.1,5.9c12.8-2.1,25.6-3.2,38.4-3.7c5.9-0.5,12.8,0,16,6.4c1.6,3.7-5.9,14.4-12.3,16.5c-2.1,1.1-5.3,0-8-1.1
		C289.1,139.9,273.6,135.1,260.2,131.3z M222.9,102.5c-1.1,0-2.7,0-4.3,0.5c-24,4.3-47,12.8-67.8,25.1c-12.3,7.5-12.3,8-5.3,20.3
		c0.5,0.5,0.5,1.6,1.1,2.1c2.1,4.3,5.3,4.8,9.1,2.7c23.5-12.8,48.6-23,74.7-28.3c2.1-0.5,4.8-2.1,5.3-3.7
		C237.8,116.4,229.3,103,222.9,102.5z"/>
	<path fill="#404447" d="M507.9,172.4H199.4c-4.8,0-8.5,3.7-8.5,8.5v410c0,4.8,3.7,8.5,8.5,8.5h308.5c4.8,0,8.5-3.7,8.5-8.5V181
		C516.5,176.2,512.7,172.4,507.9,172.4z M468.4,306.9c0,4.8-3.7,8.5-8.5,8.5H268.2c-4.8,0-8.5-3.7-8.5-8.5c0-4.8,3.7-8.5,8.5-8.5
		h191.6C464.7,297.9,468.4,302.1,468.4,306.9z M268.2,368.9h124.4c4.8,0,8.5,3.7,8.5,8.5s-3.7,8.5-8.5,8.5H268.2
		c-4.8,0-8.5-3.7-8.5-8.5C259.2,373.1,263.4,368.9,268.2,368.9z M259.2,341.6c0-4.8,3.7-8.5,8.5-8.5h124.4c4.8,0,8.5,3.7,8.5,8.5
		c0,4.8-3.7,8.5-8.5,8.5H268.2C263.4,350.2,259.2,346.4,259.2,341.6z M268.2,406.2h191.6c4.8,0,8.5,3.7,8.5,8.5s-3.7,8.5-8.5,8.5
		H268.2c-4.8,0-8.5-3.7-8.5-8.5C259.2,410.5,263.4,406.2,268.2,406.2z M259.2,269.6c0-4.8,3.7-8.5,8.5-8.5h154.8
		c4.8,0,8.5,3.7,8.5,8.5c0,4.8-3.7,8.5-8.5,8.5H267.7C263.4,278.1,259.2,274.4,259.2,269.6z M393.1,222.6h43.2
		c4.8,0,8.5,3.7,8.5,8.5c0,4.8-3.7,8.5-8.5,8.5h-43.2c-4.8,0-8.5-3.7-8.5-8.5C384.1,226.9,388.3,222.6,393.1,222.6z M318.4,222.6
		h43.2c4.8,0,8.5,3.7,8.5,8.5c0,4.8-3.7,8.5-8.5,8.5h-43.2c-4.8,0-8.5-3.7-8.5-8.5C309.9,226.9,313.6,222.6,318.4,222.6z
		 M244.2,222.6h43.2c4.8,0,8.5,3.7,8.5,8.5c0,4.8-3.7,8.5-8.5,8.5h-43.2c-4.8,0-8.5-3.7-8.5-8.5
		C235.1,226.9,239.4,222.6,244.2,222.6z M287.5,461.2h-43.2c-4.8,0-8.5-3.7-8.5-8.5c0-4.8,3.7-8.5,8.5-8.5h43.2
		c4.8,0,8.5,3.7,8.5,8.5C296,457.5,292.3,461.2,287.5,461.2z M478,586.7C478,587.2,478,587.2,478,586.7L478,586.7
		c0,2.7-2.1,4.8-4.8,4.8h-0.5h-71c-0.5,0-1.6,0-2.1-0.5l0,0l-19.2-19.2c-0.5-0.5-0.5-1.1-0.5-1.6v-55c0-2.7,2.1-4.8,4.8-4.8h26.7
		V481l0,0c0-6.4,5.3-11.2,11.2-11.2c4.3,0,8,2.1,9.6,5.9l0,0l19.2,33.6c0.5,0.5,0.5,0.5,1.1,1.1h19.8l0,0c2.7,0,4.8,2.1,4.8,4.8
		v71.5H478z M502.6,583.5H493l0,0c-2.7,0-4.8-2.1-4.8-4.3l0,0v-54.4l0,0c0-2.7,2.1-4.8,4.8-4.8l0,0h9.6c0,0,0,0,0.5,0
		c2.7,0,4.8,2.1,4.8,4.8v52.8v0.5C507.4,581.3,505.2,583.5,502.6,583.5z"/>
</g>
</svg>
