<?xml version="1.0" encoding="utf-8"?>
<!-- Generator: Adobe Illustrator 18.1.1, SVG Export Plug-In . SVG Version: 6.00 Build 0)  -->
<svg version="1.1" id="Layer_1" xmlns="http://www.w3.org/2000/svg" xmlns:xlink="http://www.w3.org/1999/xlink" x="0px" y="0px"
	 viewBox="0 0 93.2 93.2" enable-background="new 0 0 93.2 93.2" xml:space="preserve">
<g>
	<g>
		<path fill="#404447" d="M78.1,50.4l-5.8-14c-0.3-0.7-1.2-1.3-1.9-1.3h-9.3c-0.8,0-1.5,0.6-1.6,1.4L55,59.1c0,0.1,0,0.1,0,0.2
			l-0.2,1.2h1.4h1.4c0-4,3.3-7.2,7.4-7.2c4.1,0,7.4,3.2,7.4,7.2h3.2c0.8,0,1.5-0.6,1.7-1.4l1.3-6.1C78.5,52.2,78.4,51.1,78.1,50.4z
			 M73.7,47l-12-3.3c-0.4-0.1-0.6-0.5-0.5-0.9l0.8-4.3c0.1-0.4,0.4-0.7,0.8-0.7h7.2c0.4,0,0.8,0.3,1,0.6l3.3,8
			C74.3,46.9,74.1,47.1,73.7,47z"/>
		<ellipse fill="#404447" cx="29.4" cy="60.5" rx="5.3" ry="5.1"/>
		<path fill="#404447" d="M59,29.5c0.3-1.5-0.7-2.7-2.2-2.7H24.7c-1.5,0-3,1.2-3.3,2.7l-5.8,28.2c-0.3,1.5,0.7,2.7,2.2,2.7h2.4H22
			c0-4,3.3-7.2,7.4-7.2c4.1,0,7.4,3.2,7.4,7.2h13.2h2.8L54,54h0L59,29.5z M37.5,29.1c2.5,0,4.8,0.8,6.7,2.2l-1.1,1.5
			c-1.6-1.2-3.5-1.9-5.6-1.9c-3.9,0-7.3,2.5-8.7,5.9l-1.8-0.7C28.7,32,32.8,29.1,37.5,29.1z M37.5,33.3c3.3,0,6.2,2.4,6.8,5.5h-2
			c-0.6-2.1-2.6-3.6-4.8-3.6c-2.8,0-5,2.3-5,5c0,2.8,2.3,5,5,5c2.3,0,4.2-1.5,4.8-3.6h2c-0.6,3.2-3.5,5.5-6.8,5.5
			c-3.8,0-6.9-3.1-6.9-6.9C30.6,36.4,33.7,33.3,37.5,33.3z M29.1,37c1.3-3.4,4.6-5.8,8.5-5.8h0v1.9h0c-3,0-5.6,1.9-6.7,4.6L29.1,37z
			 M40,41.7h2.2c-0.4,1.4-1.5,2.6-2.9,3.1l-0.7-1.9C39.1,42.6,39.6,42.2,40,41.7z M38.5,37.7l0.7-1.9c1.4,0.5,2.4,1.7,2.9,3.1H40
			C39.6,38.3,39.1,37.9,38.5,37.7z M34.7,40.3c0,0.4,0.1,0.8,0.2,1.1l-1.8,0.8c-0.3-0.6-0.4-1.2-0.4-1.9c0-2.7,2.2-4.8,4.8-4.8v2
			C36,37.5,34.7,38.7,34.7,40.3z M37.5,43.1v2c-1.3,0-2.5-0.5-3.4-1.4l1.4-1.4C36.1,42.8,36.8,43.1,37.5,43.1z M37.5,47.4
			c3.5,0,6.4-2.5,7-5.8h1.9c-0.7,4.3-4.4,7.7-9,7.7V47.4z M44.6,38.9c-0.5-2.4-2.2-4.4-4.4-5.3l0.7-1.8c3,1.2,5.2,3.8,5.7,7.1H44.6z
			 M27.3,44.8c-0.2-0.4-0.3-0.8-0.5-1.3l0,0c0,0,0-0.1,0-0.1c0-0.1,0-0.2-0.1-0.2c0-0.1,0-0.1,0-0.2c0-0.1,0-0.1,0-0.2
			c0-0.1,0-0.2-0.1-0.2c0-0.1,0-0.1,0-0.2c0-0.1,0-0.2-0.1-0.3c0,0,0-0.1,0-0.1c0-0.1,0-0.2-0.1-0.4c0,0,0,0,0,0h0
			c-0.1-0.4-0.1-0.9-0.1-1.3h1.9c0,0.4,0,0.8,0.1,1.2c0,0.1,0,0.1,0,0.2c0,0.1,0,0.1,0,0.2c0,0,0,0.1,0,0.1c0,0.1,0,0.2,0.1,0.3
			c0,0,0,0,0,0.1c0,0.1,0,0.2,0.1,0.3c0,0,0,0,0,0c0,0.1,0.1,0.2,0.1,0.3c0.1,0.4,0.2,0.7,0.4,1.1L27.3,44.8z M28.5,40.3L28.5,40.3
			l1.9,0v0c0,3,1.9,5.6,4.5,6.7l-0.7,1.8C30.8,47.3,28.5,44.1,28.5,40.3z M37.5,51.5c-3.1,0-5.9-1.3-7.9-3.3l1.3-1.3
			c1.7,1.7,4,2.7,6.6,2.7c4.7,0,8.5-3.4,9.2-7.9h1.9C48,47.2,43.2,51.5,37.5,51.5z M46.7,38.9c-0.2-1.3-0.6-2.5-1.3-3.5l1.6-1
			c0.8,1.3,1.4,2.9,1.6,4.5H46.7z"/>
		<ellipse fill="#404447" cx="64.9" cy="60.5" rx="5.3" ry="5.1"/>
	</g>
	<g>
		<path fill="#404447" d="M89.2,93.2H3.9c-2.2,0-3.9-1.7-3.9-3.9V3.9C0,1.7,1.7,0,3.9,0h85.3c2.2,0,3.9,1.7,3.9,3.9v85.3
			C93.2,91.4,91.4,93.2,89.2,93.2L89.2,93.2z M7.8,85.3h77.5V7.8H7.8V85.3L7.8,85.3z"/>
	</g>
</g>
</svg>
