<?xml version="1.0" encoding="utf-8"?>
<!-- Generator: Adobe Illustrator 18.1.1, SVG Export Plug-In . SVG Version: 6.00 Build 0)  -->
<svg version="1.1" id="Layer_1" xmlns="http://www.w3.org/2000/svg" xmlns:xlink="http://www.w3.org/1999/xlink" x="0px" y="0px"
	 viewBox="0 0 600 600" enable-background="new 0 0 600 600" xml:space="preserve">
<g>
	<path fill="#404447" d="M553.4,282.1c0-10.6-4.1-19.4-12.3-25.8c-2.3-1.8-2.9-3.5-2.9-5.9c0-5.9,0-11.7,0-17
		c-0.6-16.4-11.7-29.3-27-34.6c-4.7-1.8-9.4-1.8-14.1-1.8h-393c-2.3,0-4.7,0-7,0c-10,0.6-18.2,4.7-25.2,11.7s-10.6,15.8-10.6,25.8
		c0,5.9,0,11.1,0,17c0,1.8-0.6,3.5-2.3,4.7c-0.6,0.6-1.2,0.6-1.8,1.2c-7,5.9-11.1,13.5-11.1,22.9c0,17.6,0,35.2,0,52.8
		c0,2.3,0,4.1,0.6,6.5c1.8,7.6,5.9,13.5,11.7,17.6c1.8,1.2,2.3,2.3,2.3,4.7c0,5.9,0,12.3,0,18.2c0.6,17.6,12.9,32.3,29.9,35.8
		c4.7,0.6,8.8,0.6,12.9,0.6c131.4,0,262.2,0,393.5,0c1.8,0,3.5,0,4.7,0c16.4-1.2,28.2-9.4,34.6-24.6c1.8-4.7,2.3-9.4,2.3-14.7
		s0-10,0-15.2c0-2.3,0.6-4.1,2.9-5.9c8.2-6.5,12.3-15.2,12.3-25.8C553.4,314.4,553.4,298.5,553.4,282.1z M463.6,334.9
		c-1.8,0-2.9,0-4.7,0H140.5c-2.9,0-5.3,0-8.2-0.6c-12.9-1.8-23.5-14.1-24-27c-0.6-14.1,10.6-26.4,22.9-28.2c2.9-0.6,5.9-0.6,8.8-0.6
		H212c82.1,0,164.2,0,246.3,0c3.5,0,7,0,10,0.6c11.7,2.3,21.7,13.5,22.3,25.8C492.4,320.2,481.2,334.3,463.6,334.9z"/>
	<path fill="#404447" d="M300,185.3c-67.4,0-135.5,0-202.9,0c-8.2,0-7,0.6-5.9-7c9.4-55.7,37-100.9,82.1-135.5
		c17.6-13.5,37.5-23.5,58.7-31.1c16.4-5.9,33.4-9.4,50.4-10.6c19.4-1.8,38.1-0.6,56.9,2.9c34,6.5,64.5,19.9,91.5,41.1
		c27.6,21.7,48.7,48.1,63.3,79.8c7.6,16.4,12.9,33.4,15.8,51c0.6,2.9,1.2,5.3,1.2,8.2c0,1.2-0.6,1.8-1.8,1.8c-1.8,0-2.9,0-4.7,0
		C436.1,185.3,368,185.3,300,185.3z"/>
	<path fill="#404447" d="M300,600c-35.2,0-70.4,0-105.6,0c-2.9,0-6.5,0-9.4,0c-34.6-2.3-59.8-18.8-75.7-49.3
		c-6.5-11.7-9.4-24.6-10-38.1c0-14.7,0-29.3,0-44c0-11.1,0-22.9,0-34c0-1.2,0-2.9,0-4.1c0-0.6,0.6-1.2,1.2-1.2c1.2,0,1.8,0,2.9,0
		c13.5,0,27.6,0,41.1,0c0.6,0,1.2,0,2.3,0s1.8,0.6,1.8,1.8c0,1.2,0,2.9,0,4.1c0,24.6,0,49.9,0,74.5c0,10,2.9,18.8,9.4,26.4
		c7.6,8.8,17.6,14.1,29.3,14.7c7.6,0.6,15.2,0,22.9,0c5.9,0,10-2.3,13.5-7c7.6-10,15.2-19.9,22.9-29.3c1.2-1.2,1.8-2.3,2.9-3.5
		c2.9-3.5,7-5.3,11.7-5.3c2.3,0,5.3,0,7.6,0c21.7,0,43.4,0,65.1,0c1.2,0,2.9,0,4.1,0c5.3,0,8.8,1.8,12.3,5.9
		c3.5,4.1,6.5,8.2,9.4,12.3c4.7,6.5,9.4,12.3,14.7,18.8c0.6,1.2,1.8,2.3,2.9,3.5c2.9,3.5,6.5,5.3,10.6,5.3c1.8,0,2.9,0,4.7,0
		c5.9,0,12.3,0,18.2,0c12.9-0.6,23.5-5.3,31.1-14.7c6.5-7.6,8.8-15.8,9.4-25.8c0-4.7,0-9.4,0-14.1c0-20.5,0-41.6,0-62.2
		c0-4.7,0-4.7,5.3-4.7c13.5,0,26.4,0,39.9,0c1.2,0,2.3,0,2.9,0c1.2,0,1.8,0.6,1.8,1.8c0,0.6,0,1.2,0,2.3c0,26.4,0,52.8,0,79.2
		c-0.6,25.2-10,46.3-28.2,63.3c-15.8,15.2-35.2,23.5-57.5,24.6c-2.9,0-6.5,0-9.4,0C371,600,335.2,600,300,600z"/>
	<path fill="#404447" d="M300,446.9c22.9,0,45.2,0,68,0c1.2,0,2.3,0,2.9,0c2.3,0,3.5,0.6,5.3,2.3c4.7,5.9,10,11.1,14.7,17
		c0.6,0.6,1.2,1.8,2.3,2.3c1.2,1.8,1.2,2.3-0.6,3.5c-5.3,4.7-10.6,9.4-15.8,13.5c-1.2,1.2-1.8,1.2-2.9,0c-2.9-3.5-5.9-6.5-8.8-10
		c-1.8-2.3-3.5-2.9-6.5-2.9c-3.5,0-7,0-10.6,0c-34,0-68.6,0-102.6,0c-0.6,0-1.2,0-2.3,0c-7,0-5.3-0.6-9.4,4.1
		c-2.3,2.9-4.7,5.3-7,8.2c-1.8,2.3-2.3,2.3-4.7,0c-4.7-4.1-9.4-8.2-14.1-12.3c-2.3-2.3-2.3-2.3-0.6-4.7c1.8-1.8,2.9-3.5,4.7-5.3
		c3.5-4.1,7.6-8.8,11.1-12.9c1.8-2.3,3.5-3.5,6.5-2.9c0.6,0,1.8,0,2.9,0C254.8,446.9,277.7,446.9,300,446.9z"/>
</g>
</svg>
