<?xml version="1.0" encoding="utf-8"?>
<!-- Generator: Adobe Illustrator 18.1.1, SVG Export Plug-In . SVG Version: 6.00 Build 0)  -->
<svg version="1.1" id="Layer_1" xmlns="http://www.w3.org/2000/svg" xmlns:xlink="http://www.w3.org/1999/xlink" x="0px" y="0px"
	 viewBox="0 0 600 600" enable-background="new 0 0 600 600" xml:space="preserve">
<g>
	<g>
		<path fill="#404447" d="M518,431.5H75.5c-11.2,0-20.2-8.9-20.2-20.2V130.1c0-11.2,8.9-20.2,20.2-20.2H518
			c11.2,0,20.2,8.9,20.2,20.2v281.7C537.7,422.6,528.8,431.5,518,431.5L518,431.5z M95.6,391.6h402.2V150.2H95.6V391.6L95.6,391.6z"
			/>
	</g>
	<g>
		<path fill="#404447" d="M477.7,381.3H115.8c-5.6,0-9.8-4.7-9.8-9.8V170.4c0-5.6,4.7-9.8,9.8-9.8h361.9c5.6,0,9.8,4.7,9.8,9.8
			v201.1C487.5,376.6,483.3,381.3,477.7,381.3L477.7,381.3z M125.6,361.2h341.7V180.2H125.6V361.2L125.6,361.2z"/>
	</g>
	<g>
		<path fill="#404447" d="M579.8,490.1H20.2C8.9,490.1,0,481.2,0,469.9c0-11.2,8.9-20.2,20.2-20.2h559.7c11.2,0,20.2,8.9,20.2,20.2
			C600,481.2,591.1,490.1,579.8,490.1L579.8,490.1z"/>
	</g>
</g>
</svg>
