<?xml version="1.0" encoding="utf-8"?>
<!-- Generator: Adobe Illustrator 18.1.1, SVG Export Plug-In . SVG Version: 6.00 Build 0)  -->
<svg version="1.1" id="Layer_1" xmlns="http://www.w3.org/2000/svg" xmlns:xlink="http://www.w3.org/1999/xlink" x="0px" y="0px"
	 viewBox="0 0 108.6 99.6" enable-background="new 0 0 108.6 99.6" xml:space="preserve">
<g>
	<g>
		<path fill="#404447" d="M54.3,99.6c-0.7,0-1.4-0.1-2-0.4L2.8,76.7C1.1,75.9,0,74.2,0,72.3v-45c0-1.9,1.1-3.6,2.8-4.4L52.3,0.4
			c1.3-0.6,2.7-0.6,4,0l49.5,22.5c1.7,0.8,2.8,2.5,2.8,4.4v45c0,1.9-1.1,3.6-2.8,4.4L56.3,99.1C55.6,99.4,55,99.6,54.3,99.6
			L54.3,99.6z M9.7,69.2l44.6,20.3l44.6-20.3V30.4L54.3,10.2L9.7,30.4V69.2L9.7,69.2z"/>
	</g>
	<g>
		<path fill="#404447" d="M54.3,55.8c-0.7,0-1.4-0.1-2-0.4L2.8,32.9c-2.4-1.1-3.5-4-2.4-6.4c1.1-2.4,3.9-3.5,6.4-2.4l47.4,21.6
			l47.5-21.6c2.4-1.1,5.3,0,6.4,2.4c1.1,2.4,0,5.3-2.4,6.4L56.3,55.4C55.6,55.7,55,55.8,54.3,55.8L54.3,55.8z"/>
	</g>
	<g>
		<path fill="#404447" d="M80.9,42.5c-0.3,0-0.7-0.1-1-0.2L30.5,19.8c-1.2-0.6-1.8-2-1.2-3.2c0.6-1.2,2-1.7,3.2-1.2l49.4,22.5
			c1.2,0.6,1.7,2,1.2,3.2C82.7,42,81.9,42.5,80.9,42.5L80.9,42.5z"/>
	</g>
	<g>
		<path fill="#404447" d="M54.3,97.8c-2.7,0-4.8-2.2-4.8-4.8V55.7c0-2.7,2.2-4.8,4.8-4.8c2.7,0,4.8,2.2,4.8,4.8V93
			C59.1,95.7,57,97.8,54.3,97.8L54.3,97.8z"/>
	</g>
</g>
</svg>
