<?xml version="1.0" encoding="utf-8"?>
<!-- Generator: Adobe Illustrator 18.1.1, SVG Export Plug-In . SVG Version: 6.00 Build 0)  -->
<svg version="1.1" id="Layer_1" xmlns="http://www.w3.org/2000/svg" xmlns:xlink="http://www.w3.org/1999/xlink" x="0px" y="0px"
	 viewBox="0 0 74.4 97.5" enable-background="new 0 0 74.4 97.5" xml:space="preserve">
<path fill="#404447" d="M72.3,0H2C0.9,0,0,0.9,0,2v93.5c0,1.1,0.9,2,2,2h70.3c1.1,0,2-0.9,2-2V2C74.4,0.9,73.5,0,72.3,0z M63.4,29.7
	c0,1.1-0.9,2-2,2H17.7c-1.1,0-2-0.9-2-2c0-1.1,0.9-2,2-2h43.7C62.5,27.7,63.4,28.6,63.4,29.7z M17.7,43.9h28.4c1.1,0,2,0.9,2,2
	c0,1.1-0.9,2-2,2H17.7c-1.1,0-2-0.9-2-2C15.7,44.8,16.6,43.9,17.7,43.9z M15.7,37.6c0-1.1,0.9-2,2-2h28.4c1.1,0,2,0.9,2,2
	s-0.9,2-2,2H17.7C16.6,39.6,15.7,38.7,15.7,37.6z M17.7,52.4h43.7c1.1,0,2,0.9,2,2c0,1.1-0.9,2-2,2H17.7c-1.1,0-2-0.9-2-2
	C15.7,53.3,16.6,52.4,17.7,52.4z M15.7,21.1c0-1.1,0.9-2,2-2H53c1.1,0,2,0.9,2,2c0,1.1-0.9,2-2,2H17.7
	C16.6,23.1,15.7,22.2,15.7,21.1z M46.2,10.5H56c1.1,0,2,0.9,2,2c0,1.1-0.9,2-2,2h-9.8c-1.1,0-2-0.9-2-2
	C44.2,11.4,45.1,10.5,46.2,10.5z M29.2,10.5H39c1.1,0,2,0.9,2,2c0,1.1-0.9,2-2,2h-9.8c-1.1,0-2-0.9-2-2
	C27.2,11.4,28.1,10.5,29.2,10.5z M12.2,10.5h9.9c1.1,0,2,0.9,2,2c0,1.1-0.9,2-2,2h-9.9c-1.1,0-2-0.9-2-2
	C10.2,11.4,11.1,10.5,12.2,10.5z M22.1,64.9h-9.9c-1.1,0-2-0.9-2-2c0-1.1,0.9-2,2-2h9.9c1.1,0,2,0.9,2,2
	C24.1,64,23.2,64.9,22.1,64.9z M70.6,86.7l-6.5,6.8c-0.3,0.3-0.7,0.5-1.1,0.5c-0.4,0-0.8-0.1-1.1-0.4c-0.6-0.6-0.7-1.6-0.1-2.2
	l3.8-4L49,87.6c-0.9,0-1.6-0.7-1.6-1.5c0-0.9,0.7-1.6,1.5-1.6l16.7-0.4l-4-3.8c-0.6-0.6-0.7-1.6,0-2.2c0.6-0.6,1.6-0.7,2.2,0
	l6.7,6.4C71.2,85,71.2,86,70.6,86.7z"/>
</svg>
