<?xml version="1.0" encoding="utf-8"?>
<!-- Generator: Adobe Illustrator 18.1.1, SVG Export Plug-In . SVG Version: 6.00 Build 0)  -->
<svg version="1.1" id="Layer_1" xmlns="http://www.w3.org/2000/svg" xmlns:xlink="http://www.w3.org/1999/xlink" x="0px" y="0px"
	 viewBox="0 0 600 600" enable-background="new 0 0 600 600" xml:space="preserve">
<g>
	<g>
		<g>
			<path fill="#404447" d="M240.8,495.1c-5.9,0-11.7-2.3-16.4-7c-4.7-4.7-7-11.1-6.4-17.6l4.7-84.4c0.6-5.9,2.9-11.1,6.4-15.2
				l251.4-251.4c8.8-8.8,24-8.8,32.8,0l79.7,79.7c8.8,8.8,8.8,23.4,0,32.8L341.6,483.4c-4.1,4.1-9.4,6.4-15.2,6.4l-84.4,4.7
				C242,495.1,241.4,495.1,240.8,495.1L240.8,495.1z M268.9,397.9l-2.9,49.8l49.8-2.9l229.1-229.1L498,168.7L268.9,397.9
				L268.9,397.9z"/>
		</g>
		<g>
			<path fill="#404447" d="M532,263.7c-2.9,0-5.9-1.2-8.2-3.5l-71.5-70.9c-4.7-4.7-4.7-11.7,0-16.4c4.7-4.7,11.7-4.7,16.4,0
				l71.5,71.5c4.7,4.7,4.7,11.7,0,16.4C537.9,262.5,535,263.7,532,263.7L532,263.7z"/>
		</g>
		<path fill="#404447" d="M254.3,412.5c-1.8,0-2.9,0-4.7,0s-2.9,0.6-4.7,1.2l-3.5,58.6l56.2-3.5c0.6-2.3,1.2-4.1,1.2-6.4
			C301.2,434.2,281.8,412.5,254.3,412.5L254.3,412.5z"/>
	</g>
	<g>
		<g>
			<path fill="#404447" d="M375.6,584.2H52.7C23.4,584.2,0,560.7,0,531.4V97.9C0,85,10.5,74.4,23.4,74.4S46.9,85,46.9,97.9v433.6
				c0,3.5,2.9,6.4,6.4,6.4h322.9c3.5,0,6.4-2.9,6.4-6.4V394.9c0-12.9,10.5-23.4,23.4-23.4c12.9,0,23.4,10.5,23.4,23.4v136.5
				C428.3,560.2,404.9,584.2,375.6,584.2L375.6,584.2z"/>
		</g>
		<g>
			<path fill="#404447" d="M404.9,250.2c-12.9,0-23.4-10.5-23.4-23.4v-61.5c0-3.5-2.9-6.4-6.4-6.4c-12.9,0-23.4-10.5-23.4-23.4
				s10.5-23.4,23.4-23.4c29.3,0,52.7,23.4,52.7,52.7v62.1C428.3,239.6,417.8,250.2,404.9,250.2L404.9,250.2z"/>
		</g>
		<g>
			<path fill="#404447" d="M370.9,158.8H71.5C32.2,158.8,0,127.1,0,87.3C0,48,32.2,15.8,71.5,15.8h333.4c12.9,0,23.4,10.5,23.4,23.4
				s-10.5,23.4-23.4,23.4H71.5c-14.1,0-25.2,11.1-25.2,25.2s11.1,25.2,25.2,25.2h299.4c12.9,0,23.4,10.5,23.4,23.4
				S383.8,158.8,370.9,158.8L370.9,158.8z"/>
		</g>
	</g>
	<g>
		<path fill="#404447" d="M249,244.3H107.2c-6.4,0-11.7-5.3-11.7-11.7s5.3-11.7,11.7-11.7H249c6.4,0,11.7,5.3,11.7,11.7
			C260.2,239.1,255.5,244.3,249,244.3L249,244.3z"/>
	</g>
	<g>
		<path fill="#404447" d="M249,308.2H107.2c-6.4,0-11.7-5.3-11.7-11.7c0-6.4,5.3-11.7,11.7-11.7H249c6.4,0,11.7,5.3,11.7,11.7
			C260.2,302.9,255.5,308.2,249,308.2L249,308.2z"/>
	</g>
</g>
</svg>
