<?xml version="1.0" encoding="utf-8"?>
<!-- Generator: Adobe Illustrator 18.1.1, SVG Export Plug-In . SVG Version: 6.00 Build 0)  -->
<svg version="1.1" id="Layer_1" xmlns="http://www.w3.org/2000/svg" xmlns:xlink="http://www.w3.org/1999/xlink" x="0px" y="0px"
	 viewBox="0 0 600 600" enable-background="new 0 0 600 600" xml:space="preserve">
<g>
	<g>
		<g>
			<g>
				<path fill="#404447" d="M440.3,581.7c-6.3,0-12.6-2.3-17.7-7.4l-96.2-96.2c-9.7-9.7-9.7-25.2,0-34.9l96.2-96.2
					c9.7-9.7,25.2-9.7,34.9,0c9.7,9.7,9.7,25.2,0,34.9l-77.9,79l78.4,78.4c9.7,9.7,9.7,25.8,0,34.9
					C452.9,579.4,446.6,581.7,440.3,581.7L440.3,581.7z"/>
			</g>
		</g>
		<g>
			<path fill="#404447" d="M301.7,209.5"/>
		</g>
		<g>
			<path fill="#404447" d="M507.3,487.8H376.1c-12.6,0-22.9-10.3-22.9-22.9s10.3-22.9,22.9-22.9h131.1c25.8,0,46.4-20.6,46.4-46.4
				V111.1c0-25.8-20.6-46.4-46.4-46.4H92.7c-25.8,0-46.4,20.6-46.4,46.4v284c0,25.8,20.6,46.4,46.4,46.4h131.1
				c12.6,0,22.9,10.3,22.9,22.9s-10.3,22.9-22.9,22.9H92.7C41.8,487.8,0,446,0,395v-284c0-51,41.8-92.7,92.7-92.7h414.5
				c51,0,92.7,41.8,92.7,92.7v284C600,446,558.2,487.8,507.3,487.8L507.3,487.8z"/>
		</g>
	</g>
	<g>
		<g>
			<path fill="#404447" d="M215.3,336.1c-45.2,0-82.4-37.2-82.4-82.4s37.2-82.4,82.4-82.4c45.8,0,82.4,37.2,82.4,82.4
				C297.7,299.4,260.5,336.1,215.3,336.1L215.3,336.1z M215.3,198.7c-30.3,0-55,24.6-55,55s24.6,55,55,55s55-24.6,55-55
				C270.2,223.3,245.6,198.7,215.3,198.7L215.3,198.7z"/>
		</g>
		<g>
			<g>
				<path fill="#404447" d="M163.2,215.3c-3.4,0-6.9-1.1-9.7-4l-18.9-18.9c-5.2-5.2-5.2-14.3,0-19.5c5.2-5.2,14.3-5.2,19.5,0
					l18.9,18.9c5.2,5.2,5.2,14.3,0,19.5C170,214.1,166.6,215.3,163.2,215.3L163.2,215.3z"/>
			</g>
			<g>
				<path fill="#404447" d="M286.3,338.4c-3.4,0-6.9-1.1-9.7-4l-22.3-22.9c-5.2-5.2-5.2-14.3,0-19.5c5.2-5.2,14.3-5.2,19.5,0
					l22.3,22.9c5.2,5.2,5.2,14.3,0,19.5C293.1,337.2,289.7,338.4,286.3,338.4L286.3,338.4z"/>
			</g>
		</g>
		<g>
			<g>
				<path fill="#404447" d="M266.8,215.8c-3.4,0-6.9-1.1-9.7-4c-5.2-5.2-5.2-14.3,0-19.5l18.9-18.9c5.2-5.2,14.3-5.2,19.5,0
					c5.2,5.2,5.2,14.3,0,19.5l-18.9,18.9C274.2,214.1,270.2,215.8,266.8,215.8L266.8,215.8z"/>
			</g>
			<g>
				<path fill="#404447" d="M144.3,338.4c-3.4,0-6.9-1.1-9.7-4c-5.2-5.2-5.2-14.3,0-19.5l22.9-22.3c5.2-5.2,14.3-5.2,19.5,0
					c5.2,5.2,5.2,14.3,0,19.5L154,334.4C151.1,337.2,147.7,338.4,144.3,338.4L144.3,338.4z"/>
			</g>
		</g>
		<g>
			<g>
				<path fill="#404447" d="M215.3,194.1c-7.4,0-13.7-6.3-13.7-13.7v-26.9c0-7.4,6.3-13.7,13.7-13.7c7.4,0,13.7,6.3,13.7,13.7v26.9
					C229,187.8,222.7,194.1,215.3,194.1L215.3,194.1z"/>
			</g>
			<g>
				<path fill="#404447" d="M215.3,368.1L215.3,368.1c-7.4,0-13.7-6.3-13.7-13.7v-32.1c0-7.4,6.3-13.7,13.7-13.7l0,0
					c7.4,0,13.7,6.3,13.7,13.7v32.1C229,361.8,222.7,368.1,215.3,368.1L215.3,368.1z"/>
			</g>
		</g>
		<g>
			<g>
				<path fill="#404447" d="M315.5,267.4h-26.9c-7.4,0-13.7-6.3-13.7-13.7s6.3-13.7,13.7-13.7h26.9c7.4,0,13.7,6.3,13.7,13.7
					C329.2,261.1,322.9,267.4,315.5,267.4L315.5,267.4z"/>
			</g>
			<g>
				<path fill="#404447" d="M146.6,267.4h-32.1c-7.4,0-13.7-6.3-13.7-13.7s6.3-13.7,13.7-13.7h32.1c7.4,0,13.7,6.3,13.7,13.7
					C160.3,261.1,154,267.4,146.6,267.4L146.6,267.4z"/>
			</g>
		</g>
	</g>
	<g>
		<g>
			<path fill="#404447" d="M419.7,247.9c-31.5,0-56.7-25.2-56.7-56.7s25.2-56.7,56.7-56.7s56.7,25.2,56.7,56.7
				C476.3,222.1,450.6,247.9,419.7,247.9L419.7,247.9z M419.7,153.4c-20.6,0-37.8,17.2-37.8,37.8S399,229,419.7,229
				s37.8-17.2,37.8-37.8C457.4,170,440.3,153.4,419.7,153.4L419.7,153.4z"/>
		</g>
		<g>
			<g>
				<path fill="#404447" d="M384.2,164.9c-2.3,0-4.6-1.1-6.9-2.9l-13.2-13.2c-3.4-3.4-3.4-9.7,0-13.2c3.4-3.4,9.7-3.4,13.2,0
					l13.2,13.2c3.4,3.4,3.4,9.7,0,13.2C388.7,163.7,386.5,164.9,384.2,164.9L384.2,164.9z"/>
			</g>
			<g>
				<path fill="#404447" d="M468.3,249c-2.3,0-4.6-1.1-6.9-2.9L446,230.7c-3.4-3.4-3.4-9.7,0-13.2c3.4-3.4,9.7-3.4,13.2,0l15.5,15.5
					c3.4,3.4,3.4,9.7,0,13.2C472.9,248.5,470.6,249,468.3,249L468.3,249z"/>
			</g>
		</g>
		<g>
			<g>
				<path fill="#404447" d="M455.2,164.9c-2.3,0-4.6-1.1-6.9-2.9c-3.4-3.4-3.4-9.7,0-13.2l13.2-13.2c3.4-3.4,9.7-3.4,13.2,0
					c3.4,3.4,3.4,9.7,0,13.2L461.5,162C459.7,163.7,457.4,164.9,455.2,164.9L455.2,164.9z"/>
			</g>
			<g>
				<path fill="#404447" d="M371,249c-2.3,0-4.6-1.1-6.9-2.9c-3.4-3.4-3.4-9.7,0-13.2l15.5-15.5c3.4-3.4,9.7-3.4,13.2,0
					c3.4,3.4,3.4,9.7,0,13.2l-15.5,15.5C375.6,248.5,373.3,249,371,249L371,249z"/>
			</g>
		</g>
		<g>
			<g>
				<path fill="#404447" d="M419.7,150c-5.2,0-9.2-4-9.2-9.2v-18.3c0-5.2,4-9.2,9.2-9.2s9.2,4,9.2,9.2v18.3
					C428.8,146,424.8,150,419.7,150L419.7,150z"/>
			</g>
			<g>
				<path fill="#404447" d="M419.7,269.7L419.7,269.7c-5.2,0-9.2-4-9.2-9.2v-21.8c0-5.2,4-9.2,9.2-9.2l0,0c5.2,0,9.2,4,9.2,9.2v21.8
					C428.8,265.1,424.8,269.7,419.7,269.7L419.7,269.7z"/>
			</g>
		</g>
		<g>
			<g>
				<path fill="#404447" d="M488.4,200.4H470c-5.2,0-9.2-4-9.2-9.2c0-5.2,4-9.2,9.2-9.2h18.3c5.2,0,9.2,4,9.2,9.2
					C498.1,196.4,493.5,200.4,488.4,200.4L488.4,200.4z"/>
			</g>
			<g>
				<path fill="#404447" d="M372.7,200.4H351c-5.2,0-9.2-4-9.2-9.2c0-5.2,4-9.2,9.2-9.2h21.8c5.2,0,9.2,4,9.2,9.2
					S377.9,200.4,372.7,200.4L372.7,200.4z"/>
			</g>
		</g>
	</g>
</g>
</svg>
