<?xml version="1.0" encoding="utf-8"?>
<!-- Generator: Adobe Illustrator 18.1.1, SVG Export Plug-In . SVG Version: 6.00 Build 0)  -->
<svg version="1.1" id="Layer_1" xmlns="http://www.w3.org/2000/svg" xmlns:xlink="http://www.w3.org/1999/xlink" x="0px" y="0px"
	 viewBox="0 0 103.4 103.4" enable-background="new 0 0 103.4 103.4" xml:space="preserve">
<g>
	<path fill="#404447" d="M97.4,34.7c-2.2-1.6-7.7-4-9.3-4c-0.5,0-1.2,0.8-1.8,2c-0.9,1.7-3.4,4-4.4,4c-0.2,0,0.3-1.2,1.1-2.6
		c0.8-1.5,1.4-3.3,1.4-4.3c0-4.4-4.8-17.4-8.6-23.4C73.9,3.6,73,2.7,71,1.6c-3.4-1.9-7.6-2.1-12.9-0.7c-3.2,0.8-4.7,1-7.8,0.7
		c-12.5-0.9-12-0.9-14,0.1c-2.6,1.3-3.5,2.9-5.1,9.6c-1.8,7.3-1.8,9.5-0.2,11.4c1.6,1.9,6.9,4.3,12.1,5.5c6.2,1.4,10.5,2.7,11.7,3.5
		c0.6,0.4,1.3,1.3,1.6,2.1c1.3,3.5,2,4.9,2.8,5.6c0.5,0.4,0.9,1,0.9,1.3c0,3.3-23.7-4-29.8-9.3c-2.6-2.3-3.4-3.9-3.1-6.7l0.3-2.3
		L21.4,23c-5.1,0.2-6.4,0.4-8.2,1.2c-6.3,3-6,8.1,0.9,14.7c10.1,9.6,30.7,18.9,47.1,21.3c5.6,0.8,13.8,0.8,19,0
		c10.2-1.6,17.3-5.7,20.2-11.9C103,43,101.9,38.1,97.4,34.7z M49,15.6c-4.4,0.5-6.5,1.1-7.3,2c-0.9,1.1-2,0.7-4.3-1.7
		c-1.7-1.7-2.2-2.6-2.2-3.6c0-2.3,1.6-3.5,3-2.2c2,2,2.7,2.2,7.3,1.9c4.7-0.3,7.5,0.2,8,1.5C53.8,14.8,53,15.1,49,15.6z M63.1,8.8
		C61,8.6,60.9,8,62.9,7.5C64.6,7,65.6,5.6,64.7,5c-1-0.6-4.5-1-6.1-0.7c-0.9,0.2-1.3,0.2-1.1-0.2c0.5-0.8,5.3-1.6,8.1-1.3
		c2.9,0.3,5.2,1.3,5.7,2.5C72,7.3,67.7,9.1,63.1,8.8z"/>
	<path fill="#404447" d="M99.7,76.5c-3.9-0.5-9.1-0.1-12.3,1c-1.5,0.5-1.9,0.9-2.1,2c-0.2,1.2-0.6,1.5-3,2.4c-2,0.8-3.6,1.9-5.7,4
		c-1.6,1.6-3.4,3.1-3.9,3.4c-1.2,0.6-3.4,1.1-3.4,0.8c0-0.2,3.6-5.6,7.8-11.5c1.5-2.1,2-3.3,2.2-5c0.1-1.2,0.6-3.7,1.2-5.5
		c0.5-1.8,0.9-3.4,0.7-3.6c-0.1-0.1-1.1,0.1-2.2,0.5c-2.4,0.8-3.9,0.9-6.6,0.2c-1.7-0.5-2.3-0.4-4.1,0.2c-1.9,0.7-2.2,0.7-4,0
		c-1.8-0.7-2.2-0.7-6.5,0c-8.1,1.4-10.7,0.6-16-4.9c-3.3-3.4-4.6-4.1-5.2-3.1c-0.2,0.2-0.8,0.5-1.4,0.5c-0.8,0-1.5-0.6-2.5-2.3
		c-0.8-1.3-2.1-2.7-2.8-3.2c-3.9-2.8-8.2-0.8-8.2,3.8c0,1.9,3.7,7.5,5.6,8.4c2.5,1.3,1.1,3.2-2,2.8c-1.6-0.2-2.3-0.7-4.5-3
		c-2.3-2.5-2.8-2.8-4.4-2.8c-1,0-2.6,0.4-3.7,0.9c-2.7,1.2-6.1,1.9-9.8,1.9H0c7.7,22.9,29.2,39.3,54.7,39.3
		c20.5,0,38.6-10.8,48.8-27C102.7,76.9,101.7,76.7,99.7,76.5z M64.1,76.9c-0.6,0-1.7-0.4-2.6-0.9c-0.8-0.5-2-0.9-2.7-0.9
		c-1.3,0-1.9-1.1-1.1-2.1c0.7-0.9,3.1-0.9,4.6,0c1.6,0.9,2.9,0.8,3.9-0.2c1.1-1.2,1.6-1.2,1.6,0.3C67.8,74.5,65.5,76.9,64.1,76.9z"
		/>
</g>
</svg>
