<?xml version="1.0" encoding="utf-8"?>
<!-- Generator: Adobe Illustrator 18.1.1, SVG Export Plug-In . SVG Version: 6.00 Build 0)  -->
<svg version="1.1" id="Layer_1" xmlns="http://www.w3.org/2000/svg" xmlns:xlink="http://www.w3.org/1999/xlink" x="0px" y="0px"
	 viewBox="0 0 93.7 100.2" enable-background="new 0 0 93.7 100.2" xml:space="preserve">
<g>
	<g>
		<path fill="#404447" d="M89.4,100.2H4.2C1.9,100.2,0,98.4,0,96V25c0-2.3,1.9-4.2,4.2-4.2h85.2c2.3,0,4.2,1.9,4.2,4.2v71
			C93.7,98.4,91.8,100.2,89.4,100.2L89.4,100.2z M8.5,91.8h76.7V29.2H8.5V91.8L8.5,91.8z"/>
	</g>
	<g>
		<path fill="#404447" d="M76.7,85.4H16.9c-1.2,0-2.1-0.9-2.1-2.1V37.7c0-1.2,1-2.1,2.1-2.1h59.8c1.2,0,2.1,0.9,2.1,2.1v45.6
			C78.9,84.5,77.9,85.4,76.7,85.4L76.7,85.4z M19.1,81.2h55.6V39.8H19.1V81.2L19.1,81.2z"/>
	</g>
	<g>
		<path fill="#404447" d="M84,14.2H9.7c-1.2,0-2.1-0.9-2.1-2.1c0-1.2,1-2.1,2.1-2.1H84c1.2,0,2.1,0.9,2.1,2.1
			C86.1,13.3,85.2,14.2,84,14.2L84,14.2z"/>
	</g>
	<g>
		<path fill="#404447" d="M75.6,4.2H18.1C17,4.2,16,3.3,16,2.1C16,0.9,17,0,18.1,0h57.4c1.2,0,2.1,0.9,2.1,2.1
			C77.7,3.3,76.7,4.2,75.6,4.2L75.6,4.2z"/>
	</g>
</g>
</svg>
