<?xml version="1.0" encoding="utf-8"?>
<!-- Generator: Adobe Illustrator 18.1.1, SVG Export Plug-In . SVG Version: 6.00 Build 0)  -->
<svg version="1.1" id="Layer_1" xmlns="http://www.w3.org/2000/svg" xmlns:xlink="http://www.w3.org/1999/xlink" x="0px" y="0px"
	 viewBox="0 0 600 600" enable-background="new 0 0 600 600" xml:space="preserve">
<g>
	<g>
		<path fill="#404447" d="M260.7,400.4c-7.1,0-13.5-2.6-18-7.7L177,323.8c-9.7-10.3-9-25.8,0.6-35.4c10.3-9.7,25.8-9,35.4,0.6
			l45.7,47.6L385,182.8c9-10.9,24.5-12.2,35.4-3.2c10.9,9,12.2,24.5,3.2,35.4L280,391.4c-4.5,5.8-11.6,9-18.7,9H260.7L260.7,400.4z"
			/>
	</g>
	<g>
		<path fill="#404447" d="M574.2,600H25.1C10.9,600,0,589.1,0,574.9V25.1C0,10.9,10.9,0,25.1,0h549.1c14.2,0,25.1,10.9,25.1,25.1
			v549.1C600,588.4,588.4,600,574.2,600L574.2,600z M50.2,549.1h498.9V50.2H50.2V549.1L50.2,549.1z"/>
	</g>
</g>
</svg>
