<?xml version="1.0" encoding="utf-8"?>
<!-- Generator: Adobe Illustrator 18.1.1, SVG Export Plug-In . SVG Version: 6.00 Build 0)  -->
<svg version="1.1" id="Layer_1" xmlns="http://www.w3.org/2000/svg" xmlns:xlink="http://www.w3.org/1999/xlink" x="0px" y="0px"
	 viewBox="0 0 97.5 104.2" enable-background="new 0 0 97.5 104.2" xml:space="preserve">
<g>
	<g>
		<g>
			<path fill="#404447" d="M4,104.2c-0.8,0-1.6-0.2-2.3-0.7c-1.1-0.7-1.7-2-1.7-3.3V20.9c0-1.7,1-3.2,2.6-3.7L47.3,0.3
				C48.6-0.2,50,0,51,0.7c1.1,0.7,1.7,2,1.7,3.3v79.3c0,1.7-1,3.2-2.6,3.7L5.4,103.9C5,104.1,4.5,104.2,4,104.2L4,104.2z M8,23.7
				v70.7l36.8-13.9V9.8L8,23.7L8,23.7z"/>
		</g>
		<g>
			<path fill="#404447" d="M13.2,40.2c-0.8,0-1.6-0.5-1.9-1.3c-0.4-1,0.1-2.2,1.2-2.6l26.7-10.1c1-0.4,2.2,0.1,2.6,1.2
				c0.4,1-0.1,2.2-1.2,2.6L13.9,40C13.7,40.1,13.5,40.2,13.2,40.2L13.2,40.2z"/>
		</g>
		<g>
			<path fill="#404447" d="M13.2,65.9c-0.8,0-1.6-0.5-1.9-1.3c-0.4-1,0.1-2.2,1.2-2.6L39.3,52c1.1-0.4,2.2,0.1,2.6,1.2
				c0.4,1-0.1,2.2-1.2,2.6L13.9,65.8C13.7,65.9,13.5,65.9,13.2,65.9L13.2,65.9z"/>
		</g>
		<g>
			<path fill="#404447" d="M13.2,78.8c-0.8,0-1.6-0.5-1.9-1.3c-0.4-1,0.1-2.2,1.2-2.6l26.7-10.1c1-0.4,2.2,0.1,2.6,1.2
				c0.4,1-0.1,2.2-1.2,2.6L13.9,78.7C13.7,78.7,13.5,78.8,13.2,78.8L13.2,78.8z"/>
		</g>
		<g>
			<path fill="#404447" d="M13.2,53c-0.8,0-1.6-0.5-1.9-1.3c-0.4-1,0.1-2.2,1.2-2.6l26.7-10.1c1.1-0.4,2.2,0.1,2.6,1.2
				c0.4,1-0.1,2.2-1.2,2.6L13.9,52.9C13.7,53,13.5,53,13.2,53L13.2,53z"/>
		</g>
	</g>
	<g>
		<g>
			<path fill="#404447" d="M77.1,96c-1.1,0-2-0.9-2-2V70.8c0-0.7,0.3-1.3,0.9-1.6c0.5-0.4,1.2-0.5,1.8-0.2l16.4,6.2
				c1,0.4,1.6,1.5,1.2,2.6c-0.4,1-1.5,1.5-2.6,1.2l-13.7-5.2V94C79.1,95.1,78.2,96,77.1,96L77.1,96z"/>
		</g>
		<g>
			<path fill="#404447" d="M77.1,98c-0.5,0-1-0.1-1.4-0.3L47.3,87c-1.6-0.6-2.6-2.1-2.6-3.7V4c0-1.3,0.6-2.5,1.7-3.3
				C47.6,0,49-0.2,50.2,0.3l44.7,16.9c1.6,0.6,2.6,2.1,2.6,3.7l0,56.1c0,1-0.4,2-1.1,2.8l-16.4,17C79.2,97.5,78.1,98,77.1,98
				L77.1,98z M52.8,80.5L76,89.3l13.5-13.9l0-51.7L52.8,9.8V80.5L52.8,80.5z"/>
		</g>
		<g>
			<path fill="#404447" d="M85.2,40.5c-0.2,0-0.5,0-0.7-0.1L57.8,30.3c-1-0.4-1.6-1.5-1.2-2.6c0.4-1,1.5-1.6,2.6-1.2l26.7,10.1
				c1,0.4,1.6,1.5,1.2,2.6C86.7,40,86,40.5,85.2,40.5L85.2,40.5z"/>
		</g>
		<g>
			<path fill="#404447" d="M85.2,66.3c-0.2,0-0.5,0-0.7-0.1L57.8,56c-1-0.4-1.6-1.5-1.2-2.6c0.4-1,1.5-1.6,2.6-1.2l26.7,10.1
				c1,0.4,1.6,1.5,1.2,2.6C86.7,65.8,86,66.3,85.2,66.3L85.2,66.3z"/>
		</g>
		<g>
			<path fill="#404447" d="M85.2,53.4c-0.2,0-0.5,0-0.7-0.1L57.8,43.2c-1-0.4-1.6-1.5-1.2-2.6c0.4-1,1.5-1.6,2.6-1.2l26.7,10.1
				c1,0.4,1.6,1.5,1.2,2.6C86.7,52.9,86,53.4,85.2,53.4L85.2,53.4z"/>
		</g>
	</g>
</g>
</svg>
