<?xml version="1.0" encoding="utf-8"?>
<!-- Generator: Adobe Illustrator 18.1.1, SVG Export Plug-In . SVG Version: 6.00 Build 0)  -->
<svg version="1.1" id="Layer_1" xmlns="http://www.w3.org/2000/svg" xmlns:xlink="http://www.w3.org/1999/xlink" x="0px" y="0px"
	 viewBox="0 0 98.8 66" enable-background="new 0 0 98.8 66" xml:space="preserve">
<g>
	<g>
		<path fill="#404447" d="M77.8,66h-59C8.4,66,0,57.6,0,47.3C0,37,8.4,28.6,18.7,28.6h0c0-0.2,0-0.5,0-0.7C18.7,12.5,31.2,0,46.6,0
			c12.9,0,23.8,8.7,27,20.8c0.8-0.1,1.7-0.1,2.5-0.1c12.5,0,22.7,10.2,22.7,22.7c0,6.4-2.7,12.5-7.5,16.8C88.1,63.8,83,66,77.8,66
			L77.8,66z M18.7,36.5C12.8,36.5,8,41.4,8,47.3c0,5.9,4.8,10.8,10.8,10.8h59c3,0,5.9-1.3,8-3.6c3.4-3.1,5.1-7,5.1-11.2
			c0-8.1-6.6-14.8-14.8-14.8c-1.5,0-3,0.2-4.5,0.7c-1.1,0.4-2.4,0.2-3.4-0.5c-1-0.7-1.7-1.7-1.8-2.9C65.4,15.7,56.9,8,46.6,8
			c-11,0-19.9,8.9-19.9,19.9c0,1.3,0.1,2.6,0.4,3.9c0.2,1.2-0.1,2.4-0.8,3.3c-0.8,0.9-1.9,1.5-3.1,1.5H18.7L18.7,36.5z"/>
	</g>
</g>
</svg>
