<?xml version="1.0" encoding="utf-8"?>
<!-- Generator: Adobe Illustrator 18.1.1, SVG Export Plug-In . SVG Version: 6.00 Build 0)  -->
<svg version="1.1" id="Layer_1" xmlns="http://www.w3.org/2000/svg" xmlns:xlink="http://www.w3.org/1999/xlink" x="0px" y="0px"
	 viewBox="0 0 94.2 92.7" enable-background="new 0 0 94.2 92.7" xml:space="preserve">
<g>
	<g>
		<path fill="#404447" d="M76,32H19.3c-0.7,0-1.3-0.6-1.3-1.3c0-0.7,0.6-1.3,1.3-1.3H76c0.7,0,1.3,0.6,1.3,1.3
			C77.4,31.4,76.8,32,76,32L76,32z"/>
	</g>
	<path fill="#404447" d="M24,21.2c-1.3,0-2.4,1.1-2.4,2.4c0,1.3,1.1,2.4,2.4,2.4c1.3,0,2.4-1.1,2.4-2.4C26.4,22.3,25.4,21.2,24,21.2
		L24,21.2z"/>
	<path fill="#404447" d="M30.6,21.2c-1.3,0-2.4,1.1-2.4,2.4c0,1.3,1.1,2.4,2.4,2.4c1.3,0,2.4-1.1,2.4-2.4
		C33,22.3,31.9,21.2,30.6,21.2L30.6,21.2z"/>
	<path fill="#404447" d="M37.1,21.2c-1.3,0-2.4,1.1-2.4,2.4c0,1.3,1.1,2.4,2.4,2.4c1.3,0,2.4-1.1,2.4-2.4
		C39.5,22.3,38.4,21.2,37.1,21.2L37.1,21.2z"/>
	<g>
		<g>
			<g>
				<path fill="#404447" d="M47.5,55.3H35.3c-1.1,0-1.9-0.9-1.9-1.9c0-1.1,0.9-1.9,1.9-1.9h12.2c1.1,0,1.9,0.9,1.9,1.9
					C49.4,54.4,48.6,55.3,47.5,55.3L47.5,55.3z"/>
			</g>
		</g>
		<g>
			<g>
				<path fill="#404447" d="M24.6,55.3c-0.5,0-1-0.2-1.4-0.6c-0.7-0.7-0.7-2,0-2.7l5.6-5.6l-5.6-5.6c-0.7-0.7-0.7-2,0-2.7
					c0.7-0.7,2-0.7,2.7,0l6.9,6.9c0.7,0.7,0.7,2,0,2.7l-6.9,6.9C25.6,55.1,25.1,55.3,24.6,55.3L24.6,55.3z"/>
			</g>
		</g>
	</g>
	<g>
		<g>
			<path fill="#404447" d="M90.2,92.7H4c-2.2,0-4-1.8-4-4V4c0-2.2,1.8-4,4-4h86.3c2.2,0,4,1.8,4,4v84.7
				C94.2,90.9,92.4,92.7,90.2,92.7L90.2,92.7z M7.9,84.7h78.3V7.9H7.9V84.7L7.9,84.7z"/>
		</g>
		<g>
			<path fill="#404447" d="M77.4,65H16.8c-1.1,0-2-0.9-2-2V16.8c0-1.1,0.9-2,2-2h60.5c1.1,0,2,0.9,2,2V63C79.4,64.1,78.5,65,77.4,65
				L77.4,65z M18.8,61h56.6V18.8H18.8V61L18.8,61z"/>
		</g>
	</g>
</g>
</svg>
