<?xml version="1.0" encoding="utf-8"?>
<!-- Generator: Adobe Illustrator 18.1.1, SVG Export Plug-In . SVG Version: 6.00 Build 0)  -->
<svg version="1.1" id="Layer_1" xmlns="http://www.w3.org/2000/svg" xmlns:xlink="http://www.w3.org/1999/xlink" x="0px" y="0px"
	 viewBox="0 0 103.4 79.3" enable-background="new 0 0 103.4 79.3" xml:space="preserve">
<g>
	<g>
		<path fill="#404447" d="M83.9,79.3H6.6c-1.2,0-2.3-0.6-3-1.5c-0.7-1-0.9-2.2-0.5-3.4l15.8-49.6c0.5-1.6,1.9-2.6,3.6-2.6h77.3
			c1.2,0,2.3,0.6,3,1.5c0.7,1,0.9,2.2,0.6,3.4L87.5,76.6C87,78.2,85.5,79.3,83.9,79.3L83.9,79.3z M11.7,71.7h69.4l13.4-42.1H25.1
			L11.7,71.7L11.7,71.7z"/>
	</g>
	<g>
		<path fill="#404447" d="M3.8,79.3c-2.1,0-3.8-1.7-3.8-3.8v-68C0,3.4,3.4,0,7.5,0h26.3c4.1,0,7.5,3.4,7.5,7.5v2.7H81
			c2.1,0,3.8,1.7,3.8,3.8c0,2.1-1.7,3.8-3.8,3.8H37.6c-2.1,0-3.8-1.7-3.8-3.8V7.5H7.5v68C7.5,77.6,5.8,79.3,3.8,79.3L3.8,79.3z"/>
	</g>
</g>
</svg>
