<?xml version="1.0" encoding="utf-8"?>
<!-- Generator: Adobe Illustrator 18.1.1, SVG Export Plug-In . SVG Version: 6.00 Build 0)  -->
<svg version="1.1" id="Layer_1" xmlns="http://www.w3.org/2000/svg" xmlns:xlink="http://www.w3.org/1999/xlink" x="0px" y="0px"
	 viewBox="0 0 109.2 108.7" enable-background="new 0 0 109.2 108.7" xml:space="preserve">
<g>
	<g>
		<path fill="#404447" d="M55.4,71.8c-9.7,0-17.6-7.9-17.6-17.6c0-9.7,7.9-17.6,17.6-17.6c8,0,14.8,5.4,16.9,12.7h6.8
			c-2.3-11-12-19.3-23.7-19.3c-13.3,0-24.2,10.9-24.2,24.2c0,13.3,10.9,24.2,24.2,24.2c11.7,0,21.4-8.3,23.7-19.3h-6.8
			C70.2,66.5,63.4,71.8,55.4,71.8"/>
		<path fill="#404447" d="M43.6,66.1c3,3,7.2,4.9,11.9,4.9v-7c-2.7,0-5.1-1.1-6.9-2.9L43.6,66.1z"/>
		<path fill="#404447" d="M38.6,54.2c0,2.4,0.5,4.7,1.4,6.8l6.4-2.8c-0.5-1.2-0.8-2.5-0.8-3.9c0-5.4,4.4-9.8,9.8-9.8v-7
			C46.2,37.5,38.6,45,38.6,54.2"/>
		<path fill="#404447" d="M61.5,38.6L59,45.1c2.1,0.8,3.8,2.3,4.9,4.2h7.6C70,44.4,66.3,40.5,61.5,38.6"/>
		<path fill="#404447" d="M59,63.3l2.5,6.5c4.8-1.9,8.5-5.8,10-10.8h-7.6C62.8,61,61,62.5,59,63.3"/>
		<path fill="#404447" d="M24.4,63.6c-0.1-0.4-0.2-0.7-0.3-1.1c0,0,0,0,0-0.1c-0.1-0.3-0.2-0.7-0.3-1c0-0.1,0-0.1,0-0.2
			c-0.1-0.3-0.1-0.6-0.2-0.9c0-0.1,0-0.3-0.1-0.4c0-0.2-0.1-0.5-0.1-0.7c0-0.2-0.1-0.4-0.1-0.6c-0.2-1.4-0.3-2.9-0.3-4.3h-6.6
			c0,1.6,0.1,3.2,0.3,4.7h0c0,0,0,0.1,0,0.1c0.1,0.4,0.1,0.8,0.2,1.3c0,0.1,0,0.2,0.1,0.3c0.1,0.3,0.1,0.7,0.2,1
			c0,0.2,0.1,0.4,0.1,0.5c0.1,0.3,0.1,0.5,0.2,0.8c0.1,0.2,0.1,0.5,0.2,0.7c0.1,0.2,0.1,0.4,0.2,0.6c0.1,0.3,0.2,0.6,0.2,0.8
			c0,0.1,0.1,0.2,0.1,0.3l0,0c0.5,1.5,1,3,1.6,4.4l6.1-2.7C25.2,66.1,24.8,64.9,24.4,63.6z"/>
		<path fill="#404447" d="M55.4,86.7c-8.9,0-17.1-3.6-22.9-9.5l-4.7,4.7c7.1,7.1,16.8,11.4,27.6,11.4c19.9,0,36.4-14.9,38.8-34.2
			h-6.7C85.1,74.7,71.7,86.7,55.4,86.7"/>
		<path fill="#404447" d="M55.4,21.8c7.3,0,14,2.4,19.4,6.5l4-5.3c-6.5-4.9-14.6-7.8-23.4-7.8c-16.6,0-30.7,10.3-36.4,24.9l6.2,2.4
			C29.9,30.4,41.7,21.8,55.4,21.8"/>
		<path fill="#404447" d="M87.5,49.4h6.7c-0.7-5.7-2.7-11.1-5.6-15.8l-5.6,3.5C85.2,40.7,86.8,44.9,87.5,49.4"/>
		<path fill="#404447" d="M80,49.4h6.7c-1.8-11.3-9.5-20.6-19.8-24.6l-2.4,6.2C72.3,34,78.3,40.9,80,49.4"/>
		<path fill="#404447" d="M55.4,29.2L55.4,29.2l0-6.6h0C42,22.6,30.6,31,26,42.8l6.2,2.4C35.8,35.9,44.8,29.2,55.4,29.2"/>
		<path fill="#404447" d="M30.4,54.2L30.4,54.2l-6.6,0v0c0,13.3,8.2,24.7,19.9,29.4l2.5-6.1C36.9,73.8,30.4,64.8,30.4,54.2"/>
		<path fill="#404447" d="M55.4,79.3v6.6c15.8,0,28.9-11.6,31.2-26.7H80C77.7,70.6,67.6,79.3,55.4,79.3"/>
	</g>
	<rect x="2" y="2" fill="none" stroke="#404447" stroke-width="4" stroke-miterlimit="10" width="105.2" height="104.7"/>
</g>
</svg>
