<?xml version="1.0" encoding="utf-8"?>
<!-- Generator: Adobe Illustrator 18.1.1, SVG Export Plug-In . SVG Version: 6.00 Build 0)  -->
<svg version="1.1" id="Layer_1" xmlns="http://www.w3.org/2000/svg" xmlns:xlink="http://www.w3.org/1999/xlink" x="0px" y="0px"
	 viewBox="0 0 600 600" enable-background="new 0 0 600 600" xml:space="preserve">
<g>
	<g>
		<path fill="#404447" d="M570,52.1H30.7c-14.5,0-26.4-11.9-26.4-26.4S16.2-0.7,30.7-0.7H570c14.5,0,26.4,11.9,26.4,26.4
			S583.8,52.1,570,52.1L570,52.1z"/>
	</g>
	<g>
		<path fill="#404447" d="M570,189.4H30.7c-14.5,0-26.4-11.9-26.4-26.4s11.9-26.4,26.4-26.4H570c14.5,0,26.4,11.9,26.4,26.4
			S583.8,189.4,570,189.4L570,189.4z"/>
	</g>
	<g>
		<path fill="#404447" d="M570,326.1H30.7c-14.5,0-26.4-11.9-26.4-26.4c0-14.5,11.9-26.4,26.4-26.4H570c14.5,0,26.4,11.9,26.4,26.4
			C595.7,314.9,583.8,326.1,570,326.1L570,326.1z"/>
	</g>
	<g>
		<path fill="#404447" d="M570,463.4H30.7c-14.5,0-26.4-11.9-26.4-26.4s11.9-26.4,26.4-26.4H570c14.5,0,26.4,11.9,26.4,26.4
			C595.7,451.5,583.8,463.4,570,463.4L570,463.4z"/>
	</g>
	<g>
		<path fill="#404447" d="M570,600H30.7c-14.5,0-26.4-11.9-26.4-26.4s11.9-26.4,26.4-26.4H570c14.5,0,26.4,11.9,26.4,26.4
			C595.7,588.8,583.8,600,570,600L570,600z"/>
	</g>
</g>
</svg>
