<?xml version="1.0" encoding="utf-8"?>
<!-- Generator: Adobe Illustrator 18.1.1, SVG Export Plug-In . SVG Version: 6.00 Build 0)  -->
<svg version="1.1" id="Layer_1" xmlns="http://www.w3.org/2000/svg" xmlns:xlink="http://www.w3.org/1999/xlink" x="0px" y="0px"
	 viewBox="0 0 88.2 85.6" enable-background="new 0 0 88.2 85.6" xml:space="preserve">
<g>
	<g>
		<g>
			<path fill="#404447" d="M21.7,16.7c-1,0-2-0.4-2.7-1.1l-6.2-6.1l-6.1,6.1c-1.5,1.5-4,1.5-5.5,0c-1.5-1.5-1.5-4,0-5.5L10,1.1
				c1.5-1.5,4-1.5,5.5,0l8.9,8.9c1.5,1.5,1.5,4,0,5.5C23.7,16.3,22.7,16.7,21.7,16.7L21.7,16.7z"/>
		</g>
		<g>
			<path fill="#404447" d="M12.8,35.9c-2.1,0-3.9-1.7-3.9-3.9l0-25.8c0-2.1,1.7-3.9,3.9-3.9l0,0c2.1,0,3.9,1.7,3.9,3.9l0,25.8
				C16.7,34.2,14.9,35.9,12.8,35.9L12.8,35.9L12.8,35.9z"/>
		</g>
	</g>
	<g>
		<g>
			<path fill="#404447" d="M12.8,85.6c-1,0-2-0.4-2.7-1.1l-8.9-8.9c-1.5-1.5-1.5-4,0-5.5c1.5-1.5,4-1.5,5.5,0l6.2,6.1l6.1-6.1
				c1.5-1.5,4-1.5,5.5,0c1.5,1.5,1.5,4,0,5.5l-8.9,8.9C14.8,85.2,13.8,85.6,12.8,85.6L12.8,85.6z"/>
		</g>
		<g>
			<path fill="#404447" d="M12.8,83.2c-2.1,0-3.9-1.7-3.9-3.9l0-25.8c0-2.1,1.7-3.9,3.9-3.9l0,0c2.1,0,3.9,1.7,3.9,3.9l0,25.8
				C16.7,81.4,14.9,83.2,12.8,83.2L12.8,83.2L12.8,83.2z"/>
		</g>
	</g>
	<g>
		<path fill="#404447" d="M84.3,7.8H31.8c-2.1,0-3.9-1.7-3.9-3.9S29.7,0,31.8,0h52.5c2.2,0,3.9,1.7,3.9,3.9S86.5,7.8,84.3,7.8
			L84.3,7.8z"/>
	</g>
	<g>
		<path fill="#404447" d="M84.3,85.6H31.8c-2.1,0-3.9-1.7-3.9-3.9c0-2.1,1.7-3.9,3.9-3.9h52.5c2.2,0,3.9,1.7,3.9,3.9
			C88.2,83.8,86.5,85.6,84.3,85.6L84.3,85.6z"/>
	</g>
	<g>
		<path fill="#404447" d="M84.3,59.6H31.8c-2.1,0-3.9-1.7-3.9-3.9c0-2.1,1.7-3.9,3.9-3.9h52.5c2.2,0,3.9,1.7,3.9,3.9
			C88.2,57.9,86.5,59.6,84.3,59.6L84.3,59.6z"/>
	</g>
	<g>
		<path fill="#404447" d="M84.3,33.7H31.8c-2.1,0-3.9-1.7-3.9-3.9c0-2.2,1.7-3.9,3.9-3.9h52.5c2.2,0,3.9,1.7,3.9,3.9
			C88.2,32,86.5,33.7,84.3,33.7L84.3,33.7z"/>
	</g>
</g>
</svg>
