<?xml version="1.0" encoding="utf-8"?>
<!-- Generator: Adobe Illustrator 18.1.1, SVG Export Plug-In . SVG Version: 6.00 Build 0)  -->
<svg version="1.1" id="Layer_1" xmlns="http://www.w3.org/2000/svg" xmlns:xlink="http://www.w3.org/1999/xlink" x="0px" y="0px"
	 viewBox="0 0 600 600" enable-background="new 0 0 600 600" xml:space="preserve">
<g>
	<g>
		<path fill="#404447" d="M7.7,590c-4.6-6.2-9.2-14.6-7.7-23.1L77,25.4c2.3-14.6,15.4-24.6,30-23.1l213.4,20.8
			c6.2,0.8,12.3,3.1,16.9,7.7L571.5,265c4.6,4.6,6.9,10.8,7.7,16.9L600,494.5c1.5,14.6-9.2,27.7-23.9,30L30.8,597.7
			C22.3,599.2,13.9,596.1,7.7,590L7.7,590z M127.9,58.5L59.3,539.2l482.9-65.5l-17.7-177.2L305,76.3L127.9,58.5L127.9,58.5z"/>
	</g>
	<g>
		<path fill="#404447" d="M563,506.8L94.7,38.5c-3.9-3.9-5.4-10-2.3-15.4c2.3-5.4,7.7-8.5,13.9-7.7l213.4,20.8
			c3.1,0,6.2,1.5,8.5,3.9l234.1,234.1c2.3,2.3,3.9,5.4,3.9,8.5L586.9,496c0.8,5.4-2.3,11.6-7.7,13.9
			C573,512.2,566.9,510.7,563,506.8L563,506.8z M140.9,46.2l413.6,413.6l-16.9-170.2L311.2,63.2L140.9,46.2L140.9,46.2z"/>
	</g>
	<g>
		<path fill="#404447" d="M16.9,584.6c-4.6-4.6-5.4-10.8-2.3-16.2l288.8-516c3.9-6.9,12.3-9.2,18.5-5.4c6.9,3.9,9.2,12.3,5.4,18.5
			l-265,473.7l473.7-265c6.9-3.9,14.6-1.5,18.5,5.4s1.5,14.6-5.4,18.5l-516,288.8C27.7,590,20.8,589.2,16.9,584.6L16.9,584.6z"/>
	</g>
	<g>
		<path fill="#404447" d="M329.7,271.9c-2.3-2.3-3.9-4.6-3.9-8.5L301.9,60.8c-0.8-7.7,4.6-14.6,12.3-15.4
			c7.7-0.8,14.6,4.6,15.4,12.3L352,250.3l192.6,22.3c7.7,0.8,13.1,7.7,12.3,15.4s-7.7,13.1-15.4,12.3l-203.3-23.9
			C334.3,275.7,331.2,274.2,329.7,271.9L329.7,271.9z"/>
	</g>
	<g>
		<path fill="#404447" d="M549.9,491.4c-0.8-0.8-1.5-2.3-2.3-3.1l-144-290.4L113.2,53.1c-6.2-3.1-8.5-10.8-5.4-16.9
			c3.1-6.2,10.8-8.5,16.9-5.4l293.5,146.3c2.3,1.5,4.6,3.1,5.4,5.4L570,476.8c3.1,6.2,0.8,13.9-5.4,16.9
			C559.9,496,553.8,495.3,549.9,491.4L549.9,491.4z"/>
	</g>
</g>
</svg>
