<?xml version="1.0" encoding="utf-8"?>
<!-- Generator: Adobe Illustrator 18.1.1, SVG Export Plug-In . SVG Version: 6.00 Build 0)  -->
<svg version="1.1" id="Layer_1" xmlns="http://www.w3.org/2000/svg" xmlns:xlink="http://www.w3.org/1999/xlink" x="0px" y="0px"
	 viewBox="0 0 74.2 97.3" enable-background="new 0 0 74.2 97.3" xml:space="preserve">
<path fill="#404447" d="M72.2,0H2C0.9,0,0,0.9,0,2v93.3c0,1.1,0.9,2,2,2h70.2c1.1,0,2-0.9,2-2V2C74.2,0.9,73.3,0,72.2,0z M23.1,40.4
	h28.2c0.6,0,1,0.4,1,1s-0.4,1-1,1H23.1c-0.5,0-1-0.4-1-1S22.5,40.4,23.1,40.4z M21.2,44.3h32c0.5,0,1,0.4,1,1c0,0.5-0.4,1-1,1h-32
	c-0.6,0-1-0.4-1-1C20.2,44.8,20.6,44.3,21.2,44.3z M59.7,80.5c0,1.1-0.9,2-2,2H16.1c-1.1,0-2-0.9-2-2v-14c0-1.1,0.9-2,2-2h0.8V50.3
	c0-1.1,0.9-2,2-2h36.7c1.1,0,2,0.9,2,2v14.2h0.2c1.1,0,2,0.9,2,2V80.5z M46.9,69.2c0,2.2-1.8,4-4,4H31c-2.2,0-4-1.8-4-4v-0.8h-8.9
	v10.1h37.6V68.4h-8.9V69.2z M31,66.4v2.8h11.9v-2.8c0-1.1,0.9-2,2-2h8.7V52.3H20.9v12.2H29C30.1,64.5,31,65.4,31,66.4z"/>
</svg>
