<?xml version="1.0" encoding="utf-8"?>
<!-- Generator: Adobe Illustrator 18.1.1, SVG Export Plug-In . SVG Version: 6.00 Build 0)  -->
<svg version="1.1" id="Layer_1" xmlns="http://www.w3.org/2000/svg" xmlns:xlink="http://www.w3.org/1999/xlink" x="0px" y="0px"
	 viewBox="0 0 87.1 108.4" enable-background="new 0 0 87.1 108.4" xml:space="preserve">
<g>
	<path fill="#404447" d="M52.1,57.3c-1.8,0,0.3,0.9,2.7,1.3c0.6-0.5,1.2-1,1.8-1.5C55.1,57.4,53.6,57.4,52.1,57.3"/>
	<path fill="#404447" d="M61.7,54.9c1.1-1.5,1.8-3.1,2.1-4.8c-0.2,1.2-0.9,2.2-1.5,3.3c-3.4,2.1-0.3-1.3,0-2.5
		C58.7,55.4,61.8,53.6,61.7,54.9"/>
	<path fill="#404447" d="M65.3,45.6c0.2-3.2-0.6-2.2-0.9-1C64.7,44.8,64.9,46.9,65.3,45.6"/>
	<path fill="#404447" d="M45.3,1.4c1,0.2,2.1,0.3,1.9,0.5C48.2,1.7,48.5,1.5,45.3,1.4"/>
	<path fill="#404447" d="M47.2,1.9l-0.7,0.1L47.2,1.9L47.2,1.9"/>
	<path fill="#404447" d="M77.1,46.9c0.1,2.9-0.8,4.3-1.7,6.8l-1.6,0.8C72.5,56.9,73.9,56,73,58c-2,1.8-6,5.5-7.3,5.9
		c-0.9,0,0.6-1.1,0.8-1.5c-2.7,1.8-2.1,2.7-6.2,3.8l-0.1-0.3c-10,4.7-23.9-4.6-23.8-17.4c-0.1,0.8-0.3,0.6-0.5,0.9
		c-0.5-6.6,3-13.1,9-15.8c5.8-2.9,12.7-1.7,16.9,2.2c-2.3-3-6.9-6.2-12.3-5.9c-5.3,0.1-10.3,3.5-12,7.1c-2.7,1.7-3,6.6-4.2,7.5
		c-1.6,11.7,3,16.8,10.8,22.8c1.2,0.8,0.3,1,0.5,1.6c-2.6-1.2-5-3-6.9-5.3c1,1.5,2.1,3,3.6,4.1c-2.4-0.8-5.7-5.9-6.6-6.1
		c4.2,7.5,17.1,13.2,23.8,10.4c-3.1,0.1-7.1,0.1-10.6-1.2c-1.5-0.8-3.5-2.3-3.1-2.6c9.2,3.4,18.7,2.6,26.6-3.8
		c2-1.6,4.2-4.3,4.9-4.3c-1,1.4,0.2,0.7-0.6,2c2-3.2-0.9-1.3,2.1-5.6l1.1,1.5c-0.4-2.7,3.3-6,3-10.2c0.9-1.3,1,1.4,0,4.4
		c1.3-3.3,0.3-3.9,0.7-6.6c0.4,0.9,0.8,1.9,1.1,2.9c-0.8-3.2,0.8-5.4,1.3-7.3c-0.4-0.2-1.3,1.4-1.5-2.4c0-1.7,0.5-0.9,0.6-1.3
		c-0.3-0.2-1.2-1.5-1.7-3.9c0.4-0.6,1,1.5,1.5,1.6c-0.3-1.9-0.9-3.4-0.9-4.9c-1.5-3.1-0.5,0.4-1.7-1.3c-1.6-4.9,1.3-1.1,1.5-3.4
		c2.4,3.5,3.8,8.9,4.4,11.1c-0.5-2.7-1.3-5.4-2.2-7.9c0.7,0.3-1.2-5.6,0.9-1.7c-2.3-8.4-9.7-16.2-16.6-19.8C70.1,8,71.2,9,70.8,9.1
		c-3.4-2-2.8-2.2-3.3-3c-2.8-1.1-3,0.1-4.8,0c-5.2-2.8-6.2-2.5-11.1-4.2l0.2,1c-3.5-1.2-4,0.4-7.8,0c-0.2-0.2,1.2-0.6,2.4-0.8
		c-3.3,0.4-3.2-0.7-6.5,0.1c0.8-0.6,1.7-0.9,2.5-1.4c-2.7,0.2-6.5,1.6-5.4,0.3c-4.5,2-12.4,4.8-16.8,8.9l-0.1-0.9
		c-2,2.4-8.9,7.3-9.4,10.5l-0.5,0.1c-1.1,1.8-1.7,3.8-2.6,5.7c-1.4,2.4-2,0.9-1.8,1.3c-2.7,5.5-4.1,10.2-5.2,14
		c0.8,1.2,0,7.5,0.3,12.5c-1.4,24.7,17.3,48.7,37.8,54.2c3,1.1,7.5,1,11.2,1.1c-4.5-1.3-5.1-0.7-9.4-2.2c-3.1-1.5-3.8-3.2-6.1-5.1
		l0.9,1.6c-4.4-1.5-2.5-1.9-6.1-3l0.9-1.2c-1.4-0.1-3.7-2.4-4.4-3.6l-1.5,0.1c-1.9-2.3-2.9-3.9-2.8-5.2L21,90.5
		c-0.6-1-6.8-8.6-3.6-6.8c-0.6-0.6-1.4-0.9-2.3-2.5l0.7-0.8c-1.6-2-2.9-4.6-2.8-5.5c0.8,1.1,1.4,1.3,2,1.5c-4-9.8-4.2-0.5-7.2-10
		l0.6-0.1c-0.5-0.7-0.8-1.5-1.2-2.3l0.3-2.8c-2.8-3.3-0.8-14-0.4-19.9c0.3-2.4,2.4-4.9,4-8.9l-1-0.2c1.9-3.2,10.6-13,14.6-12.5
		c2-2.5-0.4,0-0.8-0.6c4.3-4.5,5.7-3.1,8.6-3.9c3.1-1.9-2.7,0.7-1.2-0.7c5.4-1.4,3.8-3.1,10.9-3.8c0.7,0.4-1.7,0.7-2.3,1.2
		c4.5-2.2,14.3-1.7,20.6,1.2c7.4,3.4,15.6,13.6,16,23.2l0.4,0.1c-0.2,3.8,0.6,8.2-0.8,12.2L77.1,46.9"/>
	<path fill="#404447" d="M32.5,59.8L32.2,61c1.2,1.6,2.1,3.3,3.6,4.6C34.7,63.5,33.9,62.6,32.5,59.8"/>
	<path fill="#404447" d="M35.2,59.7c-0.6-0.7-1-1.5-1.4-2.4c0.4,1.5,1.2,2.7,2,4L35.2,59.7"/>
	<path fill="#404447" d="M84.7,48.9l-0.3,0.7c-0.5,3.4-1.5,6.8-3.1,10C83,56.2,84.2,52.6,84.7,48.9"/>
	<path fill="#404447" d="M45.6,0.5c1.2-0.4,3-0.2,4.3-0.5c-1.7,0.1-3.4,0.2-5,0.4L45.6,0.5"/>
	<path fill="#404447" d="M3,23.2c0.3,2.6-1.9,3.6,0.5,1.9C4.8,22.2,2.9,24.3,3,23.2"/>
	<path fill="#404447" d="M0.1,35.2c0.6-1.7,0.7-2.8,0.9-3.8C-0.6,33.4,0.2,33.9,0.1,35.2"/>
</g>
</svg>
