<?xml version="1.0" encoding="utf-8"?>
<!-- Generator: Adobe Illustrator 18.1.1, SVG Export Plug-In . SVG Version: 6.00 Build 0)  -->
<svg version="1.1" id="Layer_1" xmlns="http://www.w3.org/2000/svg" xmlns:xlink="http://www.w3.org/1999/xlink" x="0px" y="0px"
	 viewBox="0 0 114.2 99.5" enable-background="new 0 0 114.2 99.5" xml:space="preserve">
<g>
	<g>
		<path fill="#404447" d="M56.9,36.2c0.7,0,1.4,0.2,2.1,0.5l49.1,27.5c1.3,0.7,2.2,2.2,2.2,3.7s-0.8,2.9-2.2,3.7L59.3,99
			c-1.3,0.7-2.9,0.7-4.1,0L6,71.4c-1.3-0.7-2.2-2.2-2.2-3.7s0.8-2.9,2.2-3.7l48.8-27.3C55.5,36.4,56.2,36.2,56.9,36.2L56.9,36.2z
			 M97.4,67.9L56.9,45.2L16.7,67.7l40.5,22.7L97.4,67.9L97.4,67.9z"/>
	</g>
	<g>
		<g>
			<path fill="#404447" d="M100.8,42.4c-5.3,0-9.7-4.3-9.7-9.7c0-5.3,4.3-9.7,9.7-9.7c5.3,0,9.7,4.3,9.7,9.7
				C110.5,38,106.1,42.4,100.8,42.4L100.8,42.4z M100.8,26.2c-3.6,0-6.4,2.9-6.4,6.4c0,3.6,2.9,6.4,6.4,6.4c3.6,0,6.4-2.9,6.4-6.4
				C107.3,29.1,104.4,26.2,100.8,26.2L100.8,26.2z"/>
		</g>
		<g>
			<g>
				<path fill="#404447" d="M94.8,28.2c-0.4,0-0.8-0.2-1.1-0.5l-2.2-2.2c-0.6-0.6-0.6-1.6,0-2.3c0.6-0.6,1.6-0.6,2.3,0l2.2,2.2
					c0.6,0.6,0.6,1.6,0,2.3C95.6,28.1,95.2,28.2,94.8,28.2L94.8,28.2z"/>
			</g>
			<g>
				<path fill="#404447" d="M109.1,42.6c-0.4,0-0.8-0.2-1.1-0.5l-2.6-2.6c-0.6-0.6-0.6-1.6,0-2.3c0.6-0.6,1.6-0.6,2.3,0l2.6,2.6
					c0.6,0.6,0.6,1.6,0,2.3C110,42.5,109.5,42.6,109.1,42.6L109.1,42.6z"/>
			</g>
		</g>
		<g>
			<g>
				<path fill="#404447" d="M106.9,28.2c-0.4,0-0.8-0.2-1.1-0.5c-0.6-0.6-0.6-1.6,0-2.3l2.2-2.2c0.6-0.6,1.6-0.6,2.3,0
					c0.6,0.6,0.6,1.6,0,2.3l-2.2,2.2C107.7,28.1,107.3,28.2,106.9,28.2L106.9,28.2z"/>
			</g>
			<g>
				<path fill="#404447" d="M92.5,42.6c-0.4,0-0.8-0.2-1.1-0.5c-0.6-0.6-0.6-1.6,0-2.3l2.7-2.6c0.6-0.6,1.6-0.6,2.3,0
					c0.6,0.6,0.6,1.6,0,2.3l-2.7,2.6C93.3,42.5,92.9,42.6,92.5,42.6L92.5,42.6z"/>
			</g>
		</g>
		<g>
			<g>
				<path fill="#404447" d="M100.8,25.7c-0.9,0-1.6-0.7-1.6-1.6v-3.2c0-0.9,0.7-1.6,1.6-1.6c0.9,0,1.6,0.7,1.6,1.6v3.2
					C102.4,25,101.7,25.7,100.8,25.7L100.8,25.7z"/>
			</g>
			<g>
				<path fill="#404447" d="M100.8,46.1L100.8,46.1c-0.9,0-1.6-0.7-1.6-1.6l0-3.7c0-0.9,0.7-1.6,1.6-1.6l0,0c0.9,0,1.6,0.7,1.6,1.6
					l0,3.7C102.4,45.3,101.7,46.1,100.8,46.1L100.8,46.1z"/>
			</g>
		</g>
		<g>
			<g>
				<path fill="#404447" d="M112.6,34.3h-3.2c-0.9,0-1.6-0.7-1.6-1.6c0-0.9,0.7-1.6,1.6-1.6h3.2c0.9,0,1.6,0.7,1.6,1.6
					C114.2,33.6,113.5,34.3,112.6,34.3L112.6,34.3z"/>
			</g>
			<g>
				<path fill="#404447" d="M92.8,34.3h-3.7c-0.9,0-1.6-0.7-1.6-1.6c0-0.9,0.7-1.6,1.6-1.6h3.7c0.9,0,1.6,0.7,1.6,1.6
					C94.4,33.6,93.7,34.3,92.8,34.3L92.8,34.3z"/>
			</g>
		</g>
	</g>
	<g>
		<g>
			<path fill="#404447" d="M56.5,23c-5.3,0-9.7-4.3-9.7-9.7c0-5.3,4.3-9.7,9.7-9.7c5.3,0,9.7,4.3,9.7,9.7C66.1,18.7,61.8,23,56.5,23
				L56.5,23z M56.5,6.9c-3.6,0-6.4,2.9-6.4,6.4c0,3.6,2.9,6.4,6.4,6.4c3.6,0,6.4-2.9,6.4-6.4C62.9,9.8,60,6.9,56.5,6.9L56.5,6.9z"/>
		</g>
		<g>
			<g>
				<path fill="#404447" d="M50.4,8.9c-0.4,0-0.8-0.2-1.1-0.5L47,6.2c-0.6-0.6-0.6-1.6,0-2.3c0.6-0.6,1.6-0.6,2.3,0l2.2,2.2
					c0.6,0.6,0.6,1.6,0,2.3C51.2,8.7,50.8,8.9,50.4,8.9L50.4,8.9z"/>
			</g>
			<g>
				<path fill="#404447" d="M64.8,23.3c-0.4,0-0.8-0.2-1.1-0.5L61,20.2c-0.6-0.6-0.6-1.6,0-2.3c0.6-0.6,1.6-0.6,2.3,0l2.6,2.6
					c0.6,0.6,0.6,1.6,0,2.3C65.6,23.1,65.2,23.3,64.8,23.3L64.8,23.3z"/>
			</g>
		</g>
		<g>
			<g>
				<path fill="#404447" d="M62.6,8.9c-0.4,0-0.8-0.2-1.1-0.5c-0.6-0.6-0.6-1.6,0-2.3l2.2-2.2c0.6-0.6,1.6-0.6,2.3,0
					c0.6,0.6,0.6,1.6,0,2.3l-2.2,2.2C63.4,8.7,63,8.9,62.6,8.9L62.6,8.9z"/>
			</g>
			<g>
				<path fill="#404447" d="M48.2,23.3c-0.4,0-0.8-0.2-1.1-0.5c-0.6-0.6-0.6-1.6,0-2.3l2.7-2.6c0.6-0.6,1.6-0.6,2.3,0
					c0.6,0.6,0.6,1.6,0,2.3l-2.7,2.6C49,23.1,48.6,23.3,48.2,23.3L48.2,23.3z"/>
			</g>
		</g>
		<g>
			<g>
				<path fill="#404447" d="M56.5,6.4c-0.9,0-1.6-0.7-1.6-1.6V1.6c0-0.9,0.7-1.6,1.6-1.6c0.9,0,1.6,0.7,1.6,1.6v3.2
					C58.1,5.7,57.4,6.4,56.5,6.4L56.5,6.4z"/>
			</g>
			<g>
				<path fill="#404447" d="M56.5,26.7L56.5,26.7c-0.9,0-1.6-0.7-1.6-1.6l0-3.7c0-0.9,0.7-1.6,1.6-1.6l0,0c0.9,0,1.6,0.7,1.6,1.6
					l0,3.7C58.1,26,57.4,26.7,56.5,26.7L56.5,26.7z"/>
			</g>
		</g>
		<g>
			<g>
				<path fill="#404447" d="M68.3,15h-3.2c-0.9,0-1.6-0.7-1.6-1.6c0-0.9,0.7-1.6,1.6-1.6h3.2c0.9,0,1.6,0.7,1.6,1.6
					C69.9,14.2,69.1,15,68.3,15L68.3,15z"/>
			</g>
			<g>
				<path fill="#404447" d="M48.5,15h-3.7c-0.9,0-1.6-0.7-1.6-1.6c0-0.9,0.7-1.6,1.6-1.6h3.7c0.9,0,1.6,0.7,1.6,1.6
					C50.1,14.2,49.4,15,48.5,15L48.5,15z"/>
			</g>
		</g>
	</g>
	<g>
		<g>
			<path fill="#404447" d="M13.4,42.2c-5.3,0-9.7-4.3-9.7-9.7c0-5.3,4.3-9.7,9.7-9.7c5.3,0,9.7,4.3,9.7,9.7
				C23,37.8,18.7,42.2,13.4,42.2L13.4,42.2z M13.4,26.1c-3.6,0-6.4,2.9-6.4,6.4c0,3.6,2.9,6.4,6.4,6.4c3.6,0,6.4-2.9,6.4-6.4
				C19.8,29,16.9,26.1,13.4,26.1L13.4,26.1z"/>
		</g>
		<g>
			<g>
				<path fill="#404447" d="M7.3,28c-0.4,0-0.8-0.2-1.1-0.5l-2.2-2.2c-0.6-0.6-0.6-1.6,0-2.3c0.6-0.6,1.6-0.6,2.3,0l2.2,2.2
					c0.6,0.6,0.6,1.6,0,2.3C8.1,27.9,7.7,28,7.3,28L7.3,28z"/>
			</g>
			<g>
				<path fill="#404447" d="M21.7,42.4c-0.4,0-0.8-0.2-1.1-0.5l-2.6-2.6c-0.6-0.6-0.6-1.6,0-2.3c0.6-0.6,1.6-0.6,2.3,0l2.6,2.6
					c0.6,0.6,0.6,1.6,0,2.3C22.5,42.3,22.1,42.4,21.7,42.4L21.7,42.4z"/>
			</g>
		</g>
		<g>
			<g>
				<path fill="#404447" d="M19.4,28c-0.4,0-0.8-0.2-1.1-0.5c-0.6-0.6-0.6-1.6,0-2.3l2.2-2.2c0.6-0.6,1.6-0.6,2.3,0
					c0.6,0.6,0.6,1.6,0,2.3l-2.2,2.2C20.3,27.9,19.8,28,19.4,28L19.4,28z"/>
			</g>
			<g>
				<path fill="#404447" d="M5,42.4c-0.4,0-0.8-0.2-1.1-0.5c-0.6-0.6-0.6-1.6,0-2.3L6.6,37c0.6-0.6,1.6-0.6,2.3,0
					c0.6,0.6,0.6,1.6,0,2.3L6.2,42C5.9,42.3,5.5,42.4,5,42.4L5,42.4z"/>
			</g>
		</g>
		<g>
			<g>
				<path fill="#404447" d="M13.4,25.5c-0.9,0-1.6-0.7-1.6-1.6v-3.2c0-0.9,0.7-1.6,1.6-1.6c0.9,0,1.6,0.7,1.6,1.6v3.2
					C15,24.8,14.2,25.5,13.4,25.5L13.4,25.5z"/>
			</g>
			<g>
				<path fill="#404447" d="M13.4,45.9L13.4,45.9c-0.9,0-1.6-0.7-1.6-1.6l0-3.7c0-0.9,0.7-1.6,1.6-1.6l0,0c0.9,0,1.6,0.7,1.6,1.6
					l0,3.7C15,45.2,14.2,45.9,13.4,45.9L13.4,45.9z"/>
			</g>
		</g>
		<g>
			<g>
				<path fill="#404447" d="M25.1,34.1H22c-0.9,0-1.6-0.7-1.6-1.6c0-0.9,0.7-1.6,1.6-1.6h3.2c0.9,0,1.6,0.7,1.6,1.6
					C26.7,33.4,26,34.1,25.1,34.1L25.1,34.1z"/>
			</g>
			<g>
				<path fill="#404447" d="M5.4,34.1H1.6c-0.9,0-1.6-0.7-1.6-1.6c0-0.9,0.7-1.6,1.6-1.6h3.7c0.9,0,1.6,0.7,1.6,1.6
					C7,33.4,6.2,34.1,5.4,34.1L5.4,34.1z"/>
			</g>
		</g>
	</g>
</g>
</svg>
