<?xml version="1.0" encoding="utf-8"?>
<!-- Generator: Adobe Illustrator 18.1.1, SVG Export Plug-In . SVG Version: 6.00 Build 0)  -->
<svg version="1.1" id="Layer_1" xmlns="http://www.w3.org/2000/svg" xmlns:xlink="http://www.w3.org/1999/xlink" x="0px" y="0px"
	 viewBox="0 0 119 86.2" enable-background="new 0 0 119 86.2" xml:space="preserve">
<g>
	<g>
		<path fill="#404447" d="M59.8,39.9c-9.9,0-17.9-8.9-17.9-19.9C41.9,8.9,50,0,59.8,0s17.9,8.9,17.9,19.9
			C77.8,30.9,69.7,39.9,59.8,39.9L59.8,39.9z M59.8,9.5c-4.7,0-8.5,4.7-8.5,10.5c0,5.8,3.8,10.5,8.5,10.5c4.7,0,8.4-4.7,8.4-10.5
			C68.3,14.2,64.5,9.5,59.8,9.5L59.8,9.5z"/>
	</g>
	<g>
		<path fill="#404447" d="M84.9,86.2H34.1c-2.5,0-4.6-1.9-4.7-4.4c-0.4-5.5-0.8-11-1.1-16.4c-0.5-6.6,4.5-14,11-16.4
			c13-4.7,27.4-4.7,40.3,0c6.6,2.4,11.6,9.8,11.1,16.5l-1.1,16.4C89.4,84.3,87.4,86.2,84.9,86.2L84.9,86.2z M38.5,76.7h41.9l0.8-12
			c0.1-2-1.8-5.8-4.9-6.9c-10.8-3.9-22.9-3.9-33.8,0c-3,1.1-5,4.9-4.8,6.9C38,68.7,38.3,72.7,38.5,76.7L38.5,76.7z"/>
	</g>
	<g>
		<path fill="#404447" d="M84.9,86.2H34.1c-2.5,0-4.6-1.9-4.7-4.4c-0.4-5.5-0.8-11-1.1-16.4c-0.5-6.6,4.5-14,11-16.4
			c13-4.7,27.4-4.7,40.3,0c6.6,2.4,11.6,9.8,11.1,16.5l-1.1,16.4C89.4,84.3,87.4,86.2,84.9,86.2L84.9,86.2z M38.5,76.7h41.9l0.8-12
			c0.1-2-1.8-5.8-4.9-6.9c-10.8-3.9-22.9-3.9-33.8,0c-3,1.1-5,4.9-4.8,6.9C38,68.7,38.3,72.7,38.5,76.7L38.5,76.7z"/>
	</g>
	<g>
		<path fill="#404447" d="M115.6,78.5H95.4c-1.3,0-2.4-1.1-2.4-2.4c0-1.3,1.1-2.4,2.4-2.4h18l0.8-11.9c0.2-2.6-2.1-6.5-5.3-7.7
			c-4.6-1.6-9.4-2.5-14.3-2.6c-1.3,0-2.3-1.1-2.3-2.4c0-1.3,1.1-2.3,2.4-2.3h0c5.4,0.1,10.8,1.1,15.9,2.9c4.9,1.8,8.8,7.5,8.4,12.5
			l-1,14.1C117.9,77.5,116.8,78.5,115.6,78.5L115.6,78.5z"/>
	</g>
	<g>
		<path fill="#404447" d="M100,41.7c-7,0-12.7-6.4-12.7-14.2c0-7.8,5.7-14.2,12.7-14.2c7,0,12.6,6.4,12.6,14.2
			C112.7,35.3,107,41.7,100,41.7L100,41.7z M100,18c-4.4,0-7.9,4.2-7.9,9.5c0,5.2,3.6,9.5,7.9,9.5c4.4,0,7.9-4.3,7.9-9.5
			C107.9,22.2,104.4,18,100,18L100,18z"/>
	</g>
	<g>
		<path fill="#404447" d="M23.6,78.5H3.4c-1.2,0-2.3-1-2.4-2.2L0,62.2c-0.3-5,3.5-10.7,8.4-12.5c5.1-1.8,10.5-2.8,15.9-2.9
			c1.4,0.2,2.4,1,2.4,2.3c0,1.3-1,2.4-2.3,2.4c-4.9,0.1-9.7,1-14.4,2.6c-3.2,1.2-5.5,5.1-5.3,7.7l0.8,11.9h18c1.3,0,2.4,1.1,2.4,2.4
			C25.9,77.5,24.9,78.5,23.6,78.5L23.6,78.5z"/>
	</g>
	<g>
		<path fill="#404447" d="M18.9,41.7c-7,0-12.6-6.4-12.6-14.2c0-7.8,5.7-14.2,12.6-14.2c7,0,12.7,6.4,12.7,14.2
			C31.6,35.3,25.9,41.7,18.9,41.7L18.9,41.7z M18.9,18c-4.4,0-7.9,4.2-7.9,9.5c0,5.2,3.5,9.5,7.9,9.5c4.4,0,7.9-4.3,7.9-9.5
			C26.8,22.2,23.3,18,18.9,18L18.9,18z"/>
	</g>
</g>
</svg>
