<?xml version="1.0" encoding="utf-8"?>
<!-- Generator: Adobe Illustrator 18.1.1, SVG Export Plug-In . SVG Version: 6.00 Build 0)  -->
<svg version="1.1" id="Layer_1" xmlns="http://www.w3.org/2000/svg" xmlns:xlink="http://www.w3.org/1999/xlink" x="0px" y="0px"
	 viewBox="0 0 600 600" enable-background="new 0 0 600 600" xml:space="preserve">
<g>
	<path fill="#404447" d="M304.9,574c-153,0-277.8-124.7-277.8-277.8S151.9,18.5,304.9,18.5s277.8,124.7,277.8,277.8
		S458.5,574,304.9,574z M304.9,69.9c-124.7,0-226.4,101.6-226.4,226.4s101.6,226.4,226.4,226.4S531.3,421,531.3,296.2
		C531.9,171.5,430.2,69.9,304.9,69.9z"/>
	<g>
		<path fill="#404447" d="M37,597.7c-6.4,0-13.3-2.3-17.9-7.5c-9.8-9.8-9.8-26,0-36.4l210.2-210.2c7.5-7.5,18.5-9.2,27.7-5.8
			c9.8,4,15.6,13.3,15.6,23.7v84.3c0,13.9-11.5,25.4-25.4,25.4c-13.9,0-25.4-11.5-25.4-25.4v-22.5L54.9,590.2
			C50.2,595.4,43.9,597.7,37,597.7z"/>
		<path fill="#404447" d="M247.2,387.5h-83.7c-13.9,0-25.4-11.5-25.4-25.4s11.5-25.4,25.4-25.4h84.3c13.9,0,25.4,11.5,25.4,25.4
			S261,387.5,247.2,387.5z"/>
	</g>
	<g>
		<path fill="#404447" d="M560.2,600c-6.4,0-13.3-2.3-17.9-7.5L332.1,382.3c-7.5-7.5-9.2-18.5-5.8-27.7c4-9.8,13.3-15.6,23.7-15.6
			h84.3c13.9,0,25.4,11.5,25.4,25.4c0,13.9-11.5,25.4-25.4,25.4h-22.5l166.3,166.3c9.8,9.8,9.8,26,0,36.4
			C573.4,597.7,566.5,600,560.2,600z"/>
		<path fill="#404447" d="M350,474.1c-13.9,0-25.4-11.5-25.4-25.4v-84.3c0-13.9,11.5-25.4,25.4-25.4s25.4,11.5,25.4,25.4v84.3
			C375.4,462.6,364.4,474.1,350,474.1z"/>
	</g>
	<g>
		<path fill="#404447" d="M352.8,261c-3.5,0-6.4-0.6-9.8-1.7c-9.8-4-15.6-13.3-15.6-23.7v-83.7c0-13.9,11.5-25.4,25.4-25.4
			s25.4,11.5,25.4,25.4v22.5L545.1,7.5c9.8-9.8,26-9.8,36.4,0c9.8,9.8,9.8,26,0,36.4L370.7,253.5C366.1,258.7,359.2,261,352.8,261z"
			/>
		<path fill="#404447" d="M436.6,261h-83.7c-13.9,0-25.4-11.5-25.4-25.4c0-13.9,11.5-25.4,25.4-25.4h84.3
			c13.9,0,25.4,11.5,25.4,25.4C462.6,249.5,451,261,436.6,261z"/>
	</g>
	<g>
		<path fill="#404447" d="M248.9,262.8h-84.3c-13.9,0-25.4-11.5-25.4-25.4c0-13.9,11.5-25.4,25.4-25.4h22.5L20.8,45
			c-9.8-9.8-9.8-26,0-36.4c9.8-9.8,26-9.8,36.4,0l209.6,210.8c7.5,7.5,9.2,18.5,5.8,27.7C268.5,256.4,259.3,262.8,248.9,262.8z"/>
		<path fill="#404447" d="M248.9,262.8c-13.9,0-25.4-11.5-25.4-25.4v-83.7c0-13.9,11.5-25.4,25.4-25.4c13.9,0,25.4,11.5,25.4,25.4
			v84.3C274.3,251.2,262.8,262.8,248.9,262.8z"/>
	</g>
</g>
</svg>
