<?xml version="1.0" encoding="utf-8"?>
<!-- Generator: Adobe Illustrator 18.1.1, SVG Export Plug-In . SVG Version: 6.00 Build 0)  -->
<svg version="1.1" id="Layer_1" xmlns="http://www.w3.org/2000/svg" xmlns:xlink="http://www.w3.org/1999/xlink" x="0px" y="0px"
	 viewBox="0 0 98.5 81.8" enable-background="new 0 0 98.5 81.8" xml:space="preserve">
<g>
	<g>
		<path fill="#404447" d="M94.3,81.8H4.1C1.8,81.8,0,80,0,77.7V4.1C0,1.8,1.8,0,4.1,0h90.2c2.3,0,4.1,1.8,4.1,4.1v73.5
			C98.5,80,96.6,81.8,94.3,81.8L94.3,81.8z M8.3,73.5h81.9V8.3H8.3V73.5L8.3,73.5z"/>
	</g>
	<g>
		<path fill="#404447" d="M81,20.3H17.4c-1.1,0-2.1-0.9-2.1-2.1c0-1.1,0.9-2.1,2.1-2.1H81c1.1,0,2.1,0.9,2.1,2.1
			C83.1,19.4,82.2,20.3,81,20.3L81,20.3z"/>
	</g>
	<g>
		<path fill="#404447" d="M67.1,36.5H31.4c-1.1,0-2.1-0.9-2.1-2.1c0-1.1,0.9-2.1,2.1-2.1h35.7c1.1,0,2.1,0.9,2.1,2.1
			C69.1,35.6,68.2,36.5,67.1,36.5L67.1,36.5z"/>
	</g>
	<g>
		<path fill="#404447" d="M75.3,28.4H23.2c-1.1,0-2.1-0.9-2.1-2.1c0-1.1,0.9-2.1,2.1-2.1h52.1c1.1,0,2.1,0.9,2.1,2.1
			C77.4,27.5,76.4,28.4,75.3,28.4L75.3,28.4z"/>
	</g>
	<g>
		<g>
			<path fill="#404447" d="M49.2,54.7H19c-1.1,0-2.1-0.9-2.1-2.1c0-1.1,0.9-2.1,2.1-2.1h30.2c1.1,0,2.1,0.9,2.1,2.1
				C51.3,53.8,50.4,54.7,49.2,54.7L49.2,54.7z"/>
		</g>
		<g>
			<path fill="#404447" d="M37.8,62.7H19c-1.1,0-2.1-0.9-2.1-2.1c0-1.1,0.9-2.1,2.1-2.1h18.7c1.1,0,2.1,0.9,2.1,2.1
				C39.8,61.7,38.9,62.7,37.8,62.7L37.8,62.7z"/>
		</g>
		<g>
			<path fill="#404447" d="M70.4,63.5c-6.1,0-11.1-5-11.1-11.1c0-6.1,5-11.1,11.1-11.1c6.1,0,11.1,5,11.1,11.1
				C81.5,58.5,76.5,63.5,70.4,63.5L70.4,63.5z M70.4,45.4c-3.8,0-7,3.1-7,7s3.1,7,7,7c3.8,0,7-3.1,7-7S74.2,45.4,70.4,45.4
				L70.4,45.4z"/>
		</g>
		<g>
			<path fill="#404447" d="M73.4,63.7c-0.2,0-0.4,0-0.6-0.1l-2.4-0.7L68,63.6c-0.8,0.2-1.7-0.1-2.2-0.7l-1.5-2l-2.4-0.9
				c-0.8-0.3-1.3-1-1.4-1.9l-0.1-2.5L59,53.6c-0.5-0.7-0.5-1.6,0-2.3l1.4-2.1l0.1-2.5c0-0.8,0.6-1.6,1.4-1.9l2.4-0.9l1.5-2
				c0.5-0.7,1.4-0.9,2.2-0.7l2.4,0.7l2.4-0.7c0.8-0.2,1.7,0,2.2,0.7l1.5,2l2.4,0.9c0.8,0.3,1.3,1,1.4,1.9l0.1,2.5l1.4,2.1
				c0.5,0.7,0.5,1.6,0,2.3l-1.4,2.1l-0.1,2.5c0,0.8-0.6,1.6-1.4,1.9l-2.4,0.9l-1.5,2C74.6,63.4,74,63.7,73.4,63.7L73.4,63.7z
				 M64.6,56.7l1.6,0.6c0.4,0.1,0.7,0.4,0.9,0.7l1.1,1.4l1.7-0.5c0.4-0.1,0.8-0.1,1.2,0l1.7,0.5l1.1-1.4c0.2-0.3,0.6-0.5,0.9-0.7
				l1.6-0.6l0.1-1.7c0-0.4,0.1-0.8,0.4-1.1l1-1.4l-1-1.4c-0.2-0.3-0.3-0.7-0.4-1.1l-0.1-1.7l-1.6-0.6c-0.4-0.1-0.7-0.4-0.9-0.7
				l-1.1-1.4L71,46c-0.4,0.1-0.8,0.1-1.2,0l-1.7-0.5l-1,1.4c-0.2,0.3-0.6,0.5-0.9,0.7l-1.6,0.6l-0.1,1.7c0,0.4-0.1,0.8-0.4,1.1
				l-1,1.4l1,1.4c0.2,0.3,0.3,0.7,0.4,1.1L64.6,56.7L64.6,56.7z"/>
		</g>
		<g>
			<g>
				<path fill="#404447" d="M77.3,69.1c-0.6,0-1.3-0.3-1.7-0.8l-3.4-4.6c-0.7-0.9-0.5-2.2,0.4-2.9c0.9-0.7,2.2-0.5,2.9,0.4l3.4,4.6
					c0.7,0.9,0.5,2.2-0.4,2.9C78.1,68.9,77.7,69.1,77.3,69.1L77.3,69.1z"/>
			</g>
			<g>
				<path fill="#404447" d="M63.5,69.1c-0.4,0-0.9-0.1-1.2-0.4c-0.9-0.7-1.1-2-0.4-2.9l3.4-4.6c0.7-0.9,2-1.1,2.9-0.4
					c0.9,0.7,1.1,2,0.4,2.9l-3.4,4.6C64.7,68.8,64.1,69.1,63.5,69.1L63.5,69.1z"/>
			</g>
		</g>
	</g>
</g>
</svg>
