<?xml version="1.0" encoding="utf-8"?>
<!-- Generator: Adobe Illustrator 18.1.1, SVG Export Plug-In . SVG Version: 6.00 Build 0)  -->
<svg version="1.1" id="Layer_1" xmlns="http://www.w3.org/2000/svg" xmlns:xlink="http://www.w3.org/1999/xlink" x="0px" y="0px"
	 viewBox="0 0 105.6 63.2" enable-background="new 0 0 105.6 63.2" xml:space="preserve">
<g>
	<g>
		<path fill="#404447" d="M31.6,63.2C14.2,63.2,0,49,0,31.6C0,14.2,14.2,0,31.6,0c11.2,0,21.6,6.1,27.2,15.6h30.8
			c8.8,0,16,7.2,16,16c0,7.9-6,14.7-13.8,15.8l-2,0.3l-1.5-1.5l-2.8-3.1l-5.5,6.3l-5.5-6.3l-3.8,4.3l-2,0.2h-9.7
			C53.2,57.2,42.8,63.2,31.6,63.2L31.6,63.2z M31.6,8.3C18.8,8.3,8.3,18.8,8.3,31.6s10.4,23.3,23.3,23.3c8.9,0,17.1-5.2,21-13.3
			l1.1-2.4h12.9l7.7-8.8l5.5,6.3l5.5-6.3l7.2,8.1c2.7-1.2,4.6-3.9,4.6-7c0-4.2-3.4-7.6-7.6-7.6H53.7l-1.1-2.4
			C48.7,13.5,40.5,8.3,31.6,8.3L31.6,8.3z"/>
	</g>
	<path fill="#404447" d="M23.8,25.7c-3.3,0-5.9,2.6-5.9,5.9s2.6,5.9,5.9,5.9s5.9-2.6,5.9-5.9S27,25.7,23.8,25.7L23.8,25.7z"/>
</g>
</svg>
