<?xml version="1.0" encoding="utf-8"?>
<!-- Generator: Adobe Illustrator 18.1.1, SVG Export Plug-In . SVG Version: 6.00 Build 0)  -->
<svg version="1.1" id="Layer_1" xmlns="http://www.w3.org/2000/svg" xmlns:xlink="http://www.w3.org/1999/xlink" x="0px" y="0px"
	 viewBox="0 0 600 600" enable-background="new 0 0 600 600" xml:space="preserve">
<g>
	<g>
		<g>
			<path fill="#404447" d="M122.9,572.2c-19,0-35.5-6.7-47.7-19c-29.4-29.4-24.5-81.3,11.6-117.4L203.7,319c9.2-9.2,24.5-9.2,33.6,0
				l72.2,72.2c4.3,4.3,6.7,10.4,6.7,16.5s-2.4,12.2-6.7,16.5L192.7,541.6C173.1,561.2,148,572.2,122.9,572.2L122.9,572.2z
				 M220.8,369.7l-100.3,99.7c-18.3,18.3-20.8,41-11.6,50.2c4.3,4.3,10.4,4.9,14.1,4.9c11.6,0,25.1-6.1,36.1-17.1l99.7-99.7
				L220.8,369.7L220.8,369.7z"/>
		</g>
		<g>
			<path fill="#404447" d="M513.1,173.4c-15.3,0-30-6.1-41-17.1c-22.6-22.6-22.6-58.7,0-81.3l39.8-39.8c9.2-9.2,24.5-9.2,33.6,0
				l47.7,47.7c4.3,4.3,6.7,10.4,6.7,16.5c0,6.1-2.4,12.2-6.7,16.5l-39.8,39.8C542.5,167.3,528.4,173.4,513.1,173.4L513.1,173.4z
				 M528.4,85.9l-22.6,22.6c-3.7,3.7-3.7,10.4,0,14.1c4.9,4.9,9.2,4.9,14.1,0l22.6-22.6L528.4,85.9L528.4,85.9z"/>
		</g>
		<g>
			<path fill="#404447" d="M358.4,293.9c-6.1,0-12.2-2.4-16.5-6.7c-9.2-9.2-9.2-24.5,0-33.6l130.3-130.3c9.2-9.2,24.5-9.2,33.6,0
				c9.2,9.2,9.2,24.5,0,33.6L374.9,286.5C370.6,291.4,364.5,293.9,358.4,293.9L358.4,293.9z"/>
		</g>
	</g>
	<g>
		<path fill="#404447" d="M472.8,582L472.8,582c-24.5,0-47.1-9.8-64.8-26.9L181,328.1c-49.5,8-99.7-8.6-135.2-43.4
			C3.1,241.3-11,176.5,10.4,119.6c3.1-7.3,9.2-13.5,17.1-14.7c8-1.8,15.9,0.6,22,6.1l64.2,64.2l34.9-9.2l9.2-34.9L93,67
			c-5.5-5.5-8-14.1-6.1-22c1.8-8,7.3-14.1,14.7-17.1c17.7-6.7,36.1-9.8,55-9.8c41.6,0,80.7,16.5,110.1,45.9
			c35.5,35.5,51.4,86.2,43.4,135.2L537,426c17.1,17.1,26.9,40.4,26.9,64.8s-9.8,47.1-26.9,64.8C519.9,572.8,497.2,582,472.8,582
			L472.8,582z M189,278.6c6.1,0,12.2,2.4,16.5,6.7l236.1,236.1c16.5,16.5,45.3,16.5,62.4,0c8.6-8.6,12.8-19.6,12.8-31.2
			c0-11.6-4.9-22.6-12.8-31.2L267.3,223.5c-6.1-6.1-8-14.7-6.1-22.6c9.8-37.9-1.2-76.5-28.1-104c-20.2-20.2-46.5-31.2-74.6-31.8
			l41.6,41.6c6.1,6.1,8.6,14.7,6.1,22.6l-16.5,61.2c-2.4,8-8.6,14.7-16.5,16.5l-61.2,16.5c-8,2.4-17.1,0-23.2-6.1l-41.6-41.6
			c0.6,27.5,11.6,54.4,31.8,74.6c26.9,26.9,66.7,37.9,104,28.1C184.7,279.2,186.5,278.6,189,278.6L189,278.6z"/>
	</g>
	<path fill="#404447" d="M469.1,465.7c-11,0-19.6,8.6-19.6,19.6c0,11,8.6,19.6,19.6,19.6c11,0,19.6-8.6,19.6-19.6
		C488.7,474.9,480.1,465.7,469.1,465.7L469.1,465.7z"/>
</g>
</svg>
