<?xml version="1.0" encoding="utf-8"?>
<!-- Generator: Adobe Illustrator 18.1.1, SVG Export Plug-In . SVG Version: 6.00 Build 0)  -->
<svg version="1.1" id="Layer_1" xmlns="http://www.w3.org/2000/svg" xmlns:xlink="http://www.w3.org/1999/xlink" x="0px" y="0px"
	 viewBox="0 0 600 600" enable-background="new 0 0 600 600" xml:space="preserve">
<g>
	<g>
		<g>
			<path fill="#404447" d="M200.2,410.1c-3.9,0-7.7-1.3-10.9-4.5l-41.2-39.3c-6.4-6.4-6.4-16.1-0.6-22.5c5.8-6.4,16.1-6.4,22.5-0.6
				l41.2,39.9c6.4,6.4,6.4,16.1,0.6,22.5C209.2,408.8,204.7,410.1,200.2,410.1L200.2,410.1z"/>
		</g>
		<g>
			<path fill="#404447" d="M268.5,404.3c-3.9,0-8.4-1.3-11.6-4.5c-6.4-6.4-6.4-16.1,0-22.5l148.7-148.7c2.6-2.6,5.8-4.5,9.7-4.5
				l63.1-6.4c9-0.6,16.7,5.2,17.4,14.2c0.6,9-5.2,16.7-14.2,17.4l-56.7,5.8L279.4,399.8C276.8,403,272.3,404.3,268.5,404.3
				L268.5,404.3z"/>
		</g>
		<g>
			<path fill="#404447" d="M233.7,365c-4.5,0-8.4-1.9-11.6-4.5l-94-94c-3.2-3.2-4.5-7.1-4.5-11.6s1.9-8.4,4.5-11.6l94-94
				c6.4-6.4,16.1-6.4,22.5,0l94,94c6.4,6.4,6.4,16.1,0,22.5l-93.3,94.6C242.1,363.7,238.2,365,233.7,365L233.7,365z M162.2,254.9
				l71.5,71.5l71.5-71.5l-71.5-71.5L162.2,254.9L162.2,254.9z"/>
		</g>
		<g>
			<polygon fill="#404447" points="256.2,254.9 233.7,232.4 269.7,197 292.3,219.5 			"/>
		</g>
		<g>
			<path fill="#404447" d="M235,471.2c-13.5,0-26.4-5.2-36.1-14.8s-14.8-22.5-14.8-36.1c0-13.5,5.2-26.4,14.8-36.1
				c19.3-19.3,52.8-19.3,71.5,0c9.7,9.7,14.8,22.5,14.8,36.1c0,13.5-5.2,26.4-14.8,36.1C261.4,466.1,248.5,471.2,235,471.2
				L235,471.2z M235,401.7c-5.2,0-9.7,1.9-13.5,5.8c-3.9,3.9-5.8,8.4-5.8,13.5c0,5.2,1.9,9.7,5.8,13.5c7.1,7.1,19.3,7.1,26.4,0
				c7.1-7.1,7.1-19.3,0-26.4C245.3,403.6,240.1,401.7,235,401.7L235,401.7z"/>
		</g>
	</g>
	<g>
		<path fill="#404447" d="M574.2,600H25.1C10.9,600,0,589.1,0,574.9V25.1C0,10.9,10.9,0,25.1,0h549.1c14.2,0,25.1,10.9,25.1,25.1
			v549.1C600,588.4,588.4,600,574.2,600L574.2,600z M50.2,549.1h498.9V50.2H50.2V549.1L50.2,549.1z"/>
	</g>
</g>
</svg>
