<?xml version="1.0" encoding="utf-8"?>
<!-- Generator: Adobe Illustrator 18.1.1, SVG Export Plug-In . SVG Version: 6.00 Build 0)  -->
<svg version="1.1" id="Layer_1" xmlns="http://www.w3.org/2000/svg" xmlns:xlink="http://www.w3.org/1999/xlink" x="0px" y="0px"
	 viewBox="0 0 93.2 93.2" enable-background="new 0 0 93.2 93.2" xml:space="preserve">
<g>
	<g>
		<path fill="#404447" d="M89.2,93.2H3.9c-2.2,0-3.9-1.7-3.9-3.9V3.9C0,1.7,1.7,0,3.9,0h85.3c2.2,0,3.9,1.7,3.9,3.9v85.3
			C93.2,91.4,91.4,93.2,89.2,93.2L89.2,93.2z M7.8,85.3h77.5V7.8H7.8V85.3L7.8,85.3z"/>
	</g>
	<g>
		<path fill="#404447" d="M71.9,73.7H22c-1.3,0-2.3-1-2.3-2.3V21.5c0-1.3,1-2.3,2.3-2.3h49.8c1.3,0,2.3,1,2.3,2.3v49.8
			C74.2,72.6,73.1,73.7,71.9,73.7L71.9,73.7z M24.3,69.1h45.3V23.8H24.3V69.1L24.3,69.1z"/>
	</g>
	<g>
		<path fill="#404447" d="M65.2,66.2H28.9c-0.9,0-1.7-0.7-1.7-1.7V28.2c0-0.9,0.7-1.7,1.7-1.7h36.3c0.9,0,1.7,0.7,1.7,1.7v36.3
			C66.9,65.4,66.2,66.2,65.2,66.2L65.2,66.2z M30.6,62.8h33v-33h-33V62.8L30.6,62.8z"/>
	</g>
	<g>
		<path fill="#404447" d="M59.1,59.7h-24c-0.6,0-1.1-0.5-1.1-1.1v-24c0-0.6,0.5-1.1,1.1-1.1h24c0.6,0,1.1,0.5,1.1,1.1v24
			C60.2,59.2,59.7,59.7,59.1,59.7L59.1,59.7z M36.2,57.5H58V35.7H36.2V57.5L36.2,57.5z"/>
	</g>
</g>
</svg>
