<?xml version="1.0" encoding="utf-8"?>
<!-- Generator: Adobe Illustrator 18.1.1, SVG Export Plug-In . SVG Version: 6.00 Build 0)  -->
<svg version="1.1" id="Layer_1" xmlns="http://www.w3.org/2000/svg" xmlns:xlink="http://www.w3.org/1999/xlink" x="0px" y="0px"
	 viewBox="0 0 89.6 90.9" enable-background="new 0 0 89.6 90.9" xml:space="preserve">
<g>
	<g>
		<path fill="#404447" d="M85.7,7.9H4c-2.2,0-4-1.8-4-4s1.8-4,4-4h81.7c2.2,0,4,1.8,4,4S87.8,7.9,85.7,7.9L85.7,7.9z"/>
	</g>
	<g>
		<path fill="#404447" d="M85.7,28.7H4c-2.2,0-4-1.8-4-4s1.8-4,4-4h81.7c2.2,0,4,1.8,4,4S87.8,28.7,85.7,28.7L85.7,28.7z"/>
	</g>
	<g>
		<path fill="#404447" d="M85.7,49.4H4c-2.2,0-4-1.8-4-4s1.8-4,4-4h81.7c2.2,0,4,1.8,4,4S87.8,49.4,85.7,49.4L85.7,49.4z"/>
	</g>
	<g>
		<path fill="#404447" d="M85.7,70.2H4c-2.2,0-4-1.8-4-4c0-2.2,1.8-4,4-4h81.7c2.2,0,4,1.8,4,4C89.6,68.4,87.8,70.2,85.7,70.2
			L85.7,70.2z"/>
	</g>
	<g>
		<path fill="#404447" d="M85.7,90.9H4c-2.2,0-4-1.8-4-4c0-2.2,1.8-4,4-4h81.7c2.2,0,4,1.8,4,4C89.6,89.2,87.8,90.9,85.7,90.9
			L85.7,90.9z"/>
	</g>
</g>
</svg>
