<?xml version="1.0" encoding="utf-8"?>
<!-- Generator: Adobe Illustrator 18.1.1, SVG Export Plug-In . SVG Version: 6.00 Build 0)  -->
<svg version="1.1" id="Layer_1" xmlns="http://www.w3.org/2000/svg" xmlns:xlink="http://www.w3.org/1999/xlink" x="0px" y="0px"
	 viewBox="0 0 96.6 96.6" enable-background="new 0 0 96.6 96.6" xml:space="preserve">
<g>
	<g>
		<path fill="#404447" d="M41.4,45.5H4.1c-2.3,0-4.1-1.8-4.1-4.1V4.1C0,1.8,1.8,0,4.1,0h37.3c2.3,0,4.1,1.8,4.1,4.1v37.3
			C45.5,43.7,43.7,45.5,41.4,45.5L41.4,45.5z M8.3,37.3h29v-29h-29V37.3L8.3,37.3z"/>
	</g>
	<g>
		<path fill="#404447" d="M92.5,45.5H55.2c-2.3,0-4.1-1.8-4.1-4.1V4.1c0-2.3,1.8-4.1,4.1-4.1h37.3c2.3,0,4.1,1.8,4.1,4.1v37.3
			C96.6,43.7,94.8,45.5,92.5,45.5L92.5,45.5z M59.3,37.3h29v-29h-29V37.3L59.3,37.3z"/>
	</g>
	<g>
		<path fill="#404447" d="M41.4,96.6H4.1c-2.3,0-4.1-1.8-4.1-4.1V55.2C0,52.9,1.8,51,4.1,51h37.3c2.3,0,4.1,1.8,4.1,4.1v37.3
			C45.5,94.7,43.7,96.6,41.4,96.6L41.4,96.6z M8.3,88.3h29v-29h-29V88.3L8.3,88.3z"/>
	</g>
	<g>
		<path fill="#404447" d="M92.5,96.6H55.2c-2.3,0-4.1-1.8-4.1-4.1V55.2c0-2.3,1.8-4.1,4.1-4.1h37.3c2.3,0,4.1,1.8,4.1,4.1v37.3
			C96.6,94.7,94.8,96.6,92.5,96.6L92.5,96.6z M59.3,88.3h29v-29h-29V88.3L59.3,88.3z"/>
	</g>
</g>
</svg>
