<?xml version="1.0" encoding="utf-8"?>
<!-- Generator: Adobe Illustrator 18.1.1, SVG Export Plug-In . SVG Version: 6.00 Build 0)  -->
<svg version="1.1" id="Layer_1" xmlns="http://www.w3.org/2000/svg" xmlns:xlink="http://www.w3.org/1999/xlink" x="0px" y="0px"
	 viewBox="0 0 94.2 92.7" enable-background="new 0 0 94.2 92.7" xml:space="preserve">
<g>
	<g>
		<path fill="#404447" d="M47.2,13.8c-6.5,0-11.7,5.2-11.7,11.6c0,6.4,5.3,11.6,11.7,11.6c6.5,0,11.7-5.2,11.7-11.6
			C59,19,53.7,13.8,47.2,13.8L47.2,13.8z"/>
		<path fill="#404447" d="M47.2,55.8c-6.5,0-11.7,5.2-11.7,11.6c0,6.4,5.3,11.6,11.7,11.6c6.5,0,11.7-5.2,11.7-11.6
			C59,61.1,53.7,55.8,47.2,55.8L47.2,55.8z"/>
		<path fill="#404447" d="M68.4,34.8c-6.5,0-11.7,5.2-11.7,11.6c0,6.4,5.3,11.6,11.7,11.6c6.5,0,11.7-5.2,11.7-11.6
			C80.1,40,74.9,34.8,68.4,34.8L68.4,34.8z"/>
		<path fill="#404447" d="M26.1,34.8c-6.5,0-11.7,5.2-11.7,11.6c0,6.4,5.3,11.6,11.7,11.6c6.5,0,11.7-5.2,11.7-11.6
			C37.8,40,32.5,34.8,26.1,34.8L26.1,34.8z"/>
	</g>
	<g>
		<path fill="#404447" d="M90.2,92.7H4c-2.2,0-4-1.8-4-4V4c0-2.2,1.8-4,4-4h86.3c2.2,0,4,1.8,4,4v84.7
			C94.2,90.9,92.4,92.7,90.2,92.7L90.2,92.7z M7.9,84.7h78.3V7.9H7.9V84.7L7.9,84.7z"/>
	</g>
</g>
</svg>
