<?xml version="1.0" encoding="utf-8"?>
<!-- Generator: Adobe Illustrator 18.1.1, SVG Export Plug-In . SVG Version: 6.00 Build 0)  -->
<svg version="1.1" id="Layer_1" xmlns="http://www.w3.org/2000/svg" xmlns:xlink="http://www.w3.org/1999/xlink" x="0px" y="0px"
	 viewBox="0 0 85.3 85.3" enable-background="new 0 0 85.3 85.3" xml:space="preserve">
<g>
	<g>
		<path fill="#404447" d="M42.7,85.3C19.1,85.3,0,66.2,0,42.7C0,19.1,19.1,0,42.7,0c23.5,0,42.7,19.1,42.7,42.7
			C85.3,66.2,66.2,85.3,42.7,85.3L42.7,85.3z M42.7,7.3C23.2,7.3,7.3,23.2,7.3,42.7S23.2,78,42.7,78S78,62.2,78,42.7
			S62.2,7.3,42.7,7.3L42.7,7.3z"/>
	</g>
	<g>
		<path fill="#404447" d="M42.7,46.3c-2,0-3.7-1.6-3.7-3.7V16.3c0-2,1.6-3.7,3.7-3.7c2,0,3.7,1.6,3.7,3.7v26.4
			C46.3,44.7,44.7,46.3,42.7,46.3L42.7,46.3z"/>
	</g>
	<g>
		<path fill="#404447" d="M42.7,9.7C40.7,9.7,39,8,39,6V3.7c0-2,1.6-3.7,3.7-3.7c2,0,3.7,1.6,3.7,3.7V6C46.3,8,44.7,9.7,42.7,9.7
			L42.7,9.7z"/>
	</g>
	<g>
		<path fill="#404447" d="M42.7,85.3c-2,0-3.7-1.6-3.7-3.7v-2.4c0-2,1.6-3.7,3.7-3.7c2,0,3.7,1.6,3.7,3.7v2.4
			C46.3,83.7,44.7,85.3,42.7,85.3L42.7,85.3z"/>
	</g>
	<g>
		<path fill="#404447" d="M81.7,46.3h-2.4c-2,0-3.7-1.6-3.7-3.7c0-2,1.6-3.7,3.7-3.7h2.4c2,0,3.7,1.6,3.7,3.7
			C85.3,44.7,83.7,46.3,81.7,46.3L81.7,46.3z"/>
	</g>
	<g>
		<path fill="#404447" d="M6,46.3H3.7c-2,0-3.7-1.6-3.7-3.7c0-2,1.6-3.7,3.7-3.7H6c2,0,3.7,1.6,3.7,3.7C9.7,44.7,8.1,46.3,6,46.3
			L6,46.3z"/>
	</g>
	<g>
		<g>
			<g>
				<path fill="#404447" d="M59.3,15.7c-0.3,0-0.6-0.1-0.9-0.2c-0.9-0.5-1.2-1.6-0.7-2.5l1.1-1.9c0.5-0.9,1.6-1.2,2.5-0.7
					c0.9,0.5,1.2,1.6,0.7,2.5l-1.1,1.9C60.6,15.4,59.9,15.7,59.3,15.7L59.3,15.7z"/>
			</g>
			<g>
				<path fill="#404447" d="M25,75.2c-0.3,0-0.6-0.1-0.9-0.2c-0.9-0.5-1.2-1.6-0.7-2.5l1.1-1.9c0.5-0.9,1.6-1.2,2.5-0.7
					c0.9,0.5,1.2,1.6,0.7,2.5l-1.1,1.9C26.2,74.8,25.6,75.2,25,75.2L25,75.2z"/>
			</g>
			<g>
				<path fill="#404447" d="M73.3,62.2c-0.3,0-0.6-0.1-0.9-0.2l-1.9-1.1c-0.9-0.5-1.2-1.6-0.7-2.5c0.5-0.9,1.6-1.2,2.5-0.7l1.9,1.1
					c0.9,0.5,1.2,1.6,0.7,2.5C74.6,61.9,74,62.2,73.3,62.2L73.3,62.2z"/>
			</g>
			<g>
				<path fill="#404447" d="M13.9,27.9c-0.3,0-0.6-0.1-0.9-0.2l-1.9-1.1c-0.9-0.5-1.2-1.6-0.7-2.5c0.5-0.9,1.6-1.2,2.5-0.7l1.9,1.1
					c0.9,0.5,1.2,1.6,0.7,2.5C15.1,27.5,14.5,27.9,13.9,27.9L13.9,27.9z"/>
			</g>
		</g>
		<g>
			<g>
				<path fill="#404447" d="M26,15.7c-0.6,0-1.2-0.3-1.6-0.9l-1.1-1.9c-0.5-0.9-0.2-2,0.7-2.5c0.9-0.5,2-0.2,2.5,0.7l1.1,1.9
					c0.5,0.9,0.2,2-0.7,2.5C26.7,15.6,26.4,15.7,26,15.7L26,15.7z"/>
			</g>
			<g>
				<path fill="#404447" d="M60.4,75.2c-0.6,0-1.2-0.3-1.6-0.9l-1.1-1.9c-0.5-0.9-0.2-2,0.7-2.5c0.9-0.5,2-0.2,2.5,0.7l1.1,1.9
					c0.5,0.9,0.2,2-0.7,2.5C61,75.1,60.7,75.2,60.4,75.2L60.4,75.2z"/>
			</g>
			<g>
				<path fill="#404447" d="M12,62.2c-0.6,0-1.3-0.3-1.6-0.9c-0.5-0.9-0.2-2,0.7-2.5l1.9-1.1c0.9-0.5,2-0.2,2.5,0.7
					c0.5,0.9,0.2,2-0.7,2.5L12.9,62C12.6,62.1,12.3,62.2,12,62.2L12,62.2z"/>
			</g>
			<g>
				<path fill="#404447" d="M71.5,27.9c-0.6,0-1.2-0.3-1.6-0.9c-0.5-0.9-0.2-2,0.7-2.5l1.9-1.1c0.9-0.5,2-0.2,2.5,0.7
					c0.5,0.9,0.2,2-0.7,2.5l-1.9,1.1C72.1,27.8,71.8,27.9,71.5,27.9L71.5,27.9z"/>
			</g>
		</g>
	</g>
	<g>
		<path fill="#404447" d="M31.6,57.4c-0.9,0-1.9-0.4-2.6-1.1c-1.4-1.4-1.4-3.7,0-5.2l10.6-10.6c1.4-1.4,3.7-1.4,5.2,0
			c1.4,1.4,1.4,3.7,0,5.2L34.2,56.3C33.5,57,32.6,57.4,31.6,57.4L31.6,57.4z"/>
	</g>
</g>
</svg>
