<?xml version="1.0" encoding="utf-8"?>
<!-- Generator: Adobe Illustrator 18.1.1, SVG Export Plug-In . SVG Version: 6.00 Build 0)  -->
<svg version="1.1" id="Layer_1" xmlns="http://www.w3.org/2000/svg" xmlns:xlink="http://www.w3.org/1999/xlink" x="0px" y="0px"
	 viewBox="0 0 106.4 101.3" enable-background="new 0 0 106.4 101.3" xml:space="preserve">
<g>
	<g>
		<path fill="#404447" d="M53.4,63.3c-0.7,0-1.4-0.2-2.1-0.5L2.2,35.2C0.8,34.5,0,33.1,0,31.6s0.8-2.9,2.2-3.7L51,0.5
			c1.3-0.7,2.9-0.7,4.1,0l49.1,27.5c1.3,0.7,2.2,2.2,2.2,3.7c0,1.5-0.8,2.9-2.2,3.7L55.4,62.8C54.8,63.1,54.1,63.3,53.4,63.3
			L53.4,63.3z M12.9,31.6l40.5,22.7l40.2-22.5L53,9.1L12.9,31.6L12.9,31.6z"/>
	</g>
	<g>
		<path fill="#404447" d="M53.4,82.3c-0.7,0-1.4-0.2-2.1-0.5L2.2,54.2c-2-1.1-2.8-3.7-1.6-5.7c1.1-2,3.7-2.8,5.7-1.6l47.1,26.4
			l46.7-26.2c2-1.1,4.6-0.4,5.7,1.6c1.1,2,0.4,4.6-1.6,5.7L55.4,81.8C54.8,82.1,54.1,82.3,53.4,82.3L53.4,82.3z"/>
	</g>
	<g>
		<path fill="#404447" d="M53.4,101.3c-0.7,0-1.4-0.2-2.1-0.5L2.2,73.2c-2-1.1-2.8-3.7-1.6-5.7c1.1-2,3.7-2.8,5.7-1.6l47.1,26.4
			l46.7-26.2c2-1.1,4.6-0.4,5.7,1.6c1.1,2,0.4,4.6-1.6,5.7l-48.8,27.3C54.8,101.1,54.1,101.3,53.4,101.3L53.4,101.3z"/>
	</g>
</g>
</svg>
