<?xml version="1.0" encoding="utf-8"?>
<!-- Generator: Adobe Illustrator 18.1.1, SVG Export Plug-In . SVG Version: 6.00 Build 0)  -->
<svg version="1.1" id="Layer_1" xmlns="http://www.w3.org/2000/svg" xmlns:xlink="http://www.w3.org/1999/xlink" x="0px" y="0px"
	 viewBox="0 0 100.2 73.7" enable-background="new 0 0 100.2 73.7" xml:space="preserve">
<g>
	<g>
		<path fill="#404447" d="M76.7,67.7H23.5c-2.3,0-4.2-1.9-4.2-4.2V10.2c0-2.3,1.9-4.2,4.2-4.2h53.3c2.3,0,4.2,1.9,4.2,4.2v53.3
			C81,65.8,79.1,67.7,76.7,67.7L76.7,67.7z M27.7,59.3h44.8V14.5H27.7V59.3L27.7,59.3z"/>
	</g>
	<g>
		<g>
			<path fill="#404447" d="M2.1,73.7C1,73.7,0,72.8,0,71.6V2.1C0,0.9,1,0,2.1,0c1.2,0,2.1,0.9,2.1,2.1v69.5
				C4.2,72.8,3.3,73.7,2.1,73.7L2.1,73.7z"/>
		</g>
		<g>
			<path fill="#404447" d="M11.6,69.1c-1.2,0-2.1-0.9-2.1-2.1V6.8c0-1.2,1-2.1,2.1-2.1c1.2,0,2.1,0.9,2.1,2.1V67
				C13.8,68.1,12.8,69.1,11.6,69.1L11.6,69.1z"/>
		</g>
		<g>
			<path fill="#404447" d="M98.1,73.7c-1.2,0-2.1-0.9-2.1-2.1V2.1c0-1.2,1-2.1,2.1-2.1c1.2,0,2.1,0.9,2.1,2.1v69.5
				C100.2,72.8,99.2,73.7,98.1,73.7L98.1,73.7z"/>
		</g>
		<g>
			<path fill="#404447" d="M88.5,69.1c-1.2,0-2.1-0.9-2.1-2.1V6.8c0-1.2,1-2.1,2.1-2.1c1.2,0,2.1,0.9,2.1,2.1V67
				C90.6,68.1,89.7,69.1,88.5,69.1L88.5,69.1z"/>
		</g>
	</g>
</g>
</svg>
