<?xml version="1.0" encoding="utf-8"?>
<!-- Generator: Adobe Illustrator 18.1.1, SVG Export Plug-In . SVG Version: 6.00 Build 0)  -->
<svg version="1.1" id="Layer_1" xmlns="http://www.w3.org/2000/svg" xmlns:xlink="http://www.w3.org/1999/xlink" x="0px" y="0px"
	 viewBox="0 0 105 100.1" enable-background="new 0 0 105 100.1" xml:space="preserve">
<g>
	<g>
		<path fill="#404447" d="M22.1,38.6c-10.1,0-18.6-2.6-22.1-6.2c0,0-0.1,0.1-0.1,0.1v5.8c3,4,12,6.8,22.6,6.8
			c10.5,0,19.3-2.8,22.4-6.7v-6.1c-0.1-0.2-0.2-0.3-0.4-0.5C41.6,35.7,32.6,38.6,22.1,38.6z"/>
		<path fill="#404447" d="M44.6,18.5c-1.1,1.4-2.9,2.7-5.3,3.7C35,24,28.9,25.2,22.1,25.2c-6.8,0-12.9-1.2-17.2-3.1
			c-2.1-0.9-3.7-2-4.9-3.2C0,19,0,19,0,19v5.8c0.1,0.1,0.1,0.2,0.2,0.3c1.1,1.3,2.9,2.5,5.1,3.5c4.3,1.9,10.4,3.1,17.2,3.1
			s12.9-1.2,17.2-3.1c2-0.9,3.6-1.9,4.7-3c0.2-0.2,0.4-0.4,0.5-0.6v-6.1C44.9,18.7,44.8,18.6,44.6,18.5z"/>
		<path fill="#404447" d="M5.5,15.2c4.1,2,10.1,3.2,16.9,3.2c6.8,0,12.9-1.3,17-3.2c2.1-1,3.6-2.2,4.5-3.5c0.5-0.8,0.8-1.6,0.8-2.5
			c0-5.1-10-9.2-22.3-9.2C10.1,0,0.2,4.1,0.2,9.2c0,0.7,0.2,1.4,0.6,2.1C1.6,12.8,3.2,14.1,5.5,15.2z"/>
	</g>
	<g>
		<path fill="#404447" d="M82.1,38.6c-10.1,0-18.6-2.6-22.1-6.2c0,0-0.1,0.1-0.1,0.1v5.8c3,4,12,6.8,22.6,6.8
			c10.5,0,19.3-2.8,22.4-6.7v-6.1c-0.1-0.2-0.2-0.3-0.4-0.5C101.6,35.7,92.6,38.6,82.1,38.6z"/>
		<path fill="#404447" d="M104.6,18.5c-1.1,1.4-2.9,2.7-5.3,3.7C95,24,88.9,25.2,82.1,25.2c-6.8,0-12.9-1.2-17.2-3.1
			c-2.1-0.9-3.7-2-4.9-3.2c0,0,0,0.1-0.1,0.1v5.8c0.1,0.1,0.1,0.2,0.2,0.3c1.1,1.3,2.9,2.5,5.1,3.5c4.3,1.9,10.4,3.1,17.2,3.1
			s12.9-1.2,17.2-3.1c2-0.9,3.6-1.9,4.7-3c0.2-0.2,0.4-0.4,0.5-0.6v-6.1C104.9,18.7,104.8,18.6,104.6,18.5z"/>
		<path fill="#404447" d="M65.5,15.2c4.1,2,10.1,3.2,16.9,3.2c6.8,0,12.9-1.3,17-3.2c2.1-1,3.6-2.2,4.5-3.5c0.5-0.8,0.8-1.6,0.8-2.5
			c0-5.1-10-9.2-22.3-9.2C70.1,0,60.2,4.1,60.2,9.2c0,0.7,0.2,1.4,0.6,2.1C61.6,12.8,63.2,14.1,65.5,15.2z"/>
	</g>
	<g>
		<path fill="#404447" d="M22.1,93.6c-10.1,0-18.6-2.6-22.1-6.2c0,0-0.1,0.1-0.1,0.1v5.8c3,4,12,6.8,22.6,6.8
			c10.5,0,19.3-2.8,22.4-6.7v-6.1c-0.1-0.2-0.2-0.3-0.4-0.5C41.6,90.7,32.6,93.6,22.1,93.6z"/>
		<path fill="#404447" d="M44.6,73.5c-1.1,1.4-2.9,2.7-5.3,3.7C35,79,28.9,80.2,22.1,80.2c-6.8,0-12.9-1.2-17.2-3.1
			c-2.1-0.9-3.7-2-4.9-3.2C0,74,0,74,0,74v5.8c0.1,0.1,0.1,0.2,0.2,0.3c1.1,1.3,2.9,2.5,5.1,3.5c4.3,1.9,10.4,3.1,17.2,3.1
			s12.9-1.2,17.2-3.1c2-0.9,3.6-1.9,4.7-3c0.2-0.2,0.4-0.4,0.5-0.6v-6.1C44.9,73.7,44.8,73.6,44.6,73.5z"/>
		<path fill="#404447" d="M5.5,70.2c4.1,2,10.1,3.2,16.9,3.2c6.8,0,12.9-1.3,17-3.2c2.1-1,3.6-2.2,4.5-3.5c0.5-0.8,0.8-1.6,0.8-2.5
			c0-5.1-10-9.2-22.3-9.2c-12.3,0-22.3,4.1-22.3,9.2c0,0.7,0.2,1.4,0.6,2.1C1.6,67.8,3.2,69.1,5.5,70.2z"/>
	</g>
	<g>
		<path fill="#404447" d="M82.1,93.6c-10.1,0-18.6-2.6-22.1-6.2c0,0-0.1,0.1-0.1,0.1v5.8c3,4,12,6.8,22.6,6.8
			c10.5,0,19.3-2.8,22.4-6.7v-6.1c-0.1-0.2-0.2-0.3-0.4-0.5C101.6,90.7,92.6,93.6,82.1,93.6z"/>
		<path fill="#404447" d="M104.6,73.5c-1.1,1.4-2.9,2.7-5.3,3.7C95,79,88.9,80.2,82.1,80.2c-6.8,0-12.9-1.2-17.2-3.1
			c-2.1-0.9-3.7-2-4.9-3.2c0,0,0,0.1-0.1,0.1v5.8c0.1,0.1,0.1,0.2,0.2,0.3c1.1,1.3,2.9,2.5,5.1,3.5c4.3,1.9,10.4,3.1,17.2,3.1
			s12.9-1.2,17.2-3.1c2-0.9,3.6-1.9,4.7-3c0.2-0.2,0.4-0.4,0.5-0.6v-6.1C104.9,73.7,104.8,73.6,104.6,73.5z"/>
		<path fill="#404447" d="M65.5,70.2c4.1,2,10.1,3.2,16.9,3.2c6.8,0,12.9-1.3,17-3.2c2.1-1,3.6-2.2,4.5-3.5c0.5-0.8,0.8-1.6,0.8-2.5
			c0-5.1-10-9.2-22.3-9.2c-12.3,0-22.3,4.1-22.3,9.2c0,0.7,0.2,1.4,0.6,2.1C61.6,67.8,63.2,69.1,65.5,70.2z"/>
	</g>
</g>
</svg>
