<?xml version="1.0" encoding="utf-8"?>
<!-- Generator: Adobe Illustrator 18.1.1, SVG Export Plug-In . SVG Version: 6.00 Build 0)  -->
<svg version="1.1" id="Layer_1" xmlns="http://www.w3.org/2000/svg" xmlns:xlink="http://www.w3.org/1999/xlink" x="0px" y="0px"
	 viewBox="0 0 92 92.7" enable-background="new 0 0 92 92.7" xml:space="preserve">
<g>
	<g>
		<path fill="#404447" d="M54.4,40.2c-0.5,0-1-0.2-1.4-0.6c-0.8-0.7-0.8-2,0-2.7l6.1-6.1c0.8-0.8,2-0.8,2.7,0c0.8,0.7,0.8,2,0,2.7
			l-6.1,6.1C55.4,40,54.9,40.2,54.4,40.2L54.4,40.2z"/>
	</g>
	<g>
		<path fill="#404447" d="M31.8,62.8c-0.5,0-1-0.2-1.4-0.6c-0.8-0.8-0.8-2,0-2.7l6.1-6.1c0.8-0.8,2-0.8,2.7,0c0.8,0.8,0.8,2,0,2.7
			l-6.1,6.1C32.8,62.6,32.3,62.8,31.8,62.8L31.8,62.8z"/>
	</g>
	<g>
		<path fill="#404447" d="M60.5,62.8c-0.5,0-1-0.2-1.4-0.6l-6.1-6.1c-0.8-0.8-0.8-2,0-2.7c0.8-0.8,2-0.8,2.7,0l6.1,6.1
			c0.8,0.8,0.8,2,0,2.7C61.5,62.6,61,62.8,60.5,62.8L60.5,62.8z"/>
	</g>
	<g>
		<path fill="#404447" d="M37.9,40.2c-0.5,0-1-0.2-1.4-0.6l-6.1-6.1c-0.8-0.8-0.8-2,0-2.7c0.8-0.8,2-0.8,2.7,0l6.1,6.1
			c0.8,0.8,0.8,2,0,2.7C38.9,40,38.4,40.2,37.9,40.2L37.9,40.2z"/>
	</g>
	<g>
		<path fill="#404447" d="M46.2,53.5c-3.9,0-7-3.2-7-7c0-3.9,3.2-7,7-7c3.9,0,7,3.2,7,7C53.2,50.4,50,53.5,46.2,53.5L46.2,53.5z
			 M46.2,43.3c-1.8,0-3.2,1.4-3.2,3.2c0,1.8,1.4,3.2,3.2,3.2c1.8,0,3.2-1.4,3.2-3.2C49.4,44.7,47.9,43.3,46.2,43.3L46.2,43.3z"/>
	</g>
	<g>
		<path fill="#404447" d="M23.9,27.8H3.9c-2.1,0-3.9-1.7-3.9-3.9V3.9C0,1.7,1.7,0,3.9,0h20.1c2.1,0,3.9,1.7,3.9,3.9v20.1
			C27.8,26.1,26.1,27.8,23.9,27.8L23.9,27.8z M7.7,20.1h12.3V7.7H7.7V20.1L7.7,20.1z"/>
	</g>
	<g>
		<path fill="#404447" d="M88.1,27.8H68c-2.1,0-3.9-1.7-3.9-3.9V3.9C64.2,1.7,65.9,0,68,0h20.1C90.2,0,92,1.7,92,3.9v20.1
			C92,26.1,90.2,27.8,88.1,27.8L88.1,27.8z M71.9,20.1h12.3V7.7H71.9V20.1L71.9,20.1z"/>
	</g>
	<g>
		<path fill="#404447" d="M23.9,92.7H3.9C1.7,92.7,0,91,0,88.8V68.8c0-2.1,1.7-3.9,3.9-3.9h20.1c2.1,0,3.9,1.7,3.9,3.9v20.1
			C27.8,91,26.1,92.7,23.9,92.7L23.9,92.7z M7.7,84.9h12.3V72.6H7.7V84.9L7.7,84.9z"/>
	</g>
	<g>
		<path fill="#404447" d="M88.1,92.7H68c-2.1,0-3.9-1.7-3.9-3.9V68.8c0-2.1,1.7-3.9,3.9-3.9h20.1c2.1,0,3.9,1.7,3.9,3.9v20.1
			C92,91,90.2,92.7,88.1,92.7L88.1,92.7z M71.9,84.9h12.3V72.6H71.9V84.9L71.9,84.9z"/>
	</g>
</g>
</svg>
