<?xml version="1.0" encoding="utf-8"?>
<!-- Generator: Adobe Illustrator 18.1.1, SVG Export Plug-In . SVG Version: 6.00 Build 0)  -->
<svg version="1.1" id="Layer_1" xmlns="http://www.w3.org/2000/svg" xmlns:xlink="http://www.w3.org/1999/xlink" x="0px" y="0px"
	 viewBox="0 0 94.2 92.7" enable-background="new 0 0 94.2 92.7" xml:space="preserve">
<g>
	<g>
		<g>
			<path fill="#404447" d="M70.8,69.5H23.9c-2.6,0-4.7-2.1-4.7-4.7V28.2c0-2.6,2.1-4.7,4.7-4.7h46.9c2.6,0,4.7,2.1,4.7,4.7v36.6
				C75.5,67.4,73.4,69.5,70.8,69.5L70.8,69.5z M23.9,28.2v36.6h46.9l0-36.6H23.9L23.9,28.2z"/>
		</g>
		<g>
			<g>
				<polygon fill="#404447" points="67.7,31.8 62.7,31.8 62.7,36.2 67.7,36.2 67.7,31.8 				"/>
				<polygon fill="#404447" points="67.7,40.1 62.7,40.1 62.7,44.5 67.7,44.5 67.7,40.1 				"/>
				<polygon fill="#404447" points="67.7,48.5 62.7,48.5 62.7,52.9 67.7,52.9 67.7,48.5 				"/>
				<polygon fill="#404447" points="67.7,56.8 62.7,56.8 62.7,61.2 67.7,61.2 67.7,56.8 				"/>
			</g>
			<g>
				<polygon fill="#404447" points="32.1,31.8 27.1,31.8 27.1,36.2 32.1,36.2 32.1,31.8 				"/>
				<polygon fill="#404447" points="32.1,40.1 27.1,40.1 27.1,44.5 32.1,44.5 32.1,40.1 				"/>
				<polygon fill="#404447" points="32.1,48.5 27.1,48.5 27.1,52.9 32.1,52.9 32.1,48.5 				"/>
				<polygon fill="#404447" points="32.1,56.8 27.1,56.8 27.1,61.2 32.1,61.2 32.1,56.8 				"/>
			</g>
		</g>
		<g>
			<path fill="#404447" d="M21.6,75.8c-1.3,0-2.3-1-2.3-2.3V19.5c0-1.3,1-2.3,2.3-2.3c1.3,0,2.3,1,2.3,2.3v53.9
				C23.9,74.8,22.9,75.8,21.6,75.8L21.6,75.8z"/>
		</g>
		<g>
			<path fill="#404447" d="M73.2,75.8c-1.3,0-2.3-1-2.3-2.3V19.5c0-1.3,1-2.3,2.3-2.3c1.3,0,2.3,1,2.3,2.3v53.9
				C75.5,74.8,74.5,75.8,73.2,75.8L73.2,75.8z"/>
		</g>
	</g>
	<g>
		<path fill="#404447" d="M90.2,92.7H4c-2.2,0-4-1.8-4-4V4c0-2.2,1.8-4,4-4h86.3c2.2,0,4,1.8,4,4v84.7
			C94.2,90.9,92.4,92.7,90.2,92.7L90.2,92.7z M7.9,84.7h78.3V7.9H7.9V84.7L7.9,84.7z"/>
	</g>
</g>
</svg>
