<?xml version="1.0" encoding="utf-8"?>
<!-- Generator: Adobe Illustrator 18.1.1, SVG Export Plug-In . SVG Version: 6.00 Build 0)  -->
<svg version="1.1" id="Layer_1" xmlns="http://www.w3.org/2000/svg" xmlns:xlink="http://www.w3.org/1999/xlink" x="0px" y="0px"
	 viewBox="0 0 92.8 94.9" enable-background="new 0 0 92.8 94.9" xml:space="preserve">
<g>
	<g>
		<g>
			<path fill="#404447" d="M69.2,78.4c-0.8,0-1.7-0.3-2.4-0.8c-1.8-1.3-2.2-3.9-0.9-5.7l17.8-24.5L65.9,23c-1.3-1.8-0.9-4.4,0.9-5.7
				c1.8-1.3,4.4-0.9,5.7,0.9l19.6,26.9c1,1.4,1,3.4,0,4.8L72.5,76.8C71.7,77.9,70.5,78.4,69.2,78.4L69.2,78.4z"/>
		</g>
		<g>
			<path fill="#404447" d="M88.8,51.6H38.2c-2.3,0-4.1-1.8-4.1-4.1c0-2.3,1.8-4.1,4.1-4.1h50.6c2.3,0,4.1,1.8,4.1,4.1
				C92.8,49.7,91,51.6,88.8,51.6L88.8,51.6z"/>
		</g>
	</g>
	<g>
		<path fill="#404447" d="M4.1,94.9c-2.3,0-4.1-1.8-4.1-4.1V4.1C0,1.8,1.8,0,4.1,0s4.1,1.8,4.1,4.1v86.8C8.2,93.1,6.3,94.9,4.1,94.9
			L4.1,94.9z"/>
	</g>
	<g>
		<g>
			<path fill="#404447" d="M58.6,94.9H4.1c-2.3,0-4.1-1.8-4.1-4.1c0-2.3,1.8-4.1,4.1-4.1h54.5c2.3,0,4.1,1.8,4.1,4.1
				C62.7,93.1,60.9,94.9,58.6,94.9L58.6,94.9z"/>
		</g>
		<g>
			<path fill="#404447" d="M58.6,8.2H4.1C1.8,8.2,0,6.3,0,4.1C0,1.8,1.8,0,4.1,0h54.5c2.3,0,4.1,1.8,4.1,4.1
				C62.7,6.3,60.9,8.2,58.6,8.2L58.6,8.2z"/>
		</g>
	</g>
</g>
</svg>
