<?xml version="1.0" encoding="utf-8"?>
<!-- Generator: Adobe Illustrator 18.1.1, SVG Export Plug-In . SVG Version: 6.00 Build 0)  -->
<svg version="1.1" id="Layer_1" xmlns="http://www.w3.org/2000/svg" xmlns:xlink="http://www.w3.org/1999/xlink" x="0px" y="0px"
	 viewBox="0 0 600 600" enable-background="new 0 0 600 600" xml:space="preserve">
<g>
	<g>
		<g>
			<path fill="#404447" d="M469,600H131c-25.4,0-46.2-22.5-46.2-50.1V173.5c0-27.6,20.8-50.1,46.2-50.1h338
				c25.4,0,46.2,22.5,46.2,50.1v376.3C515.2,577.5,494.4,600,469,600L469,600z M469,549.9v25.4V549.9L469,549.9L469,549.9z
				 M131,173.5v376.3h338V173.5L131,173.5L131,173.5z"/>
		</g>
		<g>
			<path fill="#404447" d="M383.4,232.1c-13,0-23.1-11.3-23.1-25.4V50.1H239.2v156.6c0,14.1-10.1,25.4-23.1,25.4
				c-13,0-23.1-11.3-23.1-25.4V50.1C193,22.5,213.8,0,239.2,0h121.1c25.4,0,46.2,22.5,46.2,50.1v156.6
				C406.5,220.8,396.3,232.1,383.4,232.1L383.4,232.1z"/>
		</g>
	</g>
	<g>
		<g>
			<path fill="#404447" d="M387.3,311H207.6c-7.3,0-13.5-6.2-13.5-13.5c0-7.3,6.2-13.5,13.5-13.5h179.7c7.3,0,13.5,6.2,13.5,13.5
				S395.2,311,387.3,311L387.3,311z"/>
		</g>
		<g>
			<path fill="#404447" d="M387.3,396.1H207.6c-7.3,0-13.5-6.2-13.5-13.5c0-7.3,6.2-13.5,13.5-13.5h179.7c7.3,0,13.5,6.2,13.5,13.5
				C400.8,389.9,395.2,396.1,387.3,396.1L387.3,396.1z"/>
		</g>
		<g>
			<path fill="#404447" d="M387.3,480.6H207.6c-7.3,0-13.5-6.2-13.5-13.5s6.2-13.5,13.5-13.5h179.7c7.3,0,13.5,6.2,13.5,13.5
				C400.8,474.4,395.2,480.6,387.3,480.6L387.3,480.6z"/>
		</g>
	</g>
</g>
</svg>
