<?xml version="1.0" encoding="utf-8"?>
<!-- Generator: Adobe Illustrator 18.1.1, SVG Export Plug-In . SVG Version: 6.00 Build 0)  -->
<svg version="1.1" id="Layer_1" xmlns="http://www.w3.org/2000/svg" xmlns:xlink="http://www.w3.org/1999/xlink" x="0px" y="0px"
	 viewBox="0 0 600 600" enable-background="new 0 0 600 600" xml:space="preserve">
<g>
	<path fill="#404447" d="M299,457.6c74.8,0,138.6-20,160.5-47.7v-43.8c-0.6-1.3-1.9-1.9-2.6-3.2c-21.9,28.4-85.7,48.3-161.1,48.3
		c-72.2,0-133.4-18.7-157.9-44.5l-0.6,0.6v41.9C158.5,436.9,223,457.6,299,457.6z"/>
	<path fill="#404447" d="M175.3,340.3c30.9,13.5,74.8,21.9,123.1,21.9s92.2-8.4,123.1-21.9c14.2-6.4,25.8-13.5,33.5-21.3
		c1.3-1.3,2.6-3.2,3.9-4.5v-43.8c-0.6-1.3-1.9-1.9-2.6-3.2c-7.7,9.7-20.6,18.7-38,26.4c-30.3,12.9-74.1,21.9-122.4,21.9
		s-92.2-8.4-123.1-21.9c-14.8-6.4-27.1-14.2-34.8-22.6l-0.6,0.6v41.9c0.6,0.6,1.3,1.3,1.9,1.9C146.9,324.2,159.2,333.2,175.3,340.3z
		"/>
	<path fill="#404447" d="M176.6,243.6c29,14.2,72.8,22.6,121.2,22.6c49,0,92.2-9,121.8-23.2c14.8-7.1,25.8-15.5,32.2-25.1
		c3.9-5.8,5.8-11.6,5.8-18c0-35.4-71.5-64.4-159.8-64.4S137.9,165,137.9,201.1c0,5.2,1.3,10.3,3.9,14.8
		C148.2,226.2,160.5,235.9,176.6,243.6z"/>
	<path fill="#404447" d="M574.9,0H25.1C11.6,0,0,11,0,25.1v549.7C0,589,11.6,600,25.1,600h549.7c14.2,0,25.1-11.6,25.1-25.1V25.1
		C600,11,589,0,574.9,0z M549.7,549.7H50.3V50.3h499.5V549.7z"/>
</g>
</svg>
