<?xml version="1.0" encoding="utf-8"?>
<!-- Generator: Adobe Illustrator 18.1.1, SVG Export Plug-In . SVG Version: 6.00 Build 0)  -->
<svg version="1.1" id="Layer_1" xmlns="http://www.w3.org/2000/svg" xmlns:xlink="http://www.w3.org/1999/xlink" x="0px" y="0px"
	 viewBox="0 0 600 600" enable-background="new 0 0 600 600" xml:space="preserve">
<g>
	<g>
		<g>
			<path fill="#404447" d="M246.5,556.7c-14,0-24.8-11.5-24.8-24.8V377.7H68.2c-14,0-24.8-11.5-24.8-24.8c0-14,11.5-24.8,24.8-24.8
				h178.3c14,0,24.8,11.5,24.8,24.8v178.3C272,545.2,260.5,556.7,246.5,556.7L246.5,556.7z"/>
		</g>
		<g>
			<path fill="#404447" d="M24.8,600c-6.4,0-12.7-2.5-17.8-7.6c-9.6-9.6-9.6-25.5,0-35.7L229.3,335c9.6-9.6,25.5-9.6,35.7,0
				c9.6,9.6,9.6,25.5,0,35.7L42.7,592.4C38.2,597.5,31.2,600,24.8,600L24.8,600z"/>
		</g>
	</g>
	<g>
		<g>
			<path fill="#404447" d="M352.9,556.7c-14,0-24.8-11.5-24.8-24.8V353.5c0-14,11.5-24.8,24.8-24.8h178.3c14,0,24.8,11.5,24.8,24.8
				c0,14-11.5,24.8-24.8,24.8H377.7v153.5C377.7,545.2,366.9,556.7,352.9,556.7L352.9,556.7z"/>
		</g>
		<g>
			<path fill="#404447" d="M574.5,600c-6.4,0-12.7-2.5-17.8-7.6L335,370.7c-9.6-9.6-9.6-25.5,0-35.7c9.6-9.6,25.5-9.6,35.7,0
				l221.7,222.3c9.6,9.6,9.6,25.5,0,35.7C587.3,597.5,580.9,600,574.5,600L574.5,600z"/>
		</g>
	</g>
	<g>
		<g>
			<path fill="#404447" d="M531.2,272H352.9c-14,0-24.8-11.5-24.8-24.8V68.8c0-14,11.5-24.8,24.8-24.8c14,0,24.8,11.5,24.8,24.8
				v153.5h153.5c14,0,24.8,11.5,24.8,24.8C556.7,261.1,545.2,272,531.2,272L531.2,272z"/>
		</g>
		<g>
			<path fill="#404447" d="M352.9,272c-6.4,0-12.7-2.5-17.8-7.6c-9.6-9.6-9.6-25.5,0-35.7l222.3-221c9.6-9.6,25.5-9.6,35.7,0
				c9.6,9.6,9.6,25.5,0,35.7L370.7,265C365.6,269.4,359.2,272,352.9,272L352.9,272z"/>
		</g>
	</g>
	<g>
		<g>
			<path fill="#404447" d="M246.5,272H68.2c-14,0-24.8-11.5-24.8-24.8c0-14,11.5-24.8,24.8-24.8h153.5V68.8
				c0-14,11.5-24.8,24.8-24.8c14,0,24.8,11.5,24.8,24.8v178.3C272,261.1,260.5,272,246.5,272L246.5,272z"/>
		</g>
		<g>
			<path fill="#404447" d="M246.5,272c-6.4,0-12.7-2.5-17.8-7.6L7.6,42.7c-9.6-9.6-9.6-25.5,0-35.7c9.6-9.6,25.5-9.6,35.7,0
				l221,222.3c9.6,9.6,9.6,25.5,0,35.7C259.9,269.4,253.5,272,246.5,272L246.5,272z"/>
		</g>
	</g>
</g>
</svg>
