<?xml version="1.0" encoding="utf-8"?>
<!-- Generator: Adobe Illustrator 18.1.1, SVG Export Plug-In . SVG Version: 6.00 Build 0)  -->
<svg version="1.1" id="Layer_1" xmlns="http://www.w3.org/2000/svg" xmlns:xlink="http://www.w3.org/1999/xlink" x="0px" y="0px"
	 viewBox="0 0 104.2 102.1" enable-background="new 0 0 104.2 102.1" xml:space="preserve">
<g>
	<path fill="#404447" d="M42.9,8.4c2.8,0,6.2,4.5,9.2,4.5s6.3-4.5,9.2-4.5c0.2,0,0.4,0,0.5,0.1c3,0.7,4.1,6.9,6.8,8.2
		c0.5,0.3,1.2,0.4,1.9,0.4c2,0,4.5-0.8,6.5-0.8c0.9,0,1.7,0.2,2.3,0.6c2.4,1.9,0.7,8,2.6,10.4c1.9,2.4,8.2,2,9.5,4.8
		c1.3,2.7-2.9,7.4-2.2,10.5c0.7,2.9,6.5,5.4,6.5,8.5c0,3.1-5.8,5.6-6.5,8.5c-0.7,3,3.5,7.7,2.2,10.5c-1.3,2.8-7.6,2.4-9.5,4.8
		c-1.9,2.4-0.2,8.5-2.6,10.4c-0.6,0.5-1.4,0.6-2.3,0.6c-2,0-4.5-0.8-6.5-0.8c-0.7,0-1.3,0.1-1.9,0.4c-2.7,1.3-3.8,7.5-6.8,8.2
		c-0.2,0-0.4,0.1-0.5,0.1c-2.8,0-6.2-4.5-9.2-4.5s-6.3,4.5-9.2,4.5c-0.2,0-0.4,0-0.5-0.1c-3-0.7-4.1-6.9-6.8-8.2
		c-0.5-0.3-1.2-0.4-1.9-0.4c-2,0-4.5,0.8-6.5,0.8c-0.9,0-1.7-0.2-2.3-0.6c-2.4-1.9-0.7-8-2.6-10.4c-1.9-2.4-8.2-2-9.5-4.8
		c-1.3-2.7,2.9-7.4,2.2-10.5c-0.7-2.9-6.5-5.4-6.5-8.5c0-3.1,5.8-5.6,6.5-8.5c0.7-3-3.5-7.7-2.2-10.5c1.3-2.8,7.6-2.4,9.5-4.8
		c1.9-2.4,0.2-8.5,2.6-10.4c0.6-0.5,1.4-0.6,2.3-0.6c2,0,4.5,0.8,6.5,0.8c0.7,0,1.3-0.1,1.9-0.4c2.7-1.3,3.8-7.5,6.8-8.2
		C42.6,8.5,42.7,8.4,42.9,8.4 M42.9,0c-0.8,0-1.6,0.1-2.4,0.3c-5.1,1.2-7.5,5.3-9,8c-1.3-0.2-2.7-0.4-4.3-0.4c-3,0-5.5,0.8-7.6,2.5
		c-4.1,3.2-4.5,8-4.6,11.1c-3,0.8-7.6,2.3-9.8,7c-2.3,4.7-0.5,9.2,0.6,12C3.5,42.5,0,45.9,0,51.1c0,5.2,3.5,8.5,5.8,10.6
		c-1.2,2.8-2.9,7.4-0.6,12c2.2,4.7,6.8,6.1,9.8,7c0.2,3.1,0.6,7.9,4.6,11.1c2.1,1.6,4.6,2.5,7.6,2.5c1.5,0,3-0.2,4.3-0.4
		c1.5,2.7,4,6.9,9.1,8c0.8,0.2,1.6,0.3,2.4,0.3c4,0,7-2,9.2-3.6c2.2,1.6,5.2,3.6,9.2,3.6c0.8,0,1.6-0.1,2.4-0.3c5.1-1.1,7.5-5.3,9-8
		c1.3,0.2,2.7,0.4,4.3,0.4c3,0,5.5-0.8,7.6-2.5c4-3.2,4.5-8,4.6-11.1c3-0.8,7.6-2.3,9.8-7c2.3-4.7,0.5-9.2-0.7-12
		c2.3-2.1,5.8-5.4,5.8-10.6c0-5.2-3.5-8.5-5.8-10.6c1.2-2.8,2.9-7.3,0.7-12c-2.3-4.7-6.8-6.2-9.8-7c-0.2-3.1-0.6-7.9-4.6-11.1
		C82.5,8.7,80,7.9,77,7.9c-1.5,0-3,0.2-4.3,0.4c-1.5-2.7-4-6.9-9-8C62.9,0.1,62.1,0,61.3,0c-4,0-7,2-9.2,3.6C49.9,2,46.9,0,42.9,0
		L42.9,0z"/>
	<g>
		<g>
			<g>
				<path fill="#404447" d="M72.6,73.1H31.9c-1,0-1.9-0.8-1.9-1.9v-40c0-1,0.8-1.9,1.9-1.9h40.7c1,0,1.9,0.8,1.9,1.9v40
					C74.4,72.3,73.6,73.1,72.6,73.1L72.6,73.1z M33.8,69.4h36.9V33.2H33.8V69.4L33.8,69.4z"/>
			</g>
			<g>
				<path fill="#404447" d="M66.5,60.1H38c-0.5,0-0.9-0.4-0.9-0.9V37.4c0-0.5,0.4-0.9,0.9-0.9h28.5c0.5,0,0.9,0.4,0.9,0.9v21.8
					C67.4,59.6,67,60.1,66.5,60.1L66.5,60.1z M38.9,58.2h26.7V38.3H38.9V58.2L38.9,58.2z"/>
			</g>
		</g>
		<g>
			<g>
				<path fill="#404447" d="M42.7,65.7c0-0.4,0.4-0.8,0.8-0.8h3.9c0.4,0,0.8,0.4,0.8,0.8c0,0.4-0.4,0.8-0.8,0.8h-3.9
					C43.1,66.4,42.7,66.1,42.7,65.7L42.7,65.7z"/>
			</g>
			<g>
				<path fill="#404447" d="M49.5,65.7c0-0.4,0.4-0.8,0.8-0.8h3.9c0.4,0,0.8,0.4,0.8,0.8c0,0.4-0.4,0.8-0.8,0.8h-3.9
					C49.8,66.4,49.5,66.1,49.5,65.7L49.5,65.7z"/>
			</g>
			<g>
				<path fill="#404447" d="M56.2,65.7c0-0.4,0.4-0.8,0.8-0.8h3.9c0.4,0,0.8,0.4,0.8,0.8c0,0.4-0.4,0.8-0.8,0.8H57
					C56.6,66.4,56.2,66.1,56.2,65.7L56.2,65.7z"/>
			</g>
		</g>
	</g>
</g>
</svg>
