<?xml version="1.0" encoding="utf-8"?>
<!-- Generator: Adobe Illustrator 18.1.1, SVG Export Plug-In . SVG Version: 6.00 Build 0)  -->
<svg version="1.1" id="Layer_1" xmlns="http://www.w3.org/2000/svg" xmlns:xlink="http://www.w3.org/1999/xlink" x="0px" y="0px"
	 viewBox="0 0 94.7 94.7" enable-background="new 0 0 94.7 94.7" xml:space="preserve">
<g>
	<g>
		<g>
			<path fill="#404447" d="M47.7,68.7c-12,0-21.8-9.8-21.8-21.8c0-12,9.8-21.8,21.8-21.8c12,0,21.8,9.8,21.8,21.8
				C69.5,58.9,59.8,68.7,47.7,68.7L47.7,68.7z M47.7,32.3c-8,0-14.6,6.5-14.6,14.6c0,8,6.5,14.6,14.6,14.6c8,0,14.6-6.5,14.6-14.6
				C62.3,38.8,55.8,32.3,47.7,32.3L47.7,32.3z"/>
		</g>
		<g>
			<g>
				<path fill="#404447" d="M34,36.8c-0.9,0-1.9-0.4-2.6-1.1l-5.1-5.1c-1.4-1.4-1.4-3.7,0-5.1c1.4-1.4,3.7-1.4,5.1,0l5.1,5.1
					c1.4,1.4,1.4,3.7,0,5.1C35.9,36.4,34.9,36.8,34,36.8L34,36.8z"/>
			</g>
			<g>
				<path fill="#404447" d="M66.5,69.3c-0.9,0-1.9-0.4-2.6-1.1l-6-6c-1.4-1.4-1.4-3.7,0-5.1c1.4-1.4,3.7-1.4,5.1,0l6,6
					c1.4,1.4,1.4,3.7,0,5.1C68.4,68.9,67.4,69.3,66.5,69.3L66.5,69.3z"/>
			</g>
		</g>
		<g>
			<g>
				<path fill="#404447" d="M61.4,36.8c-0.9,0-1.9-0.4-2.6-1.1c-1.4-1.4-1.4-3.7,0-5.1l5.1-5.1c1.4-1.4,3.7-1.4,5.1,0
					c1.4,1.4,1.4,3.7,0,5.1L64,35.7C63.3,36.4,62.4,36.8,61.4,36.8L61.4,36.8z"/>
			</g>
			<g>
				<path fill="#404447" d="M28.9,69.3c-0.9,0-1.9-0.4-2.6-1.1c-1.4-1.4-1.4-3.7,0-5.1l6-6c1.4-1.4,3.7-1.4,5.1,0
					c1.4,1.4,1.4,3.7,0,5.1l-6,6C30.8,68.9,29.9,69.3,28.9,69.3L28.9,69.3z"/>
			</g>
		</g>
		<g>
			<g>
				<path fill="#404447" d="M47.7,31.1c-2,0-3.6-1.6-3.6-3.6v-7.2c0-2,1.6-3.6,3.6-3.6c2,0,3.6,1.6,3.6,3.6v7.2
					C51.4,29.5,49.7,31.1,47.7,31.1L47.7,31.1z"/>
			</g>
			<g>
				<path fill="#404447" d="M47.7,77.1L47.7,77.1c-2,0-3.6-1.6-3.6-3.6l0-8.5c0-2,1.6-3.6,3.6-3.6l0,0c2,0,3.6,1.6,3.6,3.6l0,8.5
					C51.3,75.4,49.7,77.1,47.7,77.1L47.7,77.1z"/>
			</g>
		</g>
		<g>
			<g>
				<path fill="#404447" d="M74.3,50.5h-7.2c-2,0-3.6-1.6-3.6-3.6c0-2,1.6-3.6,3.6-3.6h7.2c2,0,3.6,1.6,3.6,3.6
					C77.9,48.9,76.3,50.5,74.3,50.5L74.3,50.5z"/>
			</g>
			<g>
				<path fill="#404447" d="M29.6,50.5h-8.5c-2,0-3.6-1.6-3.6-3.6c0-2,1.6-3.6,3.6-3.6h8.5c2,0,3.6,1.6,3.6,3.6
					C33.2,48.9,31.6,50.5,29.6,50.5L29.6,50.5z"/>
			</g>
		</g>
	</g>
	<g>
		<path fill="#404447" d="M90.8,94.7H4c-2.2,0-4-1.8-4-4V4c0-2.2,1.8-4,4-4h86.8c2.2,0,4,1.8,4,4v86.8C94.7,93,93,94.7,90.8,94.7
			L90.8,94.7z M7.9,86.8h78.8V7.9H7.9V86.8L7.9,86.8z"/>
	</g>
</g>
</svg>
