<?xml version="1.0" encoding="utf-8"?>
<!-- Generator: Adobe Illustrator 18.1.1, SVG Export Plug-In . SVG Version: 6.00 Build 0)  -->
<svg version="1.1" id="Layer_1" xmlns="http://www.w3.org/2000/svg" xmlns:xlink="http://www.w3.org/1999/xlink" x="0px" y="0px"
	 viewBox="0 0 85.6 96.4" enable-background="new 0 0 85.6 96.4" xml:space="preserve">
<g>
	<g>
		<g>
			<g>
				<path fill="#404447" d="M64.3,40.3H32.9c-1.1,0-2-0.9-2-2V20.5c0-1.1,0.9-2,2-2h31.4c1.1,0,2,0.9,2,2v17.7
					C66.3,39.4,65.4,40.3,64.3,40.3L64.3,40.3z M34.9,36.2h27.3V22.6H34.9V36.2L34.9,36.2z"/>
			</g>
			<g>
				<g>
					<path fill="#404447" d="M81.5,96.4H11.3c-2.3,0-4.1-1.8-4.1-4.1V4.1C7.2,1.8,9,0,11.3,0h70.2c2.3,0,4.1,1.8,4.1,4.1v88.3
						C85.6,94.6,83.7,96.4,81.5,96.4L81.5,96.4z M15.3,88.3h62V8.2h-62V88.3L15.3,88.3z"/>
				</g>
				<g>
					<path fill="#404447" d="M18.4,24.7H4.1c-2.3,0-4.1-1.8-4.1-4.1s1.8-4.1,4.1-4.1h14.3c2.3,0,4.1,1.8,4.1,4.1
						S20.7,24.7,18.4,24.7L18.4,24.7z"/>
				</g>
				<g>
					<path fill="#404447" d="M18.4,42.9H4.1c-2.3,0-4.1-1.8-4.1-4.1c0-2.3,1.8-4.1,4.1-4.1h14.3c2.3,0,4.1,1.8,4.1,4.1
						C22.5,41.1,20.7,42.9,18.4,42.9L18.4,42.9z"/>
				</g>
				<g>
					<path fill="#404447" d="M18.4,61.2H4.1c-2.3,0-4.1-1.8-4.1-4.1C0,54.9,1.8,53,4.1,53h14.3c2.3,0,4.1,1.8,4.1,4.1
						C22.5,59.4,20.7,61.2,18.4,61.2L18.4,61.2z"/>
				</g>
				<g>
					<path fill="#404447" d="M18.4,79.5H4.1c-2.3,0-4.1-1.8-4.1-4.1c0-2.3,1.8-4.1,4.1-4.1h14.3c2.3,0,4.1,1.8,4.1,4.1
						C22.5,77.7,20.7,79.5,18.4,79.5L18.4,79.5z"/>
				</g>
			</g>
		</g>
	</g>
	<path fill="#404447" d="M52.1,77c-1.9,0-3.4,1.5-3.4,3.4c0,1.9,1.5,3.4,3.4,3.4c1.9,0,3.4-1.5,3.4-3.4C55.5,78.5,54,77,52.1,77
		L52.1,77z"/>
	<path fill="#404447" d="M61,77c-1.9,0-3.4,1.5-3.4,3.4c0,1.9,1.5,3.4,3.4,3.4c1.9,0,3.4-1.5,3.4-3.4C64.4,78.5,62.9,77,61,77L61,77
		z"/>
	<path fill="#404447" d="M69.9,77c-1.9,0-3.4,1.5-3.4,3.4c0,1.9,1.5,3.4,3.4,3.4c1.9,0,3.4-1.5,3.4-3.4C73.2,78.5,71.7,77,69.9,77
		L69.9,77z"/>
</g>
</svg>
