<?xml version="1.0" encoding="utf-8"?>
<!-- Generator: Adobe Illustrator 18.1.1, SVG Export Plug-In . SVG Version: 6.00 Build 0)  -->
<svg version="1.1" id="Layer_1" xmlns="http://www.w3.org/2000/svg" xmlns:xlink="http://www.w3.org/1999/xlink" x="0px" y="0px"
	 viewBox="0 0 96.7 93" enable-background="new 0 0 96.7 93" xml:space="preserve">
<g>
	<g>
		<path fill="#404447" d="M92.6,93H4c-2.2,0-4-1.8-4-4V57.7c0-2.2,1.8-4,4-4h88.6c2.2,0,4,1.8,4,4V89C96.7,91.2,94.9,93,92.6,93
			L92.6,93z M8,85h80.6V61.7H8V85L8,85z"/>
	</g>
	<g>
		<g>
			<path fill="#404447" d="M82.6,47.5c-1.1,0-2.2-0.5-3-1.3c-1.5-1.7-1.3-4.2,0.3-5.7C85,36,87.8,30,87.8,23.8
				c0-6.3-2.8-12.2-7.8-16.7c-1.7-1.5-1.8-4-0.3-5.7c1.5-1.7,4-1.8,5.7-0.3c6.8,6,10.5,14.1,10.5,22.7c0,8.6-3.7,16.7-10.5,22.7
				C84.5,47.2,83.6,47.5,82.6,47.5L82.6,47.5z"/>
		</g>
		<g>
			<path fill="#404447" d="M73.5,39.7c-1.1,0-2.2-0.5-3-1.3c-1.5-1.7-1.3-4.2,0.3-5.7c2.7-2.4,4.2-5.6,4.2-8.9s-1.5-6.5-4.2-8.9
				c-1.7-1.5-1.8-4-0.3-5.7c1.5-1.7,4-1.8,5.7-0.3c4.4,4,6.9,9.3,6.9,14.9c0,5.7-2.4,11-6.9,14.9C75.4,39.3,74.4,39.7,73.5,39.7
				L73.5,39.7z"/>
		</g>
		<g>
			<path fill="#404447" d="M43.4,47.5c-1,0-1.9-0.3-2.7-1c-6.8-6-10.5-14.1-10.5-22.7C30.3,15.1,34,7.1,40.8,1
				c1.6-1.5,4.2-1.3,5.7,0.3C47.9,3,47.8,5.5,46.1,7c-5.1,4.5-7.8,10.4-7.8,16.7c0,6.3,2.8,12.2,7.8,16.7c1.7,1.5,1.8,4,0.3,5.7
				C45.7,47.1,44.6,47.5,43.4,47.5L43.4,47.5z"/>
		</g>
		<g>
			<path fill="#404447" d="M52.6,39.7c-1,0-1.9-0.3-2.7-1c-4.4-4-6.9-9.2-6.9-14.9c0-5.7,2.4-11,6.9-14.9c1.6-1.5,4.2-1.3,5.7,0.3
				c1.5,1.7,1.3,4.2-0.3,5.7c-2.7,2.4-4.2,5.6-4.2,8.9s1.5,6.5,4.2,8.9c1.7,1.5,1.8,4,0.3,5.7C54.8,39.2,53.7,39.7,52.6,39.7
				L52.6,39.7z"/>
		</g>
	</g>
	<path fill="#404447" d="M18.9,68.6c-2.6,0-4.7,2.1-4.7,4.7s2.1,4.7,4.7,4.7c2.6,0,4.7-2.1,4.7-4.7S21.5,68.6,18.9,68.6L18.9,68.6z"
		/>
	<path fill="#404447" d="M34.3,68.6c-2.6,0-4.7,2.1-4.7,4.7s2.1,4.7,4.7,4.7c2.6,0,4.7-2.1,4.7-4.7S36.9,68.6,34.3,68.6L34.3,68.6z"
		/>
	<path fill="#404447" d="M49.7,68.6c-2.6,0-4.7,2.1-4.7,4.7s2.1,4.7,4.7,4.7c2.6,0,4.7-2.1,4.7-4.7S52.3,68.6,49.7,68.6L49.7,68.6z"
		/>
	<g>
		<path fill="#404447" d="M63,60.5c-2.2,0-4-1.8-4-4V25.6c0-2.2,1.8-4,4-4c2.2,0,4,1.8,4,4v30.8C67,58.7,65.2,60.5,63,60.5L63,60.5z
			"/>
	</g>
</g>
</svg>
