<?xml version="1.0" encoding="utf-8"?>
<!-- Generator: Adobe Illustrator 18.1.1, SVG Export Plug-In . SVG Version: 6.00 Build 0)  -->
<svg version="1.1" id="Layer_1" xmlns="http://www.w3.org/2000/svg" xmlns:xlink="http://www.w3.org/1999/xlink" x="0px" y="0px"
	 viewBox="0 0 94.2 93.8" enable-background="new 0 0 94.2 93.8" xml:space="preserve">
<g>
	<g>
		<path fill="#404447" d="M3.9,38.5c-2.2,0-3.9-1.8-3.9-3.9V3.9C0,1.8,1.8,0,3.9,0h30.6c2.2,0,3.9,1.8,3.9,3.9
			c0,2.2-1.8,3.9-3.9,3.9H7.9v26.6C7.9,36.7,6.1,38.5,3.9,38.5L3.9,38.5z"/>
	</g>
	<g>
		<path fill="#404447" d="M90.3,38.5c-2.2,0-3.9-1.8-3.9-3.9V7.9H59.7c-2.2,0-3.9-1.8-3.9-3.9c0-2.2,1.8-3.9,3.9-3.9h30.6
			c2.2,0,3.9,1.8,3.9,3.9v30.6C94.2,36.7,92.5,38.5,90.3,38.5L90.3,38.5z"/>
	</g>
	<g>
		<path fill="#404447" d="M34.5,93.8H3.9C1.8,93.8,0,92,0,89.8V59.3c0-2.2,1.8-3.9,3.9-3.9c2.2,0,3.9,1.8,3.9,3.9v26.6h26.6
			c2.2,0,3.9,1.8,3.9,3.9S36.7,93.8,34.5,93.8L34.5,93.8z"/>
	</g>
	<g>
		<path fill="#404447" d="M90.3,93.8H59.7c-2.2,0-3.9-1.8-3.9-3.9s1.8-3.9,3.9-3.9h26.6V59.3c0-2.2,1.8-3.9,3.9-3.9
			c2.2,0,3.9,1.8,3.9,3.9v30.6C94.2,92,92.5,93.8,90.3,93.8L90.3,93.8z"/>
	</g>
</g>
</svg>
