<?xml version="1.0" encoding="utf-8"?>
<!-- Generator: Adobe Illustrator 18.1.1, SVG Export Plug-In . SVG Version: 6.00 Build 0)  -->
<svg version="1.1" id="Layer_1" xmlns="http://www.w3.org/2000/svg" xmlns:xlink="http://www.w3.org/1999/xlink" x="0px" y="0px"
	 viewBox="0 0 128.6 81.6" enable-background="new 0 0 128.6 81.6" xml:space="preserve">
<g>
	<g>
		<path fill="#404447" d="M111,69H16.2c-2.4,0-4.3-1.9-4.3-4.3V4.3c0-2.4,1.9-4.3,4.3-4.3H111c2.4,0,4.3,1.9,4.3,4.3v60.4
			C115.3,67.1,113.4,69,111,69L111,69z M20.5,60.4h86.2V8.6H20.5V60.4L20.5,60.4z"/>
	</g>
	<g>
		<path fill="#404447" d="M102.4,58.2H24.8c-1.2,0-2.2-1-2.2-2.2V12.9c0-1.2,1-2.2,2.2-2.2h77.6c1.2,0,2.2,1,2.2,2.2V56
			C104.5,57.2,103.6,58.2,102.4,58.2L102.4,58.2z M26.9,53.9h73.3V15.1H26.9V53.9L26.9,53.9z"/>
	</g>
	<g>
		<path fill="#404447" d="M124.3,81.6H4.3c-2.4,0-4.3-1.9-4.3-4.3c0-2.4,1.9-4.3,4.3-4.3h120c2.4,0,4.3,1.9,4.3,4.3
			C128.6,79.6,126.7,81.6,124.3,81.6L124.3,81.6z"/>
	</g>
</g>
</svg>
