<?xml version="1.0" encoding="utf-8"?>
<!-- Generator: Adobe Illustrator 18.1.1, SVG Export Plug-In . SVG Version: 6.00 Build 0)  -->
<svg version="1.1" id="Layer_1" xmlns="http://www.w3.org/2000/svg" xmlns:xlink="http://www.w3.org/1999/xlink" x="0px" y="0px"
	 viewBox="0 0 600 600" enable-background="new 0 0 600 600" xml:space="preserve">
<g>
	<path fill="#404447" d="M300.3,600C134.9,600,0,465.7,0,300.3S134.9,0,300.3,0s300.3,134.9,300.3,300.3
		C600,465.7,465.7,600,300.3,600L300.3,600z M300.3,51.1c-137.7,0-249.2,111.6-249.2,249.2c0,137.1,111.6,249.2,249.2,249.2
		c137.1,0,249.2-112.1,249.2-249.2C549.5,162.6,437.4,51.1,300.3,51.1L300.3,51.1z"/>
	<polygon fill="#404447" points="205.9,195.4 205.4,195.4 138.2,262.5 301.9,426.3 369.1,359.1 465.7,262.5 398,195.4 398,194.8 
		205.4,194.8 	"/>
</g>
</svg>
