<?xml version="1.0" encoding="utf-8"?>
<!-- Generator: Adobe Illustrator 18.1.1, SVG Export Plug-In . SVG Version: 6.00 Build 0)  -->
<svg version="1.1" id="Layer_1" xmlns="http://www.w3.org/2000/svg" xmlns:xlink="http://www.w3.org/1999/xlink" x="0px" y="0px"
	 viewBox="0 0 92.5 92.5" enable-background="new 0 0 92.5 92.5" xml:space="preserve">
<g>
	<g>
		<path fill="#404447" d="M28.8,67.5c-1,0-2-0.4-2.7-1.1c-1.5-1.5-1.5-4,0-5.5l33.8-33.8c1.5-1.5,4-1.5,5.5,0c1.5,1.5,1.5,4,0,5.5
			L31.5,66.4C30.8,67.2,29.8,67.5,28.8,67.5L28.8,67.5z"/>
	</g>
	<g>
		<path fill="#404447" d="M62.2,52.2c-0.6,0-1.3,0-1.9-0.1c-2.1-0.2-3.7-2.1-3.5-4.2c0.2-2.1,2.1-3.7,4.2-3.5
			c3.9,0.4,7.6-1,10.3-3.7l9.6-9.6c5.1-5.1,5.1-13.3,0-18.4l-1.1-1.1c-5.1-5.1-13.3-5.1-18.4,0l-9.6,9.6c-2.7,2.7-4,6.5-3.7,10.3
			c0.2,2.1-1.4,4-3.5,4.2c-2.1,0.2-4-1.4-4.2-3.5C39.8,26,42,20,46.3,15.7l9.6-9.6C64-2,77.2-2,85.3,6.1l1.1,1.1
			c8.1,8.1,8.1,21.3,0,29.4l-9.6,9.6C72.9,50.1,67.6,52.2,62.2,52.2L62.2,52.2z"/>
	</g>
	<g>
		<path fill="#404447" d="M21.9,92.5c-5.3,0-10.6-2-14.7-6.1l-1.1-1.1C2.2,81.4,0,76.1,0,70.6c0-5.5,2.2-10.8,6.1-14.7l9.6-9.6
			C20,42,26,39.8,32.2,40.3c2.1,0.2,3.7,2.1,3.5,4.2c-0.2,2.1-2,3.7-4.2,3.5c-3.8-0.3-7.6,1-10.3,3.7l-9.6,9.6
			c-2.5,2.5-3.8,5.7-3.8,9.2c0,3.5,1.4,6.7,3.8,9.2l1.1,1.1c5.1,5.1,13.3,5.1,18.4,0l9.6-9.6c2.7-2.7,4-6.4,3.7-10.3
			c-0.2-2.1,1.4-4,3.5-4.2c2.1-0.2,4,1.4,4.2,3.5c0.6,6.1-1.6,12.1-5.9,16.5l-9.6,9.6C32.5,90.4,27.2,92.5,21.9,92.5L21.9,92.5z"/>
	</g>
</g>
</svg>
