<?xml version="1.0" encoding="utf-8"?>
<!-- Generator: Adobe Illustrator 18.1.1, SVG Export Plug-In . SVG Version: 6.00 Build 0)  -->
<svg version="1.1" id="Layer_1" xmlns="http://www.w3.org/2000/svg" xmlns:xlink="http://www.w3.org/1999/xlink" x="0px" y="0px"
	 viewBox="0 0 103.8 69.2" enable-background="new 0 0 103.8 69.2" xml:space="preserve">
<g>
	<g>
		<path fill="#404447" d="M99.5,69.2H4.3c-2.4,0-4.3-1.9-4.3-4.3V4.3C0,1.9,1.9,0,4.3,0h95.2c2.4,0,4.3,1.9,4.3,4.3v60.6
			C103.8,67.3,101.9,69.2,99.5,69.2L99.5,69.2z M8.7,60.6h86.5V8.7H8.7V60.6L8.7,60.6z"/>
	</g>
	<g>
		<path fill="#404447" d="M90.8,58.4H13c-1.2,0-2.2-1-2.2-2.2V13c0-1.2,1-2.2,2.2-2.2h77.9c1.2,0,2.2,1,2.2,2.2v43.3
			C93,57.4,92,58.4,90.8,58.4L90.8,58.4z M15.1,54.1h73.5V15.1H15.1V54.1L15.1,54.1z"/>
	</g>
</g>
</svg>
