<?xml version="1.0" encoding="utf-8"?>
<!-- Generator: Adobe Illustrator 18.1.1, SVG Export Plug-In . SVG Version: 6.00 Build 0)  -->
<svg version="1.1" id="Layer_1" xmlns="http://www.w3.org/2000/svg" xmlns:xlink="http://www.w3.org/1999/xlink" x="0px" y="0px"
	 viewBox="0 0 95.5 95.5" enable-background="new 0 0 95.5 95.5" xml:space="preserve">
<g>
	<g>
		<g>
			<path fill="#404447" d="M91.5,95.5H4c-2.2,0-4-1.8-4-4V4c0-2.2,1.8-4,4-4h43.4c2.2,0,4,1.8,4,4c0,2.2-1.8,4-4,4H8v79.5h79.5V48.1
				c0-2.2,1.8-4,4-4c2.2,0,4,1.8,4,4v43.4C95.5,93.7,93.7,95.5,91.5,95.5L91.5,95.5z"/>
		</g>
		<g>
			<g>
				<path fill="#404447" d="M77.6,45.6L77.6,45.6l-23.7,0c-2.2,0-4-1.8-4-4l0-23.7c0-2.2,1.8-4,4-4l0,0c2.2,0,4,1.8,4,4l0,19.7
					l19.7,0c2.2,0,4,1.8,4,4C81.6,43.8,79.8,45.6,77.6,45.6L77.6,45.6z"/>
			</g>
			<g>
				<path fill="#404447" d="M57.1,42.4c-1,0-2-0.4-2.8-1.2c-1.6-1.6-1.6-4.1,0-5.7L88.6,1.2c1.6-1.6,4.1-1.6,5.7,0
					c1.6,1.6,1.6,4.1,0,5.7L59.9,41.2C59.2,42,58.1,42.4,57.1,42.4L57.1,42.4z"/>
			</g>
		</g>
	</g>
	<g>
		<path fill="#404447" d="M32.2,74.7c-6.9,0-12.8-1.8-15.2-4.3c0,0,0,0,0,0.1v4c2.1,2.7,8.2,4.7,15.5,4.7c7.2,0,13.3-1.9,15.5-4.6
			v-4.2c-0.1-0.1-0.2-0.2-0.3-0.3C45.6,72.8,39.5,74.7,32.2,74.7z"/>
		<path fill="#404447" d="M47.7,60.9c-0.8,1-2,1.8-3.7,2.5c-3,1.3-7.2,2.1-11.8,2.1c-4.7,0-8.9-0.8-11.8-2.1
			c-1.4-0.6-2.6-1.4-3.3-2.2c0,0,0,0,0,0.1v4c0,0.1,0.1,0.1,0.2,0.2c0.8,0.9,2,1.7,3.5,2.4c3,1.3,7.2,2.1,11.8,2.1s8.9-0.8,11.8-2.1
			c1.4-0.6,2.5-1.3,3.2-2.1c0.1-0.1,0.3-0.3,0.4-0.4v-4.2C47.9,61.1,47.8,61,47.7,60.9z"/>
		<path fill="#404447" d="M20.8,58.6c2.8,1.3,7,2.2,11.6,2.2c4.7,0,8.9-0.9,11.7-2.2c1.4-0.7,2.5-1.5,3.1-2.4
			c0.4-0.5,0.6-1.1,0.6-1.7c0-3.5-6.9-6.3-15.4-6.3c-8.5,0-15.4,2.8-15.4,6.3c0,0.5,0.1,1,0.4,1.4C18,57,19.2,57.9,20.8,58.6z"/>
	</g>
</g>
</svg>
