<?xml version="1.0" encoding="utf-8"?>
<!-- Generator: Adobe Illustrator 18.1.1, SVG Export Plug-In . SVG Version: 6.00 Build 0)  -->
<svg version="1.1" id="Layer_1" xmlns="http://www.w3.org/2000/svg" xmlns:xlink="http://www.w3.org/1999/xlink" x="0px" y="0px"
	 viewBox="0 0 108.3 95" enable-background="new 0 0 108.3 95" xml:space="preserve">
<g>
	<g>
		<path fill="#404447" d="M47.5,95C21.3,95,0,73.7,0,47.5C0,21.3,21.3,0,47.5,0S95,21.3,95,47.5c0,2.5-2,4.5-4.5,4.5
			c-2.5,0-4.5-2-4.5-4.5c0-21.3-17.3-38.6-38.6-38.6C26.2,8.9,8.9,26.2,8.9,47.5c0,21.3,17.3,38.6,38.6,38.6
			c9.9,0,19.3-3.8,26.5-10.6c1.5-1.4,3-3,4.2-4.7c1.5-2,4.3-2.3,6.2-0.8c2,1.5,2.3,4.3,0.8,6.2c-1.6,2.1-3.3,4-5.2,5.8
			C71.3,90.4,59.7,95,47.5,95L47.5,95z"/>
	</g>
	<g>
		<path fill="#404447" d="M90.3,58c-1.1,0-2.1-0.4-3-1.1L73.8,44.7c-1.8-1.6-2-4.5-0.3-6.3c1.6-1.8,4.5-2,6.3-0.3l10.6,9.5l10.6-9.5
			c1.8-1.6,4.6-1.5,6.3,0.3c1.6,1.8,1.5,4.7-0.3,6.3L93.3,56.9C92.4,57.6,91.4,58,90.3,58L90.3,58z"/>
	</g>
</g>
</svg>
