<?xml version="1.0" encoding="utf-8"?>
<!-- Generator: Adobe Illustrator 18.1.1, SVG Export Plug-In . SVG Version: 6.00 Build 0)  -->
<svg version="1.1" id="Layer_1" xmlns="http://www.w3.org/2000/svg" xmlns:xlink="http://www.w3.org/1999/xlink" x="0px" y="0px"
	 viewBox="0 0 94.7 94.7" enable-background="new 0 0 94.7 94.7" xml:space="preserve">
<g>
	<g>
		<g>
			<path fill="#404447" d="M16.5,42.5c-2.2,0-4-1.8-4-4V16.7c0-2.2,1.8-4,4-4h21.9c2.2,0,4,1.8,4,4c0,2.2-1.8,4-4,4H20.5v17.9
				C20.5,40.7,18.7,42.5,16.5,42.5L16.5,42.5z"/>
		</g>
		<g>
			<path fill="#404447" d="M78.2,42.5c-2.2,0-4-1.8-4-4V20.6H56.4c-2.2,0-4-1.8-4-4c0-2.2,1.8-4,4-4h21.9c2.2,0,4,1.8,4,4v21.9
				C82.2,40.7,80.4,42.5,78.2,42.5L78.2,42.5z"/>
		</g>
		<g>
			<path fill="#404447" d="M38.4,82.1H16.5c-2.2,0-4-1.8-4-4V56.2c0-2.2,1.8-4,4-4c2.2,0,4,1.8,4,4v17.9h17.9c2.2,0,4,1.8,4,4
				C42.3,80.3,40.6,82.1,38.4,82.1L38.4,82.1z"/>
		</g>
		<g>
			<path fill="#404447" d="M78.2,82.1H56.4c-2.2,0-4-1.8-4-4c0-2.2,1.8-4,4-4h17.9V56.2c0-2.2,1.8-4,4-4c2.2,0,4,1.8,4,4v21.9
				C82.2,80.3,80.4,82.1,78.2,82.1L78.2,82.1z"/>
		</g>
	</g>
	<g>
		<path fill="#404447" d="M90.8,94.7H4c-2.2,0-4-1.8-4-4V4c0-2.2,1.8-4,4-4h86.8c2.2,0,4,1.8,4,4v86.8C94.7,93,93,94.7,90.8,94.7
			L90.8,94.7z M7.9,86.8h78.8V7.9H7.9V86.8L7.9,86.8z"/>
	</g>
</g>
</svg>
