<?xml version="1.0" encoding="utf-8"?>
<!-- Generator: Adobe Illustrator 18.1.1, SVG Export Plug-In . SVG Version: 6.00 Build 0)  -->
<svg version="1.1" id="Layer_1" xmlns="http://www.w3.org/2000/svg" xmlns:xlink="http://www.w3.org/1999/xlink" x="0px" y="0px"
	 viewBox="0 0 96.6 98.8" enable-background="new 0 0 96.6 98.8" xml:space="preserve">
<g>
	<g>
		<path fill="#404447" d="M4.1,98.8C1.8,98.8,0,97,0,94.7V57.5c0-2.3,1.8-4.1,4.1-4.1s4.1,1.8,4.1,4.1v37.2
			C8.2,97,6.4,98.8,4.1,98.8L4.1,98.8z"/>
	</g>
	<g>
		<path fill="#404447" d="M21.8,98.8c-2.3,0-4.1-1.8-4.1-4.1V21.4c0-2.3,1.8-4.1,4.1-4.1c2.3,0,4.1,1.8,4.1,4.1v73.3
			C25.9,97,24.1,98.8,21.8,98.8L21.8,98.8z"/>
	</g>
	<g>
		<path fill="#404447" d="M39.5,98.8c-2.3,0-4.1-1.8-4.1-4.1V4.1c0-2.3,1.8-4.1,4.1-4.1c2.3,0,4.1,1.8,4.1,4.1v90.6
			C43.6,97,41.7,98.8,39.5,98.8L39.5,98.8z"/>
	</g>
	<g>
		<path fill="#404447" d="M57.1,98.8c-2.3,0-4.1-1.8-4.1-4.1V35.9c0-2.3,1.8-4.1,4.1-4.1c2.3,0,4.1,1.8,4.1,4.1v58.9
			C61.3,97,59.4,98.8,57.1,98.8L57.1,98.8z"/>
	</g>
	<g>
		<path fill="#404447" d="M92.5,98.8c-2.3,0-4.1-1.8-4.1-4.1V74.3c0-2.3,1.8-4.1,4.1-4.1c2.3,0,4.1,1.8,4.1,4.1v20.4
			C96.6,97,94.8,98.8,92.5,98.8L92.5,98.8z"/>
	</g>
	<g>
		<path fill="#404447" d="M74.8,98.8c-2.3,0-4.1-1.8-4.1-4.1V4.1c0-2.3,1.8-4.1,4.1-4.1c2.3,0,4.1,1.8,4.1,4.1v90.6
			C78.9,97,77.1,98.8,74.8,98.8L74.8,98.8z"/>
	</g>
</g>
</svg>
