<?xml version="1.0" encoding="utf-8"?>
<!-- Generator: Adobe Illustrator 18.1.1, SVG Export Plug-In . SVG Version: 6.00 Build 0)  -->
<svg version="1.1" id="Layer_1" xmlns="http://www.w3.org/2000/svg" xmlns:xlink="http://www.w3.org/1999/xlink" x="0px" y="0px"
	 viewBox="0 0 129.4 96.7" enable-background="new 0 0 129.4 96.7" xml:space="preserve">
<g>
	<g>
		<g>
			<path fill="#404447" d="M65.3,96.7H5.1c-0.9,0-1.8-0.4-2.4-1.2c-0.5-0.8-0.7-1.7-0.4-2.6l12.3-38.6c0.4-1.2,1.5-2,2.8-2h60.2
				c0.9,0,1.8,0.4,2.4,1.2c0.5,0.8,0.7,1.7,0.4,2.6L68.1,94.7C67.7,95.9,66.6,96.7,65.3,96.7L65.3,96.7z M9.1,90.9h54l10.4-32.8h-54
				L9.1,90.9L9.1,90.9z"/>
		</g>
		<g>
			<path fill="#404447" d="M2.9,96.7c-1.6,0-2.9-1.3-2.9-2.9V40.9C0,37.7,2.6,35,5.9,35h20.5c3.2,0,5.9,2.6,5.9,5.9V43h3.3
				c1.6,0,2.9,1.3,2.9,2.9c0,1.6-1.3,2.9-2.9,2.9h-6.3c-1.6,0-2.9-1.3-2.9-2.9v-5H5.9v52.9C5.9,95.4,4.6,96.7,2.9,96.7L2.9,96.7z"/>
		</g>
		<g>
			<path fill="#404447" d="M43.5,83.6c-0.8,0-1.5-0.3-2.1-0.9l-8.9-8.9c-1.1-1.1-1.1-3,0-4.1s3-1.1,4.1,0l6.8,6.8l6.8-6.8
				c1.1-1.1,3-1.1,4.1,0c1.1,1.1,1.1,3,0,4.1l-8.9,8.9C45.1,83.3,44.3,83.6,43.5,83.6L43.5,83.6z"/>
		</g>
		<g>
			<path fill="#404447" d="M43.5,81.9c-1.5,0-2.8-1.1-2.9-2.6c-0.1-1.3-0.2-2.6-0.2-3.9c0-21.3,17.5-38.6,39.1-38.6
				c1.6,0,2.9,1.3,2.9,2.9c0,1.6-1.3,2.9-2.9,2.9c-18.3,0-33.2,14.7-33.2,32.8c0,1.1,0.1,2.3,0.2,3.4c0.2,1.6-1,3-2.6,3.2
				C43.7,81.9,43.6,81.9,43.5,81.9L43.5,81.9z"/>
		</g>
	</g>
	<g>
		<g>
			<g>
				<path fill="#404447" d="M87.7,43.8c-0.4,0-0.7-0.1-1-0.3c-0.5-0.3-0.8-0.8-0.8-1.4V8.8c0-0.7,0.5-1.3,1.2-1.6l20-7.1
					c0.5-0.2,1.2-0.1,1.6,0.2c0.5,0.3,0.8,0.8,0.8,1.4V35c0,0.7-0.5,1.3-1.2,1.6l-20,7.1C88.2,43.8,87.9,43.8,87.7,43.8L87.7,43.8z
					 M89.5,10v29.8l16.4-5.8V4.1L89.5,10L89.5,10z"/>
			</g>
			<g>
				<path fill="#404447" d="M91.8,16.9c-0.4,0-0.7-0.2-0.8-0.5c-0.2-0.4,0.1-0.9,0.5-1.1l11.9-4.2c0.5-0.2,1,0.1,1.1,0.5
					c0.2,0.4-0.1,0.9-0.5,1.1l-11.9,4.2C92.1,16.9,92,16.9,91.8,16.9L91.8,16.9z"/>
			</g>
			<g>
				<path fill="#404447" d="M91.8,27.7c-0.4,0-0.7-0.2-0.8-0.5c-0.2-0.4,0.1-0.9,0.5-1.1l11.9-4.2c0.5-0.2,1,0.1,1.1,0.5
					c0.2,0.4-0.1,0.9-0.5,1.1l-11.9,4.2C92.1,27.7,92,27.7,91.8,27.7L91.8,27.7z"/>
			</g>
			<g>
				<path fill="#404447" d="M91.8,33.2c-0.4,0-0.7-0.2-0.8-0.5c-0.2-0.4,0.1-0.9,0.5-1.1l11.9-4.2c0.5-0.2,1,0.1,1.1,0.5
					c0.2,0.4-0.1,0.9-0.5,1.1l-11.9,4.2C92.1,33.1,92,33.2,91.8,33.2L91.8,33.2z"/>
			</g>
			<g>
				<path fill="#404447" d="M91.8,22.3c-0.4,0-0.7-0.2-0.8-0.5c-0.2-0.4,0.1-0.9,0.5-1.1l11.9-4.2c0.5-0.2,1,0.1,1.1,0.5
					c0.2,0.4-0.1,0.9-0.5,1.1l-11.9,4.2C92.1,22.3,92,22.3,91.8,22.3L91.8,22.3z"/>
			</g>
		</g>
		<g>
			<g>
				<path fill="#404447" d="M120.3,40.4c-0.5,0-0.9-0.4-0.9-0.8v-9.8c0-0.3,0.1-0.5,0.4-0.7c0.2-0.2,0.5-0.2,0.8-0.1l7.3,2.6
					c0.5,0.2,0.7,0.6,0.5,1.1c-0.2,0.4-0.7,0.7-1.1,0.5l-6.1-2.2v8.5C121.2,40,120.8,40.4,120.3,40.4L120.3,40.4z"/>
			</g>
			<g>
				<path fill="#404447" d="M120.3,41.2c-0.2,0-0.4,0-0.6-0.1L107,36.6c-0.7-0.2-1.2-0.9-1.2-1.6V1.7c0-0.6,0.3-1.1,0.8-1.4
					c0.5-0.3,1.1-0.4,1.6-0.2l19.9,7.1c0.7,0.2,1.2,0.9,1.2,1.6l0,23.6c0,0.4-0.2,0.9-0.5,1.2l-7.3,7.1
					C121.2,41,120.8,41.2,120.3,41.2L120.3,41.2z M109.5,33.9l10.4,3.7l6-5.9l0-21.8l-16.4-5.8V33.9L109.5,33.9z"/>
			</g>
			<g>
				<path fill="#404447" d="M123.9,17.1c-0.1,0-0.2,0-0.3-0.1l-11.9-4.2c-0.5-0.2-0.7-0.6-0.5-1.1c0.2-0.4,0.7-0.7,1.1-0.5l11.9,4.2
					c0.5,0.2,0.7,0.6,0.5,1.1C124.6,16.8,124.3,17.1,123.9,17.1L123.9,17.1z"/>
			</g>
			<g>
				<path fill="#404447" d="M123.9,27.9c-0.1,0-0.2,0-0.3-0.1l-11.9-4.2c-0.5-0.2-0.7-0.6-0.5-1.1c0.2-0.4,0.7-0.7,1.1-0.5l11.9,4.2
					c0.5,0.2,0.7,0.6,0.5,1.1C124.6,27.7,124.3,27.9,123.9,27.9L123.9,27.9z"/>
			</g>
			<g>
				<path fill="#404447" d="M123.9,22.5c-0.1,0-0.2,0-0.3-0.1l-11.9-4.2c-0.5-0.2-0.7-0.6-0.5-1.1c0.2-0.4,0.7-0.7,1.1-0.5l11.9,4.2
					c0.5,0.2,0.7,0.6,0.5,1.1C124.6,22.3,124.3,22.5,123.9,22.5L123.9,22.5z"/>
			</g>
		</g>
	</g>
</g>
</svg>
