<?xml version="1.0" encoding="utf-8"?>
<!-- Generator: Adobe Illustrator 18.1.1, SVG Export Plug-In . SVG Version: 6.00 Build 0)  -->
<svg version="1.1" id="Layer_1" xmlns="http://www.w3.org/2000/svg" xmlns:xlink="http://www.w3.org/1999/xlink" x="0px" y="0px"
	 viewBox="0 0 600 600" enable-background="new 0 0 600 600" xml:space="preserve">
<g>
	<path fill="#404447" d="M530.1,7.9H69.9C31.5,7.9,0,39.3,0,77.8v444.5c0,38.4,31.5,69.9,69.9,69.9h460.2
		c38.4,0,69.9-31.5,69.9-69.9V77.8C600,39.3,568.5,7.9,530.1,7.9z M263.9,379.5c0,53.6-42.5,96.7-94.4,96.7
		c-48.9,0-89.7-39-93.8-88.5h-1.2l0.6-183.5h0.6c1.2-52.4,43.1-95,94.4-95s93.2,43.1,93.8,95.5l0,0l-0.6,164.9l0,0
		C263.9,373.1,263.9,376,263.9,379.5z M510.9,397v139.8H378.6v-0.6c-7.6,0-15.1-1.2-22.1-2.9c-8.2-2.3-15.7-5.8-22.7-9.9
		c-25.6-15.7-42.5-43.7-42.5-75.7c0-1.7,0-3.5,0-5.2l0,0V302.6h132.2l0,0c48.3,1.2,86.8,40.2,86.8,88.5
		C510.9,392.9,510.3,395.2,510.9,397L510.9,397z M523.7,194.3L523.7,194.3c-1.7,49.5-41.4,89.1-89.7,89.1c-1.7,0-3.5,0-5.2,0l0,0
		l-139.8-0.6l0.6-133.4v-2.3l0,0c1.2-49.5,40.8-89.1,89.1-89.1c1.7,0,4.1,0,5.8,0l0,0l139.8,0.6L523.7,194.3z"/>
	<g>
		<path fill="#404447" d="M221.9,201.3c0,1.2,0,2.3,0,3.5c-1.7,25.6-25,45.4-52.4,45.4c-28,0-50.7-20.4-52.4-46c0-1.2,0-2.3,0-3.5
			c0-26.8,23.9-48.9,53-48.9C198.6,152.3,221.9,173.9,221.9,201.3z"/>
	</g>
</g>
</svg>
