<?xml version="1.0" encoding="utf-8"?>
<!-- Generator: Adobe Illustrator 18.1.1, SVG Export Plug-In . SVG Version: 6.00 Build 0)  -->
<svg version="1.1" id="Layer_1" xmlns="http://www.w3.org/2000/svg" xmlns:xlink="http://www.w3.org/1999/xlink" x="0px" y="0px"
	 viewBox="0 0 99.7 90.4" enable-background="new 0 0 99.7 90.4" xml:space="preserve">
<g>
	<g>
		<path fill="#404447" d="M90.9,90.4h-82c-4.9,0-8.8-4-8.8-8.8V24.3c0-4.9,4-8.8,8.8-8.8h82c4.9,0,8.8,4,8.8,8.8v57.3
			C99.7,86.5,95.8,90.4,90.9,90.4L90.9,90.4z M8.8,23.9c-0.2,0-0.4,0.2-0.4,0.4v57.3c0,0.2,0.2,0.4,0.4,0.4h82
			c0.2,0,0.4-0.2,0.4-0.4V24.3c0-0.2-0.2-0.4-0.4-0.4H8.8L8.8,23.9z"/>
	</g>
	<g>
		<path fill="#404447" d="M66.7,23.5c-2.3,0-4.2-1.9-4.2-4.2V8.8c0-0.2-0.2-0.4-0.5-0.4H37.7c-0.2,0-0.4,0.2-0.4,0.4v10.4
			c0,2.3-1.9,4.2-4.2,4.2c-2.3,0-4.2-1.9-4.2-4.2V8.8c0-4.9,4-8.8,8.8-8.8H62c4.9,0,8.8,4,8.8,8.8v10.4C70.9,21.6,69,23.5,66.7,23.5
			L66.7,23.5z"/>
	</g>
	<g>
		<path fill="#404447" d="M40.8,49.2H5.9c-1.2,0-2.1-0.9-2.1-2.1C3.8,46,4.8,45,5.9,45h34.8c1.2,0,2.1,0.9,2.1,2.1
			C42.9,48.3,41.9,49.2,40.8,49.2L40.8,49.2z"/>
	</g>
	<g>
		<path fill="#404447" d="M92.3,49.2H57.5c-1.2,0-2.1-0.9-2.1-2.1c0-1.2,0.9-2.1,2.1-2.1h34.8c1.2,0,2.1,0.9,2.1,2.1
			C94.4,48.3,93.5,49.2,92.3,49.2L92.3,49.2z"/>
	</g>
	<g>
		<path fill="#404447" d="M55.7,60.9H44.1c-1.2,0-2.1-0.9-2.1-2.1V41.3c0-1.2,0.9-2.1,2.1-2.1h11.6c1.2,0,2.1,0.9,2.1,2.1v17.4
			C57.8,59.9,56.8,60.9,55.7,60.9L55.7,60.9z M46.2,56.7h7.4V43.4h-7.4V56.7L46.2,56.7z"/>
	</g>
</g>
</svg>
