<?xml version="1.0" encoding="utf-8"?>
<!-- Generator: Adobe Illustrator 18.1.1, SVG Export Plug-In . SVG Version: 6.00 Build 0)  -->
<svg version="1.1" id="Layer_1" xmlns="http://www.w3.org/2000/svg" xmlns:xlink="http://www.w3.org/1999/xlink" x="0px" y="0px"
	 viewBox="0 0 100.7 101.3" enable-background="new 0 0 100.7 101.3" xml:space="preserve">
<g>
	<g>
		<path fill="#404447" d="M86.6,37.9L86.6,37.9l-65.8-0.2c-1.1,0-2.2-0.5-3-1.3c-0.8-0.8-1.2-1.9-1.2-3l0.1-21.6
			c0-2.4,1.9-4.3,4.3-4.3c0,0,0,0,0,0l65.8,0.2c1.2,0,2.3,0.5,3.1,1.4L99.6,20c1.5,1.6,1.5,4.1,0,5.8l-9.9,10.8
			C88.9,37.4,87.8,37.9,86.6,37.9L86.6,37.9z M25,29.2l59.7,0.2l6-6.5l-5.9-6.5l-59.7-0.2L25,29.2L25,29.2z"/>
	</g>
	<g>
		<path fill="#404447" d="M79.9,72.1L79.9,72.1l-65.8-0.2c-1.2,0-2.3-0.5-3.2-1.4L1.1,59.7c-1.5-1.6-1.5-4.1,0-5.8L11,43.2
			c0.8-0.9,2-1.4,3.1-1.4h0L80,42c2.4,0,4.3,1.9,4.3,4.3l-0.1,21.6c0,1.1-0.5,2.2-1.3,3C82.2,71.6,81.1,72.1,79.9,72.1L79.9,72.1z
			 M16,63.3l59.7,0.2l0-13L16,50.3l-6,6.5L16,63.3L16,63.3z"/>
	</g>
	<g>
		<path fill="#404447" d="M47.4,101.3L47.4,101.3c-2.4,0-4.3-1.9-4.3-4.3l0.1-29c0-2.4,1.9-4.3,4.3-4.3c0,0,0,0,0,0
			c2.4,0,4.3,1.9,4.3,4.3l-0.1,29C51.6,99.4,49.7,101.3,47.4,101.3L47.4,101.3z"/>
	</g>
	<g>
		<path fill="#404447" d="M47.6,13.1L47.6,13.1c-2.4,0-4.3-1.9-4.3-4.3l0-4.5c0-2.4,1.9-4.3,4.3-4.3h0c2.4,0,4.3,1.9,4.3,4.3l0,4.5
			C51.9,11.2,50,13.1,47.6,13.1L47.6,13.1z"/>
	</g>
	<g>
		<path fill="#404447" d="M47.5,47.8L47.5,47.8c-2.4,0-4.3-1.9-4.3-4.3l0-7.1c0-2.4,1.9-4.3,4.3-4.3h0c2.4,0,4.3,1.9,4.3,4.3l0,7.1
			C51.8,45.9,49.9,47.8,47.5,47.8L47.5,47.8z"/>
	</g>
</g>
</svg>
