<?xml version="1.0" encoding="utf-8"?>
<!-- Generator: Adobe Illustrator 18.1.1, SVG Export Plug-In . SVG Version: 6.00 Build 0)  -->
<svg version="1.1" id="Layer_1" xmlns="http://www.w3.org/2000/svg" xmlns:xlink="http://www.w3.org/1999/xlink" x="0px" y="0px"
	 viewBox="0 0 93.7 100.2" enable-background="new 0 0 93.7 100.2" xml:space="preserve">
<g>
	<g>
		<g>
			<g>
				<path fill="#404447" d="M61.6,77.3H32.4c-1.3,0-2.3-1-2.3-2.3V45.8c0-1.3,1-2.3,2.3-2.3h29.2c1.3,0,2.3,1,2.3,2.3v29.2
					C63.9,76.2,62.9,77.3,61.6,77.3L61.6,77.3z M34.7,72.6h24.5V48.1H34.7V72.6L34.7,72.6z"/>
			</g>
			<g>
				<g>
					<path fill="#404447" d="M20.7,80.5c-0.6,0-1.2-0.5-1.2-1.2V41.3c0-0.6,0.5-1.2,1.2-1.2c0.6,0,1.2,0.5,1.2,1.2v38.1
						C21.9,80,21.4,80.5,20.7,80.5L20.7,80.5z"/>
				</g>
				<g>
					<path fill="#404447" d="M26,78c-0.6,0-1.2-0.5-1.2-1.2v-33c0-0.6,0.5-1.2,1.2-1.2c0.6,0,1.2,0.5,1.2,1.2v33
						C27.1,77.5,26.6,78,26,78L26,78z"/>
				</g>
				<g>
					<path fill="#404447" d="M73.3,80.5c-0.6,0-1.2-0.5-1.2-1.2V41.3c0-0.6,0.5-1.2,1.2-1.2c0.6,0,1.2,0.5,1.2,1.2v38.1
						C74.5,80,73.9,80.5,73.3,80.5L73.3,80.5z"/>
				</g>
				<g>
					<path fill="#404447" d="M68.1,78c-0.6,0-1.2-0.5-1.2-1.2v-33c0-0.6,0.5-1.2,1.2-1.2c0.6,0,1.2,0.5,1.2,1.2v33
						C69.2,77.5,68.7,78,68.1,78L68.1,78z"/>
				</g>
			</g>
		</g>
		<g>
			<path fill="#404447" d="M89.4,100.2H4.2C1.9,100.2,0,98.4,0,96V25c0-2.3,1.9-4.2,4.2-4.2h85.2c2.3,0,4.2,1.9,4.2,4.2v71
				C93.7,98.4,91.8,100.2,89.4,100.2L89.4,100.2z M8.5,91.8h76.7V29.2H8.5V91.8L8.5,91.8z"/>
		</g>
	</g>
	<g>
		<path fill="#404447" d="M84,14.2H9.7c-1.2,0-2.1-0.9-2.1-2.1c0-1.2,1-2.1,2.1-2.1H84c1.2,0,2.1,0.9,2.1,2.1
			C86.1,13.3,85.2,14.2,84,14.2L84,14.2z"/>
	</g>
	<g>
		<path fill="#404447" d="M75.6,4.2H18.1C17,4.2,16,3.3,16,2.1C16,0.9,17,0,18.1,0h57.4c1.2,0,2.1,0.9,2.1,2.1
			C77.7,3.3,76.7,4.2,75.6,4.2L75.6,4.2z"/>
	</g>
</g>
</svg>
