<?xml version="1.0" encoding="utf-8"?>
<!-- Generator: Adobe Illustrator 18.1.1, SVG Export Plug-In . SVG Version: 6.00 Build 0)  -->
<svg version="1.1" id="Layer_1" xmlns="http://www.w3.org/2000/svg" xmlns:xlink="http://www.w3.org/1999/xlink" x="0px" y="0px"
	 viewBox="0 0 97.9 84.6" enable-background="new 0 0 97.9 84.6" xml:space="preserve">
<g>
	<g>
		<path fill="#404447" d="M77,65.4h-4.5v-7.9H77c3,0,5.9-1.3,7.9-3.5C88.3,50.9,90,47,90,42.9c0-8.1-6.6-14.6-14.6-14.6
			c-1.5,0-3,0.2-4.5,0.7c-1.1,0.4-2.4,0.2-3.4-0.5c-1-0.7-1.6-1.7-1.8-2.9c-1-10.1-9.4-17.7-19.6-17.7c-10.9,0-19.7,8.8-19.7,19.7
			c0,1.3,0.1,2.6,0.4,3.9c0.2,1.2-0.1,2.4-0.8,3.3c-0.7,0.9-1.9,1.4-3,1.4h-4.4c-5.9,0-10.7,4.8-10.7,10.7c0,5.9,4.8,10.7,10.7,10.7
			h9v7.9h-9C8.3,65.4,0,57.1,0,46.8c0-10.2,8.3-18.6,18.6-18.6h0c0-0.2,0-0.5,0-0.7C18.6,12.4,30.9,0,46.1,0
			c12.8,0,23.6,8.6,26.7,20.6c0.8-0.1,1.7-0.1,2.5-0.1c12.4,0,22.5,10.1,22.5,22.5c0,6.3-2.7,12.4-7.4,16.6
			C87.2,63.2,82.2,65.4,77,65.4L77,65.4z"/>
	</g>
	<g>
		<path fill="#404447" d="M64.4,84.6H35.6c-3.1,0-5.5-2.5-5.5-5.5V62.1c0-3.1,2.5-5.5,5.5-5.5h28.8c3.1,0,5.5,2.5,5.5,5.5v17.1
			C69.9,82.2,67.4,84.6,64.4,84.6L64.4,84.6z M37.9,76.8H62V64.4H37.9V76.8L37.9,76.8z"/>
	</g>
	<g>
		<path fill="#404447" d="M60.2,64c-2.2,0-3.9-1.8-3.9-3.9v-4.4c0-3.5-2.8-6.3-6.3-6.3c-3.5,0-6.3,2.8-6.3,6.3v4.4
			c0,2.2-1.8,3.9-3.9,3.9c-2.2,0-3.9-1.8-3.9-3.9v-4.4c0-7.8,6.4-14.2,14.2-14.2c7.8,0,14.2,6.4,14.2,14.2v4.4
			C64.2,62.2,62.4,64,60.2,64L60.2,64z"/>
	</g>
	<path fill="#404447" d="M50,65.1c-1.8,0-3.3,1.5-3.3,3.3c0,1.3,0.7,2.3,1.7,2.9v3.8h3.2v-3.8c1-0.6,1.7-1.6,1.7-2.9
		C53.3,66.6,51.8,65.1,50,65.1L50,65.1z"/>
</g>
</svg>
