<?xml version="1.0" encoding="utf-8"?>
<!-- Generator: Adobe Illustrator 18.1.1, SVG Export Plug-In . SVG Version: 6.00 Build 0)  -->
<svg version="1.1" id="Layer_1" xmlns="http://www.w3.org/2000/svg" xmlns:xlink="http://www.w3.org/1999/xlink" x="0px" y="0px"
	 viewBox="0 0 600 600" enable-background="new 0 0 600 600" xml:space="preserve">
<g>
	<g>
		<path fill="#404447" d="M433.8,250.8H238.4c-6.8,0-12.4-5.6-12.4-12.4V127.6c0-6.8,5.6-12.4,12.4-12.4h195.4
			c6.8,0,12.4,5.6,12.4,12.4v110.2C446.3,245.2,440.7,250.8,433.8,250.8L433.8,250.8z M250.8,225.3h169.9v-84.6H250.8V225.3
			L250.8,225.3z"/>
	</g>
	<g>
		<g>
			<path fill="#404447" d="M540.9,600H103.9c-14.3,0-25.5-11.2-25.5-25.5v-549C78.4,11.2,89.6,0,103.9,0h436.9
				c14.3,0,25.5,11.2,25.5,25.5v549.6C566.4,588.8,554.6,600,540.9,600L540.9,600z M128.8,549.6h385.9V51H128.8L128.8,549.6
				L128.8,549.6z"/>
		</g>
		<g>
			<path fill="#404447" d="M148.1,153.7h-89c-14.3,0-25.5-11.2-25.5-25.5c0-14.3,11.2-25.5,25.5-25.5h89c14.3,0,25.5,11.2,25.5,25.5
				C173.7,142.5,162.4,153.7,148.1,153.7L148.1,153.7z"/>
		</g>
		<g>
			<path fill="#404447" d="M148.1,267h-89c-14.3,0-25.5-11.2-25.5-25.5S44.8,216,59.1,216h89c14.3,0,25.5,11.2,25.5,25.5
				C173.7,255.8,162.4,267,148.1,267L148.1,267z"/>
		</g>
		<g>
			<path fill="#404447" d="M148.1,380.9h-89c-14.3,0-25.5-11.2-25.5-25.5c0-13.7,11.2-25.5,25.5-25.5h89c14.3,0,25.5,11.2,25.5,25.5
				C173.7,369.7,162.4,380.9,148.1,380.9L148.1,380.9z"/>
		</g>
		<g>
			<path fill="#404447" d="M148.1,494.8h-89c-14.3,0-25.5-11.2-25.5-25.5c0-14.3,11.2-25.5,25.5-25.5h89c14.3,0,25.5,11.2,25.5,25.5
				C173.7,483.6,162.4,494.8,148.1,494.8L148.1,494.8z"/>
		</g>
	</g>
</g>
</svg>
