<?xml version="1.0" encoding="utf-8"?>
<!-- Generator: Adobe Illustrator 18.1.1, SVG Export Plug-In . SVG Version: 6.00 Build 0)  -->
<svg version="1.1" id="Layer_1" xmlns="http://www.w3.org/2000/svg" xmlns:xlink="http://www.w3.org/1999/xlink" x="0px" y="0px"
	 viewBox="0 0 600 600" enable-background="new 0 0 600 600" xml:space="preserve">
<g>
	<path fill="#404447" d="M415.6,462V9.7c0-5.4-4.3-9.7-9.7-9.7H65.8c-5.4,0-9.7,4.3-9.7,9.7V462c0,5.4,4.3,9.7,9.7,9.7h340.2
		C411.3,471.7,415.6,467.4,415.6,462z M279.2,51.2h47.4c5.4,0,9.7,4.3,9.7,9.7s-4.3,9.7-9.7,9.7h-47.4c-5.4,0-9.7-4.3-9.7-9.7
		C270.1,55,274.4,51.2,279.2,51.2z M322.4,102.4c0,5.4-4.3,9.7-9.7,9.7H141.8c-5.4,0-9.7-4.3-9.7-9.7c0-5.4,4.3-9.7,9.7-9.7h170.9
		C318.1,92.7,322.4,97,322.4,102.4z M197.3,51.2h47.4c5.4,0,9.7,4.3,9.7,9.7s-4.3,9.7-9.7,9.7h-47.4c-5.4,0-9.7-4.3-9.7-9.7
		C187.6,55,191.9,51.2,197.3,51.2z M115.4,51.2h47.4c5.4,0,9.7,4.3,9.7,9.7s-4.3,9.7-9.7,9.7h-47.4c-5.4,0-9.7-4.3-9.7-9.7
		C105.7,55,110,51.2,115.4,51.2z M279.2,191.9H141.8c-5.4,0-9.7-4.3-9.7-9.7c0-5.4,4.3-9.7,9.7-9.7h137.5c5.4,0,9.7,4.3,9.7,9.7
		C288.4,187.6,284.1,191.9,279.2,191.9z M288.4,222.1c0,5.4-4.3,9.7-9.7,9.7H141.8c-5.4,0-9.7-4.3-9.7-9.7s4.3-9.7,9.7-9.7h137.5
		C284.1,212.4,288.4,216.7,288.4,222.1z M162.8,313.7h-47.4c-5.4,0-9.7-4.3-9.7-9.7s4.3-9.7,9.7-9.7h47.4c5.4,0,9.7,4.3,9.7,9.7
		C172.5,309.4,168.2,313.7,162.8,313.7z M353.1,272.8H141.8c-5.4,0-9.7-4.3-9.7-9.7s4.3-9.7,9.7-9.7h211.3c5.4,0,9.7,4.3,9.7,9.7
		S358.5,272.8,353.1,272.8z M353.1,153.1H141.8c-5.4,0-9.7-4.3-9.7-9.7c0-5.4,4.3-9.7,9.7-9.7h211.3c5.4,0,9.7,4.3,9.7,9.7
		C362.8,148.8,358.5,153.1,353.1,153.1z"/>
	<path fill="#404447" d="M470.1,535.8H129.9c-5.4,0-9.7-4.3-9.7-9.7V504h318.1c5.4,0,9.7-4.3,9.7-9.7V64.2h22.6
		c5.4,0,9.7,4.3,9.7,9.7v452.3C479.8,531.5,475.5,535.8,470.1,535.8z"/>
	<path fill="#404447" d="M543.9,138v452.3c0,5.4-4.3,9.7-9.7,9.7H194.1c-5.4,0-9.7-4.3-9.7-9.7v-22.1h318.1c5.4,0,9.7-4.3,9.7-9.7
		V128.3h22.1C539.6,128.3,543.9,132.6,543.9,138z"/>
</g>
</svg>
