<?xml version="1.0" encoding="utf-8"?>
<!-- Generator: Adobe Illustrator 18.1.1, SVG Export Plug-In . SVG Version: 6.00 Build 0)  -->
<svg version="1.1" id="Layer_1" xmlns="http://www.w3.org/2000/svg" xmlns:xlink="http://www.w3.org/1999/xlink" x="0px" y="0px"
	 viewBox="0 0 94.7 94.7" enable-background="new 0 0 94.7 94.7" xml:space="preserve">
<g>
	<g>
		<path fill="#404447" d="M90.8,94.7H4c-2.2,0-4-1.8-4-4V4c0-2.2,1.8-4,4-4h86.8c2.2,0,4,1.8,4,4v86.8C94.7,93,93,94.7,90.8,94.7
			L90.8,94.7z M7.9,86.8h78.8V7.9H7.9V86.8L7.9,86.8z"/>
	</g>
	<g>
		<g>
			<g>
				<path fill="#404447" d="M71.6,66.7H46c-2.2,0-4-1.8-4-4c0-2.2,1.8-4,4-4h25.6c2.2,0,4,1.8,4,4C75.6,64.9,73.8,66.7,71.6,66.7
					L71.6,66.7z"/>
			</g>
		</g>
		<g>
			<g>
				<path fill="#404447" d="M23.3,66.7c-1,0-2.1-0.4-2.8-1.2c-1.6-1.6-1.6-4.1,0-5.7l11.7-11.8L20.5,36.3c-1.6-1.6-1.6-4.1,0-5.7
					c1.6-1.6,4.1-1.6,5.7,0l14.6,14.6c1.6,1.6,1.6,4.1,0,5.7L26.2,65.5C25.4,66.3,24.4,66.7,23.3,66.7L23.3,66.7z"/>
			</g>
		</g>
	</g>
</g>
</svg>
