<?xml version="1.0" encoding="utf-8"?>
<!-- Generator: Adobe Illustrator 18.1.1, SVG Export Plug-In . SVG Version: 6.00 Build 0)  -->
<svg version="1.1" id="Layer_1" xmlns="http://www.w3.org/2000/svg" xmlns:xlink="http://www.w3.org/1999/xlink" x="0px" y="0px"
	 viewBox="0 0 90.4 90" enable-background="new 0 0 90.4 90" xml:space="preserve">
<g>
	<g>
		<g>
			<path fill="#404447" d="M3.8,23.5c-2.1,0-3.8-1.7-3.8-3.8V3.8C0,1.7,1.7,0,3.8,0h15.9c2.1,0,3.8,1.7,3.8,3.8
				c0,2.1-1.7,3.8-3.8,3.8H7.6v12.1C7.6,21.8,5.9,23.5,3.8,23.5L3.8,23.5z"/>
		</g>
		<g>
			<path fill="#404447" d="M86.6,23.5c-2.1,0-3.8-1.7-3.8-3.8V7.6H70.7c-2.1,0-3.8-1.7-3.8-3.8C67,1.7,68.6,0,70.7,0h15.9
				c2.1,0,3.8,1.7,3.8,3.8v15.9C90.4,21.8,88.7,23.5,86.6,23.5L86.6,23.5z"/>
		</g>
		<g>
			<path fill="#404447" d="M19.7,90H3.8C1.7,90,0,88.3,0,86.2V70.3c0-2.1,1.7-3.8,3.8-3.8s3.8,1.7,3.8,3.8v12.1h12.1
				c2.1,0,3.8,1.7,3.8,3.8C23.5,88.3,21.8,90,19.7,90L19.7,90z"/>
		</g>
		<g>
			<path fill="#404447" d="M86.6,90H70.7c-2.1,0-3.8-1.7-3.8-3.8c0-2.1,1.7-3.8,3.8-3.8h12.1V70.3c0-2.1,1.7-3.8,3.8-3.8
				c2.1,0,3.8,1.7,3.8,3.8v15.9C90.4,88.3,88.7,90,86.6,90L86.6,90z"/>
		</g>
	</g>
	<g>
		<path fill="#404447" d="M71.4,75H19c-2.1,0-3.8-1.7-3.8-3.8V18.8c0-2.1,1.7-3.8,3.8-3.8h52.4c2.1,0,3.8,1.7,3.8,3.8v52.4
			C75.2,73.3,73.5,75,71.4,75L71.4,75z M22.8,67.4h44.9V22.6H22.8V67.4L22.8,67.4z"/>
	</g>
</g>
</svg>
