<?xml version="1.0" encoding="utf-8"?>
<!-- Generator: Adobe Illustrator 18.1.1, SVG Export Plug-In . SVG Version: 6.00 Build 0)  -->
<svg version="1.1" id="Layer_1" xmlns="http://www.w3.org/2000/svg" xmlns:xlink="http://www.w3.org/1999/xlink" x="0px" y="0px"
	 viewBox="0 0 99.5 99.5" enable-background="new 0 0 99.5 99.5" xml:space="preserve">
<g>
	<g>
		<path fill="#404447" d="M95,99.5H4.5C2,99.5,0,97.5,0,95V4.5C0,2,2,0,4.5,0H95c2.5,0,4.5,2,4.5,4.5V95
			C99.5,97.5,97.5,99.5,95,99.5L95,99.5z M8.9,90.6h81.7V8.9H8.9V90.6L8.9,90.6z"/>
	</g>
	<g>
		<path fill="#404447" d="M93.6,52H5.9c-1.2,0-2.2-1-2.2-2.2c0-1.2,1-2.2,2.2-2.2h87.6c1.2,0,2.2,1,2.2,2.2C95.8,51,94.8,52,93.6,52
			L93.6,52z"/>
	</g>
	<g>
		<path fill="#404447" d="M49.8,95.8c-1.2,0-2.2-1-2.2-2.2V5.9c0-1.2,1-2.2,2.2-2.2c1.2,0,2.2,1,2.2,2.2v87.6
			C52,94.8,51,95.8,49.8,95.8L49.8,95.8z"/>
	</g>
</g>
</svg>
