<?xml version="1.0" encoding="utf-8"?>
<!-- Generator: Adobe Illustrator 18.1.1, SVG Export Plug-In . SVG Version: 6.00 Build 0)  -->
<svg version="1.1" id="Layer_1" xmlns="http://www.w3.org/2000/svg" xmlns:xlink="http://www.w3.org/1999/xlink" x="0px" y="0px"
	 viewBox="0 0 100.4 100.4" enable-background="new 0 0 100.4 100.4" xml:space="preserve">
<g>
	<g>
		<path fill="#404447" d="M50.2,100.4C22.5,100.4,0,77.9,0,50.2C0,22.5,22.5,0,50.2,0c27.7,0,50.2,22.5,50.2,50.2
			C100.4,77.9,77.9,100.4,50.2,100.4L50.2,100.4z M50.2,8.5c-23,0-41.7,18.7-41.7,41.7c0,23,18.7,41.7,41.7,41.7
			s41.7-18.7,41.7-41.7C91.9,27.2,73.2,8.5,50.2,8.5L50.2,8.5z"/>
	</g>
	<g>
		<path fill="#404447" d="M50.2,98.3c-15.8,0-28.7-21.6-28.7-48.1c0-26.5,12.9-48.1,28.7-48.1c15.8,0,28.7,21.6,28.7,48.1
			C78.9,76.7,66,98.3,50.2,98.3L50.2,98.3z M50.2,6.3C36.7,6.3,25.7,26,25.7,50.2c0,24.2,11,43.8,24.5,43.8
			c13.5,0,24.5-19.7,24.5-43.8C74.7,26,63.7,6.3,50.2,6.3L50.2,6.3z"/>
	</g>
	<g>
		<path fill="#404447" d="M50.2,98.3c-1.2,0-2.1-0.9-2.1-2.1V4.2c0-1.2,0.9-2.1,2.1-2.1c26.5,0,48.1,21.6,48.1,48.1
			C98.3,76.7,76.7,98.3,50.2,98.3L50.2,98.3z M52.3,6.4V94C75.5,92.9,94,73.7,94,50.2C94,26.7,75.5,7.5,52.3,6.4L52.3,6.4z"/>
	</g>
	<g>
		<path fill="#404447" d="M93.2,68.5H7.2c-0.9,0-1.7-0.5-2-1.4c-2.1-5.5-3.1-11.2-3.1-16.9c0-5.7,1-11.4,3.1-17
			c0.3-0.8,1.1-1.4,2-1.4h85.9c0.9,0,1.7,0.5,2,1.4c2.1,5.5,3.1,11.2,3.1,17c0,5.7-1,11.4-3.1,16.9C94.8,68,94,68.5,93.2,68.5
			L93.2,68.5z M8.7,64.3h83c1.6-4.6,2.4-9.3,2.4-14.1c0-4.8-0.8-9.5-2.4-14.1h-83c-1.6,4.6-2.4,9.3-2.4,14.1
			C6.3,54.9,7.1,59.7,8.7,64.3L8.7,64.3z"/>
	</g>
</g>
</svg>
