<?xml version="1.0" encoding="utf-8"?>
<!-- Generator: Adobe Illustrator 18.1.1, SVG Export Plug-In . SVG Version: 6.00 Build 0)  -->
<svg version="1.1" id="Layer_1" xmlns="http://www.w3.org/2000/svg" xmlns:xlink="http://www.w3.org/1999/xlink" x="0px" y="0px"
	 viewBox="0 0 94.2 92.7" enable-background="new 0 0 94.2 92.7" xml:space="preserve">
<g>
	<g>
		<g>
			<path fill="#404447" d="M90.2,92.7H4c-2.2,0-4-1.8-4-4V4c0-2.2,1.8-4,4-4h86.3c2.2,0,4,1.8,4,4v84.7
				C94.2,90.9,92.4,92.7,90.2,92.7L90.2,92.7z M7.9,84.7h78.3V7.9H7.9V84.7L7.9,84.7z"/>
		</g>
		<g>
			<path fill="#404447" d="M77.4,65H16.8c-1.1,0-2-0.9-2-2V16.8c0-1.1,0.9-2,2-2h60.5c1.1,0,2,0.9,2,2V63C79.4,64.1,78.5,65,77.4,65
				L77.4,65z M18.8,61h56.6V18.8H18.8V61L18.8,61z"/>
		</g>
	</g>
	<g>
		<g>
			<path fill="#404447" d="M27,76.8c0-0.9,0.7-1.7,1.7-1.7H37c0.9,0,1.7,0.7,1.7,1.7c0,0.9-0.7,1.7-1.7,1.7h-8.3
				C27.8,78.5,27,77.8,27,76.8L27,76.8z"/>
		</g>
		<g>
			<path fill="#404447" d="M41.3,76.8c0-0.9,0.7-1.7,1.7-1.7h8.3c0.9,0,1.7,0.7,1.7,1.7c0,0.9-0.7,1.7-1.7,1.7H43
				C42.1,78.5,41.3,77.8,41.3,76.8L41.3,76.8z"/>
		</g>
		<g>
			<path fill="#404447" d="M55.6,76.8c0-0.9,0.7-1.7,1.7-1.7h8.3c0.9,0,1.7,0.7,1.7,1.7c0,0.9-0.7,1.7-1.7,1.7h-8.3
				C56.3,78.5,55.6,77.8,55.6,76.8L55.6,76.8z"/>
		</g>
	</g>
</g>
</svg>
