<?xml version="1.0" encoding="utf-8"?>
<!-- Generator: Adobe Illustrator 18.1.1, SVG Export Plug-In . SVG Version: 6.00 Build 0)  -->
<svg version="1.1" id="Layer_1" xmlns="http://www.w3.org/2000/svg" xmlns:xlink="http://www.w3.org/1999/xlink" x="0px" y="0px"
	 viewBox="0 0 600 600" enable-background="new 0 0 600 600" xml:space="preserve">
<g>
	<g>
		<g>
			<path fill="#404447" d="M574.5,600H25.5C11.5,600,0,588.5,0,574.5V25.5C0,11.5,11.5,0,25.5,0h549.1c14,0,25.5,11.5,25.5,25.5
				v549.1C600,588.5,588.5,600,574.5,600L574.5,600z M50.9,549.1h498.2V50.9H50.9V549.1L50.9,549.1z"/>
		</g>
		<g>
			<path fill="#404447" d="M493.7,506.5H106.3c-7,0-12.7-5.7-12.7-12.7V106.3c0-7,5.7-12.7,12.7-12.7h386.9c7,0,12.7,5.7,12.7,12.7
				v386.9C506.5,500.7,500.7,506.5,493.7,506.5L493.7,506.5z M119.6,481H481V119.6H119.6V481L119.6,481z"/>
		</g>
		<g>
			<g>
				<path fill="#404447" d="M106.3,251.3c-14,0-25.5-11.5-25.5-25.5v-31.8c0-14,11.5-25.5,25.5-25.5c14,0,25.5,11.5,25.5,25.5v31.8
					C132.3,239.9,120.9,251.3,106.3,251.3L106.3,251.3z"/>
			</g>
			<g>
				<path fill="#404447" d="M106.3,431.4c-14,0-25.5-11.5-25.5-25.5v-31.8c0-14,11.5-25.5,25.5-25.5c14,0,25.5,11.5,25.5,25.5v31.8
					C132.3,419.9,120.9,431.4,106.3,431.4L106.3,431.4z"/>
			</g>
		</g>
	</g>
	<g>
		<g>
			<path fill="#404447" d="M300.3,376.7c-42.6,0-77-34.4-77-77s34.4-77,77-77s77,34.4,77,77C376.7,342.3,342.3,376.7,300.3,376.7
				L300.3,376.7z M300.3,248.8c-28,0-51.5,22.9-51.5,51.5s22.9,51.5,51.5,51.5s51.5-22.9,51.5-51.5
				C351.2,271.7,328.3,248.8,300.3,248.8L300.3,248.8z"/>
		</g>
		<g>
			<g>
				<path fill="#404447" d="M252,264.7c-3.2,0-6.4-1.3-8.9-3.8l-17.8-17.8c-5.1-5.1-5.1-13.4,0-17.8c5.1-5.1,13.4-5.1,17.8,0
					l17.8,17.8c5.1,5.1,5.1,13.4,0,17.8C258.3,263.4,255.1,264.7,252,264.7L252,264.7z"/>
			</g>
			<g>
				<path fill="#404447" d="M366.5,379.2c-3.2,0-6.4-1.3-8.9-3.8l-21-21c-5.1-5.1-5.1-13.4,0-17.8c5.1-5.1,13.4-5.1,17.8,0l21,21
					c5.1,5.1,5.1,13.4,0,17.8C372.9,377.9,369.7,379.2,366.5,379.2L366.5,379.2z"/>
			</g>
		</g>
		<g>
			<g>
				<path fill="#404447" d="M348.7,264.7c-3.2,0-6.4-1.3-8.9-3.8c-5.1-5.1-5.1-13.4,0-17.8l17.8-17.8c5.1-5.1,13.4-5.1,17.8,0
					c5.1,5.1,5.1,13.4,0,17.8l-17.8,17.8C355,263.4,351.9,264.7,348.7,264.7L348.7,264.7z"/>
			</g>
			<g>
				<path fill="#404447" d="M233.5,379.2c-3.2,0-6.4-1.3-8.9-3.8c-5.1-5.1-5.1-13.4,0-17.8l21-21c5.1-5.1,13.4-5.1,17.8,0
					c5.1,5.1,5.1,13.4,0,17.8l-20.4,21C240.5,377.9,237.3,379.2,233.5,379.2L233.5,379.2z"/>
			</g>
		</g>
		<g>
			<g>
				<path fill="#404447" d="M300.3,244.3c-7,0-12.7-5.7-12.7-12.7v-25.5c0-7,5.7-12.7,12.7-12.7s12.7,5.7,12.7,12.7v25.5
					C313,238.6,307.3,244.3,300.3,244.3L300.3,244.3z"/>
			</g>
			<g>
				<path fill="#404447" d="M300.3,406.6L300.3,406.6c-7,0-12.7-5.7-12.7-12.7v-29.9c0-7,5.7-12.7,12.7-12.7l0,0
					c7,0,12.7,5.7,12.7,12.7v29.9C313,400.8,307.3,406.6,300.3,406.6L300.3,406.6z"/>
			</g>
		</g>
		<g>
			<g>
				<path fill="#404447" d="M393.8,313h-25.5c-7,0-12.7-5.7-12.7-12.7s5.7-12.7,12.7-12.7h25.5c7,0,12.7,5.7,12.7,12.7
					S400.8,313,393.8,313L393.8,313z"/>
			</g>
			<g>
				<path fill="#404447" d="M236.1,313h-29.9c-7,0-12.7-5.7-12.7-12.7s5.7-12.7,12.7-12.7h29.9c7,0,12.7,5.7,12.7,12.7
					S243.1,313,236.1,313L236.1,313z"/>
			</g>
		</g>
	</g>
</g>
</svg>
