<?xml version="1.0" encoding="utf-8"?>
<!-- Generator: Adobe Illustrator 18.1.1, SVG Export Plug-In . SVG Version: 6.00 Build 0)  -->
<svg version="1.1" id="Layer_1" xmlns="http://www.w3.org/2000/svg" xmlns:xlink="http://www.w3.org/1999/xlink" x="0px" y="0px"
	 viewBox="0 0 93.4 93.4" enable-background="new 0 0 93.4 93.4" xml:space="preserve">
<g>
	<g>
		<g>
			<path fill="#404447" d="M89.5,93.4H3.9c-2.2,0-3.9-1.8-3.9-3.9V3.9C0,1.8,1.8,0,3.9,0h85.6c2.2,0,3.9,1.8,3.9,3.9v85.6
				C93.4,91.7,91.7,93.4,89.5,93.4L89.5,93.4z M7.9,85.6h77.7V7.9H7.9V85.6L7.9,85.6z"/>
		</g>
		<g>
			<path fill="#404447" d="M88.1,28.8H5.3c-1.1,0-2-0.9-2-2c0-1.1,0.9-2,2-2h82.8c1.1,0,2,0.9,2,2C90.1,27.9,89.2,28.8,88.1,28.8
				L88.1,28.8z"/>
		</g>
		<path fill="#404447" d="M17.9,11.5c-2.7,0-5,2.2-5,5c0,2.7,2.2,4.9,5,4.9c2.7,0,5-2.2,5-4.9C22.8,13.8,20.6,11.5,17.9,11.5
			L17.9,11.5z"/>
		<path fill="#404447" d="M31.3,11.5c-2.7,0-5,2.2-5,5c0,2.7,2.2,4.9,5,4.9c2.7,0,5-2.2,5-4.9C36.2,13.8,34,11.5,31.3,11.5
			L31.3,11.5z"/>
		<path fill="#404447" d="M44.7,11.5c-2.7,0-5,2.2-5,5c0,2.7,2.2,4.9,5,4.9c2.7,0,5-2.2,5-4.9C49.6,13.8,47.4,11.5,44.7,11.5
			L44.7,11.5z"/>
	</g>
	<g>
		<g>
			<path fill="#404447" d="M46.7,44.6H19.9c-1.1,0-2-0.9-2-2c0-1.1,0.9-2,2-2h26.9c1.1,0,2,0.9,2,2C48.7,43.7,47.8,44.6,46.7,44.6
				L46.7,44.6z"/>
		</g>
		<g>
			<path fill="#404447" d="M46.7,57H19.9c-1.1,0-2-0.9-2-2c0-1.1,0.9-2,2-2h26.9c1.1,0,2,0.9,2,2C48.7,56.1,47.8,57,46.7,57L46.7,57
				z"/>
		</g>
		<g>
			<path fill="#404447" d="M46.7,69.5H19.9c-1.1,0-2-0.9-2-2c0-1.1,0.9-2,2-2h26.9c1.1,0,2,0.9,2,2C48.7,68.6,47.8,69.5,46.7,69.5
				L46.7,69.5z"/>
		</g>
		<g>
			<path fill="#404447" d="M73.6,69.5h-17c-1.1,0-2-0.9-2-2V42.6c0-1.1,0.9-2,2-2h17c1.1,0,2,0.9,2,2v24.9
				C75.5,68.6,74.7,69.5,73.6,69.5L73.6,69.5z M58.5,65.5h13.1v-21H58.5V65.5L58.5,65.5z"/>
		</g>
	</g>
</g>
</svg>
