<?xml version="1.0" encoding="utf-8"?>
<!-- Generator: Adobe Illustrator 18.1.1, SVG Export Plug-In . SVG Version: 6.00 Build 0)  -->
<svg version="1.1" id="Layer_1" xmlns="http://www.w3.org/2000/svg" xmlns:xlink="http://www.w3.org/1999/xlink" x="0px" y="0px"
	 viewBox="0 0 90.5 111.3" enable-background="new 0 0 90.5 111.3" xml:space="preserve">
<g>
	<path fill="#404447" d="M66.7,85.7V1.8c0-1-0.8-1.8-1.8-1.8H1.8C0.8,0,0,0.8,0,1.8v83.9c0,1,0.8,1.8,1.8,1.8h63.1
		C65.9,87.5,66.7,86.7,66.7,85.7z M41.4,9.5h8.8c1,0,1.8,0.8,1.8,1.8c0,1-0.8,1.8-1.8,1.8h-8.8c-1,0-1.8-0.8-1.8-1.8
		C39.7,10.2,40.5,9.5,41.4,9.5z M49.4,19c0,1-0.8,1.8-1.8,1.8H15.9c-1,0-1.8-0.8-1.8-1.8c0-1,0.8-1.8,1.8-1.8h31.7
		C48.6,17.2,49.4,18,49.4,19z M26.2,9.5h8.8c1,0,1.8,0.8,1.8,1.8c0,1-0.8,1.8-1.8,1.8h-8.8c-1,0-1.8-0.8-1.8-1.8
		C24.4,10.2,25.2,9.5,26.2,9.5z M11,9.5h8.8c1,0,1.8,0.8,1.8,1.8c0,1-0.8,1.8-1.8,1.8H11c-1,0-1.8-0.8-1.8-1.8
		C9.2,10.2,10,9.5,11,9.5z M41.4,35.6H15.9c-1,0-1.8-0.8-1.8-1.8c0-1,0.8-1.8,1.8-1.8h25.5c1,0,1.8,0.8,1.8,1.8
		C43.1,34.8,42.3,35.6,41.4,35.6z M43.1,41.2c0,1-0.8,1.8-1.8,1.8H15.9c-1,0-1.8-0.8-1.8-1.8c0-1,0.8-1.8,1.8-1.8h25.5
		C42.3,39.4,43.1,40.2,43.1,41.2z M19.8,58.2H11c-1,0-1.8-0.8-1.8-1.8c0-1,0.8-1.8,1.8-1.8h8.8c1,0,1.8,0.8,1.8,1.8
		C21.6,57.4,20.8,58.2,19.8,58.2z M55.1,50.6H15.9c-1,0-1.8-0.8-1.8-1.8c0-1,0.8-1.8,1.8-1.8h39.2c1,0,1.8,0.8,1.8,1.8
		C56.9,49.8,56.1,50.6,55.1,50.6z M55.1,28.4H15.9c-1,0-1.8-0.8-1.8-1.8c0-1,0.8-1.8,1.8-1.8h39.2c1,0,1.8,0.8,1.8,1.8
		C56.9,27.6,56.1,28.4,55.1,28.4z"/>
	<path fill="#404447" d="M76.8,99.4H13.7c-1,0-1.8-0.8-1.8-1.8v-4.1h59c1,0,1.8-0.8,1.8-1.8V11.9h4.2c1,0,1.8,0.8,1.8,1.8v83.9
		C78.6,98.6,77.8,99.4,76.8,99.4z"/>
	<path fill="#404447" d="M90.5,25.6v83.9c0,1-0.8,1.8-1.8,1.8H25.6c-1,0-1.8-0.8-1.8-1.8v-4.1h59c1,0,1.8-0.8,1.8-1.8V23.8h4.1
		C89.7,23.8,90.5,24.6,90.5,25.6z"/>
</g>
</svg>
