<?xml version="1.0" encoding="utf-8"?>
<!-- Generator: Adobe Illustrator 18.1.1, SVG Export Plug-In . SVG Version: 6.00 Build 0)  -->
<svg version="1.1" id="Layer_1" xmlns="http://www.w3.org/2000/svg" xmlns:xlink="http://www.w3.org/1999/xlink" x="0px" y="0px"
	 viewBox="0 0 600 600" enable-background="new 0 0 600 600" xml:space="preserve">
<g>
	<path fill="#404447" d="M247,54.4c16.1,0,35.7,25.9,53,25.9s36.3-25.9,53-25.9c1.2,0,2.3,0,2.9,0.6c17.3,4,23.6,39.7,39.2,47.2
		c2.9,1.7,6.9,2.3,10.9,2.3c11.5,0,25.9-4.6,37.4-4.6c5.2,0,9.8,1.2,13.2,3.5c13.8,10.9,4,46.1,15,59.9
		c10.9,13.8,47.2,11.5,54.7,27.6c7.5,15.5-16.7,42.6-12.7,60.5c4,16.7,37.4,31.1,37.4,48.9s-33.4,32.2-37.4,48.9
		c-4,17.3,20.2,44.3,12.7,60.5c-7.5,16.1-43.8,13.8-54.7,27.6s-1.2,48.9-15,59.9c-3.5,2.9-8.1,3.5-13.2,3.5
		c-11.5,0-25.9-4.6-37.4-4.6c-4,0-7.5,0.6-10.9,2.3c-15.5,7.5-21.9,43.2-39.2,47.2c-1.2,0-2.3,0.6-2.9,0.6
		c-16.1,0-35.7-25.9-53-25.9s-36.3,25.9-53,25.9c-1.2,0-2.3,0-2.9-0.6c-17.3-4-23.6-39.7-39.2-47.2c-2.9-1.7-6.9-2.3-10.9-2.3
		c-11.5,0-25.9,4.6-37.4,4.6c-5.2,0-9.8-1.2-13.2-3.5c-13.8-10.9-4-46.1-15-59.9c-10.9-13.8-47.2-11.5-54.7-27.6
		c-7.5-15.5,16.7-42.6,12.7-60.5c-4-16.7-37.4-31.1-37.4-48.9s33.4-32.2,37.4-48.9c4-17.3-20.2-44.3-12.7-60.5
		c7.5-16.1,43.8-13.8,54.7-27.6c10.9-13.8,1.2-48.9,15-59.9c3.5-2.9,8.1-3.5,13.2-3.5c11.5,0,25.9,4.6,37.4,4.6
		c4,0,7.5-0.6,10.9-2.3c15.5-7.5,21.9-43.2,39.2-47.2C245.3,55,245.9,54.4,247,54.4 M247,6c-4.6,0-9.2,0.6-13.8,1.7
		c-29.4,6.9-43.2,30.5-51.8,46.1c-7.5-1.2-15.5-2.3-24.8-2.3c-17.3,0-31.7,4.6-43.8,14.4C89.3,84.4,86.9,112,86.4,129.8
		c-17.3,4.6-43.8,13.2-56.4,40.3c-13.2,27.1-2.9,53,3.5,69.1C20.2,250.8,0,270.3,0,300.3s20.2,48.9,33.4,61
		c-6.9,16.1-16.7,42.6-3.5,69.1c12.7,27.1,39.2,35.1,56.4,40.3c1.2,17.9,3.5,45.5,26.5,63.9c12.1,9.2,26.5,14.4,43.8,14.4
		c8.6,0,17.3-1.2,24.8-2.3c8.6,15.5,23,39.7,52.4,46.1c4.6,1.2,9.2,1.7,13.8,1.7c23,0,40.3-11.5,53-20.7c12.7,9.2,29.9,20.7,53,20.7
		c4.6,0,9.2-0.6,13.8-1.7c29.4-6.3,43.2-30.5,51.8-46.1c7.5,1.2,15.5,2.3,24.8,2.3c17.3,0,31.7-4.6,43.8-14.4
		c23-18.4,25.9-46.1,26.5-63.9c17.3-4.6,43.8-13.2,56.4-40.3c13.2-27.1,2.9-53-4-69.1c13.2-12.1,33.4-31.1,33.4-61
		s-20.2-48.9-33.4-61c6.9-16.1,16.7-42,4-69.1c-13.2-27.1-39.2-35.7-56.4-40.3c-1.2-17.9-3.5-45.5-26.5-63.9
		c-12.7-9.8-27.1-14.4-44.3-14.4c-8.6,0-17.3,1.2-24.8,2.3c-8.6-15.5-23-39.7-51.8-46.1C362.2,6.6,357.6,6,353,6
		c-23,0-40.3,11.5-53,20.7C287.3,17.6,270.1,6,247,6L247,6z"/>
	<g>
		<g>
			<path fill="#404447" d="M206.7,228.3c0-5.2,4-9.8,9.8-9.8h171c5.2,0,9.8,4,9.8,9.8c0,5.2-4,9.8-9.8,9.8h-171
				C210.7,237.5,206.7,233.5,206.7,228.3L206.7,228.3z"/>
		</g>
		<g>
			<path fill="#404447" d="M206.7,269.2c0-5.2,4-9.8,9.8-9.8h211.9c5.2,0,9.8,4,9.8,9.8c0,5.2-4,9.8-9.8,9.8H216.5
				C210.7,279,206.7,274.4,206.7,269.2L206.7,269.2z"/>
		</g>
		<g>
			<path fill="#404447" d="M206.7,347.5c0-5.2,4-9.8,9.8-9.8h137.6c5.2,0,9.8,4,9.8,9.8c0,5.2-4,9.8-9.8,9.8H216.5
				C210.7,357.3,206.7,353.3,206.7,347.5L206.7,347.5z"/>
		</g>
		<g>
			<path fill="#404447" d="M180.2,430.4c0-5.2,4-9.8,9.8-9.8h47.8c5.2,0,9.8,4,9.8,9.8c0,5.2-4,9.8-9.8,9.8H190
				C184.3,440.2,180.2,435.6,180.2,430.4L180.2,430.4z"/>
		</g>
		<g>
			<path fill="#404447" d="M206.7,389c0-5.2,4-9.8,9.8-9.8h211.9c5.2,0,9.8,4,9.8,9.8c0,5.2-4,9.8-9.8,9.8H216.5
				C210.7,398.8,206.7,394.1,206.7,389L206.7,389z"/>
		</g>
		<g>
			<path fill="#404447" d="M180.2,186.3c0-5.2,4-9.8,9.8-9.8h47.8c5.2,0,9.8,4,9.8,9.8c0,5.2-4,9.8-9.8,9.8H190
				C184.3,196.1,180.2,191.5,180.2,186.3L180.2,186.3z"/>
		</g>
		<g>
			<path fill="#404447" d="M262.6,186.3c0-5.2,4-9.8,9.8-9.8h47.8c5.2,0,9.8,4,9.8,9.8c0,5.2-4,9.8-9.8,9.8h-47.8
				C266.6,196.1,262.6,191.5,262.6,186.3L262.6,186.3z"/>
		</g>
		<g>
			<path fill="#404447" d="M344.9,186.3c0-5.2,4-9.8,9.8-9.8h47.8c5.2,0,9.8,4,9.8,9.8c0,5.2-4,9.8-9.8,9.8h-47.8
				C348.9,196.1,344.9,191.5,344.9,186.3L344.9,186.3z"/>
		</g>
		<g>
			<path fill="#404447" d="M206.7,307.8c0-5.2,4-9.8,9.8-9.8h137.6c5.2,0,9.8,4,9.8,9.8s-4,9.8-9.8,9.8H216.5
				C210.7,317.6,206.7,313.5,206.7,307.8L206.7,307.8z"/>
		</g>
	</g>
</g>
</svg>
