<?xml version="1.0" encoding="utf-8"?>
<!-- Generator: Adobe Illustrator 18.1.1, SVG Export Plug-In . SVG Version: 6.00 Build 0)  -->
<svg version="1.1" id="Layer_1" xmlns="http://www.w3.org/2000/svg" xmlns:xlink="http://www.w3.org/1999/xlink" x="0px" y="0px"
	 viewBox="0 0 100.6 104.4" enable-background="new 0 0 100.6 104.4" xml:space="preserve">
<path fill="#404447" d="M9.6,42.6c-5.3,0-9.6,4.3-9.6,9.6c0,5.3,4.3,9.6,9.6,9.6c5.3,0,9.6-4.3,9.6-9.6C19.3,46.9,15,42.6,9.6,42.6z
	 M78.5,86.4c-4.6,2.7-6.2,8.6-3.5,13.2c2.7,4.6,8.6,6.2,13.2,3.5c4.6-2.7,6.2-8.6,3.5-13.2C89,85.3,83.1,83.7,78.5,86.4z M30.6,52.2
	c0-9.5,4.7-18,12-23.1l-7.1-11.8C27.1,23,20.8,31.6,18.2,41.7c3,2.5,5,6.3,5,10.5c0,4.2-1.9,8-5,10.5c2.6,10.1,8.9,18.7,17.3,24.4
	l7.1-11.8C35.3,70.2,30.6,61.7,30.6,52.2z M58.8,24c14.7,0,26.8,11.3,28.1,25.7l13.7-0.2c-0.7-10.6-5.3-20.2-12.5-27.2
	c-3.7,1.4-7.9,1.2-11.6-0.9c-3.7-2.1-6-5.7-6.6-9.6c-3.6-1-7.3-1.5-11.2-1.5c-6.7,0-13,1.6-18.6,4.3l6.7,12C50.5,25,54.5,24,58.8,24
	z M58.8,80.4c-4.2,0-8.3-0.9-11.9-2.6l-6.7,12c5.6,2.8,11.9,4.3,18.6,4.3c3.9,0,7.6-0.5,11.2-1.5c0.6-3.9,2.9-7.4,6.6-9.6
	c3.7-2.1,7.9-2.3,11.6-0.9c7.1-7,11.8-16.6,12.5-27.2l-13.7-0.2C85.6,69.1,73.5,80.4,58.8,80.4z M78.5,18c4.6,2.7,10.5,1.1,13.2-3.5
	C94.4,9.9,92.8,4,88.2,1.3C83.6-1.4,77.7,0.2,75,4.8C72.3,9.4,73.9,15.3,78.5,18z"/>
</svg>
