<?xml version="1.0" encoding="utf-8"?>
<!-- Generator: Adobe Illustrator 18.1.1, SVG Export Plug-In . SVG Version: 6.00 Build 0)  -->
<svg version="1.1" id="Layer_1" xmlns="http://www.w3.org/2000/svg" xmlns:xlink="http://www.w3.org/1999/xlink" x="0px" y="0px"
	 viewBox="0 0 600 600" enable-background="new 0 0 600 600" xml:space="preserve">
<g>
	<g>
		<g>
			<path fill="#404447" d="M469,600H131c-25.4,0-46.2-22.5-46.2-50.1V173.5c0-27.6,20.8-50.1,46.2-50.1h338
				c25.4,0,46.2,22.5,46.2,50.1v376.3C515.2,577.5,494.4,600,469,600L469,600z M469,549.9v25.4V549.9L469,549.9L469,549.9z
				 M131,173.5v376.3h338V173.5L131,173.5L131,173.5z"/>
		</g>
		<g>
			<path fill="#404447" d="M383.4,232.1c-13,0-23.1-11.3-23.1-25.4V50.1H239.2v156.6c0,14.1-10.1,25.4-23.1,25.4
				c-13,0-23.1-11.3-23.1-25.4V50.1C193,22.5,213.8,0,239.2,0h121.1c25.4,0,46.2,22.5,46.2,50.1v156.6
				C406.5,220.8,396.3,232.1,383.4,232.1L383.4,232.1z"/>
		</g>
	</g>
	<g>
		<path fill="#404447" d="M265.6,487.9c-6.2,0-11.8-2.3-15.8-6.8L193,420.8c-8.5-9-7.9-22.5,0.6-31c9-8.5,22.5-7.9,31,0.6l40,41.7
			l110.4-134.6c7.9-9.6,21.4-10.7,31-2.8c9.6,7.9,10.7,21.4,2.8,31L283.1,480c-3.9,5.1-10.1,7.9-16.3,7.9
			C266.2,487.9,266.2,487.9,265.6,487.9L265.6,487.9z"/>
	</g>
</g>
</svg>
