<?xml version="1.0" encoding="utf-8"?>
<!-- Generator: Adobe Illustrator 18.1.1, SVG Export Plug-In . SVG Version: 6.00 Build 0)  -->
<svg version="1.1" id="Layer_1" xmlns="http://www.w3.org/2000/svg" xmlns:xlink="http://www.w3.org/1999/xlink" x="0px" y="0px"
	 viewBox="0 0 98.5 89.8" enable-background="new 0 0 98.5 89.8" xml:space="preserve">
<g>
	<path fill="#404447" d="M81.3,50.5c-0.2-1.1-0.5-2.1-1-3c-0.6-1.1-1.3-2.2-2.2-3c-0.8-0.7-1.7-1.4-2.6-1.9c-1.1-0.6-2.3-1-3.6-1.1
		c-0.5-0.1-1.1-0.1-1.6-0.1s-1.1,0-1.6,0.1c-1.3,0.2-2.5,0.6-3.6,1.1c-0.9,0.5-1.8,1.1-2.6,1.9c-0.9,0.9-1.6,1.9-2.2,3
		c-0.5,0.9-0.8,2-1,3.1c-0.1,0.6-0.2,1.2-0.2,1.9c0,0.6,0.1,1.3,0.2,1.9c0.2,1.1,0.5,2.1,1,3c0.6,1.1,1.3,2.1,2.2,3
		c0.6,0.6,1.3,1.2,2.1,1.6c0.2,0.1,0.3,0.2,0.5,0.3c1.1,0.6,2.3,1,3.5,1.1h0c0.5,0.1,1.1,0.1,1.6,0.1s1.1,0,1.6-0.1h0
		c1.2-0.2,2.4-0.6,3.5-1.1c0.2-0.1,0.4-0.2,0.5-0.3c0.8-0.4,1.5-1,2.1-1.6c0.9-0.9,1.6-1.9,2.2-3c0.5-0.9,0.8-2,1-3
		c0.1-0.6,0.2-1.2,0.2-1.9C81.5,51.8,81.4,51.1,81.3,50.5z M67.9,45.9c0.2-0.1,0.5-0.2,0.7-0.2c0.6-0.2,1.2-0.2,1.8-0.2
		c0.6,0,1.2,0.1,1.8,0.2c0.2,0.1,0.5,0.1,0.7,0.2c1.1,0.4,2.1,1.2,2.9,2.1c0.2,0.2,0.3,0.4,0.4,0.6c0.6,1,1,2.1,1.1,3.4
		c0,0.1,0,0.3,0,0.4c0,0.1,0,0.3,0,0.4c-0.1,1.2-0.4,2.4-1.1,3.4c-0.1,0.2-0.3,0.4-0.4,0.6c-0.8,0.9-1.8,1.7-2.9,2.1
		c-0.2,0.1-0.5,0.2-0.7,0.2c-0.6,0.2-1.2,0.2-1.8,0.2c-0.6,0-1.2-0.1-1.8-0.2c-0.2-0.1-0.5-0.1-0.7-0.2c-1.1-0.4-2.1-1.2-2.9-2.1
		c-0.2-0.2-0.3-0.4-0.4-0.6c-0.6-1-1-2.1-1.1-3.4c0-0.1,0-0.3,0-0.4c0-0.1,0-0.3,0-0.4c0.1-1.2,0.5-2.4,1.1-3.4
		c0.1-0.2,0.3-0.4,0.4-0.6C65.7,47.1,66.7,46.4,67.9,45.9z"/>
	<path fill="#404447" d="M98.5,4.1v73.5c0,2.3-1.8,4.1-4.1,4.1h-36v-8.3h31.9V8.3h-82v65.3h3.1v8.3H4.1C1.8,81.8,0,80,0,77.7V4.1
		C0,1.9,1.8,0,4.1,0h90.2C96.6,0,98.5,1.9,98.5,4.1z"/>
	<g>
		<path fill="#404447" d="M83.1,18.2c0,1.2-0.9,2.1-2.1,2.1H17.4c-1.2,0-2.1-0.9-2.1-2.1c0-1.1,0.9-2.1,2.1-2.1H81
			C82.2,16.2,83.1,17.1,83.1,18.2z"/>
	</g>
	<g>
		<path fill="#404447" d="M67.1,36.5H31.4c-1.1,0-2.1-0.9-2.1-2.1s0.9-2.1,2.1-2.1h35.7c1.1,0,2.1,0.9,2.1,2.1S68.2,36.5,67.1,36.5
			L67.1,36.5z"/>
	</g>
	<g>
		<path fill="#404447" d="M77.4,26.3c0,1.1-0.9,2.1-2.1,2.1H23.2c-1.1,0-2.1-0.9-2.1-2.1c0-1.1,0.9-2.1,2.1-2.1h52.1
			C76.4,24.3,77.4,25.2,77.4,26.3z"/>
	</g>
	<g>
		<path fill="#404447" d="M81.8,51.3l-0.5-0.7l-0.9-1.4l-0.1-1.7l0-0.9c0-0.8-0.6-1.6-1.4-1.9l-0.8-0.3l-1.6-0.6l-1-1.3L75,41.9
			c-0.5-0.7-1.4-0.9-2.2-0.7L72,41.4l-1.6,0.5l-1.6-0.5L68,41.2c-0.8-0.2-1.7,0.1-2.2,0.7l-0.5,0.7l-1,1.3l-1.6,0.6l-0.8,0.3
			c-0.8,0.3-1.3,1-1.4,1.9l0,0.9l-0.1,1.7l-0.9,1.4L59,51.3c-0.5,0.7-0.5,1.6,0,2.3l0.5,0.7l0.9,1.4l0.1,1.7l0,0.9
			c0,0.9,0.6,1.6,1.4,1.9l0.8,0.3l1.6,0.6l0.6,0.9l0.4,0.5l0.5,0.7c0.5,0.7,1.4,1,2.2,0.7l0.8-0.2l0,0h0l1.6-0.5l1.6,0.5h0
			c0,0,0,0,0,0l0.8,0.2c0.2,0,0.4,0.1,0.6,0.1c0.6,0,1.2-0.3,1.6-0.8l0.5-0.7l0.4-0.5l0.7-0.9l1.6-0.6l0.8-0.3
			c0.8-0.3,1.3-1,1.4-1.9l0-0.9l0.1-1.7l0.9-1.4l0.5-0.7C82.3,52.9,82.3,52,81.8,51.3z M77.3,52.8l-0.7,1c-0.2,0.3-0.3,0.7-0.4,1.1
			l0,1.3l0,0.5l-0.4,0.2l-1.2,0.4c-0.4,0.1-0.7,0.4-0.9,0.7l-0.8,1l-0.3,0.4l-0.4-0.1L71,58.8c-0.4-0.1-0.8-0.1-1.1,0l-1.2,0.3
			l-0.4,0.1l-0.3-0.4l-0.8-1c-0.2-0.3-0.6-0.5-0.9-0.7L65,56.8l-0.4-0.2l0-0.5l0-1.2c0-0.4-0.1-0.8-0.4-1.1l-0.7-1l-0.3-0.4l0.3-0.4
			l0.7-1c0.2-0.3,0.3-0.7,0.4-1.1l0-1.3l0-0.5L65,48l1.2-0.4c0.4-0.1,0.7-0.4,0.9-0.7l0.8-1l0.3-0.4l0.4,0.1l1.2,0.4
			c0.4,0.1,0.8,0.1,1.1,0l1.2-0.4l0.4-0.1l0.3,0.4l0.8,1c0.2,0.3,0.6,0.5,0.9,0.7l1.2,0.4l0.4,0.1l0,0.4l0,1.3
			c0,0.4,0.1,0.8,0.4,1.1l0.7,1l0.3,0.4L77.3,52.8z"/>
	</g>
	<g>
		<g>
			<path fill="#404447" d="M77.3,69.1c-0.6,0-1.3-0.3-1.7-0.8l-3.4-4.6c-0.7-0.9-0.5-2.2,0.4-2.9c0.9-0.7,2.2-0.5,2.9,0.4l3.4,4.6
				c0.7,0.9,0.5,2.2-0.4,2.9C78.1,68.9,77.7,69.1,77.3,69.1L77.3,69.1z"/>
		</g>
		<g>
			<path fill="#404447" d="M63.5,69.1c-0.4,0-0.9-0.1-1.2-0.4c-0.9-0.7-1.1-2-0.4-2.9l3.4-4.6c0.7-0.9,2-1.1,2.9-0.4
				c0.9,0.7,1.1,2,0.4,2.9l-3.4,4.6C64.7,68.8,64.1,69.1,63.5,69.1L63.5,69.1z"/>
		</g>
	</g>
	<g>
		<g>
			<path fill="#404447" d="M49.6,89.8H19.2c-1.9,0-3.4-1.5-3.4-3.4v-18c0-1.9,1.5-3.4,3.4-3.4h30.3c1.9,0,3.4,1.5,3.4,3.4v18
				C53,88.2,51.4,89.8,49.6,89.8L49.6,89.8z M19.2,68.4v18h30.3v-18H19.2L19.2,68.4z"/>
		</g>
		<g>
			<path fill="#404447" d="M45.2,68c-0.9,0-1.7-0.8-1.7-1.7v-4.6c0-5-4.1-9.1-9.1-9.1c-5,0-9.1,4.1-9.1,9.1v4.6
				c0,0.9-0.8,1.7-1.7,1.7c-0.9,0-1.7-0.8-1.7-1.7v-4.6c0-6.9,5.6-12.5,12.5-12.5c6.9,0,12.5,5.6,12.5,12.5v4.6
				C46.9,67.2,46.2,68,45.2,68L45.2,68z"/>
		</g>
		<path fill="#404447" d="M34.4,71.6c-1.9,0-3.5,1.6-3.5,3.5c0,1.3,0.7,2.5,1.8,3.1v4h3.4v-4c1.1-0.6,1.8-1.7,1.8-3.1
			C37.9,73.2,36.4,71.6,34.4,71.6L34.4,71.6z"/>
	</g>
</g>
</svg>
