<?xml version="1.0" encoding="utf-8"?>
<!-- Generator: Adobe Illustrator 18.1.1, SVG Export Plug-In . SVG Version: 6.00 Build 0)  -->
<svg version="1.1" id="Layer_1" xmlns="http://www.w3.org/2000/svg" xmlns:xlink="http://www.w3.org/1999/xlink" x="0px" y="0px"
	 viewBox="0 0 85.6 96.4" enable-background="new 0 0 85.6 96.4" xml:space="preserve">
<g>
	<g>
		<g>
			<g>
				<path fill="#404447" d="M51.6,70c-3.8,0-6.8-3.1-6.8-6.8c0-3.8,3.1-6.8,6.8-6.8c3.8,0,6.8,3.1,6.8,6.8
					C58.4,66.9,55.4,70,51.6,70L51.6,70z M51.6,58.6c-2.5,0-4.6,2-4.6,4.6c0,2.5,2,4.6,4.6,4.6c2.5,0,4.6-2,4.6-4.6
					C56.2,60.7,54.1,58.6,51.6,58.6L51.6,58.6z"/>
			</g>
			<g>
				<g>
					<path fill="#404447" d="M47.3,60c-0.3,0-0.6-0.1-0.8-0.3l-1.6-1.6c-0.4-0.4-0.4-1.2,0-1.6c0.4-0.4,1.2-0.4,1.6,0l1.6,1.6
						c0.4,0.4,0.4,1.2,0,1.6C47.9,59.9,47.6,60,47.3,60L47.3,60z"/>
				</g>
				<g>
					<path fill="#404447" d="M57.5,70.2c-0.3,0-0.6-0.1-0.8-0.3L54.8,68c-0.4-0.4-0.4-1.2,0-1.6c0.4-0.4,1.2-0.4,1.6,0l1.9,1.9
						c0.4,0.4,0.4,1.2,0,1.6C58.1,70.1,57.8,70.2,57.5,70.2L57.5,70.2z"/>
				</g>
			</g>
			<g>
				<g>
					<path fill="#404447" d="M55.9,60c-0.3,0-0.6-0.1-0.8-0.3c-0.4-0.4-0.4-1.2,0-1.6l1.6-1.6c0.4-0.4,1.2-0.4,1.6,0
						c0.4,0.4,0.4,1.2,0,1.6l-1.6,1.6C56.5,59.9,56.2,60,55.9,60L55.9,60z"/>
				</g>
				<g>
					<path fill="#404447" d="M45.7,70.2c-0.3,0-0.6-0.1-0.8-0.3c-0.4-0.4-0.4-1.2,0-1.6l1.9-1.9c0.4-0.4,1.2-0.4,1.6,0
						c0.4,0.4,0.4,1.2,0,1.6l-1.9,1.9C46.3,70.1,46,70.2,45.7,70.2L45.7,70.2z"/>
				</g>
			</g>
			<g>
				<g>
					<path fill="#404447" d="M51.6,58.2c-0.6,0-1.1-0.5-1.1-1.1v-2.2c0-0.6,0.5-1.1,1.1-1.1c0.6,0,1.1,0.5,1.1,1.1v2.2
						C52.7,57.7,52.2,58.2,51.6,58.2L51.6,58.2z"/>
				</g>
				<g>
					<path fill="#404447" d="M51.6,72.6L51.6,72.6c-0.6,0-1.1-0.5-1.1-1.1l0-2.6c0-0.6,0.5-1.1,1.1-1.1l0,0c0.6,0,1.1,0.5,1.1,1.1
						l0,2.6C52.7,72.1,52.2,72.6,51.6,72.6L51.6,72.6z"/>
				</g>
			</g>
			<g>
				<g>
					<path fill="#404447" d="M59.9,64.3h-2.2c-0.6,0-1.1-0.5-1.1-1.1c0-0.6,0.5-1.1,1.1-1.1h2.2c0.6,0,1.1,0.5,1.1,1.1
						C61.1,63.8,60.5,64.3,59.9,64.3L59.9,64.3z"/>
				</g>
				<g>
					<path fill="#404447" d="M45.9,64.3h-2.6c-0.6,0-1.1-0.5-1.1-1.1c0-0.6,0.5-1.1,1.1-1.1h2.6c0.6,0,1.1,0.5,1.1,1.1
						C47.1,63.8,46.6,64.3,45.9,64.3L45.9,64.3z"/>
				</g>
			</g>
		</g>
		<g>
			<g>
				<path fill="#404447" d="M67.5,77.7c-2.9,0-5.2-2.3-5.2-5.2c0-2.9,2.3-5.2,5.2-5.2c2.9,0,5.2,2.3,5.2,5.2
					C72.7,75.3,70.3,77.7,67.5,77.7L67.5,77.7z M67.5,69c-1.9,0-3.5,1.6-3.5,3.5c0,1.9,1.6,3.5,3.5,3.5c1.9,0,3.5-1.6,3.5-3.5
					C70.9,70.6,69.4,69,67.5,69L67.5,69z"/>
			</g>
			<g>
				<g>
					<path fill="#404447" d="M64.2,70.1c-0.2,0-0.4-0.1-0.6-0.3l-1.2-1.2c-0.3-0.3-0.3-0.9,0-1.2c0.3-0.3,0.9-0.3,1.2,0l1.2,1.2
						c0.3,0.3,0.3,0.9,0,1.2C64.7,70,64.4,70.1,64.2,70.1L64.2,70.1z"/>
				</g>
				<g>
					<path fill="#404447" d="M72,77.8c-0.2,0-0.4-0.1-0.6-0.3l-1.4-1.4c-0.3-0.3-0.3-0.9,0-1.2c0.3-0.3,0.9-0.3,1.2,0l1.4,1.4
						c0.3,0.3,0.3,0.9,0,1.2C72.4,77.7,72.2,77.8,72,77.8L72,77.8z"/>
				</g>
			</g>
			<g>
				<g>
					<path fill="#404447" d="M70.7,70.1c-0.2,0-0.4-0.1-0.6-0.3c-0.3-0.3-0.3-0.9,0-1.2l1.2-1.2c0.3-0.3,0.9-0.3,1.2,0
						c0.3,0.3,0.3,0.9,0,1.2l-1.2,1.2C71.2,70,71,70.1,70.7,70.1L70.7,70.1z"/>
				</g>
				<g>
					<path fill="#404447" d="M63,77.8c-0.2,0-0.4-0.1-0.6-0.3c-0.3-0.3-0.3-0.9,0-1.2l1.4-1.4c0.3-0.3,0.9-0.3,1.2,0
						c0.3,0.3,0.3,0.9,0,1.2l-1.4,1.4C63.5,77.7,63.2,77.8,63,77.8L63,77.8z"/>
				</g>
			</g>
			<g>
				<g>
					<path fill="#404447" d="M67.5,68.7c-0.5,0-0.9-0.4-0.9-0.9v-1.7c0-0.5,0.4-0.9,0.9-0.9c0.5,0,0.9,0.4,0.9,0.9v1.7
						C68.3,68.4,68,68.7,67.5,68.7L67.5,68.7z"/>
				</g>
				<g>
					<path fill="#404447" d="M67.5,79.7L67.5,79.7c-0.5,0-0.9-0.4-0.9-0.9l0-2c0-0.5,0.4-0.9,0.9-0.9l0,0c0.5,0,0.9,0.4,0.9,0.9l0,2
						C68.3,79.3,68,79.7,67.5,79.7L67.5,79.7z"/>
				</g>
			</g>
			<g>
				<g>
					<path fill="#404447" d="M73.8,73.3h-1.7c-0.5,0-0.9-0.4-0.9-0.9c0-0.5,0.4-0.9,0.9-0.9h1.7c0.5,0,0.9,0.4,0.9,0.9
						C74.7,73,74.3,73.3,73.8,73.3L73.8,73.3z"/>
				</g>
				<g>
					<path fill="#404447" d="M63.2,73.3h-2c-0.5,0-0.9-0.4-0.9-0.9c0-0.5,0.4-0.9,0.9-0.9h2c0.5,0,0.9,0.4,0.9,0.9
						C64,73,63.7,73.3,63.2,73.3L63.2,73.3z"/>
				</g>
			</g>
		</g>
		<g>
			<g>
				<path fill="#404447" d="M54.9,82.6c-2.1,0-3.8-1.7-3.8-3.8c0-2.1,1.7-3.8,3.8-3.8c2.1,0,3.8,1.7,3.8,3.8
					C58.7,80.9,57,82.6,54.9,82.6L54.9,82.6z M54.9,76.3c-1.4,0-2.5,1.1-2.5,2.5c0,1.4,1.1,2.5,2.5,2.5c1.4,0,2.5-1.1,2.5-2.5
					C57.4,77.4,56.3,76.3,54.9,76.3L54.9,76.3z"/>
			</g>
			<g>
				<g>
					<path fill="#404447" d="M52.6,77c-0.2,0-0.3-0.1-0.4-0.2L51.2,76c-0.2-0.2-0.2-0.6,0-0.9c0.2-0.2,0.6-0.2,0.9,0L53,76
						c0.2,0.2,0.2,0.6,0,0.9C52.9,77,52.7,77,52.6,77L52.6,77z"/>
				</g>
				<g>
					<path fill="#404447" d="M58.2,82.7c-0.2,0-0.3-0.1-0.4-0.2l-1-1c-0.2-0.2-0.2-0.6,0-0.9c0.2-0.2,0.6-0.2,0.9,0l1,1
						c0.2,0.2,0.2,0.6,0,0.9C58.5,82.6,58.3,82.7,58.2,82.7L58.2,82.7z"/>
				</g>
			</g>
			<g>
				<g>
					<path fill="#404447" d="M57.3,77c-0.2,0-0.3-0.1-0.4-0.2c-0.2-0.2-0.2-0.6,0-0.9l0.9-0.9c0.2-0.2,0.6-0.2,0.9,0
						c0.2,0.2,0.2,0.6,0,0.9l-0.9,0.9C57.6,77,57.5,77,57.3,77L57.3,77z"/>
				</g>
				<g>
					<path fill="#404447" d="M51.7,82.7c-0.2,0-0.3-0.1-0.4-0.2c-0.2-0.2-0.2-0.6,0-0.9l1-1c0.2-0.2,0.6-0.2,0.9,0
						c0.2,0.2,0.2,0.6,0,0.9l-1,1C52,82.6,51.8,82.7,51.7,82.7L51.7,82.7z"/>
				</g>
			</g>
			<g>
				<g>
					<path fill="#404447" d="M54.9,76.1c-0.3,0-0.6-0.3-0.6-0.6v-1.2c0-0.3,0.3-0.6,0.6-0.6c0.3,0,0.6,0.3,0.6,0.6v1.2
						C55.6,75.8,55.3,76.1,54.9,76.1L54.9,76.1z"/>
				</g>
				<g>
					<path fill="#404447" d="M54.9,84L54.9,84c-0.3,0-0.6-0.3-0.6-0.6l0-1.5c0-0.3,0.3-0.6,0.6-0.6l0,0c0.3,0,0.6,0.3,0.6,0.6l0,1.5
						C55.6,83.7,55.3,84,54.9,84L54.9,84z"/>
				</g>
			</g>
			<g>
				<g>
					<path fill="#404447" d="M59.5,79.4h-1.2c-0.3,0-0.6-0.3-0.6-0.6c0-0.3,0.3-0.6,0.6-0.6h1.2c0.3,0,0.6,0.3,0.6,0.6
						C60.2,79.1,59.9,79.4,59.5,79.4L59.5,79.4z"/>
				</g>
				<g>
					<path fill="#404447" d="M51.8,79.4h-1.5c-0.3,0-0.6-0.3-0.6-0.6c0-0.3,0.3-0.6,0.6-0.6h1.5c0.3,0,0.6,0.3,0.6,0.6
						C52.4,79.1,52.1,79.4,51.8,79.4L51.8,79.4z"/>
				</g>
			</g>
		</g>
	</g>
	<g>
		<g>
			<path fill="#404447" d="M64.3,40.3H32.9c-1.1,0-2-0.9-2-2V20.5c0-1.1,0.9-2,2-2h31.4c1.1,0,2,0.9,2,2v17.7
				C66.3,39.4,65.4,40.3,64.3,40.3L64.3,40.3z M34.9,36.2h27.3V22.6H34.9V36.2L34.9,36.2z"/>
		</g>
		<g>
			<g>
				<path fill="#404447" d="M81.5,96.4H11.3c-2.3,0-4.1-1.8-4.1-4.1V4.1C7.2,1.8,9,0,11.3,0h70.2c2.3,0,4.1,1.8,4.1,4.1v88.3
					C85.6,94.6,83.7,96.4,81.5,96.4L81.5,96.4z M15.3,88.3h62V8.2h-62V88.3L15.3,88.3z"/>
			</g>
			<g>
				<path fill="#404447" d="M18.4,24.7H4.1c-2.3,0-4.1-1.8-4.1-4.1s1.8-4.1,4.1-4.1h14.3c2.3,0,4.1,1.8,4.1,4.1S20.7,24.7,18.4,24.7
					L18.4,24.7z"/>
			</g>
			<g>
				<path fill="#404447" d="M18.4,42.9H4.1c-2.3,0-4.1-1.8-4.1-4.1c0-2.3,1.8-4.1,4.1-4.1h14.3c2.3,0,4.1,1.8,4.1,4.1
					C22.5,41.1,20.7,42.9,18.4,42.9L18.4,42.9z"/>
			</g>
			<g>
				<path fill="#404447" d="M18.4,61.2H4.1c-2.3,0-4.1-1.8-4.1-4.1C0,54.9,1.8,53,4.1,53h14.3c2.3,0,4.1,1.8,4.1,4.1
					C22.5,59.4,20.7,61.2,18.4,61.2L18.4,61.2z"/>
			</g>
			<g>
				<path fill="#404447" d="M18.4,79.5H4.1c-2.3,0-4.1-1.8-4.1-4.1c0-2.3,1.8-4.1,4.1-4.1h14.3c2.3,0,4.1,1.8,4.1,4.1
					C22.5,77.7,20.7,79.5,18.4,79.5L18.4,79.5z"/>
			</g>
		</g>
	</g>
</g>
</svg>
