<?xml version="1.0" encoding="utf-8"?>
<!-- Generator: Adobe Illustrator 18.1.1, SVG Export Plug-In . SVG Version: 6.00 Build 0)  -->
<svg version="1.1" id="Layer_1" xmlns="http://www.w3.org/2000/svg" xmlns:xlink="http://www.w3.org/1999/xlink" x="0px" y="0px"
	 viewBox="0 0 600 600" enable-background="new 0 0 600 600" xml:space="preserve">
<g>
	<g>
		<g>
			<path fill="#404447" d="M574.9,600H25.1C11,600,0,588.4,0,574.9V25.1C0,11.6,11.6,0,25.1,0h549.1c14.2,0,25.1,11.6,25.1,25.1
				v549.1C600,588.4,588.4,600,574.9,600L574.9,600z M50.3,549.1h498.8V50.3H50.3V549.1L50.3,549.1z"/>
		</g>
		<g>
			<path fill="#404447" d="M565.8,185H34.2c-7.1,0-12.9-5.8-12.9-12.9s5.8-12.9,12.9-12.9h531c7.1,0,12.9,5.8,12.9,12.9
				C578.1,179.2,572.3,185,565.8,185L565.8,185z"/>
		</g>
		<path fill="#404447" d="M114.7,74.1c-17.4,0-31.6,14.2-31.6,31.6s14.2,31.6,31.6,31.6s31.6-14.2,31.6-31.6
			C146.3,88.3,132.1,74.1,114.7,74.1L114.7,74.1z"/>
		<path fill="#404447" d="M201.1,74.1c-17.4,0-31.6,14.2-31.6,31.6s14.2,31.6,31.6,31.6s31.6-14.2,31.6-31.6
			C232.7,88.3,218.5,74.1,201.1,74.1L201.1,74.1z"/>
		<path fill="#404447" d="M286.8,74.1c-17.4,0-31.6,14.2-31.6,31.6s14.2,31.6,31.6,31.6c17.4,0,31.6-14.2,31.6-31.6
			C319,88.3,304.2,74.1,286.8,74.1L286.8,74.1z"/>
	</g>
	<g>
		<g>
			<g>
				<path fill="#404447" d="M451.1,471.1H290c-14.2,0-25.1-11.6-25.1-25.1c0-14.2,11.6-25.1,25.1-25.1h161.1
					c14.2,0,25.1,11.6,25.1,25.1C476.9,460.2,465.3,471.1,451.1,471.1L451.1,471.1z"/>
			</g>
		</g>
		<g>
			<g>
				<path fill="#404447" d="M148.2,471.1c-6.4,0-12.9-2.6-18-7.1c-9.7-9.7-9.7-25.8,0-35.4l74.1-74.1l-73.5-74.1
					c-9.7-9.7-9.7-25.8,0-35.4c9.7-9.7,25.8-9.7,35.4,0l91.5,91.5c9.7,9.7,9.7,25.8,0,35.4L166.3,464
					C161.8,468.5,155.3,471.1,148.2,471.1L148.2,471.1z"/>
			</g>
		</g>
	</g>
</g>
</svg>
