<?xml version="1.0" encoding="utf-8"?>
<!-- Generator: Adobe Illustrator 18.1.1, SVG Export Plug-In . SVG Version: 6.00 Build 0)  -->
<svg version="1.1" id="Layer_1" xmlns="http://www.w3.org/2000/svg" xmlns:xlink="http://www.w3.org/1999/xlink" x="0px" y="0px"
	 viewBox="0 0 115.4 94.5" enable-background="new 0 0 115.4 94.5" xml:space="preserve">
<g>
	<g>
		<path fill="#404447" d="M17.2,35.3c-1,0-1.9-0.3-2.7-1L1.9,23.5c-1.1-0.9-1.6-2.4-1.4-3.8c0.2-1.4,1.2-2.6,2.5-3.1L38.8,2.3
			C40.3,1.7,41.9,2,43,3l12.6,10.8c1.1,0.9,1.6,2.4,1.4,3.8c-0.2,1.4-1.2,2.6-2.5,3.1L18.7,35C18.2,35.2,17.7,35.3,17.2,35.3
			L17.2,35.3z M12.4,21.7l5.5,4.8l27.1-10.8l-5.5-4.8L12.4,21.7L12.4,21.7z"/>
	</g>
	<g>
		<path fill="#404447" d="M52.2,94.5c-0.9,0-1.7-0.3-2.4-0.8c-1.1-0.8-1.7-2-1.7-3.3V50c0-2.3,1.8-4.1,4.1-4.1
			c2.3,0,4.1,1.8,4.1,4.1v34.7l34.6-11V55.4c0-2.3,1.8-4.1,4.1-4.1c2.3,0,4.1,1.8,4.1,4.1v21.4c0,1.8-1.2,3.4-2.9,3.9L53.5,94.3
			C53.1,94.4,52.6,94.5,52.2,94.5L52.2,94.5z"/>
	</g>
	<g>
		<path fill="#404447" d="M75.6,63.7c-1,0-1.9-0.3-2.7-1L60.3,51.9c-1.1-0.9-1.6-2.4-1.4-3.8c0.2-1.4,1.2-2.6,2.5-3.1l35.7-14.3
			c1.4-0.6,3.1-0.3,4.2,0.7L114,42.2c1.1,0.9,1.6,2.4,1.4,3.8c-0.2,1.4-1.2,2.6-2.5,3.1L77.1,63.4C76.6,63.6,76.1,63.7,75.6,63.7
			L75.6,63.7z M70.8,50.1l5.5,4.8L103.5,44L98,39.2L70.8,50.1L70.8,50.1z"/>
	</g>
	<g>
		<path fill="#404447" d="M95.1,34.5c-0.5,0-1-0.1-1.5-0.3L57.8,19.9c-1.3-0.5-2.2-1.7-2.5-3c-0.3-1.4,0.2-2.8,1.2-3.7l12.3-12
			c1.2-1.1,2.9-1.5,4.4-0.9l35.8,14.3c1.3,0.5,2.2,1.7,2.5,3c0.3,1.4-0.2,2.8-1.2,3.7L98,33.3C97.2,34.1,96.2,34.5,95.1,34.5
			L95.1,34.5z M66.7,14.6l27.4,11l5.8-5.7l-27.4-11L66.7,14.6L66.7,14.6z"/>
	</g>
	<g>
		<path fill="#404447" d="M51.5,94.5c-0.5,0-1-0.1-1.6-0.3L16.9,80.6c-1.5-0.6-2.6-2.1-2.6-3.8V57c0-2.3,1.8-4.1,4.1-4.1
			c2.3,0,4.1,1.8,4.1,4.1V74l30.5,12.5c2.1,0.9,3.1,3.3,2.3,5.4C54.7,93.5,53.1,94.5,51.5,94.5L51.5,94.5z"/>
	</g>
	<g>
		<path fill="#404447" d="M39.9,66.1c-0.5,0-1-0.1-1.5-0.3L2.6,51.5c-1.3-0.5-2.2-1.7-2.5-3c-0.3-1.4,0.2-2.8,1.2-3.7l12.3-11.9
			c1.2-1.1,2.9-1.5,4.4-0.9l35.8,14.3c1.3,0.5,2.2,1.7,2.5,3c0.3,1.4-0.2,2.8-1.2,3.7l-12.3,12C42,65.7,41,66.1,39.9,66.1L39.9,66.1
			z M11.5,46.2l27.4,11l5.8-5.7l-27.5-11L11.5,46.2L11.5,46.2z"/>
	</g>
</g>
</svg>
