<?xml version="1.0" encoding="utf-8"?>
<!-- Generator: Adobe Illustrator 18.1.1, SVG Export Plug-In . SVG Version: 6.00 Build 0)  -->
<svg version="1.1" id="Layer_1" xmlns="http://www.w3.org/2000/svg" xmlns:xlink="http://www.w3.org/1999/xlink" x="0px" y="0px"
	 viewBox="0 0 94.4 96" enable-background="new 0 0 94.4 96" xml:space="preserve">
<g>
	<g>
		<path fill="#404447" d="M41.2,82.3C18.5,82.3,0,63.9,0,41.2C0,18.5,18.5,0,41.2,0c22.7,0,41.2,18.5,41.2,41.2
			C82.3,63.9,63.9,82.3,41.2,82.3L41.2,82.3z M41.2,8.3C23,8.3,8.3,23,8.3,41.2c0,18.1,14.8,32.9,32.9,32.9
			c18.2,0,32.9-14.8,32.9-32.9C74.1,23,59.3,8.3,41.2,8.3L41.2,8.3z"/>
	</g>
	<g>
		<path fill="#404447" d="M18,41.2h-4.1c0-15,12.2-27.3,27.3-27.3V18C28.4,18,18,28.4,18,41.2L18,41.2z"/>
	</g>
	<g>
		<path fill="#404447" d="M90.2,96c-1.1,0-2.1-0.4-2.9-1.2l-23-23c-1.6-1.6-1.6-4.2,0-5.8c1.6-1.6,4.2-1.6,5.8,0l23,23
			c1.6,1.6,1.6,4.2,0,5.8C92.3,95.6,91.3,96,90.2,96L90.2,96z"/>
	</g>
</g>
</svg>
