<?xml version="1.0" encoding="utf-8"?>
<!-- Generator: Adobe Illustrator 18.1.1, SVG Export Plug-In . SVG Version: 6.00 Build 0)  -->
<svg version="1.1" id="Layer_1" xmlns="http://www.w3.org/2000/svg" xmlns:xlink="http://www.w3.org/1999/xlink" x="0px" y="0px"
	 viewBox="0 0 85.8 103.5" enable-background="new 0 0 85.8 103.5" xml:space="preserve">
<g>
	<g>
		<path fill="#404447" d="M57.4,101.5c-1.1,0-2-0.9-2-2V75.1c0-1.1,0.9-2,2-2h24.4c1.1,0,2,0.9,2,2c0,1.1-0.9,2-2,2H59.4v22.3
			C59.4,100.5,58.5,101.5,57.4,101.5L57.4,101.5z"/>
	</g>
	<g>
		<path fill="#404447" d="M57.4,103.5H15.5c-2.2,0-4.1-1.8-4.1-4.1V16.1c0-2.2,1.8-4.1,4.1-4.1h66.3c2.2,0,4.1,1.8,4.1,4.1v59
			c0,1.1-0.4,2.1-1.2,2.9l-24.4,24.4C59.5,103.1,58.5,103.5,57.4,103.5L57.4,103.5z M19.5,95.4h36.2l22-22V20.2H19.5V95.4L19.5,95.4
			z"/>
	</g>
	<g>
		<path fill="#404447" d="M53,33.5H29.2c-1.1,0-2-0.9-2-2c0-1.1,0.9-2,2-2H53c1.1,0,2,0.9,2,2C55,32.6,54.1,33.5,53,33.5L53,33.5z"
			/>
	</g>
	<g>
		<path fill="#404447" d="M68.7,43.3H29.2c-1.1,0-2-0.9-2-2c0-1.1,0.9-2,2-2h39.6c1.1,0,2,0.9,2,2C70.8,42.4,69.9,43.3,68.7,43.3
			L68.7,43.3z"/>
	</g>
	<g>
		<path fill="#404447" d="M68.7,53.1H29.2c-1.1,0-2-0.9-2-2c0-1.1,0.9-2,2-2h39.6c1.1,0,2,0.9,2,2C70.8,52.2,69.9,53.1,68.7,53.1
			L68.7,53.1z"/>
	</g>
	<g>
		<path fill="#404447" d="M45.7,63H29.2c-1.1,0-2-0.9-2-2c0-1.1,0.9-2,2-2h16.6c1.1,0,2,0.9,2,2C47.8,62,46.9,63,45.7,63L45.7,63z"
			/>
	</g>
	<g>
		<path fill="#404447" d="M40.8,19.3H17c-1.1,0-2-0.9-2-2s0.9-2,2-2h23.8c1.1,0,2,0.9,2,2S42,19.3,40.8,19.3L40.8,19.3z"/>
	</g>
	<g>
		<path fill="#404447" d="M4.1,93.9c-2.2,0-4.1-1.8-4.1-4.1V8.1C0,3.6,3.6,0,8.1,0h62.2c2.2,0,4.1,1.8,4.1,4.1
			c0,2.2-1.8,4.1-4.1,4.1H8.1v81.7C8.1,92.1,6.3,93.9,4.1,93.9L4.1,93.9z"/>
	</g>
</g>
</svg>
