<?xml version="1.0" encoding="utf-8"?>
<!-- Generator: Adobe Illustrator 18.1.1, SVG Export Plug-In . SVG Version: 6.00 Build 0)  -->
<svg version="1.1" id="Layer_1" xmlns="http://www.w3.org/2000/svg" xmlns:xlink="http://www.w3.org/1999/xlink" x="0px" y="0px"
	 viewBox="0 0 77.9 77.5" enable-background="new 0 0 77.9 77.5" xml:space="preserve">
<g>
	<g>
		<path fill="#404447" d="M1,76.4c-0.6-0.8-1.2-1.9-1-3L10,3.1c0.3-1.9,2-3.2,3.9-3l27.7,2.7c0.8,0.1,1.6,0.4,2.2,1l30.4,30.4
			c0.6,0.6,0.9,1.4,1,2.2L77.9,64c0.2,1.9-1.2,3.6-3.1,3.9L4,77.4C2.9,77.6,1.8,77.2,1,76.4L1,76.4z M16.6,7.4L7.7,69.8l62.7-8.5
			l-2.3-23L39.6,9.7L16.6,7.4L16.6,7.4z"/>
	</g>
	<g>
		<path fill="#404447" d="M73.1,65.6L12.3,4.8c-0.5-0.5-0.7-1.3-0.3-2c0.3-0.7,1-1.1,1.8-1l27.7,2.7c0.4,0,0.8,0.2,1.1,0.5
			l30.4,30.4c0.3,0.3,0.5,0.7,0.5,1.1l2.7,27.7c0.1,0.7-0.3,1.5-1,1.8C74.4,66.3,73.6,66.1,73.1,65.6L73.1,65.6z M18.3,5.8
			l53.7,53.7l-2.2-22.1L40.4,8L18.3,5.8L18.3,5.8z"/>
	</g>
	<g>
		<path fill="#404447" d="M2.2,75.7c-0.6-0.6-0.7-1.4-0.3-2.1l37.5-67c0.5-0.9,1.6-1.2,2.4-0.7c0.9,0.5,1.2,1.6,0.7,2.4L8.1,69.8
			l61.5-34.4c0.9-0.5,1.9-0.2,2.4,0.7c0.5,0.9,0.2,1.9-0.7,2.4L4.3,76C3.6,76.4,2.7,76.3,2.2,75.7L2.2,75.7z"/>
	</g>
	<g>
		<path fill="#404447" d="M42.8,35.1c-0.3-0.3-0.5-0.6-0.5-1.1L39.2,7.7c-0.1-1,0.6-1.9,1.6-2c1-0.1,1.9,0.6,2,1.6l2.9,25l25,2.9
			c1,0.1,1.7,1,1.6,2c-0.1,1-1,1.7-2,1.6l-26.4-3.1C43.4,35.6,43,35.4,42.8,35.1L42.8,35.1z"/>
	</g>
	<g>
		<path fill="#404447" d="M71.4,63.6c-0.1-0.1-0.2-0.3-0.3-0.4L52.4,25.5L14.7,6.7c-0.8-0.4-1.1-1.4-0.7-2.2
			c0.4-0.8,1.4-1.1,2.2-0.7l38.1,19c0.3,0.2,0.6,0.4,0.7,0.7l19,38.2c0.4,0.8,0.1,1.8-0.7,2.2C72.7,64.2,71.9,64.1,71.4,63.6
			L71.4,63.6z"/>
	</g>
</g>
</svg>
