<?xml version="1.0" encoding="utf-8"?>
<!-- Generator: Adobe Illustrator 18.1.1, SVG Export Plug-In . SVG Version: 6.00 Build 0)  -->
<svg version="1.1" id="Layer_1" xmlns="http://www.w3.org/2000/svg" xmlns:xlink="http://www.w3.org/1999/xlink" x="0px" y="0px"
	 viewBox="0 0 74.4 97.5" enable-background="new 0 0 74.4 97.5" xml:space="preserve">
<path fill="#404447" d="M74.4,95.5V2c0-1.1-0.9-2-2-2H2C0.9,0,0,0.9,0,2v93.5c0,1.1,0.9,2,2,2h70.3C73.5,97.5,74.4,96.6,74.4,95.5z
	 M46.2,10.5H56c1.1,0,2,0.9,2,2c0,1.1-0.9,2-2,2h-9.9c-1.1,0-2-0.9-2-2C44.2,11.4,45.1,10.5,46.2,10.5z M55,21.1c0,1.1-0.9,2-2,2
	H17.7c-1.1,0-2-0.9-2-2c0-1.1,0.9-2,2-2H53C54.1,19.2,55,20.1,55,21.1z M29.2,10.5h9.8c1.1,0,2,0.9,2,2c0,1.1-0.9,2-2,2h-9.8
	c-1.1,0-2-0.9-2-2C27.2,11.4,28.1,10.5,29.2,10.5z M12.2,10.5h9.9c1.1,0,2,0.9,2,2c0,1.1-0.9,2-2,2h-9.9c-1.1,0-2-0.9-2-2
	C10.3,11.4,11.1,10.5,12.2,10.5z M46.1,39.6H17.7c-1.1,0-2-0.9-2-2c0-1.1,0.9-2,2-2h28.4c1.1,0,2,0.9,2,2
	C48.1,38.7,47.2,39.6,46.1,39.6z M48.1,45.9c0,1.1-0.9,2-2,2H17.7c-1.1,0-2-0.9-2-2c0-1.1,0.9-2,2-2h28.4
	C47.2,43.9,48.1,44.8,48.1,45.9z M22.1,64.9h-9.9c-1.1,0-2-0.9-2-2c0-1.1,0.9-2,2-2h9.9c1.1,0,2,0.9,2,2
	C24.1,64,23.2,64.9,22.1,64.9z M61.4,56.4H17.7c-1.1,0-2-0.9-2-2c0-1.1,0.9-2,2-2h43.7c1.1,0,2,0.9,2,2
	C63.4,55.5,62.5,56.4,61.4,56.4z M61.4,31.7H17.7c-1.1,0-2-0.9-2-2c0-1.1,0.9-2,2-2h43.7c1.1,0,2,0.9,2,2
	C63.4,30.8,62.5,31.7,61.4,31.7z"/>
</svg>
