<?xml version="1.0" encoding="utf-8"?>
<!-- Generator: Adobe Illustrator 18.1.1, SVG Export Plug-In . SVG Version: 6.00 Build 0)  -->
<svg version="1.1" id="Layer_1" xmlns="http://www.w3.org/2000/svg" xmlns:xlink="http://www.w3.org/1999/xlink" x="0px" y="0px"
	 viewBox="0 0 98.3 90.8" enable-background="new 0 0 98.3 90.8" xml:space="preserve">
<g>
	<g>
		<path fill="#404447" d="M94.1,90.8H4.3c-2.4,0-4.3-1.9-4.3-4.3V56.2C0,53.9,1.9,52,4.3,52h27.8c2.4,0,4.3,1.9,4.3,4.3v6H62v-6
			c0-2.4,1.9-4.3,4.3-4.3h27.8c2.4,0,4.3,1.9,4.3,4.3v30.3C98.3,88.9,96.4,90.8,94.1,90.8L94.1,90.8z M8.6,82.2h81.2V60.5H70.5v1.8
			c0,4.7-3.8,8.6-8.6,8.6H36.3c-4.7,0-8.6-3.8-8.6-8.6v-1.8H8.6V82.2L8.6,82.2z"/>
	</g>
	<g>
		<path fill="#404447" d="M89.3,59.9c-2.4,0-4.3-1.9-4.3-4.3V25.7H14.5v29.9c0,2.4-1.9,4.3-4.3,4.3c-2.4,0-4.3-1.9-4.3-4.3V21.4
			c0-2.4,1.9-4.3,4.3-4.3h79.1c2.4,0,4.3,1.9,4.3,4.3v34.2C93.6,57.9,91.6,59.9,89.3,59.9L89.3,59.9z"/>
	</g>
	<g>
		<path fill="#404447" d="M84.3,12.8H15.2c-1.2,0-2.1-1-2.1-2.1c0-1.2,1-2.1,2.1-2.1h69.1c1.2,0,2.1,1,2.1,2.1
			C86.4,11.9,85.5,12.8,84.3,12.8L84.3,12.8z"/>
	</g>
	<g>
		<path fill="#404447" d="M80.2,4.3H19.3c-1.2,0-2.1-1-2.1-2.1c0-1.2,1-2.1,2.1-2.1h60.9c1.2,0,2.1,1,2.1,2.1
			C82.3,3.3,81.4,4.3,80.2,4.3L80.2,4.3z"/>
	</g>
</g>
</svg>
