<?xml version="1.0" encoding="utf-8"?>
<!-- Generator: Adobe Illustrator 18.1.1, SVG Export Plug-In . SVG Version: 6.00 Build 0)  -->
<svg version="1.1" id="Layer_1" xmlns="http://www.w3.org/2000/svg" xmlns:xlink="http://www.w3.org/1999/xlink" x="0px" y="0px"
	 viewBox="0 0 94.2 92.7" enable-background="new 0 0 94.2 92.7" xml:space="preserve">
<g>
	<g>
		<path fill="#404447" d="M90.2,92.7H4c-2.2,0-4-1.8-4-4V4c0-2.2,1.8-4,4-4h86.3c2.2,0,4,1.8,4,4v84.7
			C94.2,90.9,92.4,92.7,90.2,92.7L90.2,92.7z M7.9,84.7h78.3V7.9H7.9V84.7L7.9,84.7z"/>
	</g>
	<path fill="#404447" d="M17.6,16.4v58.4H76V16.4H17.6z M46.9,26.3c4.4,0,8.5,1.5,11.8,3.9l-2,2.7c-2.7-2-6.1-3.2-9.8-3.2
		c-6.9,0-12.8,4.3-15.2,10.4l-3.1-1.2C31.4,31.5,38.5,26.3,46.9,26.3z M34.3,46c0,5.3,3.3,9.8,7.9,11.7L41,60.8
		c-2.9-1.2-5.4-3.2-7.2-5.8c-1.8-2.6-2.8-5.7-2.8-9H34.3z M32,40.2c1.2-3,3.2-5.5,5.8-7.3c2.6-1.8,5.7-2.8,9.1-2.8v3.3
		c-5.3,0-9.9,3.3-11.7,8L32,40.2z M34.7,46c0-6.7,5.5-12.2,12.2-12.2c5.9,0,10.8,4.2,11.9,9.7h-3.4c-1.1-3.7-4.5-6.4-8.5-6.4
		c-4.9,0-8.9,4-8.9,8.9s4,8.9,8.9,8.9c4,0,7.4-2.7,8.5-6.4h3.4c-1.1,5.5-6.1,9.7-11.9,9.7C40.1,58.2,34.7,52.7,34.7,46z M51.1,43.5
		c-0.6-1-1.4-1.7-2.5-2.1l1.3-3.3c2.4,0.9,4.3,2.9,5,5.4H51.1z M54.9,48.4c-0.8,2.5-2.6,4.5-5,5.4l-1.3-3.3c1-0.4,1.9-1.2,2.5-2.1
		H54.9z M41.9,46c0,0.7,0.1,1.4,0.4,2l-3.2,1.4c-0.5-1-0.7-2.2-0.7-3.4c0-4.7,3.8-8.4,8.4-8.4v3.5C44.1,41.1,41.9,43.3,41.9,46z
		 M46.9,50.9v3.5c-2.3,0-4.4-1-6-2.5l2.5-2.5C44.3,50.3,45.5,50.9,46.9,50.9z M46.9,58.6c6.1,0,11.2-4.4,12.3-10.1h3.4
		c-1.2,7.6-7.8,13.5-15.7,13.5V58.6z M59.2,43.5c-0.8-4.2-3.8-7.7-7.8-9.3l1.2-3.1c5.2,2,9.1,6.7,10,12.4H59.2z M28.9,53.9
		c-0.3-0.7-0.6-1.5-0.8-2.2c0-0.1,0-0.1-0.1-0.2c0-0.1-0.1-0.3-0.1-0.4c0-0.1-0.1-0.2-0.1-0.3c0-0.1-0.1-0.2-0.1-0.4
		c0-0.1-0.1-0.3-0.1-0.4c0-0.1,0-0.2-0.1-0.3c0-0.2-0.1-0.3-0.1-0.5c0-0.1,0-0.1,0-0.2c0-0.2-0.1-0.4-0.1-0.6c0,0,0,0,0-0.1
		c-0.1-0.8-0.1-1.6-0.1-2.4h3.3c0,0.7,0.1,1.5,0.1,2.2c0,0.1,0,0.2,0,0.3c0,0.1,0,0.2,0.1,0.4c0,0.1,0,0.1,0,0.2
		c0,0.1,0.1,0.3,0.1,0.5c0,0,0,0.1,0,0.1c0,0.2,0.1,0.3,0.1,0.5c0,0,0,0,0,0c0.1,0.2,0.1,0.4,0.2,0.6c0.2,0.6,0.4,1.2,0.7,1.8
		L28.9,53.9z M46.9,65.6c-5.4,0-10.3-2.2-13.9-5.8l2.4-2.4c3,3,7,4.8,11.5,4.8c8.2,0,15-6,16.1-13.9h3.4
		C65.2,58.1,56.9,65.6,46.9,65.6z M63,43.5c-0.3-2.2-1.1-4.3-2.3-6.2l2.8-1.8c1.5,2.4,2.5,5.1,2.8,7.9H63z"/>
</g>
</svg>
