<?xml version="1.0" encoding="utf-8"?>
<!-- Generator: Adobe Illustrator 18.1.1, SVG Export Plug-In . SVG Version: 6.00 Build 0)  -->
<svg version="1.1" id="Layer_1" xmlns="http://www.w3.org/2000/svg" xmlns:xlink="http://www.w3.org/1999/xlink" x="0px" y="0px"
	 viewBox="0 0 600 600" enable-background="new 0 0 600 600" xml:space="preserve">
<g>
	<g>
		<path fill="#404447" d="M574.2,600H25.1C11,600,0,589,0,574.9V25.1C0,11,11,0,25.1,0s25.1,11,25.1,25.1v524h524
			c14.2,0,25.1,11,25.1,25.1C600,588.4,588.4,600,574.2,600L574.2,600z"/>
	</g>
	<g>
		<path fill="#404447" d="M208.8,508.5H116c-12.9,0-23.2-10.3-23.2-23.2V355.1c0-12.9,10.3-23.2,23.2-23.2h92.8
			c12.9,0,23.2,10.3,23.2,23.2v130.2C232,498.2,221.7,508.5,208.8,508.5L208.8,508.5z M139.2,462.1h46.4v-83.8h-46.4L139.2,462.1
			L139.2,462.1z"/>
	</g>
	<g>
		<path fill="#404447" d="M567.1,508.5h-92.8c-12.9,0-23.2-10.3-23.2-23.2V25.1c0-12.9,10.3-23.2,23.2-23.2h92.8
			c12.9,0,23.2,10.3,23.2,23.2v460.2C590.3,498.2,580,508.5,567.1,508.5L567.1,508.5z M497.5,462.1h46.4V48.3h-46.4V462.1
			L497.5,462.1z"/>
	</g>
	<g>
		<path fill="#404447" d="M388,508.5h-92.8c-12.9,0-23.2-10.3-23.2-23.2V194c0-12.9,10.3-23.2,23.2-23.2H388
			c12.9,0,23.2,10.3,23.2,23.2v291.3C411.2,498.2,400.9,508.5,388,508.5L388,508.5z M318.4,462.1h46.4V217.2h-46.4V462.1
			L318.4,462.1z"/>
	</g>
</g>
</svg>
