<?xml version="1.0" encoding="utf-8"?>
<!-- Generator: Adobe Illustrator 18.1.1, SVG Export Plug-In . SVG Version: 6.00 Build 0)  -->
<svg version="1.1" id="Layer_1" xmlns="http://www.w3.org/2000/svg" xmlns:xlink="http://www.w3.org/1999/xlink" x="0px" y="0px"
	 viewBox="0 0 94.7 94.7" enable-background="new 0 0 94.7 94.7" xml:space="preserve">
<g>
	<g>
		<path fill="#404447" d="M90.8,94.7H4c-2.2,0-4-1.8-4-4V4c0-2.2,1.8-4,4-4h86.8c2.2,0,4,1.8,4,4v86.8C94.7,93,93,94.7,90.8,94.7
			L90.8,94.7z M7.9,86.8h78.8V7.9H7.9V86.8L7.9,86.8z"/>
	</g>
	<g>
		<g>
			<path fill="#404447" d="M23.1,75.8c-1.3,0-2.3-1-2.3-2.3V52.8c0-1.3,1-2.3,2.3-2.3s2.3,1,2.3,2.3v20.7
				C25.4,74.8,24.4,75.8,23.1,75.8L23.1,75.8z"/>
		</g>
		<g>
			<path fill="#404447" d="M32.9,75.8c-1.3,0-2.3-1-2.3-2.3V32.8c0-1.3,1-2.3,2.3-2.3c1.3,0,2.3,1,2.3,2.3v40.7
				C35.2,74.8,34.2,75.8,32.9,75.8L32.9,75.8z"/>
		</g>
		<g>
			<path fill="#404447" d="M42.7,75.8c-1.3,0-2.3-1-2.3-2.3V23.2c0-1.3,1-2.3,2.3-2.3c1.3,0,2.3,1,2.3,2.3v50.3
				C45,74.8,44,75.8,42.7,75.8L42.7,75.8z"/>
		</g>
		<g>
			<path fill="#404447" d="M52.5,75.8c-1.3,0-2.3-1-2.3-2.3V40.8c0-1.3,1-2.3,2.3-2.3c1.3,0,2.3,1,2.3,2.3v32.7
				C54.8,74.8,53.8,75.8,52.5,75.8L52.5,75.8z"/>
		</g>
		<g>
			<path fill="#404447" d="M72.2,75.8c-1.3,0-2.3-1-2.3-2.3V62.2c0-1.3,1-2.3,2.3-2.3c1.3,0,2.3,1,2.3,2.3v11.3
				C74.4,74.8,73.4,75.8,72.2,75.8L72.2,75.8z"/>
		</g>
		<g>
			<path fill="#404447" d="M62.4,75.8c-1.3,0-2.3-1-2.3-2.3V23.2c0-1.3,1-2.3,2.3-2.3c1.3,0,2.3,1,2.3,2.3v50.3
				C64.6,74.8,63.6,75.8,62.4,75.8L62.4,75.8z"/>
		</g>
	</g>
</g>
</svg>
