<?xml version="1.0" encoding="utf-8"?>
<!-- Generator: Adobe Illustrator 18.1.1, SVG Export Plug-In . SVG Version: 6.00 Build 0)  -->
<svg version="1.1" id="Layer_1" xmlns="http://www.w3.org/2000/svg" xmlns:xlink="http://www.w3.org/1999/xlink" x="0px" y="0px"
	 viewBox="0 0 600 600" enable-background="new 0 0 600 600" xml:space="preserve">
<g>
	<path fill="#404447" d="M302.3,575C148.1,575,23,451,23,298.5S148.7,22.1,302.3,22.1s279.3,124,279.3,276.4S456.5,575,302.3,575z
		 M302.3,73.9c-125.7,0-228.1,101.3-228.1,225.2c0,124.5,102.4,225.2,228.1,225.2s228.1-101.3,228.1-225.2
		C530.5,174.6,428,73.9,302.3,73.9z"/>
	<g>
		<path fill="#404447" d="M355.9,259.6c-6.4,0-13.4-2.3-18-7.6c-9.9-9.9-9.9-26.2,0-36.1L549.1,7.6c7.6-7.6,18.6-9.3,27.9-5.8
			c9.9,4.1,15.7,13.4,15.7,23.3v83.8c0,14-11.6,25.6-25.6,25.6s-25.6-11.6-25.6-25.6V86.7L373.9,252.6
			C368.7,257.2,362.3,259.6,355.9,259.6z"/>
		<path fill="#404447" d="M567.1,50.6h-84.4c-14,0-25.6-11.6-25.6-25.6s11.6-25.6,25.6-25.6h84.4c14,0,25.6,11.6,25.6,25.6
			S581.7,50.6,567.1,50.6z"/>
	</g>
	<g>
		<path fill="#404447" d="M249.4,264.8c-6.4,0-13.4-2.3-18-7.6L19.5,48.3c-7.6-7-9.3-18-5.8-27.9c4.1-8.7,13.4-15.1,23.9-15.1h84.4
			c14,0,25.6,11.6,25.6,25.6s-11.6,25.6-25.6,25.6H99.8l167.6,165.9c9.9,9.9,9.9,26.2,0,36.1C262.2,262.5,255.8,264.8,249.4,264.8z"
			/>
		<path fill="#404447" d="M37.5,139.7c-14,0-25.6-11.6-25.6-25.6V30.8c0-14,11.6-25.6,25.6-25.6s25.6,11.6,25.6,25.6v83.8
			C63.1,128,52.1,139.7,37.5,139.7z"/>
	</g>
	<g>
		<path fill="#404447" d="M117.3,594.8h-85c-14,0-25.6-11.6-25.6-25.6c0-14,11.6-25.6,25.6-25.6h85c14,0,25.6,11.6,25.6,25.6
			C142.9,583.1,131.2,594.8,117.3,594.8z"/>
		<path fill="#404447" d="M32.3,594.8c-3.5,0-6.4-0.6-9.9-1.7c-9.9-4.1-15.7-13.4-15.7-23.3v-84.4c0-14,11.6-25.6,25.6-25.6
			s25.6,11.6,25.6,25.6v22.1l167.6-165.9c9.9-9.9,26.2-9.9,36.1,0s9.9,26.2,0,36.1L50.3,587.2C45.7,591.9,39.3,594.8,32.3,594.8z"/>
	</g>
	<g>
		<path fill="#404447" d="M561.9,600h-84.4c-14,0-25.6-11.6-25.6-25.6s11.6-25.6,25.6-25.6h22.7L332.6,383.5
			c-9.9-9.9-9.9-26.2,0-36.1c9.9-9.9,26.2-9.9,36.1,0l211.8,208.9c7.6,7,9.3,18,5.8,27.9C581.7,593.6,572.4,600,561.9,600z"/>
		<path fill="#404447" d="M561.9,600c-14,0-25.6-11.6-25.6-25.6v-83.8c0-14,11.6-25.6,25.6-25.6c14,0,25.6,11.6,25.6,25.6v83.8
			C588.1,588.4,576.4,600,561.9,600z"/>
	</g>
</g>
</svg>
