<?xml version="1.0" encoding="utf-8"?>
<!-- Generator: Adobe Illustrator 18.1.1, SVG Export Plug-In . SVG Version: 6.00 Build 0)  -->
<svg version="1.1" id="Layer_1" xmlns="http://www.w3.org/2000/svg" xmlns:xlink="http://www.w3.org/1999/xlink" x="0px" y="0px"
	 viewBox="0 0 90 80.2" enable-background="new 0 0 90 80.2" xml:space="preserve">
<g>
	<g>
		<path fill="#404447" d="M30.3,37.7c-9.3,0-16.9-8.4-16.9-18.8C13.4,8.4,21,0,30.3,0c9.3,0,16.8,8.4,16.8,18.8
			C47.1,29.2,39.6,37.7,30.3,37.7L30.3,37.7z M30.3,7.8c-5,0-9.1,5-9.1,11.1c0,6.1,4.1,11.1,9.1,11.1c5,0,9.1-5,9.1-11.1
			C39.4,12.7,35.3,7.8,30.3,7.8L30.3,7.8z"/>
	</g>
	<g>
		<path fill="#404447" d="M54.9,80.2H5c-2,0-3.7-1.6-3.9-3.6L0,60.5c-0.4-6.2,4.2-13.1,10.4-15.4c12.7-4.5,26.6-4.5,39.1,0
			c6.2,2.3,10.8,9.2,10.4,15.4l-1.1,16.1C58.7,78.6,57,80.2,54.9,80.2L54.9,80.2z M8.6,72.5h42.7L52.2,60c0.2-2.5-2.2-6.4-5.3-7.6
			c-10.8-3.9-22.9-3.9-33.8,0c-3.1,1.2-5.4,5.1-5.3,7.6L8.6,72.5L8.6,72.5z"/>
	</g>
	<g>
		<path fill="#404447" d="M54.9,80.2H5c-2,0-3.7-1.6-3.9-3.6L0,60.5c-0.4-6.2,4.2-13.1,10.4-15.4c12.7-4.5,26.6-4.5,39.1,0
			c6.2,2.3,10.8,9.2,10.4,15.4l-1.1,16.1C58.7,78.6,57,80.2,54.9,80.2L54.9,80.2z M8.6,72.5h42.7L52.2,60c0.2-2.5-2.2-6.4-5.3-7.6
			c-10.8-3.9-22.9-3.9-33.8,0c-3.1,1.2-5.4,5.1-5.3,7.6L8.6,72.5L8.6,72.5z"/>
	</g>
	<g>
		<path fill="#404447" d="M85.2,80.2H65.3c-2.1,0-3.9-1.7-3.9-3.9c0-2.1,1.7-3.9,3.9-3.9h16.3l0.7-10.3c0.1-2-1.8-5.1-4.2-6
			c-4.3-1.6-8.9-2.4-13.6-2.5c-2.1,0-3.8-1.8-3.8-3.9c0-2.1,1.8-3.9,3.9-3.8c5.5,0.1,10.9,1.1,16.1,2.9c5.5,2,9.7,8.3,9.3,13.9
			l-1,13.9C88.9,78.6,87.2,80.2,85.2,80.2L85.2,80.2z"/>
	</g>
	<g>
		<path fill="#404447" d="M69.9,41.8c-7.7,0-14-7-14-15.5s6.3-15.5,14-15.5c7.7,0,14,7,14,15.5S77.6,41.8,69.9,41.8L69.9,41.8z
			 M69.9,18.4c-3.4,0-6.2,3.5-6.2,7.8c0,4.3,2.8,7.8,6.2,7.8c3.4,0,6.2-3.5,6.2-7.8C76.1,21.9,73.3,18.4,69.9,18.4L69.9,18.4z"/>
	</g>
</g>
</svg>
