<?xml version="1.0" encoding="utf-8"?>
<!-- Generator: Adobe Illustrator 18.1.1, SVG Export Plug-In . SVG Version: 6.00 Build 0)  -->
<svg version="1.1" id="Layer_1" xmlns="http://www.w3.org/2000/svg" xmlns:xlink="http://www.w3.org/1999/xlink" x="0px" y="0px"
	 viewBox="0 0 124.3 90.3" enable-background="new 0 0 124.3 90.3" xml:space="preserve">
<g>
	<g>
		<g>
			<path fill="#404447" d="M38.1,90.3H3c-0.5,0-1.1-0.3-1.4-0.7c-0.3-0.4-0.4-1-0.3-1.5l7.2-22.5c0.2-0.7,0.9-1.2,1.6-1.2h35.1
				c0.5,0,1.1,0.3,1.4,0.7c0.3,0.4,0.4,1,0.2,1.5l-7.2,22.5C39.5,89.8,38.8,90.3,38.1,90.3L38.1,90.3z M5.3,86.9h31.5l6.1-19.1H11.4
				L5.3,86.9L5.3,86.9z"/>
		</g>
		<g>
			<path fill="#404447" d="M1.7,90.3c-0.9,0-1.7-0.8-1.7-1.7V57.7c0-1.9,1.5-3.4,3.4-3.4h12c1.9,0,3.4,1.5,3.4,3.4V59h1.9
				c0.9,0,1.7,0.8,1.7,1.7c0,0.9-0.8,1.7-1.7,1.7h-3.7c-0.9,0-1.7-0.8-1.7-1.7v-2.9h-12v30.8C3.4,89.5,2.7,90.3,1.7,90.3L1.7,90.3z"
				/>
		</g>
		<g>
			<path fill="#404447" d="M43.7,62.6c-0.4,0-0.9-0.2-1.2-0.5c-0.7-0.7-0.7-1.7,0-2.4l4-4l-4-4c-0.7-0.7-0.7-1.7,0-2.4
				c0.7-0.7,1.7-0.7,2.4,0l5.2,5.2c0.3,0.3,0.5,0.8,0.5,1.2c0,0.5-0.2,0.9-0.5,1.2l-5.2,5.2C44.6,62.4,44.2,62.6,43.7,62.6
				L43.7,62.6z"/>
		</g>
		<g>
			<path fill="#404447" d="M25,78.3c-0.9,0-1.7-0.8-1.7-1.7c0-12.6,10.1-22.8,22.5-22.8c0.8,0,1.5,0,2.3,0.1
				c0.9,0.1,1.6,0.9,1.5,1.9c-0.1,0.9-1,1.6-1.9,1.5c-0.6-0.1-1.3-0.1-2-0.1c-10.5,0-19.1,8.7-19.1,19.4
				C26.7,77.6,25.9,78.3,25,78.3L25,78.3z"/>
		</g>
	</g>
	<g>
		<g>
			<g>
				<path fill="#404447" d="M56.2,75.8c-0.6,0-1.2-0.2-1.7-0.5c-0.8-0.5-1.3-1.4-1.3-2.4V15.2c0-1.2,0.8-2.3,1.9-2.7L87.8,0.2
					c0.9-0.3,1.9-0.2,2.7,0.3c0.8,0.5,1.3,1.4,1.3,2.4v57.7c0,1.2-0.8,2.3-1.9,2.7L57.3,75.7C56.9,75.8,56.6,75.8,56.2,75.8
					L56.2,75.8z M59.1,17.2v51.5l26.8-10.1V7.1L59.1,17.2L59.1,17.2z"/>
			</g>
			<g>
				<path fill="#404447" d="M63,29.2c-0.6,0-1.1-0.4-1.4-0.9c-0.3-0.8,0.1-1.6,0.8-1.9l19.5-7.3c0.8-0.3,1.6,0.1,1.9,0.8
					c0.3,0.8-0.1,1.6-0.8,1.9l-19.5,7.3C63.3,29.2,63.1,29.2,63,29.2L63,29.2z"/>
			</g>
			<g>
				<path fill="#404447" d="M63,48c-0.6,0-1.1-0.4-1.4-0.9c-0.3-0.8,0.1-1.6,0.8-1.9l19.4-7.3c0.8-0.3,1.6,0.1,1.9,0.8
					c0.3,0.8-0.1,1.6-0.8,1.9l-19.4,7.3C63.3,48,63.1,48,63,48L63,48z"/>
			</g>
			<g>
				<path fill="#404447" d="M63,57.4c-0.6,0-1.1-0.4-1.4-0.9c-0.3-0.8,0.1-1.6,0.8-1.9l19.5-7.3c0.8-0.3,1.6,0.1,1.9,0.8
					c0.3,0.8-0.1,1.6-0.8,1.9l-19.5,7.3C63.3,57.3,63.1,57.4,63,57.4L63,57.4z"/>
			</g>
			<g>
				<path fill="#404447" d="M63,38.6c-0.6,0-1.1-0.4-1.4-0.9c-0.3-0.8,0.1-1.6,0.8-1.9l19.4-7.3c0.8-0.3,1.6,0.1,1.9,0.8
					c0.3,0.8-0.1,1.6-0.8,1.9l-19.4,7.3C63.3,38.6,63.1,38.6,63,38.6L63,38.6z"/>
			</g>
		</g>
		<g>
			<g>
				<path fill="#404447" d="M109.4,69.9c-0.8,0-1.5-0.7-1.5-1.5V51.5c0-0.5,0.2-0.9,0.6-1.2c0.4-0.3,0.9-0.3,1.3-0.2l12,4.5
					c0.8,0.3,1.1,1.1,0.8,1.9c-0.3,0.8-1.1,1.1-1.9,0.8l-10-3.8v14.8C110.9,69.2,110.2,69.9,109.4,69.9L109.4,69.9z"/>
			</g>
			<g>
				<path fill="#404447" d="M109.4,71.3c-0.3,0-0.7-0.1-1-0.2l-20.6-7.8c-1.1-0.4-1.9-1.5-1.9-2.7V2.9c0-1,0.5-1.9,1.3-2.4
					C88,0,89-0.1,89.9,0.2l32.6,12.3c1.1,0.4,1.9,1.5,1.9,2.7l0,40.8c0,0.8-0.3,1.5-0.8,2l-12,12.4C111,71,110.2,71.3,109.4,71.3
					L109.4,71.3z M91.7,58.6l16.9,6.4l9.8-10.1l0-37.7L91.7,7.1V58.6L91.7,58.6z"/>
			</g>
			<g>
				<path fill="#404447" d="M115.3,29.5c-0.2,0-0.3,0-0.5-0.1l-19.4-7.3c-0.8-0.3-1.1-1.1-0.8-1.9c0.3-0.8,1.1-1.1,1.9-0.8l19.4,7.3
					c0.8,0.3,1.1,1.1,0.8,1.9C116.5,29.1,115.9,29.5,115.3,29.5L115.3,29.5z"/>
			</g>
			<g>
				<path fill="#404447" d="M115.3,48.2c-0.2,0-0.3,0-0.5-0.1l-19.4-7.3c-0.8-0.3-1.1-1.1-0.8-1.9c0.3-0.8,1.1-1.1,1.9-0.8l19.4,7.3
					c0.8,0.3,1.1,1.1,0.8,1.9C116.5,47.9,115.9,48.2,115.3,48.2L115.3,48.2z"/>
			</g>
			<g>
				<path fill="#404447" d="M115.3,38.9c-0.2,0-0.3,0-0.5-0.1l-19.4-7.3c-0.8-0.3-1.1-1.1-0.8-1.9c0.3-0.8,1.1-1.1,1.9-0.8l19.4,7.3
					c0.8,0.3,1.1,1.1,0.8,1.9C116.5,38.5,115.9,38.9,115.3,38.9L115.3,38.9z"/>
			</g>
		</g>
	</g>
</g>
</svg>
