<?xml version="1.0" encoding="utf-8"?>
<!-- Generator: Adobe Illustrator 18.1.1, SVG Export Plug-In . SVG Version: 6.00 Build 0)  -->
<svg version="1.1" id="Layer_1" xmlns="http://www.w3.org/2000/svg" xmlns:xlink="http://www.w3.org/1999/xlink" x="0px" y="0px"
	 viewBox="0 0 94.7 94.7" enable-background="new 0 0 94.7 94.7" xml:space="preserve">
<g>
	<g>
		<path fill="#404447" d="M90.8,94.7H4c-2.2,0-4-1.8-4-4V4c0-2.2,1.8-4,4-4h86.8c2.2,0,4,1.8,4,4v86.8C94.7,93,93,94.7,90.8,94.7
			L90.8,94.7z M7.9,86.8h78.8V7.9H7.9V86.8L7.9,86.8z"/>
	</g>
	<g>
		<g>
			<g>
				<path fill="#404447" d="M67.5,69.5H25.9c-1.1,0-1.9-0.9-1.9-1.9V26c0-1.1,0.9-1.9,1.9-1.9h41.6c1.1,0,1.9,0.9,1.9,1.9v41.6
					C69.4,68.7,68.5,69.5,67.5,69.5L67.5,69.5z M27.8,65.7h37.8V27.9H27.8V65.7L27.8,65.7z"/>
			</g>
			<g>
				<path fill="#404447" d="M66.8,38.1H26.6c-0.5,0-1-0.4-1-1s0.4-1,1-1h40.2c0.5,0,1,0.4,1,1S67.3,38.1,66.8,38.1L66.8,38.1z"/>
			</g>
			<path fill="#404447" d="M32.7,29.7c-1.3,0-2.4,1.1-2.4,2.4c0,1.3,1.1,2.4,2.4,2.4c1.3,0,2.4-1.1,2.4-2.4
				C35.1,30.8,34,29.7,32.7,29.7L32.7,29.7z"/>
			<path fill="#404447" d="M39.2,29.7c-1.3,0-2.4,1.1-2.4,2.4c0,1.3,1.1,2.4,2.4,2.4s2.4-1.1,2.4-2.4C41.6,30.8,40.5,29.7,39.2,29.7
				L39.2,29.7z"/>
			<path fill="#404447" d="M45.7,29.7c-1.3,0-2.4,1.1-2.4,2.4c0,1.3,1.1,2.4,2.4,2.4c1.3,0,2.4-1.1,2.4-2.4
				C48.1,30.8,47,29.7,45.7,29.7L45.7,29.7z"/>
		</g>
		<g>
			<g>
				<g>
					<path fill="#404447" d="M58.2,59.8H46c-1.1,0-1.9-0.9-1.9-1.9c0-1.1,0.9-1.9,1.9-1.9h12.2c1.1,0,1.9,0.9,1.9,1.9
						C60.1,58.9,59.2,59.8,58.2,59.8L58.2,59.8z"/>
				</g>
			</g>
			<g>
				<g>
					<path fill="#404447" d="M35.2,59.8c-0.5,0-1-0.2-1.4-0.6c-0.7-0.7-0.7-2,0-2.7l5.6-5.6l-5.6-5.6c-0.7-0.7-0.7-2,0-2.7
						c0.7-0.7,2-0.7,2.7,0l6.9,6.9c0.7,0.7,0.7,2,0,2.7l-6.9,6.9C36.2,59.6,35.7,59.8,35.2,59.8L35.2,59.8z"/>
				</g>
			</g>
		</g>
	</g>
</g>
</svg>
