<?xml version="1.0" encoding="utf-8"?>
<!-- Generator: Adobe Illustrator 18.1.1, SVG Export Plug-In . SVG Version: 6.00 Build 0)  -->
<svg version="1.1" id="Layer_1" xmlns="http://www.w3.org/2000/svg" xmlns:xlink="http://www.w3.org/1999/xlink" x="0px" y="0px"
	 viewBox="0 0 82.5 83" enable-background="new 0 0 82.5 83" xml:space="preserve">
<g>
	<g>
		<path fill="#404447" d="M36.8,46.3c-2.5-2.4-2.5-6.4,0-8.9c2.4-2.5,6.4-2.5,8.9,0c2.5,2.4,2.5,6.4,0,8.9
			C43.2,48.7,39.2,48.7,36.8,46.3L36.8,46.3z M43.2,39.8c-1.1-1.1-2.9-1.1-4,0c-1.1,1.1-1.1,2.9,0,4c1.1,1.1,2.9,1.1,4,0
			C44.3,42.7,44.3,40.9,43.2,39.8L43.2,39.8z"/>
	</g>
	<g>
		<path fill="#404447" d="M49.3,83H33c-1.7,0-3.1-1.4-3.1-3.1V63.6c0-1.7,1.4-3.1,3.1-3.1h16.3c1.7,0,3.1,1.4,3.1,3.1v16.3
			C52.4,81.6,51,83,49.3,83L49.3,83z M36.1,76.7h10v-10h-10V76.7L36.1,76.7z"/>
	</g>
	<g>
		<path fill="#404447" d="M49.4,22.5H33.1c-1.7,0-3.1-1.4-3.1-3.1V3.1C30,1.4,31.4,0,33.1,0h16.3c1.7,0,3.1,1.4,3.1,3.1v16.3
			C52.5,21.1,51.1,22.5,49.4,22.5L49.4,22.5z M36.2,16.3h10v-10h-10V16.3L36.2,16.3z"/>
	</g>
	<g>
		<path fill="#404447" d="M19.4,83H3.1C1.4,83,0,81.6,0,79.9V63.6c0-1.7,1.4-3.1,3.1-3.1h16.3c1.7,0,3.1,1.4,3.1,3.1v16.3
			C22.5,81.6,21.1,83,19.4,83L19.4,83z M6.3,76.7h10v-10h-10V76.7L6.3,76.7z"/>
	</g>
	<g>
		<path fill="#404447" d="M79.3,83H63.1c-1.7,0-3.1-1.4-3.1-3.1V63.6c0-1.7,1.4-3.1,3.1-3.1h16.3c1.7,0,3.1,1.4,3.1,3.1v16.3
			C82.5,81.6,81.1,83,79.3,83L79.3,83z M66.2,76.7h10v-10h-10V76.7L66.2,76.7z"/>
	</g>
	<rect x="46.1" y="40.5" fill="#404447" width="26.8" height="2.6"/>
	<rect x="8.8" y="40.5" fill="#404447" width="26.9" height="2.6"/>
	<rect x="70.4" y="42.3" fill="#404447" width="2.5" height="19"/>
	<rect x="8.8" y="42.3" fill="#404447" width="2.7" height="19"/>
	<rect x="39.9" y="45.3" fill="#404447" width="2.5" height="19"/>
	<rect x="40.1" y="19.1" fill="#404447" width="2.5" height="19"/>
</g>
</svg>
