<?xml version="1.0" encoding="utf-8"?>
<!-- Generator: Adobe Illustrator 18.1.1, SVG Export Plug-In . SVG Version: 6.00 Build 0)  -->
<svg version="1.1" id="Layer_1" xmlns="http://www.w3.org/2000/svg" xmlns:xlink="http://www.w3.org/1999/xlink" x="0px" y="0px"
	 viewBox="0 0 94.7 92.7" enable-background="new 0 0 94.7 92.7" xml:space="preserve">
<g>
	<g>
		<path fill="#404447" d="M68.4,92.7H3.8C1.7,92.7,0,91,0,88.9V25.5c0-2.1,1.7-3.8,3.8-3.8h64.6c2.1,0,3.8,1.7,3.8,3.8v63.4
			C72.2,91,70.5,92.7,68.4,92.7L68.4,92.7z M7.6,85.1h57V29.3h-57V85.1L7.6,85.1z"/>
	</g>
	<g>
		<path fill="#404447" d="M81.2,49.9H68.4c-1.1,0-1.9-0.9-1.9-1.9c0-1.1,0.8-1.9,1.9-1.9h10.9V15.3H37.8v10.1c0,1.1-0.9,1.9-1.9,1.9
			c-1.1,0-1.9-0.9-1.9-1.9v-12c0-1.1,0.8-1.9,1.9-1.9h45.3c1.1,0,1.9,0.9,1.9,1.9V48C83.1,49,82.3,49.9,81.2,49.9L81.2,49.9z"/>
	</g>
	<g>
		<path fill="#404447" d="M90.9,71.1H68.4v-7.6h18.7V7.6h-57v17.9h-7.6V3.8c0-2.1,1.7-3.8,3.8-3.8h64.6c2.1,0,3.8,1.7,3.8,3.8v63.4
			C94.7,69.4,93,71.1,90.9,71.1L90.9,71.1z"/>
	</g>
	<g>
		<path fill="#404447" d="M58.8,71.6H13.4c-1.1,0-1.9-0.9-1.9-1.9V35.1c0-1.1,0.8-1.9,1.9-1.9h45.3c1.1,0,1.9,0.9,1.9,1.9v34.6
			C60.7,70.7,59.8,71.6,58.8,71.6L58.8,71.6z M15.4,67.8h41.5V37H15.4V67.8L15.4,67.8z"/>
	</g>
</g>
</svg>
