<?xml version="1.0" encoding="utf-8"?>
<!-- Generator: Adobe Illustrator 18.1.1, SVG Export Plug-In . SVG Version: 6.00 Build 0)  -->
<svg version="1.1" id="Layer_1" xmlns="http://www.w3.org/2000/svg" xmlns:xlink="http://www.w3.org/1999/xlink" x="0px" y="0px"
	 viewBox="0 0 600 600" enable-background="new 0 0 600 600" xml:space="preserve">
<g>
	<g>
		<path fill="#404447" d="M438.5,563.1H162.1c-8.7,0-16.3-4.3-20.6-11.9L3.3,311.7c-4.3-7.6-4.3-16.3,0-23.8l138.2-239
			c4.3-7.6,11.9-11.9,20.6-11.9h276.4c8.7,0,16.3,4.3,20.6,11.9l138.2,239.6c4.3,7.6,4.3,16.3,0,23.8l-138.2,239
			C454.7,558.8,446.6,563.1,438.5,563.1L438.5,563.1z M175.6,515.4h248.8l124.7-215.7L424.4,84H175.6L50.9,299.7L175.6,515.4
			L175.6,515.4z"/>
	</g>
	<g>
		<path fill="#404447" d="M300.3,442.8c-79.1,0-143.1-64-143.1-143.1s64-143.1,143.1-143.1c78.6,0,143.1,64,143.1,143.1
			S378.9,442.8,300.3,442.8L300.3,442.8z M300.3,204.9c-52.6,0-95.4,42.8-95.4,95.4s42.8,95.4,95.4,95.4s95.4-42.8,95.4-95.4
			S352.8,204.9,300.3,204.9L300.3,204.9z"/>
	</g>
</g>
</svg>
