<?xml version="1.0" encoding="utf-8"?>
<!-- Generator: Adobe Illustrator 18.1.1, SVG Export Plug-In . SVG Version: 6.00 Build 0)  -->
<svg version="1.1" id="Layer_1" xmlns="http://www.w3.org/2000/svg" xmlns:xlink="http://www.w3.org/1999/xlink" x="0px" y="0px"
	 viewBox="0 0 98.1 92.2" enable-background="new 0 0 98.1 92.2" xml:space="preserve">
<g>
	<g>
		<g>
			<path fill="#404447" d="M20.1,90.6c-3.1,0-5.8-1.1-7.8-3.1c-4.8-4.8-4-13.3,1.9-19.2l19.1-19.1c1.5-1.5,4-1.5,5.5,0L50.6,61
				c0.7,0.7,1.1,1.7,1.1,2.7c0,1-0.4,2-1.1,2.7L31.5,85.6C28.3,88.8,24.2,90.6,20.1,90.6L20.1,90.6z M36.1,57.5L19.7,73.8
				c-3,3-3.4,6.7-1.9,8.2c0.7,0.7,1.7,0.8,2.3,0.8c1.9,0,4.1-1,5.9-2.8l16.3-16.3L36.1,57.5L36.1,57.5z"/>
		</g>
		<g>
			<path fill="#404447" d="M83.9,25.4c-2.5,0-4.9-1-6.7-2.8c-3.7-3.7-3.7-9.6,0-13.3l6.5-6.5c1.5-1.5,4-1.5,5.5,0l7.8,7.8
				c0.7,0.7,1.1,1.7,1.1,2.7c0,1-0.4,2-1.1,2.7l-6.5,6.5C88.7,24.4,86.4,25.4,83.9,25.4L83.9,25.4z M86.4,11.1l-3.7,3.7
				c-0.6,0.6-0.6,1.7,0,2.3c0.8,0.8,1.5,0.8,2.3,0l3.7-3.7L86.4,11.1L86.4,11.1z"/>
		</g>
		<g>
			<path fill="#404447" d="M58.6,45.1c-1,0-2-0.4-2.7-1.1c-1.5-1.5-1.5-4,0-5.5l21.3-21.3c1.5-1.5,4-1.5,5.5,0c1.5,1.5,1.5,4,0,5.5
				L61.3,43.9C60.6,44.7,59.6,45.1,58.6,45.1L58.6,45.1z"/>
		</g>
	</g>
	<g>
		<path fill="#404447" d="M77.3,92.2L77.3,92.2c-4,0-7.7-1.6-10.6-4.4L29.6,50.7c-8.1,1.3-16.3-1.4-22.1-7.1c-7-7.1-9.3-17.7-5.8-27
			c0.5-1.2,1.5-2.2,2.8-2.4c1.3-0.3,2.6,0.1,3.6,1l10.5,10.5l5.7-1.5l1.5-5.7L15.2,8c-0.9-0.9-1.3-2.3-1-3.6
			c0.3-1.3,1.2-2.3,2.4-2.8c2.9-1.1,5.9-1.6,9-1.6c6.8,0,13.2,2.7,18,7.5c5.8,5.8,8.4,14.1,7.1,22.1l37.1,37.1
			c2.8,2.8,4.4,6.6,4.4,10.6c0,4-1.6,7.7-4.4,10.6C85,90.7,81.3,92.2,77.3,92.2L77.3,92.2z M30.9,42.6c1,0,2,0.4,2.7,1.1l38.6,38.6
			c2.7,2.7,7.4,2.7,10.2,0c1.4-1.4,2.1-3.2,2.1-5.1c0-1.9-0.8-3.7-2.1-5.1L43.7,33.6c-1-1-1.3-2.4-1-3.7c1.6-6.2-0.2-12.5-4.6-17
			c-3.3-3.3-7.6-5.1-12.2-5.2l6.8,6.8c1,1,1.4,2.4,1,3.7l-2.7,10c-0.4,1.3-1.4,2.4-2.7,2.7l-10,2.7c-1.3,0.4-2.8,0-3.8-1l-6.8-6.8
			c0.1,4.5,1.9,8.9,5.2,12.2c4.4,4.4,10.9,6.2,17,4.6C30.2,42.7,30.5,42.6,30.9,42.6L30.9,42.6z"/>
	</g>
	<path fill="#404447" d="M76.7,73.2c-1.8,0-3.2,1.4-3.2,3.2c0,1.8,1.4,3.2,3.2,3.2c1.8,0,3.2-1.4,3.2-3.2
		C79.9,74.7,78.5,73.2,76.7,73.2L76.7,73.2z"/>
</g>
</svg>
