<?xml version="1.0" encoding="utf-8"?>
<!-- Generator: Adobe Illustrator 18.1.1, SVG Export Plug-In . SVG Version: 6.00 Build 0)  -->
<svg version="1.1" id="Layer_1" xmlns="http://www.w3.org/2000/svg" xmlns:xlink="http://www.w3.org/1999/xlink" x="0px" y="0px"
	 viewBox="0 0 107.7 107.3" enable-background="new 0 0 107.7 107.3" xml:space="preserve">
<g>
	<path fill="#404447" d="M29.2,57.9c3.4,0,6.9,0,10.3,0c0.8,0,1.7,0.2,2.5,0.3c-0.5,0.6-0.9,1.3-1.5,1.9c-2.3,2.3-4.6,4.6-6.9,6.9
		c-3.1,3.1-6.1,6.2-9.2,9.2c-1.2,1.2-1.3,1.2-2.6,0c-1.8-1.8-3.6-3.6-5.4-5.4c-1.1-1-1.6-2-1.4-3.7c0.3-2.3-0.1-4.6-0.1-6.9
		c0-1.9,0.4-2.3,2.3-2.3C21.3,57.8,25.3,57.9,29.2,57.9z"/>
	<path fill="#404447" d="M81.1,49.4c-3.4-0.2-6.9-0.4-10.3-0.5c-1,0-2,0.3-3,0.3c-0.7,0-1.3-0.2-2-0.4c0.3-0.6,0.5-1.2,1-1.7
		c1.5-1.6,3-3,4.5-4.5c3.9-4,7.9-7.9,11.8-11.9c0.8-0.8,1.4-0.9,2.2,0c2,2.1,4,4.1,6,6c0.8,0.8,1.1,1.6,1.1,2.7
		c-0.1,2.5,0,5.1,0,7.6c0,1.8-0.4,2.1-2.2,2.2c-3,0.1-6.1,0-9.1,0C81.1,49.3,81.1,49.4,81.1,49.4z"/>
	<path fill="#404447" d="M58.3,28.9c0-3.8,0-7.5,0-11.3c0-1.8,0.1-1.9,1.9-1.9c2.6,0,5.3-0.1,7.9,0c0.8,0,1.8,0.4,2.4,0.9
		c2,1.8,4,3.7,5.9,5.6c0.8,0.8,0.9,1.6,0,2.6C70.9,30.3,65.5,35.7,60,41.2c-0.3,0.3-0.8,0.4-1.3,0.6c-0.1-0.5-0.4-0.9-0.4-1.4
		C58.3,36.6,58.3,32.7,58.3,28.9z"/>
	<path fill="#404447" d="M49.3,78.5c0,3.8,0,7.7,0,11.5c0,1.8-0.1,1.9-1.9,1.9c-2.6,0-5.3,0-7.9,0c-1.1,0-2-0.2-2.7-1
		c-1.9-2-3.8-3.9-5.8-5.8c-0.9-0.9-0.7-1.5,0.1-2.3c5.7-5.6,11.3-11.3,17-17c0.2-0.2,0.7-0.3,1-0.5c0.1,0.4,0.2,0.8,0.2,1.2
		C49.3,70.6,49.3,74.5,49.3,78.5C49.3,78.5,49.3,78.5,49.3,78.5z"/>
	<path fill="#404447" d="M78.9,58.4c3.8,0,7.5,0,11.3,0c2.2,0,2.2,0.1,2.3,2.1c0,1.9-0.1,3.9,0,5.8c0.1,1.6-0.4,2.8-1.4,3.9
		c-1.9,2-4,3.9-6,6c-0.8,0.8-1.4,0.6-2.1-0.1c-1.3-1.3-2.6-2.6-3.9-3.9C75.1,68.2,71,64.1,66.9,60c-0.3-0.3-0.6-0.8-0.9-1.2
		c0.5-0.1,1.1-0.4,1.6-0.4C71.4,58.4,75.1,58.4,78.9,58.4z"/>
	<path fill="#404447" d="M48.5,41.9C44.7,38,40.9,34.1,37,30.2c-1.8-1.9-3.7-3.8-5.6-5.6c-0.9-0.8-1.2-1.7-0.3-2.5
		c2-2,4.1-3.9,6.2-5.7c0.4-0.4,1.1-0.5,1.7-0.5c2.8-0.1,5.7,0,8.5,0c1.1,0,1.7,0.3,1.7,1.5c0,8.1,0,16.2,0,24.3
		C48.9,41.7,48.7,41.8,48.5,41.9z"/>
	<path fill="#404447" d="M58.4,78.3c0-3.6,0-7.3,0-10.9c0-0.5,0.2-1,0.3-1.4c0.4,0.2,1,0.2,1.3,0.6c5.5,5.4,10.9,10.9,16.4,16.3
		c0.8,0.8,0.7,1.4,0.1,2.1c-2,2-3.9,4-6,5.9c-0.4,0.4-1.1,0.6-1.6,0.6c-2.9,0.1-5.9,0.1-8.8,0c-1.6,0-1.7-0.1-1.7-1.8
		C58.3,85.8,58.4,82.1,58.4,78.3z"/>
	<path fill="#404447" d="M28.7,48.7c-3.8,0-7.5,0-11.3,0c-1.7,0-1.8-0.1-1.8-1.7c0-2.5,0-5.1,0-7.6c0-1,0.3-1.7,1-2.4
		c2-1.9,3.9-3.8,5.8-5.8c0.8-0.8,1.4-0.8,2.3,0c5.4,5.5,10.9,10.9,16.3,16.4c0.2,0.2,0.3,0.6,0.4,1c-0.3,0.1-0.6,0.2-0.9,0.2
		C36.6,48.7,32.6,48.7,28.7,48.7z"/>
	<path fill="#404447" d="M55.3,78.3c0,4.8,0,9.5,0,14.3c0,2.4,0,2.4,2.6,2.5c2.1,0,4.3,0,6.4,0c0.4,0,0.8,0.2,1.1,0.3
		c-0.2,0.4-0.4,0.8-0.7,1.2c-3.3,3.3-6.5,6.6-9.8,9.8c-1.2,1.2-1.4,1.2-2.7,0c-2.3-2.3-4.6-4.6-6.9-6.9c-1.1-1.1-2.3-2.3-3.4-3.5
		c-0.1-0.1-0.3-0.5-0.3-0.5c0.2-0.2,0.4-0.4,0.7-0.4c2.6,0,5.3,0,7.9,0c2,0,2-0.1,2-2.1c0-9.5,0-19.1,0-28.6c0-0.9,0-1.8,0.3-2.7
		c0.2-0.5,0.8-0.9,1.3-1c0.3-0.1,0.9,0.5,1.1,0.9c0.2,0.7,0.3,1.6,0.3,2.4C55.3,68.7,55.3,73.5,55.3,78.3z"/>
	<path fill="#404447" d="M24,92c-2.2,0-4.5,0-6.7,0c-1.9,0-2.3-0.3-2.3-2c-0.1-4.8,0-9.5,0-14.3c0-0.4,0.2-0.7,0.4-1.1
		c0.4,0.1,0.8,0.2,1.1,0.4c1.4,1.3,2.7,2.7,4.1,4.1c2.9,2.9,2.9,2.9,5.9-0.1c6.3-6.3,12.6-12.6,18.9-19c0.6-0.6,1.1-1.2,1.8-1.6
		c0.4-0.3,1.3-0.3,1.6-0.1c0.3,0.3,0.5,1.2,0.3,1.6c-0.3,0.7-1,1.3-1.5,1.9C41,68.3,34.4,74.9,27.8,81.5c-0.4,0.4-0.8,0.9-1.3,1.3
		c-1.1,0.8-0.7,1.4,0.1,2.2c1.8,1.8,3.6,3.6,5.4,5.4c0.3,0.3,0.4,0.8,0.6,1.3c-0.4,0.1-0.8,0.3-1.1,0.3C28.9,92,26.5,92,24,92
		C24,92,24,92,24,92z"/>
	<path fill="#404447" d="M41.5,11.8c0.2-0.3,0.3-0.5,0.5-0.7c3.3-3.4,6.7-6.7,10-10c1.4-1.3,1.4-1.3,2.7-0.1
		c3.4,3.3,6.8,6.7,10.1,10.1c0.2,0.2,0.3,0.5,0.5,0.7c-0.3,0.1-0.7,0.4-1,0.4c-2.4,0-4.9,0-7.3,0c-1.6,0-1.7,0.1-1.7,1.8
		c0,1.4,0,2.8,0,4.3c0,8,0,16,0,24c0,0.8,0,1.6,0,2.4c-0.1,1-0.6,1.9-1.6,1.9c-0.5,0-1.1-1.1-1.4-1.8c-0.2-0.6-0.1-1.4-0.1-2.1
		c0-9,0-18.1,0-27.1c0-3.8,0.3-3.4-3.4-3.4c-2.2,0-4.5,0-6.7-0.1C41.9,12.1,41.8,11.9,41.5,11.8z"/>
	<path fill="#404447" d="M92,32.7c-1.3-1.3-2.6-2.6-3.9-3.8c-0.9-0.9-1.8-1.7-2.6-2.6c-0.9-1-1.7-0.9-2.6,0c-1.6,1.7-3.3,3.3-5,5
		c-5.3,5.3-10.6,10.6-16,15.9c-0.6,0.6-1.1,1.2-1.8,1.6c-0.3,0.2-1.1,0.3-1.3,0c-0.3-0.4-0.7-1.2-0.5-1.6c0.4-0.8,1.1-1.4,1.7-2.1
		c6.5-6.5,13.1-13.1,19.6-19.6c0.5-0.5,1-1,1.5-1.5c0.8-0.7,0.7-1.3,0-2c-1.7-1.7-3.5-3.4-5.2-5.2c-0.8-0.8-0.6-1.4,0.5-1.6
		c0.4-0.1,0.8-0.1,1.2-0.1c4.1,0,8.1,0,12.2,0c2.1,0,2.4,0.3,2.4,2.2c0,4.9,0,9.8,0,14.6C92.4,32.2,92.3,32.3,92,32.7z"/>
	<path fill="#404447" d="M74.5,91.4c2.2-2.2,3.9-4,5.7-5.7c2.3-2.3,2-1.8,0.1-3.7c-6.7-6.7-13.3-13.4-20-20
		c-0.6-0.6-1.2-1.1-1.7-1.8c-0.6-0.8-0.2-1.6,0.8-1.7c0.8-0.1,1.4,0.1,2.1,0.8c7,7.1,14,14.2,21,21.2c1.4,1.4,1.4,1.4,2.9-0.1
		c1.9-1.8,3.7-3.7,5.6-5.6c0.2-0.2,0.7-0.3,1.1-0.3c0.1,0,0.3,0.5,0.3,0.8c0,4.9,0,9.7,0,14.6c0,0.8-0.3,1.4-1.2,1.4
		C85.9,91.4,80.5,91.4,74.5,91.4z"/>
	<path fill="#404447" d="M95.7,66c-0.1-1.1-0.2-1.7-0.2-2.3c0-1.7,0-3.5,0-5.2c-0.1-4.2,0.5-3.6-3.5-3.6c-9.2,0-18.5,0-27.7,0
		c-0.8,0-1.6,0-2.4-0.2c-0.4-0.1-1-0.7-0.9-1c0.1-0.5,0.5-1.1,1-1.3c0.7-0.2,1.6-0.1,2.4-0.1c9,0,18.1,0,27.1,0c0.8,0,1.6,0,2.4,0
		c1.1,0.1,1.7-0.3,1.6-1.6c-0.1-2.6,0-5.3,0-7.9c0-0.4,0.2-0.8,0.2-1.2c0.3,0.2,0.7,0.2,1,0.5c3.5,3.4,6.9,6.9,10.4,10.3
		c0.6,0.6,1,1.1,0.3,1.8C103.5,58.1,99.8,61.8,95.7,66z"/>
	<path fill="#404447" d="M15.8,32.9c-0.1-0.9-0.2-1.4-0.2-1.8c0-4.6,0-9.1,0-13.7c0-0.9,0.1-1.6,1.3-1.6c5.2,0,10.3,0,16.1,0
		c-2,2-3.5,3.6-5.1,5.1c-0.5,0.5-1,1-1.5,1.5c-0.5,0.6-0.5,1.3,0,1.9c0.5,0.6,1.1,1.2,1.7,1.8c6.4,6.4,12.8,12.8,19.2,19.2
		c0.6,0.6,1.2,1.2,1.6,1.8c0.2,0.3,0.2,0.9,0.1,1.1c-0.2,0.3-0.8,0.5-1,0.4c-0.8-0.3-1.7-0.7-2.3-1.3c-4.3-4.3-8.6-8.6-13-12.9
		c-2.7-2.7-5.3-5.3-8-8c-1.2-1.1-1.2-1.1-2.5,0C20.2,28.5,18.2,30.6,15.8,32.9z"/>
	<path fill="#404447" d="M11.3,65.7c-3.6-3.7-7.2-7.4-10.9-11c-0.6-0.6-0.6-1,0-1.5C4,49.5,7.6,46,11.2,42.4
		c0.1-0.1,0.4-0.1,0.8-0.2c0,2.7,0,5.3,0,7.9c0,2.1,0,2.2,2.2,2.2c9.8,0,19.5,0,29.3,0c0.7,0,1.5-0.1,2.1,0c0.5,0.1,1,0.6,1.4,0.9
		c-0.4,0.5-0.7,1.2-1.2,1.3c-0.8,0.3-1.8,0.3-2.7,0.3c-9.4,0-18.7,0-28.1,0c-3.5,0-3.2-0.4-3.2,3c0,2.5,0,5,0,7.6
		C11.8,65.5,11.6,65.6,11.3,65.7z"/>
</g>
</svg>
