<?xml version="1.0" encoding="utf-8"?>
<!-- Generator: Adobe Illustrator 18.1.1, SVG Export Plug-In . SVG Version: 6.00 Build 0)  -->
<svg version="1.1" id="Layer_1" xmlns="http://www.w3.org/2000/svg" xmlns:xlink="http://www.w3.org/1999/xlink" x="0px" y="0px"
	 viewBox="0 0 93.1 93.1" enable-background="new 0 0 93.1 93.1" xml:space="preserve">
<g>
	<g>
		<g>
			<path fill="#404447" d="M89.2,93.1H3.9c-2.2,0-3.9-1.8-3.9-3.9V3.9C0,1.8,1.8,0,3.9,0h85.2c2.2,0,3.9,1.8,3.9,3.9v85.2
				C93.1,91.3,91.3,93.1,89.2,93.1L89.2,93.1z M7.8,85.2h77.4V7.8H7.8V85.2L7.8,85.2z"/>
		</g>
		<g>
			<path fill="#404447" d="M87.8,28.7H5.3c-1.1,0-2-0.9-2-2c0-1.1,0.9-2,2-2h82.4c1.1,0,2,0.9,2,2C89.7,27.8,88.8,28.7,87.8,28.7
				L87.8,28.7z"/>
		</g>
		<path fill="#404447" d="M17.8,11.5c-2.7,0-4.9,2.2-4.9,4.9c0,2.7,2.2,4.9,4.9,4.9s4.9-2.2,4.9-4.9C22.7,13.7,20.5,11.5,17.8,11.5
			L17.8,11.5z"/>
		<path fill="#404447" d="M31.2,11.5c-2.7,0-4.9,2.2-4.9,4.9c0,2.7,2.2,4.9,4.9,4.9s4.9-2.2,4.9-4.9C36.1,13.7,33.9,11.5,31.2,11.5
			L31.2,11.5z"/>
		<path fill="#404447" d="M44.5,11.5c-2.7,0-4.9,2.2-4.9,4.9c0,2.7,2.2,4.9,4.9,4.9c2.7,0,4.9-2.2,4.9-4.9
			C49.5,13.7,47.2,11.5,44.5,11.5L44.5,11.5z"/>
	</g>
	<g>
		<g>
			<g>
				<path fill="#404447" d="M70,73.1h-25c-2.2,0-3.9-1.8-3.9-3.9c0-2.2,1.8-3.9,3.9-3.9h25c2.2,0,3.9,1.8,3.9,3.9
					C74,71.4,72.2,73.1,70,73.1L70,73.1z"/>
			</g>
		</g>
		<g>
			<g>
				<path fill="#404447" d="M23,73.1c-1,0-2-0.4-2.8-1.1c-1.5-1.5-1.5-4,0-5.5L31.7,55L20.3,43.5c-1.5-1.5-1.5-4,0-5.5
					c1.5-1.5,4-1.5,5.5,0L40,52.2c1.5,1.5,1.5,4,0,5.5L25.8,72C25.1,72.7,24.1,73.1,23,73.1L23,73.1z"/>
			</g>
		</g>
	</g>
</g>
</svg>
