<?xml version="1.0" encoding="utf-8"?>
<!-- Generator: Adobe Illustrator 18.1.1, SVG Export Plug-In . SVG Version: 6.00 Build 0)  -->
<svg version="1.1" id="Layer_1" xmlns="http://www.w3.org/2000/svg" xmlns:xlink="http://www.w3.org/1999/xlink" x="0px" y="0px"
	 viewBox="0 0 85.6 96.4" enable-background="new 0 0 85.6 96.4" xml:space="preserve">
<g>
	<g>
		<g>
			<path fill="#404447" d="M64.3,40.3H32.9c-1.1,0-2-0.9-2-2V20.5c0-1.1,0.9-2,2-2h31.4c1.1,0,2,0.9,2,2v17.7
				C66.3,39.4,65.4,40.3,64.3,40.3L64.3,40.3z M34.9,36.2h27.3V22.6H34.9V36.2L34.9,36.2z"/>
		</g>
		<g>
			<g>
				<path fill="#404447" d="M81.5,96.4H11.3c-2.3,0-4.1-1.8-4.1-4.1V4.1C7.2,1.8,9,0,11.3,0h70.2c2.3,0,4.1,1.8,4.1,4.1v88.3
					C85.6,94.6,83.7,96.4,81.5,96.4L81.5,96.4z M15.3,88.3h62V8.2h-62V88.3L15.3,88.3z"/>
			</g>
			<g>
				<path fill="#404447" d="M18.4,24.7H4.1c-2.3,0-4.1-1.8-4.1-4.1s1.8-4.1,4.1-4.1h14.3c2.3,0,4.1,1.8,4.1,4.1S20.7,24.7,18.4,24.7
					L18.4,24.7z"/>
			</g>
			<g>
				<path fill="#404447" d="M18.4,42.9H4.1c-2.3,0-4.1-1.8-4.1-4.1c0-2.3,1.8-4.1,4.1-4.1h14.3c2.3,0,4.1,1.8,4.1,4.1
					C22.5,41.1,20.7,42.9,18.4,42.9L18.4,42.9z"/>
			</g>
			<g>
				<path fill="#404447" d="M18.4,61.2H4.1c-2.3,0-4.1-1.8-4.1-4.1C0,54.9,1.8,53,4.1,53h14.3c2.3,0,4.1,1.8,4.1,4.1
					C22.5,59.4,20.7,61.2,18.4,61.2L18.4,61.2z"/>
			</g>
			<g>
				<path fill="#404447" d="M18.4,79.5H4.1c-2.3,0-4.1-1.8-4.1-4.1c0-2.3,1.8-4.1,4.1-4.1h14.3c2.3,0,4.1,1.8,4.1,4.1
					C22.5,77.7,20.7,79.5,18.4,79.5L18.4,79.5z"/>
			</g>
		</g>
	</g>
	<g>
		<g>
			<g>
				<path fill="#404447" d="M46.8,83.7c-0.2,0-0.4-0.1-0.6-0.2c-0.3-0.2-0.5-0.5-0.5-0.9V61.3c0-0.4,0.3-0.8,0.7-1l12-4.5
					c0.3-0.1,0.7-0.1,1,0.1c0.3,0.2,0.5,0.5,0.5,0.9v21.3c0,0.4-0.3,0.8-0.7,1l-12,4.5C47,83.7,46.9,83.7,46.8,83.7L46.8,83.7z
					 M47.9,62.1v19l9.9-3.7v-19L47.9,62.1L47.9,62.1z"/>
			</g>
			<g>
				<path fill="#404447" d="M49.3,66.5c-0.2,0-0.4-0.1-0.5-0.3c-0.1-0.3,0-0.6,0.3-0.7l7.2-2.7c0.3-0.1,0.6,0,0.7,0.3
					c0.1,0.3,0,0.6-0.3,0.7l-7.2,2.7C49.4,66.5,49.3,66.5,49.3,66.5L49.3,66.5z"/>
			</g>
			<g>
				<path fill="#404447" d="M49.3,73.4c-0.2,0-0.4-0.1-0.5-0.3c-0.1-0.3,0-0.6,0.3-0.7l7.2-2.7c0.3-0.1,0.6,0,0.7,0.3
					c0.1,0.3,0,0.6-0.3,0.7l-7.2,2.7C49.4,73.4,49.3,73.4,49.3,73.4L49.3,73.4z"/>
			</g>
			<g>
				<path fill="#404447" d="M49.3,76.9c-0.2,0-0.4-0.1-0.5-0.3c-0.1-0.3,0-0.6,0.3-0.7l7.2-2.7c0.3-0.1,0.6,0,0.7,0.3
					c0.1,0.3,0,0.6-0.3,0.7l-7.2,2.7C49.4,76.9,49.3,76.9,49.3,76.9L49.3,76.9z"/>
			</g>
			<g>
				<path fill="#404447" d="M49.3,70c-0.2,0-0.4-0.1-0.5-0.3c-0.1-0.3,0-0.6,0.3-0.7l7.2-2.7c0.3-0.1,0.6,0,0.7,0.3
					c0.1,0.3,0,0.6-0.3,0.7l-7.2,2.7C49.4,70,49.3,70,49.3,70L49.3,70z"/>
			</g>
		</g>
		<g>
			<g>
				<path fill="#404447" d="M66.4,81.5c-0.3,0-0.5-0.2-0.5-0.5v-6.2c0-0.2,0.1-0.3,0.2-0.4c0.1-0.1,0.3-0.1,0.5-0.1l4.4,1.7
					c0.3,0.1,0.4,0.4,0.3,0.7c-0.1,0.3-0.4,0.4-0.7,0.3l-3.7-1.4v5.4C66.9,81.2,66.7,81.5,66.4,81.5L66.4,81.5z"/>
			</g>
			<g>
				<path fill="#404447" d="M66.4,82c-0.1,0-0.3,0-0.4-0.1l-7.6-2.9c-0.4-0.2-0.7-0.6-0.7-1V56.8c0-0.4,0.2-0.7,0.5-0.9
					c0.3-0.2,0.7-0.2,1-0.1l12,4.5c0.4,0.2,0.7,0.6,0.7,1l0,15c0,0.3-0.1,0.5-0.3,0.7l-4.4,4.5C66.9,81.9,66.7,82,66.4,82L66.4,82z
					 M59.9,77.3l6.2,2.4l3.6-3.7l0-13.9l-9.9-3.7V77.3L59.9,77.3z"/>
			</g>
			<g>
				<path fill="#404447" d="M68.5,66.6c-0.1,0-0.1,0-0.2,0l-7.2-2.7c-0.3-0.1-0.4-0.4-0.3-0.7c0.1-0.3,0.4-0.4,0.7-0.3l7.2,2.7
					c0.3,0.1,0.4,0.4,0.3,0.7C69,66.5,68.8,66.6,68.5,66.6L68.5,66.6z"/>
			</g>
			<g>
				<path fill="#404447" d="M68.5,73.5c-0.1,0-0.1,0-0.2,0l-7.2-2.7c-0.3-0.1-0.4-0.4-0.3-0.7c0.1-0.3,0.4-0.4,0.7-0.3l7.2,2.7
					c0.3,0.1,0.4,0.4,0.3,0.7C69,73.4,68.8,73.5,68.5,73.5L68.5,73.5z"/>
			</g>
			<g>
				<path fill="#404447" d="M68.5,70.1c-0.1,0-0.1,0-0.2,0l-7.2-2.7c-0.3-0.1-0.4-0.4-0.3-0.7c0.1-0.3,0.4-0.4,0.7-0.3l7.2,2.7
					c0.3,0.1,0.4,0.4,0.3,0.7C69,69.9,68.8,70.1,68.5,70.1L68.5,70.1z"/>
			</g>
		</g>
	</g>
</g>
</svg>
