<?xml version="1.0" encoding="utf-8"?>
<!-- Generator: Adobe Illustrator 18.1.1, SVG Export Plug-In . SVG Version: 6.00 Build 0)  -->
<svg version="1.1" id="Layer_1" xmlns="http://www.w3.org/2000/svg" xmlns:xlink="http://www.w3.org/1999/xlink" x="0px" y="0px"
	 viewBox="0 0 98.2 83.3" enable-background="new 0 0 98.2 83.3" xml:space="preserve">
<g>
	<g>
		<path fill="#404447" d="M93.7,83.3H4.4c-2.5,0-4.4-2-4.4-4.4V4.4C0,2,2,0,4.4,0h89.3c2.5,0,4.4,2,4.4,4.4v74.4
			C98.2,81.3,96.2,83.3,93.7,83.3L93.7,83.3z M8.9,74.4h80.4V8.9H8.9V74.4L8.9,74.4z"/>
	</g>
	<g>
		<path fill="#404447" d="M80.4,67.8H17.8c-1.2,0-2.2-1-2.2-2.2V17.8c0-1.2,1-2.2,2.2-2.2h62.7c1.2,0,2.2,1,2.2,2.2v47.8
			C82.6,66.8,81.7,67.8,80.4,67.8L80.4,67.8z M20,63.3h58.2V20H20V63.3L20,63.3z"/>
	</g>
</g>
</svg>
