<?xml version="1.0" encoding="utf-8"?>
<!-- Generator: Adobe Illustrator 18.1.1, SVG Export Plug-In . SVG Version: 6.00 Build 0)  -->
<svg version="1.1" id="Layer_1" xmlns="http://www.w3.org/2000/svg" xmlns:xlink="http://www.w3.org/1999/xlink" x="0px" y="0px"
	 viewBox="0 0 600 600" enable-background="new 0 0 600 600" xml:space="preserve">
<g>
	<g>
		<g>
			<path fill="#404447" d="M361.4,430.6c-6.5,0-12.9-2.6-18.1-7.1c-9.7-9.7-9.7-25.9,0-35.6l87.9-87.9L344,212.1
				c-9.7-9.7-9.7-25.9,0-35.6s25.9-9.7,35.6,0l105.4,105.4c9.7,9.7,9.7,25.9,0,35.6l-105.4,106C374.4,428,367.9,430.6,361.4,430.6
				L361.4,430.6z"/>
		</g>
		<g>
			<path fill="#404447" d="M133.2,325.2c-13.6,0-25.2-11-25.2-25.2c0-13.6,11-25.2,25.2-25.2h305.2c14.2,0,25.2,11,25.2,25.2
				c0,13.6-11,25.2-25.2,25.2H133.2L133.2,325.2z"/>
		</g>
	</g>
	<g>
		<path fill="#404447" d="M574.8,600H25.2C11,600,0,589,0,574.8V25.2C0,11,11,0,25.2,0h549.6C589,0,600,11,600,25.2v549.6
			C600,589,589,600,574.8,600L574.8,600z M50.4,549.6h499.1V50.4H50.4V549.6L50.4,549.6z"/>
	</g>
</g>
</svg>
