<?xml version="1.0" encoding="utf-8"?>
<!-- Generator: Adobe Illustrator 18.1.1, SVG Export Plug-In . SVG Version: 6.00 Build 0)  -->
<svg version="1.1" id="Layer_1" xmlns="http://www.w3.org/2000/svg" xmlns:xlink="http://www.w3.org/1999/xlink" x="0px" y="0px"
	 viewBox="0 0 59.8 80" enable-background="new 0 0 59.8 80" xml:space="preserve">
<g>
	<g>
		<path fill="#404447" d="M30.2,37.2c-9.2,0-16.6-8.3-16.6-18.6C13.6,8.3,21,0,30.2,0c9.2,0,16.6,8.3,16.6,18.6
			C46.8,28.9,39.3,37.2,30.2,37.2L30.2,37.2z M30.2,6.9c-5.3,0-9.7,5.2-9.7,11.7c0,6.4,4.3,11.7,9.7,11.7c5.3,0,9.7-5.2,9.7-11.7
			C39.9,12.2,35.5,6.9,30.2,6.9L30.2,6.9z"/>
	</g>
	<g>
		<path fill="#404447" d="M55.2,80H4.6c-1.8,0-3.3-1.4-3.5-3.2L0,60.5c-0.4-6,4.3-12.9,10.2-15.1c12.7-4.6,26.7-4.5,39.3,0
			c6,2.2,10.6,9.1,10.2,15.1l-1.1,16.3C58.5,78.6,57,80,55.2,80L55.2,80z M7.8,73.1H52L52.8,60c0.2-2.7-2.3-6.9-5.7-8.2
			c-11.1-4-23.5-4-34.6,0c-3.3,1.2-5.8,5.5-5.7,8.2L7.8,73.1L7.8,73.1z"/>
	</g>
</g>
</svg>
