<?xml version="1.0" encoding="utf-8"?>
<!-- Generator: Adobe Illustrator 18.1.1, SVG Export Plug-In . SVG Version: 6.00 Build 0)  -->
<svg version="1.1" id="Layer_1" xmlns="http://www.w3.org/2000/svg" xmlns:xlink="http://www.w3.org/1999/xlink" x="0px" y="0px"
	 viewBox="0 0 90.9 111.8" enable-background="new 0 0 90.9 111.8" xml:space="preserve">
<g>
	<g>
		<path fill="#404447" d="M89.1,23.9h-4.2V104c0,1-0.8,1.8-1.8,1.8H23.9v4.2c0,1,0.8,1.8,1.8,1.8h0l0,0h63.4c1,0,1.8-0.8,1.8-1.8
			V25.7C90.9,24.7,90.1,23.9,89.1,23.9z"/>
		<path fill="#404447" d="M78.9,98V13.7c0-1-0.8-1.8-1.8-1.8H73V92c0,1-0.8,1.8-1.8,1.8H11.9V98c0,1,0.8,1.8,1.8,1.8l0,0h63.4
			C78.1,99.8,78.9,99,78.9,98z"/>
		<path fill="#404447" d="M26.2,58.2h-7.4v-11h29.5v11h-7.8c-1,0-1.8,0.8-1.8,1.8v2.5H28V60C28,59,27.2,58.2,26.2,58.2z"/>
		<path fill="#404447" d="M42.3,61.8h8.1v9.1h-34v-9.1h8v0.7c0,2,1.6,3.6,3.6,3.6h10.7c2,0,3.6-1.6,3.6-3.6V61.8z"/>
		<path fill="#404447" d="M65.2,0H1.8C0.8,0,0,0.8,0,1.8v84.3c0,1,0.8,1.8,1.8,1.8h63.4c1,0,1.8-0.8,1.8-1.8V1.8
			C67,0.8,66.2,0,65.2,0z M20.8,36.5h25.5c0.5,0,0.9,0.4,0.9,0.9c0,0.5-0.4,0.9-0.9,0.9H20.8c-0.5,0-0.9-0.4-0.9-0.9
			C20,36.9,20.4,36.5,20.8,36.5z M19.1,40h28.9c0.5,0,0.9,0.4,0.9,0.9c0,0.5-0.4,0.9-0.9,0.9H19.1c-0.5,0-0.9-0.4-0.9-0.9
			C18.2,40.4,18.6,40,19.1,40z M53.9,72.7c0,1-0.8,1.8-1.8,1.8H14.6c-1,0-1.8-0.8-1.8-1.8V60c0-1,0.8-1.8,1.8-1.8h0.7V45.4
			c0-1,0.8-1.8,1.8-1.8h33.1c1,0,1.8,0.8,1.8,1.8v12.8h0.2c1,0,1.8,0.8,1.8,1.8V72.7z"/>
	</g>
</g>
</svg>
