<?xml version="1.0" encoding="utf-8"?>
<!-- Generator: Adobe Illustrator 18.1.1, SVG Export Plug-In . SVG Version: 6.00 Build 0)  -->
<svg version="1.1" id="Layer_1" xmlns="http://www.w3.org/2000/svg" xmlns:xlink="http://www.w3.org/1999/xlink" x="0px" y="0px"
	 viewBox="0 0 94.7 94.7" enable-background="new 0 0 94.7 94.7" xml:space="preserve">
<g>
	<g>
		<g>
			<path fill="#404447" d="M27.7,41.7c-0.5,0-1-0.2-1.4-0.5l-6.5-5.6c-0.6-0.5-0.8-1.2-0.7-2c0.1-0.7,0.6-1.4,1.3-1.6l18.6-7.4
				c0.7-0.3,1.6-0.2,2.2,0.4l6.5,5.6c0.6,0.5,0.8,1.2,0.7,2c-0.1,0.7-0.6,1.4-1.3,1.6l-18.6,7.4C28.2,41.7,28,41.7,27.7,41.7
				L27.7,41.7z M25.2,34.6l2.9,2.5l14.1-5.6L39.3,29L25.2,34.6L25.2,34.6z"/>
		</g>
		<g>
			<path fill="#404447" d="M45.9,72.5c-0.4,0-0.9-0.1-1.3-0.4c-0.6-0.4-0.9-1-0.9-1.7v-21c0-1.2,1-2.1,2.1-2.1s2.1,1,2.1,2.1v18
				l18-5.7v-9.6c0-1.2,1-2.1,2.1-2.1c1.2,0,2.1,1,2.1,2.1v11.1c0,0.9-0.6,1.8-1.5,2l-22.3,7.1C46.4,72.5,46.1,72.5,45.9,72.5
				L45.9,72.5z"/>
		</g>
		<g>
			<path fill="#404447" d="M58.1,56.5c-0.5,0-1-0.2-1.4-0.5l-6.5-5.6c-0.6-0.5-0.8-1.2-0.7-2c0.1-0.7,0.6-1.4,1.3-1.6l18.6-7.4
				c0.7-0.3,1.6-0.2,2.2,0.4l6.5,5.6c0.6,0.5,0.8,1.2,0.7,2c-0.1,0.7-0.6,1.4-1.3,1.6l-18.6,7.4C58.6,56.5,58.3,56.5,58.1,56.5
				L58.1,56.5z M55.6,49.4l2.9,2.5l14.1-5.6l-2.9-2.5L55.6,49.4L55.6,49.4z"/>
		</g>
		<g>
			<path fill="#404447" d="M68.2,41.3c-0.3,0-0.5-0.1-0.8-0.2l-18.6-7.4c-0.7-0.3-1.2-0.9-1.3-1.6c-0.1-0.7,0.1-1.4,0.6-2l6.4-6.2
				c0.6-0.6,1.5-0.8,2.3-0.5L75.4,31c0.7,0.3,1.2,0.9,1.3,1.6c0.1,0.7-0.1,1.4-0.6,2l-6.4,6.2C69.3,41.1,68.8,41.3,68.2,41.3
				L68.2,41.3z M53.5,31l14.3,5.7l3-2.9L56.5,28L53.5,31L53.5,31z"/>
		</g>
		<g>
			<path fill="#404447" d="M45.6,72.5c-0.3,0-0.5-0.1-0.8-0.2l-17.2-7.1c-0.8-0.3-1.3-1.1-1.3-2V53c0-1.2,1-2.1,2.1-2.1
				c1.2,0,2.1,1,2.1,2.1v8.9l15.9,6.5c1.1,0.4,1.6,1.7,1.2,2.8C47.2,72,46.4,72.5,45.6,72.5L45.6,72.5z"/>
		</g>
		<g>
			<path fill="#404447" d="M39.5,57.7c-0.3,0-0.5-0.1-0.8-0.2l-18.6-7.5c-0.7-0.3-1.2-0.9-1.3-1.6c-0.1-0.7,0.1-1.4,0.6-2l6.4-6.2
				c0.6-0.6,1.5-0.8,2.3-0.5l18.6,7.4c0.7,0.3,1.2,0.9,1.3,1.6c0.1,0.7-0.1,1.4-0.6,2L41,57.1C40.6,57.5,40.1,57.7,39.5,57.7
				L39.5,57.7z M24.7,47.4L39,53.1l3-2.9l-14.3-5.7L24.7,47.4L24.7,47.4z"/>
		</g>
	</g>
	<g>
		<path fill="#404447" d="M90.8,94.7H4c-2.2,0-4-1.8-4-4V4c0-2.2,1.8-4,4-4h86.8c2.2,0,4,1.8,4,4v86.8C94.7,93,93,94.7,90.8,94.7
			L90.8,94.7z M7.9,86.8h78.8V7.9H7.9V86.8L7.9,86.8z"/>
	</g>
</g>
</svg>
