<?xml version="1.0" encoding="utf-8"?>
<!-- Generator: Adobe Illustrator 18.1.1, SVG Export Plug-In . SVG Version: 6.00 Build 0)  -->
<svg version="1.1" id="Layer_1" xmlns="http://www.w3.org/2000/svg" xmlns:xlink="http://www.w3.org/1999/xlink" x="0px" y="0px"
	 viewBox="0 0 93.1 93.1" enable-background="new 0 0 93.1 93.1" xml:space="preserve">
<g>
	<path fill="#404447" d="M46.4,71c11.6,0,21.5-3.1,24.9-7.4v-6.8c-0.1-0.2-0.3-0.3-0.4-0.5c-3.4,4.4-13.3,7.5-25,7.5
		c-11.2,0-20.7-2.9-24.5-6.9c0,0-0.1,0.1-0.1,0.1v6.5C24.6,67.8,34.6,71,46.4,71z"/>
	<path fill="#404447" d="M27.2,52.8c4.8,2.1,11.6,3.4,19.1,3.4s14.3-1.3,19.1-3.4c2.2-1,4-2.1,5.2-3.3c0.2-0.2,0.4-0.5,0.6-0.7v-6.8
		c-0.1-0.2-0.3-0.3-0.4-0.5c-1.2,1.5-3.2,2.9-5.9,4.1C60.2,47.6,53.4,49,45.9,49c-7.5,0-14.3-1.3-19.1-3.4c-2.3-1-4.2-2.2-5.4-3.5
		c0,0-0.1,0.1-0.1,0.1v6.5c0.1,0.1,0.2,0.2,0.3,0.3C22.8,50.3,24.7,51.7,27.2,52.8z"/>
	<path fill="#404447" d="M27.4,37.8c4.5,2.2,11.3,3.5,18.8,3.5c7.6,0,14.3-1.4,18.9-3.6c2.3-1.1,4-2.4,5-3.9
		c0.6-0.9,0.9-1.8,0.9-2.8C71,25.5,59.9,21,46.2,21c-13.7,0-24.8,4.6-24.8,10.2c0,0.8,0.2,1.6,0.6,2.3C23,35.1,24.9,36.6,27.4,37.8z
		"/>
	<path fill="#404447" d="M89.2,0H3.9C1.8,0,0,1.7,0,3.9v85.3c0,2.2,1.8,3.9,3.9,3.9h85.3c2.2,0,3.9-1.8,3.9-3.9V3.9
		C93.1,1.7,91.4,0,89.2,0z M85.3,85.3H7.8V7.8h77.5V85.3z"/>
</g>
</svg>
