<?xml version="1.0" encoding="utf-8"?>
<!-- Generator: Adobe Illustrator 18.1.1, SVG Export Plug-In . SVG Version: 6.00 Build 0)  -->
<svg version="1.1" id="Layer_1" xmlns="http://www.w3.org/2000/svg" xmlns:xlink="http://www.w3.org/1999/xlink" x="0px" y="0px"
	 viewBox="0 0 99.3 87.9" enable-background="new 0 0 99.3 87.9" xml:space="preserve">
<g>
	<g>
		<path fill="#404447" d="M93.7,71.7H62.5c-1.4,0-2.7-0.7-3.5-1.9l-8.2-12.5c-1.3-1.9-0.7-4.5,1.2-5.8c1.9-1.3,4.5-0.7,5.8,1.2
			l7,10.6h29c2.3,0,4.2,1.9,4.2,4.2C97.9,69.9,96.1,71.7,93.7,71.7L93.7,71.7z"/>
	</g>
	<g>
		<path fill="#404447" d="M42,37.5c-1.4,0-2.8-0.7-3.6-2l-6.6-10.9H4.2c-2.3,0-4.2-1.9-4.2-4.2c0-2.3,1.9-4.2,4.2-4.2h30
			c1.5,0,2.8,0.8,3.6,2l7.9,13c1.2,2,0.6,4.6-1.4,5.8C43.5,37.3,42.8,37.5,42,37.5L42,37.5z"/>
	</g>
	<g>
		<path fill="#404447" d="M34.2,71.7h-30c-2.3,0-4.2-1.9-4.2-4.2c0-2.3,1.9-4.2,4.2-4.2h27.6l27.1-45.1c0.8-1.3,2.1-2,3.6-2h31.2
			c2.3,0,4.2,1.9,4.2,4.2c0,2.3-1.9,4.2-4.2,4.2H64.9L37.8,69.7C37,71,35.7,71.7,34.2,71.7L34.2,71.7z"/>
	</g>
	<g>
		<path fill="#404447" d="M78.8,41c-1.1,0-2.2-0.4-3-1.2c-1.6-1.6-1.6-4.3,0-5.9l13.3-13.3L75.9,7.2c-1.6-1.6-1.6-4.3,0-5.9
			c1.6-1.6,4.3-1.6,5.9,0l16.3,16.3c1.6,1.6,1.6,4.3,0,5.9L81.8,39.7C81,40.5,79.9,41,78.8,41L78.8,41z"/>
	</g>
	<g>
		<path fill="#404447" d="M78.8,87.9c-1.1,0-2.2-0.4-3-1.2c-1.6-1.6-1.6-4.3,0-5.9l13.3-13.3L75.9,54.1c-1.6-1.6-1.6-4.3,0-5.9
			c1.6-1.6,4.3-1.6,5.9,0l16.3,16.3c1.6,1.6,1.6,4.3,0,5.9L81.8,86.7C81,87.5,79.9,87.9,78.8,87.9L78.8,87.9z"/>
	</g>
</g>
</svg>
