<svg xmlns="http://www.w3.org/2000/svg" viewBox="0 0 105.6 63.2"><path fill="#404447" d="M31.6 63.2C14.2 63.2 0 49 0 31.6 0 14.2 14.2 0 31.6 0c11.2 0 21.6 6.1 27.2 15.6h30.8c8.8 0 16 7.2 16 16 0 7.9-6 14.7-13.8 15.8l-2 .3-1.5-1.5-2.8-3.1-5.5 6.3-5.5-6.3-3.8 4.3-2 .2H59c-5.8 9.6-16.2 15.6-27.4 15.6zm0-54.9C18.8 8.3 8.3 18.8 8.3 31.6s10.4 23.3 23.3 23.3c8.9 0 17.1-5.2 21-13.3l1.1-2.4h12.9l7.7-8.8 5.5 6.3 5.5-6.3 7.2 8.1c2.7-1.2 4.6-3.9 4.6-7 0-4.2-3.4-7.6-7.6-7.6H53.7l-1.1-2.4c-3.9-8-12.1-13.2-21-13.2z"/><path fill="#404447" d="M23.8 25.7c-3.3 0-5.9 2.6-5.9 5.9s2.6 5.9 5.9 5.9 5.9-2.6 5.9-5.9-2.7-5.9-5.9-5.9z"/></svg>