<svg xmlns="http://www.w3.org/2000/svg" viewBox="0 0 105 100.1"><g fill="#404447"><path d="M22.1 38.6C12 38.6 3.5 36 0 32.4l-.1.1v5.8c3 4 12 6.8 22.6 6.8 10.5 0 19.3-2.8 22.4-6.7v-6.1c-.1-.2-.2-.3-.4-.5-2.9 3.9-11.9 6.8-22.4 6.8zM44.6 18.5c-1.1 1.4-2.9 2.7-5.3 3.7-4.3 1.8-10.4 3-17.2 3-6.8 0-12.9-1.2-17.2-3.1-2.1-.9-3.7-2-4.9-3.2V24.8c.1.1.1.2.2.3 1.1 1.3 2.9 2.5 5.1 3.5 4.3 1.9 10.4 3.1 17.2 3.1s12.9-1.2 17.2-3.1c2-.9 3.6-1.9 4.7-3 .2-.2.4-.4.5-.6v-6.1c0-.2-.1-.3-.3-.4zM5.5 15.2c4.1 2 10.1 3.2 16.9 3.2 6.8 0 12.9-1.3 17-3.2 2.1-1 3.6-2.2 4.5-3.5.5-.8.8-1.6.8-2.5 0-5.1-10-9.2-22.3-9.2S.2 4.1.2 9.2c0 .7.2 1.4.6 2.1.8 1.5 2.4 2.8 4.7 3.9zM82.1 38.6C72 38.6 63.5 36 60 32.4l-.1.1v5.8c3 4 12 6.8 22.6 6.8 10.5 0 19.3-2.8 22.4-6.7v-6.1c-.1-.2-.2-.3-.4-.5-2.9 3.9-11.9 6.8-22.4 6.8zM104.6 18.5c-1.1 1.4-2.9 2.7-5.3 3.7-4.3 1.8-10.4 3-17.2 3-6.8 0-12.9-1.2-17.2-3.1-2.1-.9-3.7-2-4.9-3.2 0 0 0 .1-.1.1v5.8c.1.1.1.2.2.3 1.1 1.3 2.9 2.5 5.1 3.5 4.3 1.9 10.4 3.1 17.2 3.1s12.9-1.2 17.2-3.1c2-.9 3.6-1.9 4.7-3 .2-.2.4-.4.5-.6v-6.1c.1-.2 0-.3-.2-.4zM65.5 15.2c4.1 2 10.1 3.2 16.9 3.2 6.8 0 12.9-1.3 17-3.2 2.1-1 3.6-2.2 4.5-3.5.5-.8.8-1.6.8-2.5 0-5.1-10-9.2-22.3-9.2S60.2 4.1 60.2 9.2c0 .7.2 1.4.6 2.1.8 1.5 2.4 2.8 4.7 3.9z"/><g><path d="M22.1 93.6C12 93.6 3.5 91 0 87.4l-.1.1v5.8c3 4 12 6.8 22.6 6.8 10.5 0 19.3-2.8 22.4-6.7v-6.1c-.1-.2-.2-.3-.4-.5-2.9 3.9-11.9 6.8-22.4 6.8zM44.6 73.5c-1.1 1.4-2.9 2.7-5.3 3.7-4.3 1.8-10.4 3-17.2 3-6.8 0-12.9-1.2-17.2-3.1-2.1-.9-3.7-2-4.9-3.2V79.8c.1.1.1.2.2.3 1.1 1.3 2.9 2.5 5.1 3.5 4.3 1.9 10.4 3.1 17.2 3.1s12.9-1.2 17.2-3.1c2-.9 3.6-1.9 4.7-3 .2-.2.4-.4.5-.6v-6.1c0-.2-.1-.3-.3-.4zM5.5 70.2c4.1 2 10.1 3.2 16.9 3.2 6.8 0 12.9-1.3 17-3.2 2.1-1 3.6-2.2 4.5-3.5.5-.8.8-1.6.8-2.5 0-5.1-10-9.2-22.3-9.2S.1 59.1.1 64.2c0 .7.2 1.4.6 2.1.9 1.5 2.5 2.8 4.8 3.9z"/></g><g><path d="M82.1 93.6C72 93.6 63.5 91 60 87.4l-.1.1v5.8c3 4 12 6.8 22.6 6.8 10.5 0 19.3-2.8 22.4-6.7v-6.1c-.1-.2-.2-.3-.4-.5-2.9 3.9-11.9 6.8-22.4 6.8zM104.6 73.5c-1.1 1.4-2.9 2.7-5.3 3.7-4.3 1.8-10.4 3-17.2 3-6.8 0-12.9-1.2-17.2-3.1-2.1-.9-3.7-2-4.9-3.2 0 0 0 .1-.1.1v5.8c.1.1.1.2.2.3 1.1 1.3 2.9 2.5 5.1 3.5 4.3 1.9 10.4 3.1 17.2 3.1s12.9-1.2 17.2-3.1c2-.9 3.6-1.9 4.7-3 .2-.2.4-.4.5-.6v-6.1c.1-.2 0-.3-.2-.4zM65.5 70.2c4.1 2 10.1 3.2 16.9 3.2 6.8 0 12.9-1.3 17-3.2 2.1-1 3.6-2.2 4.5-3.5.5-.8.8-1.6.8-2.5 0-5.1-10-9.2-22.3-9.2s-22.3 4.1-22.3 9.2c0 .7.2 1.4.6 2.1.9 1.5 2.5 2.8 4.8 3.9z"/></g></g></svg>