<svg xmlns="http://www.w3.org/2000/svg" viewBox="0 0 600 600"><path fill="#404447" d="M530.1 7.9H69.9C31.5 7.9 0 39.3 0 77.8v444.5c0 38.4 31.5 69.9 69.9 69.9h460.2c38.4 0 69.9-31.5 69.9-69.9V77.8c0-38.5-31.5-69.9-69.9-69.9zM263.9 379.5c0 53.6-42.5 96.7-94.4 96.7-48.9 0-89.7-39-93.8-88.5h-1.2l.6-183.5h.6c1.2-52.4 43.1-95 94.4-95s93.2 43.1 93.8 95.5l-.6 164.9c.6 3.5.6 6.4.6 9.9zm247 17.5v139.8H378.6v-.6c-7.6 0-15.1-1.2-22.1-2.9-8.2-2.3-15.7-5.8-22.7-9.9-25.6-15.7-42.5-43.7-42.5-75.7V302.6h132.2c48.3 1.2 86.8 40.2 86.8 88.5.6 1.8 0 4.1.6 5.9zm12.8-202.7c-1.7 49.5-41.4 89.1-89.7 89.1h-5.2l-139.8-.6.6-133.4v-2.3c1.2-49.5 40.8-89.1 89.1-89.1h5.8l139.8.6-.6 135.7z"/><path fill="#404447" d="M221.9 201.3v3.5c-1.7 25.6-25 45.4-52.4 45.4-28 0-50.7-20.4-52.4-46v-3.5c0-26.8 23.9-48.9 53-48.9 28.5.5 51.8 22.1 51.8 49.5z"/></svg>