<svg xmlns="http://www.w3.org/2000/svg" viewBox="0 0 104.9 104.9"><path fill="#404447" d="M102.9 47.8L57.1 2c-2.6-2.6-6.9-2.6-9.6 0L38 11.5l12.1 12.1c2.8-.9 6-.3 8.3 1.9 2.2 2.2 2.9 5.5 1.9 8.3l11.6 11.6c2.8-1 6.1-.3 8.3 1.9 3.1 3.1 3.1 8.2 0 11.4-3.1 3.1-8.2 3.1-11.4 0-2.4-2.4-2.9-5.8-1.7-8.7L56.2 39.1v28.5c.8.4 1.5.9 2.1 1.5 3.1 3.1 3.1 8.2 0 11.4-3.1 3.1-8.2 3.1-11.4 0-3.1-3.1-3.1-8.2 0-11.4.8-.8 1.7-1.4 2.6-1.8V38.6c-1-.4-1.9-1-2.6-1.8-2.4-2.4-2.9-5.9-1.7-8.8L33.4 16.2 2 47.6c-2.6 2.6-2.6 6.9 0 9.6L47.8 103c2.6 2.6 6.9 2.6 9.6 0L103 57.4c2.5-2.7 2.5-7-.1-9.6z"/></svg>