<svg xmlns="http://www.w3.org/2000/svg" viewBox="0 0 90.9 111.8"><g fill="#404447"><path d="M89.1 23.9h-4.2V104c0 1-.8 1.8-1.8 1.8H23.9v4.2c0 1 .8 1.8 1.8 1.8h63.4c1 0 1.8-.8 1.8-1.8V25.7c0-1-.8-1.8-1.8-1.8zM78.9 98V13.7c0-1-.8-1.8-1.8-1.8H73V92c0 1-.8 1.8-1.8 1.8H11.9V98c0 1 .8 1.8 1.8 1.8h63.4c1 0 1.8-.8 1.8-1.8zM26.2 58.2h-7.4v-11h29.5v11h-7.8c-1 0-1.8.8-1.8 1.8v2.5H28V60c0-1-.8-1.8-1.8-1.8zM42.3 61.8h8.1v9.1h-34v-9.1h8v.7c0 2 1.6 3.6 3.6 3.6h10.7c2 0 3.6-1.6 3.6-3.6v-.7z"/><path d="M65.2 0H1.8C.8 0 0 .8 0 1.8v84.3c0 1 .8 1.8 1.8 1.8h63.4c1 0 1.8-.8 1.8-1.8V1.8c0-1-.8-1.8-1.8-1.8zM20.8 36.5h25.5c.5 0 .9.4.9.9s-.4.9-.9.9H20.8c-.5 0-.9-.4-.9-.9.1-.5.5-.9.9-.9zM19.1 40H48c.5 0 .9.4.9.9s-.4.9-.9.9H19.1c-.5 0-.9-.4-.9-.9s.4-.9.9-.9zm34.8 32.7c0 1-.8 1.8-1.8 1.8H14.6c-1 0-1.8-.8-1.8-1.8V60c0-1 .8-1.8 1.8-1.8h.7V45.4c0-1 .8-1.8 1.8-1.8h33.1c1 0 1.8.8 1.8 1.8v12.8h.2c1 0 1.8.8 1.8 1.8v12.7z"/></g></svg>