<svg xmlns="http://www.w3.org/2000/svg" viewBox="0 0 600 600"><path fill="#404447" d="M574.9 600H25.1C11 600 0 588.4 0 574.9V25.1C0 11.6 11.6 0 25.1 0h549.1c14.2 0 25.1 11.6 25.1 25.1v549.1c.7 14.2-10.9 25.8-24.4 25.8zM50.3 549.1h498.8V50.3H50.3v498.8z"/><path fill="#404447" d="M565.8 185H34.2c-7.1 0-12.9-5.8-12.9-12.9s5.8-12.9 12.9-12.9h531c7.1 0 12.9 5.8 12.9 12.9 0 7.1-5.8 12.9-12.3 12.9zM114.7 74.1c-17.4 0-31.6 14.2-31.6 31.6s14.2 31.6 31.6 31.6 31.6-14.2 31.6-31.6c0-17.4-14.2-31.6-31.6-31.6zM201.1 74.1c-17.4 0-31.6 14.2-31.6 31.6s14.2 31.6 31.6 31.6 31.6-14.2 31.6-31.6c0-17.4-14.2-31.6-31.6-31.6zM286.8 74.1c-17.4 0-31.6 14.2-31.6 31.6s14.2 31.6 31.6 31.6c17.4 0 31.6-14.2 31.6-31.6.6-17.4-14.2-31.6-31.6-31.6z"/><g><path fill="#404447" d="M451.1 471.1H290c-14.2 0-25.1-11.6-25.1-25.1 0-14.2 11.6-25.1 25.1-25.1h161.1c14.2 0 25.1 11.6 25.1 25.1.7 14.2-10.9 25.1-25.1 25.1zM148.2 471.1c-6.4 0-12.9-2.6-18-7.1-9.7-9.7-9.7-25.8 0-35.4l74.1-74.1-73.5-74.1c-9.7-9.7-9.7-25.8 0-35.4 9.7-9.7 25.8-9.7 35.4 0l91.5 91.5c9.7 9.7 9.7 25.8 0 35.4L166.3 464c-4.5 4.5-11 7.1-18.1 7.1z"/></g></svg>