<svg xmlns="http://www.w3.org/2000/svg" viewBox="0 0 92.5 92.5"><path fill="#404447" d="M28.8 67.5c-1 0-2-.4-2.7-1.1-1.5-1.5-1.5-4 0-5.5l33.8-33.8c1.5-1.5 4-1.5 5.5 0s1.5 4 0 5.5L31.5 66.4c-.7.8-1.7 1.1-2.7 1.1z"/><path fill="#404447" d="M62.2 52.2c-.6 0-1.3 0-1.9-.1-2.1-.2-3.7-2.1-3.5-4.2.2-2.1 2.1-3.7 4.2-3.5 3.9.4 7.6-1 10.3-3.7l9.6-9.6c5.1-5.1 5.1-13.3 0-18.4l-1.1-1.1c-5.1-5.1-13.3-5.1-18.4 0l-9.6 9.6c-2.7 2.7-4 6.5-3.7 10.3.2 2.1-1.4 4-3.5 4.2-2.1.2-4-1.4-4.2-3.5C39.8 26 42 20 46.3 15.7l9.6-9.6C64-2 77.2-2 85.3 6.1l1.1 1.1c8.1 8.1 8.1 21.3 0 29.4l-9.6 9.6c-3.9 3.9-9.2 6-14.6 6zM21.9 92.5c-5.3 0-10.6-2-14.7-6.1l-1.1-1.1C2.2 81.4 0 76.1 0 70.6s2.2-10.8 6.1-14.7l9.6-9.6c4.3-4.3 10.3-6.5 16.5-6 2.1.2 3.7 2.1 3.5 4.2-.2 2.1-2 3.7-4.2 3.5-3.8-.3-7.6 1-10.3 3.7l-9.6 9.6c-2.5 2.5-3.8 5.7-3.8 9.2 0 3.5 1.4 6.7 3.8 9.2l1.1 1.1c5.1 5.1 13.3 5.1 18.4 0l9.6-9.6c2.7-2.7 4-6.4 3.7-10.3-.2-2.1 1.4-4 3.5-4.2 2.1-.2 4 1.4 4.2 3.5.6 6.1-1.6 12.1-5.9 16.5l-9.6 9.6c-4.1 4.1-9.4 6.2-14.7 6.2z"/></svg>