<svg xmlns="http://www.w3.org/2000/svg" viewBox="0 0 98.5 81.8"><path fill="#404447" d="M94.3 81.8H4.1C1.8 81.8 0 80 0 77.7V4.1C0 1.8 1.8 0 4.1 0h90.2c2.3 0 4.1 1.8 4.1 4.1v73.5c.1 2.4-1.8 4.2-4.1 4.2zm-86-8.3h81.9V8.3H8.3v65.2z"/><path fill="#404447" d="M81 20.3H17.4c-1.1 0-2.1-.9-2.1-2.1 0-1.1.9-2.1 2.1-2.1H81c1.1 0 2.1.9 2.1 2.1 0 1.2-.9 2.1-2.1 2.1zM67.1 36.5H31.4c-1.1 0-2.1-.9-2.1-2.1 0-1.1.9-2.1 2.1-2.1h35.7c1.1 0 2.1.9 2.1 2.1-.1 1.2-1 2.1-2.1 2.1zM75.3 28.4H23.2c-1.1 0-2.1-.9-2.1-2.1 0-1.1.9-2.1 2.1-2.1h52.1c1.1 0 2.1.9 2.1 2.1 0 1.2-1 2.1-2.1 2.1zM49.2 54.7H19c-1.1 0-2.1-.9-2.1-2.1 0-1.1.9-2.1 2.1-2.1h30.2c1.1 0 2.1.9 2.1 2.1 0 1.2-.9 2.1-2.1 2.1zM37.8 62.7H19c-1.1 0-2.1-.9-2.1-2.1 0-1.1.9-2.1 2.1-2.1h18.7c1.1 0 2.1.9 2.1 2.1 0 1.1-.9 2.1-2 2.1zM70.4 63.5c-6.1 0-11.1-5-11.1-11.1s5-11.1 11.1-11.1 11.1 5 11.1 11.1-5 11.1-11.1 11.1zm0-18.1c-3.8 0-7 3.1-7 7s3.1 7 7 7c3.8 0 7-3.1 7-7s-3.2-7-7-7z"/><path fill="#404447" d="M73.4 63.7c-.2 0-.4 0-.6-.1l-2.4-.7-2.4.7c-.8.2-1.7-.1-2.2-.7l-1.5-2-2.4-.9c-.8-.3-1.3-1-1.4-1.9l-.1-2.5-1.4-2c-.5-.7-.5-1.6 0-2.3l1.4-2.1.1-2.5c0-.8.6-1.6 1.4-1.9l2.4-.9 1.5-2c.5-.7 1.4-.9 2.2-.7l2.4.7 2.4-.7c.8-.2 1.7 0 2.2.7l1.5 2 2.4.9c.8.3 1.3 1 1.4 1.9l.1 2.5 1.4 2.1c.5.7.5 1.6 0 2.3l-1.4 2.1-.1 2.5c0 .8-.6 1.6-1.4 1.9l-2.4.9-1.5 2c-.4.4-1 .7-1.6.7zm-8.8-7l1.6.6c.4.1.7.4.9.7l1.1 1.4 1.7-.5c.4-.1.8-.1 1.2 0l1.7.5 1.1-1.4c.2-.3.6-.5.9-.7l1.6-.6.1-1.7c0-.4.1-.8.4-1.1l1-1.4-1-1.4c-.2-.3-.3-.7-.4-1.1l-.1-1.7-1.6-.6c-.4-.1-.7-.4-.9-.7l-1.1-1.4-1.8.4c-.4.1-.8.1-1.2 0l-1.7-.5-1 1.4c-.2.3-.6.5-.9.7l-1.6.6-.1 1.7c0 .4-.1.8-.4 1.1l-1 1.4 1 1.4c.2.3.3.7.4 1.1l.1 1.8z"/><path fill="#404447" d="M77.3 69.1c-.6 0-1.3-.3-1.7-.8l-3.4-4.6c-.7-.9-.5-2.2.4-2.9.9-.7 2.2-.5 2.9.4l3.4 4.6c.7.9.5 2.2-.4 2.9-.4.2-.8.4-1.2.4zM63.5 69.1c-.4 0-.9-.1-1.2-.4-.9-.7-1.1-2-.4-2.9l3.4-4.6c.7-.9 2-1.1 2.9-.4.9.7 1.1 2 .4 2.9l-3.4 4.6c-.5.5-1.1.8-1.7.8z"/></svg>