<svg xmlns="http://www.w3.org/2000/svg" viewBox="0 0 93.7 100.2"><path fill="#404447" d="M61.6 77.3H32.4c-1.3 0-2.3-1-2.3-2.3V45.8c0-1.3 1-2.3 2.3-2.3h29.2c1.3 0 2.3 1 2.3 2.3V75c0 1.2-1 2.3-2.3 2.3zm-26.9-4.7h24.5V48.1H34.7v24.5zM20.7 80.5c-.6 0-1.2-.5-1.2-1.2v-38c0-.6.5-1.2 1.2-1.2.6 0 1.2.5 1.2 1.2v38.1c0 .6-.5 1.1-1.2 1.1zM26 78c-.6 0-1.2-.5-1.2-1.2v-33c0-.6.5-1.2 1.2-1.2.6 0 1.2.5 1.2 1.2v33c-.1.7-.6 1.2-1.2 1.2zM73.3 80.5c-.6 0-1.2-.5-1.2-1.2v-38c0-.6.5-1.2 1.2-1.2.6 0 1.2.5 1.2 1.2v38.1c0 .6-.6 1.1-1.2 1.1zM68.1 78c-.6 0-1.2-.5-1.2-1.2v-33c0-.6.5-1.2 1.2-1.2.6 0 1.2.5 1.2 1.2v33c-.1.7-.6 1.2-1.2 1.2z"/><g><path fill="#404447" d="M89.4 100.2H4.2C1.9 100.2 0 98.4 0 96V25c0-2.3 1.9-4.2 4.2-4.2h85.2c2.3 0 4.2 1.9 4.2 4.2v71c.1 2.4-1.8 4.2-4.2 4.2zM8.5 91.8h76.7V29.2H8.5v62.6z"/></g><g><path fill="#404447" d="M84 14.2H9.7c-1.2 0-2.1-.9-2.1-2.1 0-1.2 1-2.1 2.1-2.1H84c1.2 0 2.1.9 2.1 2.1 0 1.2-.9 2.1-2.1 2.1z"/></g><g><path fill="#404447" d="M75.6 4.2H18.1C17 4.2 16 3.3 16 2.1 16 .9 17 0 18.1 0h57.4c1.2 0 2.1.9 2.1 2.1.1 1.2-.9 2.1-2 2.1z"/></g></svg>