<svg xmlns="http://www.w3.org/2000/svg" viewBox="0 0 600 600"><g fill="#404447"><path d="M260.2 131.3c-43.8 7.5-83.8 14.4-115.3 43.8-12.3 11.7-23.5 24.6-34.7 37.4-5.3 5.9-14.9 6.9-20.3 1.6-1.6-1.6-2.1-6.4-.5-8.5 3.2-4.8 7.5-9.1 12.3-12.8 9.6-6.4 19.2-12.8 29.4-18.1 6.4-3.2 6.4-6.4 3.7-11.7-12.3-23.5-24.6-46.4-36.3-69.9C94.2 84 90 75.5 85.2 66.4c-2.7-4.8-2.1-8.5 1.1-12.8 13.3-19.2 32.6-31 53.9-40 23.5-10.1 48-16.5 74.2-12.3 2.1.5 4.3.5 6.4 1.1 12.3 1.6 17.6 8.5 20.3 21.4 5.9 32 13.9 64.1 20.8 96.1 1.1 5.3 3.2 6.9 9.1 5.9 12.8-2.1 25.6-3.2 38.4-3.7 5.9-.5 12.8 0 16 6.4 1.6 3.7-5.9 14.4-12.3 16.5-2.1 1.1-5.3 0-8-1.1-16-4-31.5-8.8-44.9-12.6zm-37.3-28.8c-1.1 0-2.7 0-4.3.5-24 4.3-47 12.8-67.8 25.1-12.3 7.5-12.3 8-5.3 20.3.5.5.5 1.6 1.1 2.1 2.1 4.3 5.3 4.8 9.1 2.7 23.5-12.8 48.6-23 74.7-28.3 2.1-.5 4.8-2.1 5.3-3.7 2.1-4.8-6.4-18.2-12.8-18.7z"/><path d="M507.9 172.4H199.4c-4.8 0-8.5 3.7-8.5 8.5v410c0 4.8 3.7 8.5 8.5 8.5h308.5c4.8 0 8.5-3.7 8.5-8.5V181c.1-4.8-3.7-8.6-8.5-8.6zm-39.5 134.5c0 4.8-3.7 8.5-8.5 8.5H268.2c-4.8 0-8.5-3.7-8.5-8.5s3.7-8.5 8.5-8.5h191.6c4.9-.5 8.6 3.7 8.6 8.5zm-200.2 62h124.4c4.8 0 8.5 3.7 8.5 8.5s-3.7 8.5-8.5 8.5H268.2c-4.8 0-8.5-3.7-8.5-8.5-.5-4.3 3.7-8.5 8.5-8.5zm-9-27.3c0-4.8 3.7-8.5 8.5-8.5h124.4c4.8 0 8.5 3.7 8.5 8.5s-3.7 8.5-8.5 8.5H268.2c-4.8.1-9-3.7-9-8.5zm9 64.6h191.6c4.8 0 8.5 3.7 8.5 8.5s-3.7 8.5-8.5 8.5H268.2c-4.8 0-8.5-3.7-8.5-8.5-.5-4.2 3.7-8.5 8.5-8.5zm-9-136.6c0-4.8 3.7-8.5 8.5-8.5h154.8c4.8 0 8.5 3.7 8.5 8.5s-3.7 8.5-8.5 8.5H267.7c-4.3 0-8.5-3.7-8.5-8.5zm133.9-47h43.2c4.8 0 8.5 3.7 8.5 8.5s-3.7 8.5-8.5 8.5h-43.2c-4.8 0-8.5-3.7-8.5-8.5-.5-4.2 3.7-8.5 8.5-8.5zm-74.7 0h43.2c4.8 0 8.5 3.7 8.5 8.5s-3.7 8.5-8.5 8.5h-43.2c-4.8 0-8.5-3.7-8.5-8.5 0-4.2 3.7-8.5 8.5-8.5zm-74.2 0h43.2c4.8 0 8.5 3.7 8.5 8.5s-3.7 8.5-8.5 8.5h-43.2c-4.8 0-8.5-3.7-8.5-8.5-.6-4.2 3.7-8.5 8.5-8.5zm43.3 238.6h-43.2c-4.8 0-8.5-3.7-8.5-8.5s3.7-8.5 8.5-8.5h43.2c4.8 0 8.5 3.7 8.5 8.5s-3.7 8.5-8.5 8.5zM478 586.7c0 .5 0 .5 0 0 0 2.7-2.1 4.8-4.8 4.8h-71.5c-.5 0-1.6 0-2.1-.5l-19.2-19.2c-.5-.5-.5-1.1-.5-1.6v-55c0-2.7 2.1-4.8 4.8-4.8h26.7V481c0-6.4 5.3-11.2 11.2-11.2 4.3 0 8 2.1 9.6 5.9l19.2 33.6 1.1 1.1h19.8c2.7 0 4.8 2.1 4.8 4.8v71.5h.9zm24.6-3.2H493c-2.7 0-4.8-2.1-4.8-4.3v-54.4c0-2.7 2.1-4.8 4.8-4.8h10.1c2.7 0 4.8 2.1 4.8 4.8v53.3c-.5 3.2-2.7 5.4-5.3 5.4z"/></g></svg>