<svg xmlns="http://www.w3.org/2000/svg" viewBox="0 0 95.5 95.5"><path fill="#404447" d="M91.5 95.5H4c-2.2 0-4-1.8-4-4V4c0-2.2 1.8-4 4-4h43.4c2.2 0 4 1.8 4 4s-1.8 4-4 4H8v79.5h79.5V48.1c0-2.2 1.8-4 4-4s4 1.8 4 4v43.4c0 2.2-1.8 4-4 4z"/><path fill="#404447" d="M77.6 45.6H53.9c-2.2 0-4-1.8-4-4V17.9c0-2.2 1.8-4 4-4s4 1.8 4 4v19.7h19.7c2.2 0 4 1.8 4 4s-1.8 4-4 4z"/><path fill="#404447" d="M57.1 42.4c-1 0-2-.4-2.8-1.2-1.6-1.6-1.6-4.1 0-5.7L88.6 1.2c1.6-1.6 4.1-1.6 5.7 0 1.6 1.6 1.6 4.1 0 5.7L59.9 41.2c-.7.8-1.8 1.2-2.8 1.2z"/><g fill="#404447"><path d="M32.2 74.7c-6.9 0-12.8-1.8-15.2-4.3v4.1c2.1 2.7 8.2 4.7 15.5 4.7 7.2 0 13.3-1.9 15.5-4.6v-4.2l-.3-.3c-2.1 2.7-8.2 4.6-15.5 4.6zM47.7 60.9c-.8 1-2 1.8-3.7 2.5-3 1.3-7.2 2.1-11.8 2.1-4.7 0-8.9-.8-11.8-2.1-1.4-.6-2.6-1.4-3.3-2.2v4.1c0 .1.1.1.2.2.8.9 2 1.7 3.5 2.4 3 1.3 7.2 2.1 11.8 2.1s8.9-.8 11.8-2.1c1.4-.6 2.5-1.3 3.2-2.1l.4-.4v-4.2l-.3-.3zM20.8 58.6c2.8 1.3 7 2.2 11.6 2.2 4.7 0 8.9-.9 11.7-2.2 1.4-.7 2.5-1.5 3.1-2.4.4-.5.6-1.1.6-1.7 0-3.5-6.9-6.3-15.4-6.3S17 51 17 54.5c0 .5.1 1 .4 1.4.6 1.1 1.8 2 3.4 2.7z"/></g></svg>