<svg xmlns="http://www.w3.org/2000/svg" viewBox="0 0 96.6 98.8"><path fill="#404447" d="M4.1 98.8C1.8 98.8 0 97 0 94.7V57.5c0-2.3 1.8-4.1 4.1-4.1s4.1 1.8 4.1 4.1v37.2c0 2.3-1.8 4.1-4.1 4.1zM21.8 98.8c-2.3 0-4.1-1.8-4.1-4.1V21.4c0-2.3 1.8-4.1 4.1-4.1s4.1 1.8 4.1 4.1v73.3c0 2.3-1.8 4.1-4.1 4.1zM39.5 98.8c-2.3 0-4.1-1.8-4.1-4.1V4.1c0-2.3 1.8-4.1 4.1-4.1s4.1 1.8 4.1 4.1v90.6c0 2.3-1.9 4.1-4.1 4.1zM57.1 98.8c-2.3 0-4.1-1.8-4.1-4.1V35.9c0-2.3 1.8-4.1 4.1-4.1s4.1 1.8 4.1 4.1v58.9c.1 2.2-1.8 4-4.1 4zM92.5 98.8c-2.3 0-4.1-1.8-4.1-4.1V74.3c0-2.3 1.8-4.1 4.1-4.1s4.1 1.8 4.1 4.1v20.4c0 2.3-1.8 4.1-4.1 4.1zM74.8 98.8c-2.3 0-4.1-1.8-4.1-4.1V4.1c0-2.3 1.8-4.1 4.1-4.1s4.1 1.8 4.1 4.1v90.6c0 2.3-1.8 4.1-4.1 4.1z"/></svg>