<svg xmlns="http://www.w3.org/2000/svg" viewBox="0 0 94.7 94.7"><path fill="#404447" d="M90.8 94.7H4c-2.2 0-4-1.8-4-4V4c0-2.2 1.8-4 4-4h86.8c2.2 0 4 1.8 4 4v86.8c-.1 2.2-1.8 3.9-4 3.9zM7.9 86.8h78.8V7.9H7.9v78.9z"/><path fill="#404447" d="M23.1 75.8c-1.3 0-2.3-1-2.3-2.3V52.8c0-1.3 1-2.3 2.3-2.3s2.3 1 2.3 2.3v20.7c0 1.3-1 2.3-2.3 2.3zM32.9 75.8c-1.3 0-2.3-1-2.3-2.3V32.8c0-1.3 1-2.3 2.3-2.3 1.3 0 2.3 1 2.3 2.3v40.7c0 1.3-1 2.3-2.3 2.3zM42.7 75.8c-1.3 0-2.3-1-2.3-2.3V23.2c0-1.3 1-2.3 2.3-2.3 1.3 0 2.3 1 2.3 2.3v50.3c0 1.3-1 2.3-2.3 2.3zM52.5 75.8c-1.3 0-2.3-1-2.3-2.3V40.8c0-1.3 1-2.3 2.3-2.3 1.3 0 2.3 1 2.3 2.3v32.7c0 1.3-1 2.3-2.3 2.3zM72.2 75.8c-1.3 0-2.3-1-2.3-2.3V62.2c0-1.3 1-2.3 2.3-2.3 1.3 0 2.3 1 2.3 2.3v11.3c-.1 1.3-1.1 2.3-2.3 2.3zM62.4 75.8c-1.3 0-2.3-1-2.3-2.3V23.2c0-1.3 1-2.3 2.3-2.3 1.3 0 2.3 1 2.3 2.3v50.3c-.1 1.3-1.1 2.3-2.3 2.3z"/></svg>