<svg xmlns="http://www.w3.org/2000/svg" viewBox="0 0 100.6 104.4"><path fill="#404447" d="M9.6 42.6c-5.3 0-9.6 4.3-9.6 9.6s4.3 9.6 9.6 9.6 9.6-4.3 9.6-9.6c.1-5.3-4.2-9.6-9.6-9.6zm68.9 43.8c-4.6 2.7-6.2 8.6-3.5 13.2s8.6 6.2 13.2 3.5 6.2-8.6 3.5-13.2-8.6-6.2-13.2-3.5zM30.6 52.2c0-9.5 4.7-18 12-23.1l-7.1-11.8C27.1 23 20.8 31.6 18.2 41.7c3 2.5 5 6.3 5 10.5s-1.9 8-5 10.5c2.6 10.1 8.9 18.7 17.3 24.4l7.1-11.8c-7.3-5.1-12-13.6-12-23.1zM58.8 24c14.7 0 26.8 11.3 28.1 25.7l13.7-.2c-.7-10.6-5.3-20.2-12.5-27.2-3.7 1.4-7.9 1.2-11.6-.9-3.7-2.1-6-5.7-6.6-9.6-3.6-1-7.3-1.5-11.2-1.5-6.7 0-13 1.6-18.6 4.3l6.7 12c3.7-1.6 7.7-2.6 12-2.6zm0 56.4c-4.2 0-8.3-.9-11.9-2.6l-6.7 12c5.6 2.8 11.9 4.3 18.6 4.3 3.9 0 7.6-.5 11.2-1.5.6-3.9 2.9-7.4 6.6-9.6 3.7-2.1 7.9-2.3 11.6-.9 7.1-7 11.8-16.6 12.5-27.2L87 54.7c-1.4 14.4-13.5 25.7-28.2 25.7zM78.5 18c4.6 2.7 10.5 1.1 13.2-3.5C94.4 9.9 92.8 4 88.2 1.3 83.6-1.4 77.7.2 75 4.8c-2.7 4.6-1.1 10.5 3.5 13.2z"/></svg>