<svg xmlns="http://www.w3.org/2000/svg" viewBox="0 0 92.8 94.9"><path fill="#404447" d="M69.2 78.4c-.8 0-1.7-.3-2.4-.8-1.8-1.3-2.2-3.9-.9-5.7l17.8-24.5L65.9 23c-1.3-1.8-.9-4.4.9-5.7 1.8-1.3 4.4-.9 5.7.9l19.6 26.9c1 1.4 1 3.4 0 4.8L72.5 76.8c-.8 1.1-2 1.6-3.3 1.6z"/><path fill="#404447" d="M88.8 51.6H38.2c-2.3 0-4.1-1.8-4.1-4.1s1.8-4.1 4.1-4.1h50.6c2.3 0 4.1 1.8 4.1 4.1-.1 2.2-1.9 4.1-4.1 4.1zM4.1 94.9c-2.3 0-4.1-1.8-4.1-4.1V4.1C0 1.8 1.8 0 4.1 0s4.1 1.8 4.1 4.1v86.8c0 2.2-1.9 4-4.1 4z"/><g><path fill="#404447" d="M58.6 94.9H4.1c-2.3 0-4.1-1.8-4.1-4.1s1.8-4.1 4.1-4.1h54.5c2.3 0 4.1 1.8 4.1 4.1s-1.8 4.1-4.1 4.1zM58.6 8.2H4.1C1.8 8.2 0 6.3 0 4.1 0 1.8 1.8 0 4.1 0h54.5c2.3 0 4.1 1.8 4.1 4.1 0 2.2-1.8 4.1-4.1 4.1z"/></g></svg>