<svg xmlns="http://www.w3.org/2000/svg" viewBox="0 0 600 600"><g fill="#404447"><path d="M299 457.6c74.8 0 138.6-20 160.5-47.7v-43.8c-.6-1.3-1.9-1.9-2.6-3.2-21.9 28.4-85.7 48.3-161.1 48.3-72.2 0-133.4-18.7-157.9-44.5l-.6.6v41.9c21.2 27.7 85.7 48.4 161.7 48.4zM175.3 340.3c30.9 13.5 74.8 21.9 123.1 21.9s92.2-8.4 123.1-21.9c14.2-6.4 25.8-13.5 33.5-21.3 1.3-1.3 2.6-3.2 3.9-4.5v-43.8c-.6-1.3-1.9-1.9-2.6-3.2-7.7 9.7-20.6 18.7-38 26.4-30.3 12.9-74.1 21.9-122.4 21.9s-92.2-8.4-123.1-21.9c-14.8-6.4-27.1-14.2-34.8-22.6l-.6.6v41.9l1.9 1.9c7.6 8.5 19.9 17.5 36 24.6zM176.6 243.6c29 14.2 72.8 22.6 121.2 22.6 49 0 92.2-9 121.8-23.2 14.8-7.1 25.8-15.5 32.2-25.1 3.9-5.8 5.8-11.6 5.8-18 0-35.4-71.5-64.4-159.8-64.4S137.9 165 137.9 201.1c0 5.2 1.3 10.3 3.9 14.8 6.4 10.3 18.7 20 34.8 27.7z"/><path d="M574.9 0H25.1C11.6 0 0 11 0 25.1v549.7C0 589 11.6 600 25.1 600h549.7c14.2 0 25.1-11.6 25.1-25.1V25.1C600 11 589 0 574.9 0zm-25.2 549.7H50.3V50.3h499.5v499.4z"/></g></svg>