<svg xmlns="http://www.w3.org/2000/svg" viewBox="0 0 85.6 96.4"><path fill="#404447" d="M64.3 40.3H32.9c-1.1 0-2-.9-2-2V20.5c0-1.1.9-2 2-2h31.4c1.1 0 2 .9 2 2v17.7c0 1.2-.9 2.1-2 2.1zm-29.4-4.1h27.3V22.6H34.9v13.6z"/><path fill="#404447" d="M81.5 96.4H11.3c-2.3 0-4.1-1.8-4.1-4.1V4.1C7.2 1.8 9 0 11.3 0h70.2c2.3 0 4.1 1.8 4.1 4.1v88.3c0 2.2-1.9 4-4.1 4zm-66.2-8.1h62V8.2h-62v80.1z"/><path fill="#404447" d="M18.4 24.7H4.1c-2.3 0-4.1-1.8-4.1-4.1s1.8-4.1 4.1-4.1h14.3c2.3 0 4.1 1.8 4.1 4.1s-1.8 4.1-4.1 4.1zM18.4 42.9H4.1c-2.3 0-4.1-1.8-4.1-4.1s1.8-4.1 4.1-4.1h14.3c2.3 0 4.1 1.8 4.1 4.1s-1.8 4.1-4.1 4.1zM18.4 61.2H4.1c-2.3 0-4.1-1.8-4.1-4.1C0 54.9 1.8 53 4.1 53h14.3c2.3 0 4.1 1.8 4.1 4.1s-1.8 4.1-4.1 4.1zM18.4 79.5H4.1c-2.3 0-4.1-1.8-4.1-4.1s1.8-4.1 4.1-4.1h14.3c2.3 0 4.1 1.8 4.1 4.1s-1.8 4.1-4.1 4.1z"/></svg>