<svg xmlns="http://www.w3.org/2000/svg" viewBox="0 0 94.2 92.7"><g fill="#404447"><path d="M47.2 13.8c-6.5 0-11.7 5.2-11.7 11.6 0 6.4 5.3 11.6 11.7 11.6 6.5 0 11.7-5.2 11.7-11.6.1-6.4-5.2-11.6-11.7-11.6zM47.2 55.8c-6.5 0-11.7 5.2-11.7 11.6 0 6.4 5.3 11.6 11.7 11.6 6.5 0 11.7-5.2 11.7-11.6.1-6.3-5.2-11.6-11.7-11.6zM68.4 34.8c-6.5 0-11.7 5.2-11.7 11.6C56.7 52.8 62 58 68.4 58c6.5 0 11.7-5.2 11.7-11.6 0-6.4-5.2-11.6-11.7-11.6zM26.1 34.8c-6.5 0-11.7 5.2-11.7 11.6 0 6.4 5.3 11.6 11.7 11.6 6.5 0 11.7-5.2 11.7-11.6 0-6.4-5.3-11.6-11.7-11.6z"/></g><path fill="#404447" d="M90.2 92.7H4c-2.2 0-4-1.8-4-4V4c0-2.2 1.8-4 4-4h86.3c2.2 0 4 1.8 4 4v84.7c-.1 2.2-1.9 4-4.1 4zm-82.3-8h78.3V7.9H7.9v76.8z"/></svg>