<svg xmlns="http://www.w3.org/2000/svg" viewBox="0 0 98.8 66"><path fill="#404447" d="M77.8 66h-59C8.4 66 0 57.6 0 47.3 0 37 8.4 28.6 18.7 28.6v-.7C18.7 12.5 31.2 0 46.6 0c12.9 0 23.8 8.7 27 20.8.8-.1 1.7-.1 2.5-.1 12.5 0 22.7 10.2 22.7 22.7 0 6.4-2.7 12.5-7.5 16.8C88.1 63.8 83 66 77.8 66zM18.7 36.5C12.8 36.5 8 41.4 8 47.3s4.8 10.8 10.8 10.8h59c3 0 5.9-1.3 8-3.6 3.4-3.1 5.1-7 5.1-11.2 0-8.1-6.6-14.8-14.8-14.8-1.5 0-3 .2-4.5.7-1.1.4-2.4.2-3.4-.5s-1.7-1.7-1.8-2.9C65.4 15.7 56.9 8 46.6 8c-11 0-19.9 8.9-19.9 19.9 0 1.3.1 2.6.4 3.9.2 1.2-.1 2.4-.8 3.3-.8.9-1.9 1.5-3.1 1.5h-4.5v-.1z"/></svg>