<svg xmlns="http://www.w3.org/2000/svg" viewBox="0 0 93.1 93.1"><g fill="#404447"><path d="M46.4 71c11.6 0 21.5-3.1 24.9-7.4v-6.8c-.1-.2-.3-.3-.4-.5-3.4 4.4-13.3 7.5-25 7.5-11.2 0-20.7-2.9-24.5-6.9l-.1.1v6.5c3.3 4.3 13.3 7.5 25.1 7.5zM27.2 52.8c4.8 2.1 11.6 3.4 19.1 3.4s14.3-1.3 19.1-3.4c2.2-1 4-2.1 5.2-3.3.2-.2.4-.5.6-.7V42c-.1-.2-.3-.3-.4-.5-1.2 1.5-3.2 2.9-5.9 4.1-4.7 2-11.5 3.4-19 3.4s-14.3-1.3-19.1-3.4c-2.3-1-4.2-2.2-5.4-3.5l-.1.1v6.5l.3.3c1.2 1.3 3.1 2.7 5.6 3.8zM27.4 37.8c4.5 2.2 11.3 3.5 18.8 3.5 7.6 0 14.3-1.4 18.9-3.6 2.3-1.1 4-2.4 5-3.9.6-.9.9-1.8.9-2.8 0-5.5-11.1-10-24.8-10-13.7 0-24.8 4.6-24.8 10.2 0 .8.2 1.6.6 2.3 1 1.6 2.9 3.1 5.4 4.3z"/><path d="M89.2 0H3.9C1.8 0 0 1.7 0 3.9v85.3c0 2.2 1.8 3.9 3.9 3.9h85.3c2.2 0 3.9-1.8 3.9-3.9V3.9c0-2.2-1.7-3.9-3.9-3.9zm-3.9 85.3H7.8V7.8h77.5v77.5z"/></g></svg>