<svg xmlns="http://www.w3.org/2000/svg" viewBox="0 0 106.4 101.3"><path fill="#404447" d="M53.4 63.3c-.7 0-1.4-.2-2.1-.5L2.2 35.2C.8 34.5 0 33.1 0 31.6s.8-2.9 2.2-3.7L51 .5c1.3-.7 2.9-.7 4.1 0L104.2 28c1.3.7 2.2 2.2 2.2 3.7s-.8 2.9-2.2 3.7L55.4 62.8c-.6.3-1.3.5-2 .5zM12.9 31.6l40.5 22.7 40.2-22.5L53 9.1 12.9 31.6z"/><path fill="#404447" d="M53.4 82.3c-.7 0-1.4-.2-2.1-.5L2.2 54.2c-2-1.1-2.8-3.7-1.6-5.7 1.1-2 3.7-2.8 5.7-1.6l47.1 26.4 46.7-26.2c2-1.1 4.6-.4 5.7 1.6 1.1 2 .4 4.6-1.6 5.7L55.4 81.8c-.6.3-1.3.5-2 .5z"/><path fill="#404447" d="M53.4 101.3c-.7 0-1.4-.2-2.1-.5L2.2 73.2c-2-1.1-2.8-3.7-1.6-5.7 1.1-2 3.7-2.8 5.7-1.6l47.1 26.4 46.7-26.2c2-1.1 4.6-.4 5.7 1.6 1.1 2 .4 4.6-1.6 5.7l-48.8 27.3c-.6.4-1.3.6-2 .6z"/></svg>