<svg xmlns="http://www.w3.org/2000/svg" viewBox="0 0 103.4 79.3"><path fill="#404447" d="M83.9 79.3H6.6c-1.2 0-2.3-.6-3-1.5-.7-1-.9-2.2-.5-3.4l15.8-49.6c.5-1.6 1.9-2.6 3.6-2.6h77.3c1.2 0 2.3.6 3 1.5.7 1 .9 2.2.6 3.4L87.5 76.6c-.5 1.6-2 2.7-3.6 2.7zm-72.2-7.6h69.4l13.4-42.1H25.1L11.7 71.7z"/><path fill="#404447" d="M3.8 79.3c-2.1 0-3.8-1.7-3.8-3.8v-68C0 3.4 3.4 0 7.5 0h26.3c4.1 0 7.5 3.4 7.5 7.5v2.7H81c2.1 0 3.8 1.7 3.8 3.8 0 2.1-1.7 3.8-3.8 3.8H37.6c-2.1 0-3.8-1.7-3.8-3.8V7.5H7.5v68c0 2.1-1.7 3.8-3.7 3.8z"/></svg>