<svg xmlns="http://www.w3.org/2000/svg" viewBox="0 0 600 600"><path fill="#404447" d="M301.1 371.3c-3.9 0-7.9-1.1-11.8-2.8L12.4 212.9C4.5 208.9 0 201 0 192.6c0-8.5 4.5-16.4 12.4-20.9L287.6 17.2c7.3-3.9 16.4-3.9 23.1 0l276.9 155.1c7.3 3.9 12.4 12.4 12.4 20.9s-4.5 16.4-12.4 20.9L312.4 368.5c-3.4 1.7-7.3 2.8-11.3 2.8zM72.7 192.6l228.4 128 226.7-126.9-228.9-128L72.7 192.6z"/><path fill="#404447" d="M301.1 478.5c-3.9 0-7.9-1.1-11.8-2.8L12.4 320c-11.3-6.2-15.8-20.9-9-32.1 6.2-11.3 20.9-15.8 32.1-9l265.6 148.9L564.5 280c11.3-6.2 25.9-2.3 32.1 9s2.3 25.9-9 32.1L312.4 475.7c-3.4 1.6-7.3 2.8-11.3 2.8z"/><path fill="#404447" d="M301.1 585.6c-3.9 0-7.9-1.1-11.8-2.8L12.4 427.2C1.1 421-3.4 406.3 3.4 395c6.2-11.3 20.9-15.8 32.1-9l265.6 148.9 263.3-147.7c11.3-6.2 25.9-2.3 32.1 9s2.3 25.9-9 32.1L312.4 582.2c-3.4 2.3-7.3 3.4-11.3 3.4z"/><g><path fill="#404447" d="M298.3 249.5c-29.9 0-54.7-24.2-54.7-54.7 0-29.9 24.2-54.7 54.7-54.7 29.9 0 54.7 24.2 54.7 54.7 0 30.5-24.2 54.7-54.7 54.7zm0-90.8c-20.3 0-36.1 16.4-36.1 36.1 0 20.3 16.4 36.1 36.1 36.1 20.3 0 36.1-16.4 36.1-36.1.6-19.7-15.8-36.1-36.1-36.1z"/><path fill="#404447" d="M264.5 170c-2.3 0-4.5-1.1-6.2-2.8l-12.4-12.4c-3.4-3.4-3.4-9 0-13 3.4-3.4 9-3.4 13 0l12.4 12.4c3.4 3.4 3.4 9 0 13-2.3 1.7-4.6 2.8-6.8 2.8zM345.7 251.2c-2.3 0-4.5-1.1-6.2-2.8l-14.7-14.7c-3.4-3.4-3.4-9 0-13 3.4-3.4 9-3.4 13 0l14.7 14.7c3.4 3.4 3.4 9 0 13-2.3 1.7-4.6 2.8-6.8 2.8zM332.7 170c-2.3 0-4.5-1.1-6.2-2.8-3.4-3.4-3.4-9 0-13l12.4-12.4c3.4-3.4 9-3.4 13 0 3.4 3.4 3.4 9 0 13l-12.4 12.4c-2.3 1.7-4.5 2.8-6.8 2.8zM251.5 251.2c-2.3 0-4.5-1.1-6.2-2.8-3.4-3.4-3.4-9 0-13l15.2-14.7c3.4-3.4 9-3.4 13 0 3.4 3.4 3.4 9 0 13l-15.2 14.7c-2.3 1.7-4.5 2.8-6.8 2.8z"/><g><path fill="#404447" d="M298.3 155.9c-5.1 0-9-3.9-9-9v-18c0-5.1 3.9-9 9-9s9 3.9 9 9v18c.6 5.1-3.9 9-9 9zM298.3 270.4c-5.1 0-9-3.9-9-9v-20.9c0-5.1 3.9-9 9-9s9 3.9 9 9v20.9c0 5-3.9 9-9 9z"/></g><g><path fill="#404447" d="M364.8 204.4h-18c-5.1 0-9-3.9-9-9s3.9-9 9-9h18c5.1 0 9 3.9 9 9 .1 5.1-3.9 9-9 9zM253.2 204.4h-20.9c-5.1 0-9-3.9-9-9s3.9-9 9-9h20.9c5.1 0 9 3.9 9 9s-3.9 9-9 9z"/></g></g></svg>