<svg xmlns="http://www.w3.org/2000/svg" viewBox="0 0 103.4 103.4"><g fill="#404447"><path d="M97.4 34.7c-2.2-1.6-7.7-4-9.3-4-.5 0-1.2.8-1.8 2-.9 1.7-3.4 4-4.4 4-.2 0 .3-1.2 1.1-2.6.8-1.5 1.4-3.3 1.4-4.3 0-4.4-4.8-17.4-8.6-23.4C73.9 3.6 73 2.7 71 1.6 67.6-.3 63.4-.5 58.1.9c-3.2.8-4.7 1-7.8.7-12.5-.9-12-.9-14 .1-2.6 1.3-3.5 2.9-5.1 9.6-1.8 7.3-1.8 9.5-.2 11.4 1.6 1.9 6.9 4.3 12.1 5.5 6.2 1.4 10.5 2.7 11.7 3.5.6.4 1.3 1.3 1.6 2.1 1.3 3.5 2 4.9 2.8 5.6.5.4.9 1 .9 1.3 0 3.3-23.7-4-29.8-9.3-2.6-2.3-3.4-3.9-3.1-6.7l.3-2.3-6.1.6c-5.1.2-6.4.4-8.2 1.2-6.3 3-6 8.1.9 14.7 10.1 9.6 30.7 18.9 47.1 21.3 5.6.8 13.8.8 19 0 10.2-1.6 17.3-5.7 20.2-11.9 2.6-5.3 1.5-10.2-3-13.6zM49 15.6c-4.4.5-6.5 1.1-7.3 2-.9 1.1-2 .7-4.3-1.7-1.7-1.7-2.2-2.6-2.2-3.6 0-2.3 1.6-3.5 3-2.2 2 2 2.7 2.2 7.3 1.9 4.7-.3 7.5.2 8 1.5.3 1.3-.5 1.6-4.5 2.1zm14.1-6.8c-2.1-.2-2.2-.8-.2-1.3 1.7-.5 2.7-1.9 1.8-2.5-1-.6-4.5-1-6.1-.7-.9.2-1.3.2-1.1-.2.5-.8 5.3-1.6 8.1-1.3 2.9.3 5.2 1.3 5.7 2.5.7 2-3.6 3.8-8.2 3.5zM99.7 76.5c-3.9-.5-9.1-.1-12.3 1-1.5.5-1.9.9-2.1 2-.2 1.2-.6 1.5-3 2.4-2 .8-3.6 1.9-5.7 4-1.6 1.6-3.4 3.1-3.9 3.4-1.2.6-3.4 1.1-3.4.8 0-.2 3.6-5.6 7.8-11.5 1.5-2.1 2-3.3 2.2-5 .1-1.2.6-3.7 1.2-5.5.5-1.8.9-3.4.7-3.6-.1-.1-1.1.1-2.2.5-2.4.8-3.9.9-6.6.2-1.7-.5-2.3-.4-4.1.2-1.9.7-2.2.7-4 0-1.8-.7-2.2-.7-6.5 0-8.1 1.4-10.7.6-16-4.9-3.3-3.4-4.6-4.1-5.2-3.1-.2.2-.8.5-1.4.5-.8 0-1.5-.6-2.5-2.3-.8-1.3-2.1-2.7-2.8-3.2-3.9-2.8-8.2-.8-8.2 3.8 0 1.9 3.7 7.5 5.6 8.4 2.5 1.3 1.1 3.2-2 2.8-1.6-.2-2.3-.7-4.5-3-2.3-2.5-2.8-2.8-4.4-2.8-1 0-2.6.4-3.7.9-2.7 1.2-6.1 1.9-9.8 1.9H0c7.7 22.9 29.2 39.3 54.7 39.3 20.5 0 38.6-10.8 48.8-27-.8.2-1.8 0-3.8-.2zm-35.6.4c-.6 0-1.7-.4-2.6-.9-.8-.5-2-.9-2.7-.9-1.3 0-1.9-1.1-1.1-2.1.7-.9 3.1-.9 4.6 0 1.6.9 2.9.8 3.9-.2 1.1-1.2 1.6-1.2 1.6.3 0 1.4-2.3 3.8-3.7 3.8z"/></g></svg>