<svg xmlns="http://www.w3.org/2000/svg" viewBox="0 0 96.7 93"><path fill="#404447" d="M92.6 93H4c-2.2 0-4-1.8-4-4V57.7c0-2.2 1.8-4 4-4h88.6c2.2 0 4 1.8 4 4V89c.1 2.2-1.7 4-4 4zM8 85h80.6V61.7H8V85zM82.6 47.5c-1.1 0-2.2-.5-3-1.3-1.5-1.7-1.3-4.2.3-5.7C85 36 87.8 30 87.8 23.8c0-6.3-2.8-12.2-7.8-16.7-1.7-1.5-1.8-4-.3-5.7 1.5-1.7 4-1.8 5.7-.3 6.8 6 10.5 14.1 10.5 22.7s-3.7 16.7-10.5 22.7c-.9.7-1.8 1-2.8 1z"/><path fill="#404447" d="M73.5 39.7c-1.1 0-2.2-.5-3-1.3-1.5-1.7-1.3-4.2.3-5.7 2.7-2.4 4.2-5.6 4.2-8.9s-1.5-6.5-4.2-8.9c-1.7-1.5-1.8-4-.3-5.7 1.5-1.7 4-1.8 5.7-.3 4.4 4 6.9 9.3 6.9 14.9 0 5.7-2.4 11-6.9 14.9-.8.6-1.8 1-2.7 1zM43.4 47.5c-1 0-1.9-.3-2.7-1-6.8-6-10.5-14.1-10.5-22.7C30.3 15.1 34 7.1 40.8 1c1.6-1.5 4.2-1.3 5.7.3 1.4 1.7 1.3 4.2-.4 5.7-5.1 4.5-7.8 10.4-7.8 16.7 0 6.3 2.8 12.2 7.8 16.7 1.7 1.5 1.8 4 .3 5.7-.7 1-1.8 1.4-3 1.4z"/><path fill="#404447" d="M52.6 39.7c-1 0-1.9-.3-2.7-1-4.4-4-6.9-9.2-6.9-14.9 0-5.7 2.4-11 6.9-14.9 1.6-1.5 4.2-1.3 5.7.3 1.5 1.7 1.3 4.2-.3 5.7-2.7 2.4-4.2 5.6-4.2 8.9s1.5 6.5 4.2 8.9c1.7 1.5 1.8 4 .3 5.7-.8.8-1.9 1.3-3 1.3zM18.9 68.6c-2.6 0-4.7 2.1-4.7 4.7s2.1 4.7 4.7 4.7 4.7-2.1 4.7-4.7-2.1-4.7-4.7-4.7zM34.3 68.6c-2.6 0-4.7 2.1-4.7 4.7s2.1 4.7 4.7 4.7 4.7-2.1 4.7-4.7-2.1-4.7-4.7-4.7zM49.7 68.6c-2.6 0-4.7 2.1-4.7 4.7s2.1 4.7 4.7 4.7 4.7-2.1 4.7-4.7-2.1-4.7-4.7-4.7z"/><g><path fill="#404447" d="M63 60.5c-2.2 0-4-1.8-4-4V25.6c0-2.2 1.8-4 4-4s4 1.8 4 4v30.8c0 2.3-1.8 4.1-4 4.1z"/></g></svg>