<svg xmlns="http://www.w3.org/2000/svg" viewBox="0 0 94.2 92.7"><path fill="#404447" d="M70.8 69.5H23.9c-2.6 0-4.7-2.1-4.7-4.7V28.2c0-2.6 2.1-4.7 4.7-4.7h46.9c2.6 0 4.7 2.1 4.7 4.7v36.6c0 2.6-2.1 4.7-4.7 4.7zM23.9 28.2v36.6h46.9V28.2H23.9z"/><g fill="#404447"><path d="M67.7 31.8h-5v4.4h5v-4.4M67.7 40.1h-5v4.4h5v-4.4M67.7 48.5h-5v4.4h5v-4.4M67.7 56.8h-5v4.4h5v-4.4"/><g><path d="M32.1 31.8h-5v4.4h5v-4.4M32.1 40.1h-5v4.4h5v-4.4M32.1 48.5h-5v4.4h5v-4.4M32.1 56.8h-5v4.4h5v-4.4"/></g></g><path fill="#404447" d="M21.6 75.8c-1.3 0-2.3-1-2.3-2.3v-54c0-1.3 1-2.3 2.3-2.3 1.3 0 2.3 1 2.3 2.3v53.9c0 1.4-1 2.4-2.3 2.4zM73.2 75.8c-1.3 0-2.3-1-2.3-2.3v-54c0-1.3 1-2.3 2.3-2.3 1.3 0 2.3 1 2.3 2.3v53.9c0 1.4-1 2.4-2.3 2.4z"/><g><path fill="#404447" d="M90.2 92.7H4c-2.2 0-4-1.8-4-4V4c0-2.2 1.8-4 4-4h86.3c2.2 0 4 1.8 4 4v84.7c-.1 2.2-1.9 4-4.1 4zm-82.3-8h78.3V7.9H7.9v76.8z"/></g></svg>