<svg xmlns="http://www.w3.org/2000/svg" viewBox="0 0 93.2 93.2"><path fill="#404447" d="M89.2 93.2H3.9c-2.2 0-3.9-1.7-3.9-3.9V3.9C0 1.7 1.7 0 3.9 0h85.3c2.2 0 3.9 1.7 3.9 3.9v85.3c.1 2.2-1.7 4-3.9 4zM7.8 85.3h77.5V7.8H7.8v77.5z"/><path fill="#404447" d="M19.3 18.2V74h55.3V18.2H19.3zM47 27.7c4.2 0 8 1.4 11.1 3.7L56.2 34c-2.6-1.9-5.8-3.1-9.2-3.1-6.5 0-12.2 4.1-14.4 9.9l-2.9-1.2c2.6-7 9.4-11.9 17.3-11.9zM35.1 46.4c0 5.1 3.1 9.4 7.5 11.2l-1.2 2.9c-2.8-1.1-5.1-3.1-6.8-5.5-1.7-2.4-2.7-5.4-2.7-8.6h3.2zm-2.2-5.5c1.1-2.8 3-5.3 5.5-7 2.4-1.7 5.4-2.7 8.6-2.7v3.2c-5.1 0-9.4 3.2-11.1 7.7l-3-1.2zm2.6 5.5c0-6.4 5.2-11.6 11.5-11.6 5.6 0 10.2 4 11.3 9.3h-3.2C54 40.6 50.8 38 47 38c-4.6 0-8.4 3.8-8.4 8.5S42.4 55 47 55c3.8 0 7-2.6 8.1-6.1h3.2c-1.1 5.3-5.7 9.3-11.3 9.3-6.4-.1-11.5-5.3-11.5-11.8zM51 44.1c-.5-.9-1.4-1.6-2.3-2l1.2-3.1c2.3.9 4 2.8 4.8 5.2H51zm3.6 4.7c-.7 2.4-2.5 4.3-4.8 5.2l-1.2-3.1c1-.4 1.8-1.1 2.3-2h3.7zm-12.3-2.4c0 .7.1 1.3.4 1.9l-3.1 1.4c-.4-1-.7-2.1-.7-3.2 0-4.4 3.6-8.1 8-8.1v3.4c-2.5 0-4.6 2.1-4.6 4.6zm4.7 4.7v3.4c-2.2 0-4.2-.9-5.7-2.4l2.4-2.4c.8.9 2 1.4 3.3 1.4zm0 7.4c5.8 0 10.6-4.2 11.7-9.7h3.2c-1.1 7.3-7.4 12.8-14.9 12.8v-3.1zm11.7-14.4c-.8-4.1-3.6-7.4-7.4-8.9l1.1-3c4.9 1.9 8.6 6.4 9.4 11.8h-3.1zM29.9 54c-.3-.7-.6-1.4-.8-2.1v-.2c0-.1-.1-.3-.1-.4 0-.1 0-.2-.1-.3 0-.1-.1-.2-.1-.3 0-.1-.1-.3-.1-.4 0-.1 0-.2-.1-.3 0-.2-.1-.3-.1-.5v-.2c0-.2-.1-.4-.1-.6-.1-.7-.1-1.5-.1-2.3h3.2c0 .7 0 1.4.1 2.1v.3c0 .1 0 .2.1.4v.2c0 .1.1.3.1.4v.1c0 .2.1.3.1.5s.1.4.2.5l.6 1.8-2.8 1.3zM47 65.2c-5.1 0-9.8-2.1-13.2-5.5l2.2-2.3c2.9 2.9 6.7 4.6 11 4.6 7.7 0 14.2-5.8 15.3-13.2h3.2c-1.2 9.2-9 16.4-18.5 16.4zm15.3-21.1c-.3-2.1-1.1-4.1-2.2-5.9l2.7-1.7c1.4 2.3 2.3 4.8 2.7 7.6h-3.2z"/></svg>