<svg xmlns="http://www.w3.org/2000/svg" viewBox="0 0 94.7 94.7"><path fill="#404447" d="M90.8 94.7H4c-2.2 0-4-1.8-4-4V4c0-2.2 1.8-4 4-4h86.8c2.2 0 4 1.8 4 4v86.8c-.1 2.2-1.8 3.9-4 3.9zM7.9 86.8h78.8V7.9H7.9v78.9z"/><path fill="#404447" d="M67.5 69.5H25.9c-1.1 0-1.9-.9-1.9-1.9V26c0-1.1.9-1.9 1.9-1.9h41.6c1.1 0 1.9.9 1.9 1.9v41.6c0 1.1-.9 1.9-1.9 1.9zm-39.7-3.8h37.8V27.9H27.8v37.8z"/><path fill="#404447" d="M66.8 38.1H26.6c-.5 0-1-.4-1-1s.4-1 1-1h40.2c.5 0 1 .4 1 1s-.5 1-1 1zM32.7 29.7c-1.3 0-2.4 1.1-2.4 2.4 0 1.3 1.1 2.4 2.4 2.4 1.3 0 2.4-1.1 2.4-2.4 0-1.3-1.1-2.4-2.4-2.4zM39.2 29.7c-1.3 0-2.4 1.1-2.4 2.4 0 1.3 1.1 2.4 2.4 2.4s2.4-1.1 2.4-2.4c0-1.3-1.1-2.4-2.4-2.4zM45.7 29.7c-1.3 0-2.4 1.1-2.4 2.4 0 1.3 1.1 2.4 2.4 2.4 1.3 0 2.4-1.1 2.4-2.4 0-1.3-1.1-2.4-2.4-2.4z"/><g><path fill="#404447" d="M58.2 59.8H46c-1.1 0-1.9-.9-1.9-1.9 0-1.1.9-1.9 1.9-1.9h12.2c1.1 0 1.9.9 1.9 1.9 0 1-.9 1.9-1.9 1.9zM35.2 59.8c-.5 0-1-.2-1.4-.6-.7-.7-.7-2 0-2.7l5.6-5.6-5.6-5.6c-.7-.7-.7-2 0-2.7.7-.7 2-.7 2.7 0l6.9 6.9c.7.7.7 2 0 2.7l-6.9 6.9c-.3.5-.8.7-1.3.7z"/></g></svg>