<svg xmlns="http://www.w3.org/2000/svg" viewBox="0 0 94.7 94.7"><path fill="#404447" d="M47.3 53.5c-.4 0-.7-.1-1-.3L21.4 39.4c-.7-.4-1.1-1.1-1.1-1.9 0-.8.4-1.5 1.1-1.9L46 21.8c.6-.4 1.4-.4 2.1 0L73 35.7c.7.4 1.1 1.1 1.1 1.9 0 .8-.4 1.5-1.1 1.9L48.3 53.3c-.3.1-.7.2-1 .2zm-20.5-16L47.3 49l20.3-11.4-20.5-11.5-20.3 11.4z"/><path fill="#404447" d="M47.3 63.1c-.4 0-.7-.1-1-.3L21.4 49c-1-.6-1.4-1.9-.8-2.9.6-1 1.9-1.4 2.9-.8l23.8 13.3 23.6-13.2c1-.6 2.3-.2 2.9.8.6 1 .2 2.3-.8 2.9L48.3 62.9c-.3.1-.7.2-1 .2z"/><path fill="#404447" d="M47.3 72.7c-.4 0-.7-.1-1-.3L21.4 58.5c-1-.6-1.4-1.9-.8-2.9.6-1 1.9-1.4 2.9-.8l23.8 13.3 23.6-13.2c1-.6 2.3-.2 2.9.8.6 1 .2 2.3-.8 2.9L48.3 72.4c-.3.2-.7.3-1 .3z"/><g><path fill="#404447" d="M90.8 94.7H4c-2.2 0-4-1.8-4-4V4c0-2.2 1.8-4 4-4h86.8c2.2 0 4 1.8 4 4v86.8c-.1 2.2-1.8 3.9-4 3.9zM7.9 86.8h78.8V7.9H7.9v78.9z"/></g></svg>