<svg xmlns="http://www.w3.org/2000/svg" viewBox="0 0 600 600"><g fill="#404447"><path d="M302.3 575C148.1 575 23 451 23 298.5S148.7 22.1 302.3 22.1s279.3 124 279.3 276.4S456.5 575 302.3 575zm0-501.1c-125.7 0-228.1 101.3-228.1 225.2 0 124.5 102.4 225.2 228.1 225.2S530.4 423 530.4 299.1C530.5 174.6 428 73.9 302.3 73.9z"/><path d="M355.9 259.6c-6.4 0-13.4-2.3-18-7.6-9.9-9.9-9.9-26.2 0-36.1L549.1 7.6c7.6-7.6 18.6-9.3 27.9-5.8 9.9 4.1 15.7 13.4 15.7 23.3v83.8c0 14-11.6 25.6-25.6 25.6s-25.6-11.6-25.6-25.6V86.7L373.9 252.6c-5.2 4.6-11.6 7-18 7z"/><path d="M567.1 50.6h-84.4c-14 0-25.6-11.6-25.6-25.6S468.7-.6 482.7-.6h84.4c14 0 25.6 11.6 25.6 25.6s-11 25.6-25.6 25.6zM249.4 264.8c-6.4 0-13.4-2.3-18-7.6L19.5 48.3c-7.6-7-9.3-18-5.8-27.9 4.1-8.7 13.4-15.1 23.9-15.1H122c14 0 25.6 11.6 25.6 25.6S136 56.5 122 56.5H99.8l167.6 165.9c9.9 9.9 9.9 26.2 0 36.1-5.2 4-11.6 6.3-18 6.3z"/><path d="M37.5 139.7c-14 0-25.6-11.6-25.6-25.6V30.8c0-14 11.6-25.6 25.6-25.6s25.6 11.6 25.6 25.6v83.8c0 13.4-11 25.1-25.6 25.1z"/><g><path d="M117.3 594.8h-85c-14 0-25.6-11.6-25.6-25.6 0-14 11.6-25.6 25.6-25.6h85c14 0 25.6 11.6 25.6 25.6 0 13.9-11.7 25.6-25.6 25.6z"/><path d="M32.3 594.8c-3.5 0-6.4-.6-9.9-1.7-9.9-4.1-15.7-13.4-15.7-23.3v-84.4c0-14 11.6-25.6 25.6-25.6s25.6 11.6 25.6 25.6v22.1l167.6-165.9c9.9-9.9 26.2-9.9 36.1 0s9.9 26.2 0 36.1L50.3 587.2c-4.6 4.7-11 7.6-18 7.6z"/></g><g><path d="M561.9 600h-84.4c-14 0-25.6-11.6-25.6-25.6s11.6-25.6 25.6-25.6h22.7L332.6 383.5c-9.9-9.9-9.9-26.2 0-36.1 9.9-9.9 26.2-9.9 36.1 0l211.8 208.9c7.6 7 9.3 18 5.8 27.9-4.6 9.4-13.9 15.8-24.4 15.8zM561.9 600c-14 0-25.6-11.6-25.6-25.6v-83.8c0-14 11.6-25.6 25.6-25.6 14 0 25.6 11.6 25.6 25.6v83.8c.6 14-11.1 25.6-25.6 25.6z"/></g></g></svg>