<svg xmlns="http://www.w3.org/2000/svg" viewBox="0 0 85.8 103.5"><path fill="#404447" d="M57.4 101.5c-1.1 0-2-.9-2-2V75.1c0-1.1.9-2 2-2h24.4c1.1 0 2 .9 2 2s-.9 2-2 2H59.4v22.3c0 1.1-.9 2.1-2 2.1z"/><path fill="#404447" d="M57.4 103.5H15.5c-2.2 0-4.1-1.8-4.1-4.1V16.1c0-2.2 1.8-4.1 4.1-4.1h66.3c2.2 0 4.1 1.8 4.1 4.1v59c0 1.1-.4 2.1-1.2 2.9l-24.4 24.4c-.8.7-1.8 1.1-2.9 1.1zm-37.9-8.1h36.2l22-22V20.2H19.5v75.2z"/><path fill="#404447" d="M53 33.5H29.2c-1.1 0-2-.9-2-2s.9-2 2-2H53c1.1 0 2 .9 2 2s-.9 2-2 2zM68.7 43.3H29.2c-1.1 0-2-.9-2-2s.9-2 2-2h39.6c1.1 0 2 .9 2 2s-.9 2-2.1 2zM68.7 53.1H29.2c-1.1 0-2-.9-2-2s.9-2 2-2h39.6c1.1 0 2 .9 2 2s-.9 2-2.1 2zM45.7 63H29.2c-1.1 0-2-.9-2-2s.9-2 2-2h16.6c1.1 0 2 .9 2 2 0 1-.9 2-2.1 2zM40.8 19.3H17c-1.1 0-2-.9-2-2s.9-2 2-2h23.8c1.1 0 2 .9 2 2s-.8 2-2 2z"/><path fill="#404447" d="M4.1 93.9c-2.2 0-4.1-1.8-4.1-4.1V8.1C0 3.6 3.6 0 8.1 0h62.2c2.2 0 4.1 1.8 4.1 4.1 0 2.2-1.8 4.1-4.1 4.1H8.1v81.7c0 2.2-1.8 4-4 4z"/></svg>