<svg xmlns="http://www.w3.org/2000/svg" viewBox="0 0 94.7 92.7"><path fill="#404447" d="M68.4 92.7H3.8C1.7 92.7 0 91 0 88.9V25.5c0-2.1 1.7-3.8 3.8-3.8h64.6c2.1 0 3.8 1.7 3.8 3.8v63.4c0 2.1-1.7 3.8-3.8 3.8zM7.6 85.1h57V29.3h-57v55.8z"/><path fill="#404447" d="M81.2 49.9H68.4c-1.1 0-1.9-.9-1.9-1.9 0-1.1.8-1.9 1.9-1.9h10.9V15.3H37.8v10.1c0 1.1-.9 1.9-1.9 1.9-1.1 0-1.9-.9-1.9-1.9v-12c0-1.1.8-1.9 1.9-1.9h45.3c1.1 0 1.9.9 1.9 1.9V48c0 1-.8 1.9-1.9 1.9z"/><path fill="#404447" d="M90.9 71.1H68.4v-7.6h18.7V7.6h-57v17.9h-7.6V3.8c0-2.1 1.7-3.8 3.8-3.8h64.6c2.1 0 3.8 1.7 3.8 3.8v63.4c0 2.2-1.7 3.9-3.8 3.9zM58.8 71.6H13.4c-1.1 0-1.9-.9-1.9-1.9V35.1c0-1.1.8-1.9 1.9-1.9h45.3c1.1 0 1.9.9 1.9 1.9v34.6c.1 1-.8 1.9-1.8 1.9zm-43.4-3.8h41.5V37H15.4v30.8z"/></svg>