<svg xmlns="http://www.w3.org/2000/svg" viewBox="0 0 107.7 107.3"><g fill="#404447"><path d="M29.2 57.9h10.3c.8 0 1.7.2 2.5.3-.5.6-.9 1.3-1.5 1.9L33.6 67c-3.1 3.1-6.1 6.2-9.2 9.2-1.2 1.2-1.3 1.2-2.6 0l-5.4-5.4c-1.1-1-1.6-2-1.4-3.7.3-2.3-.1-4.6-.1-6.9 0-1.9.4-2.3 2.3-2.3 4.1-.1 8.1 0 12 0zM81.1 49.4c-3.4-.2-6.9-.4-10.3-.5-1 0-2 .3-3 .3-.7 0-1.3-.2-2-.4.3-.6.5-1.2 1-1.7 1.5-1.6 3-3 4.5-4.5 3.9-4 7.9-7.9 11.8-11.9.8-.8 1.4-.9 2.2 0 2 2.1 4 4.1 6 6 .8.8 1.1 1.6 1.1 2.7-.1 2.5 0 5.1 0 7.6 0 1.8-.4 2.1-2.2 2.2-3 .1-6.1 0-9.1 0v.2zM58.3 28.9V17.6c0-1.8.1-1.9 1.9-1.9 2.6 0 5.3-.1 7.9 0 .8 0 1.8.4 2.4.9 2 1.8 4 3.7 5.9 5.6.8.8.9 1.6 0 2.6L60 41.2c-.3.3-.8.4-1.3.6-.1-.5-.4-.9-.4-1.4V28.9zM49.3 78.5V90c0 1.8-.1 1.9-1.9 1.9h-7.9c-1.1 0-2-.2-2.7-1-1.9-2-3.8-3.9-5.8-5.8-.9-.9-.7-1.5.1-2.3 5.7-5.6 11.3-11.3 17-17 .2-.2.7-.3 1-.5.1.4.2.8.2 1.2v12zM78.9 58.4h11.3c2.2 0 2.2.1 2.3 2.1 0 1.9-.1 3.9 0 5.8.1 1.6-.4 2.8-1.4 3.9-1.9 2-4 3.9-6 6-.8.8-1.4.6-2.1-.1l-3.9-3.9L66.9 60c-.3-.3-.6-.8-.9-1.2.5-.1 1.1-.4 1.6-.4h11.3zM48.5 41.9C44.7 38 40.9 34.1 37 30.2c-1.8-1.9-3.7-3.8-5.6-5.6-.9-.8-1.2-1.7-.3-2.5 2-2 4.1-3.9 6.2-5.7.4-.4 1.1-.5 1.7-.5 2.8-.1 5.7 0 8.5 0 1.1 0 1.7.3 1.7 1.5v24.3c-.3 0-.5.1-.7.2zM58.4 78.3V67.4c0-.5.2-1 .3-1.4.4.2 1 .2 1.3.6 5.5 5.4 10.9 10.9 16.4 16.3.8.8.7 1.4.1 2.1-2 2-3.9 4-6 5.9-.4.4-1.1.6-1.6.6-2.9.1-5.9.1-8.8 0-1.6 0-1.7-.1-1.7-1.8-.1-3.9 0-7.6 0-11.4zM28.7 48.7H17.4c-1.7 0-1.8-.1-1.8-1.7v-7.6c0-1 .3-1.7 1-2.4 2-1.9 3.9-3.8 5.8-5.8.8-.8 1.4-.8 2.3 0 5.4 5.5 10.9 10.9 16.3 16.4.2.2.3.6.4 1-.3.1-.6.2-.9.2-3.9-.1-7.9-.1-11.8-.1zM55.3 78.3v14.3c0 2.4 0 2.4 2.6 2.5h6.4c.4 0 .8.2 1.1.3-.2.4-.4.8-.7 1.2-3.3 3.3-6.5 6.6-9.8 9.8-1.2 1.2-1.4 1.2-2.7 0l-6.9-6.9c-1.1-1.1-2.3-2.3-3.4-3.5-.1-.1-.3-.5-.3-.5.2-.2.4-.4.7-.4h7.9c2 0 2-.1 2-2.1V64.4c0-.9 0-1.8.3-2.7.2-.5.8-.9 1.3-1 .3-.1.9.5 1.1.9.2.7.3 1.6.3 2.4.1 4.7.1 9.5.1 14.3z"/><path d="M24 92h-6.7c-1.9 0-2.3-.3-2.3-2-.1-4.8 0-9.5 0-14.3 0-.4.2-.7.4-1.1.4.1.8.2 1.1.4 1.4 1.3 2.7 2.7 4.1 4.1 2.9 2.9 2.9 2.9 5.9-.1 6.3-6.3 12.6-12.6 18.9-19 .6-.6 1.1-1.2 1.8-1.6.4-.3 1.3-.3 1.6-.1.3.3.5 1.2.3 1.6-.3.7-1 1.3-1.5 1.9-6.6 6.5-13.2 13.1-19.8 19.7-.4.4-.8.9-1.3 1.3-1.1.8-.7 1.4.1 2.2l5.4 5.4c.3.3.4.8.6 1.3-.4.1-.8.3-1.1.3H24zM41.5 11.8c.2-.3.3-.5.5-.7 3.3-3.4 6.7-6.7 10-10 1.4-1.3 1.4-1.3 2.7-.1 3.4 3.3 6.8 6.7 10.1 10.1.2.2.3.5.5.7-.3.1-.7.4-1 .4H57c-1.6 0-1.7.1-1.7 1.8v30.7c-.1 1-.6 1.9-1.6 1.9-.5 0-1.1-1.1-1.4-1.8-.2-.6-.1-1.4-.1-2.1V15.6c0-3.8.3-3.4-3.4-3.4-2.2 0-4.5 0-6.7-.1-.2 0-.3-.2-.6-.3zM92 32.7c-1.3-1.3-2.6-2.6-3.9-3.8-.9-.9-1.8-1.7-2.6-2.6-.9-1-1.7-.9-2.6 0-1.6 1.7-3.3 3.3-5 5-5.3 5.3-10.6 10.6-16 15.9-.6.6-1.1 1.2-1.8 1.6-.3.2-1.1.3-1.3 0-.3-.4-.7-1.2-.5-1.6.4-.8 1.1-1.4 1.7-2.1l19.6-19.6 1.5-1.5c.8-.7.7-1.3 0-2-1.7-1.7-3.5-3.4-5.2-5.2-.8-.8-.6-1.4.5-1.6.4-.1.8-.1 1.2-.1h12.2c2.1 0 2.4.3 2.4 2.2v14.6c.2.3.1.4-.2.8zM74.5 91.4c2.2-2.2 3.9-4 5.7-5.7 2.3-2.3 2-1.8.1-3.7-6.7-6.7-13.3-13.4-20-20-.6-.6-1.2-1.1-1.7-1.8-.6-.8-.2-1.6.8-1.7.8-.1 1.4.1 2.1.8 7 7.1 14 14.2 21 21.2 1.4 1.4 1.4 1.4 2.9-.1 1.9-1.8 3.7-3.7 5.6-5.6.2-.2.7-.3 1.1-.3.1 0 .3.5.3.8v14.6c0 .8-.3 1.4-1.2 1.4-5.3.1-10.7.1-16.7.1zM95.7 66c-.1-1.1-.2-1.7-.2-2.3v-5.2c-.1-4.2.5-3.6-3.5-3.6H64.3c-.8 0-1.6 0-2.4-.2-.4-.1-1-.7-.9-1 .1-.5.5-1.1 1-1.3.7-.2 1.6-.1 2.4-.1h29.5c1.1.1 1.7-.3 1.6-1.6-.1-2.6 0-5.3 0-7.9 0-.4.2-.8.2-1.2.3.2.7.2 1 .5 3.5 3.4 6.9 6.9 10.4 10.3.6.6 1 1.1.3 1.8-3.9 3.9-7.6 7.6-11.7 11.8zM15.8 32.9c-.1-.9-.2-1.4-.2-1.8V17.4c0-.9.1-1.6 1.3-1.6H33c-2 2-3.5 3.6-5.1 5.1l-1.5 1.5c-.5.6-.5 1.3 0 1.9.5.6 1.1 1.2 1.7 1.8l19.2 19.2c.6.6 1.2 1.2 1.6 1.8.2.3.2.9.1 1.1-.2.3-.8.5-1 .4-.8-.3-1.7-.7-2.3-1.3-4.3-4.3-8.6-8.6-13-12.9l-8-8c-1.2-1.1-1.2-1.1-2.5 0-2 2.1-4 4.2-6.4 6.5zM11.3 65.7C7.7 62 4.1 58.3.4 54.7c-.6-.6-.6-1 0-1.5C4 49.5 7.6 46 11.2 42.4c.1-.1.4-.1.8-.2v7.9c0 2.1 0 2.2 2.2 2.2h29.3c.7 0 1.5-.1 2.1 0 .5.1 1 .6 1.4.9-.4.5-.7 1.2-1.2 1.3-.8.3-1.8.3-2.7.3H15c-3.5 0-3.2-.4-3.2 3v7.6c0 .1-.2.2-.5.3z"/></g></svg>