<svg xmlns="http://www.w3.org/2000/svg" viewBox="0 0 129.4 96.7"><path fill="#404447" d="M65.3 96.7H5.1c-.9 0-1.8-.4-2.4-1.2-.5-.8-.7-1.7-.4-2.6l12.3-38.6c.4-1.2 1.5-2 2.8-2h60.2c.9 0 1.8.4 2.4 1.2.5.8.7 1.7.4 2.6L68.1 94.7c-.4 1.2-1.5 2-2.8 2zM9.1 90.9h54l10.4-32.8h-54L9.1 90.9z"/><path fill="#404447" d="M2.9 96.7c-1.6 0-2.9-1.3-2.9-2.9V40.9C0 37.7 2.6 35 5.9 35h20.5c3.2 0 5.9 2.6 5.9 5.9V43h3.3c1.6 0 2.9 1.3 2.9 2.9 0 1.6-1.3 2.9-2.9 2.9h-6.3c-1.6 0-2.9-1.3-2.9-2.9v-5H5.9v52.9c0 1.6-1.3 2.9-3 2.9zM43.5 83.6c-.8 0-1.5-.3-2.1-.9l-8.9-8.9c-1.1-1.1-1.1-3 0-4.1s3-1.1 4.1 0l6.8 6.8 6.8-6.8c1.1-1.1 3-1.1 4.1 0 1.1 1.1 1.1 3 0 4.1l-8.9 8.9c-.3.6-1.1.9-1.9.9z"/><path fill="#404447" d="M43.5 81.9c-1.5 0-2.8-1.1-2.9-2.6-.1-1.3-.2-2.6-.2-3.9 0-21.3 17.5-38.6 39.1-38.6 1.6 0 2.9 1.3 2.9 2.9 0 1.6-1.3 2.9-2.9 2.9-18.3 0-33.2 14.7-33.2 32.8 0 1.1.1 2.3.2 3.4.2 1.6-1 3-2.6 3.2-.2-.1-.3-.1-.4-.1z"/><g><path fill="#404447" d="M87.7 43.8c-.4 0-.7-.1-1-.3-.5-.3-.8-.8-.8-1.4V8.8c0-.7.5-1.3 1.2-1.6l20-7.1c.5-.2 1.2-.1 1.6.2.5.3.8.8.8 1.4V35c0 .7-.5 1.3-1.2 1.6l-20 7.1c-.1.1-.4.1-.6.1zM89.5 10v29.8l16.4-5.8V4.1L89.5 10z"/><path fill="#404447" d="M91.8 16.9c-.4 0-.7-.2-.8-.5-.2-.4.1-.9.5-1.1l11.9-4.2c.5-.2 1 .1 1.1.5.2.4-.1.9-.5 1.1l-11.9 4.2h-.3zM91.8 27.7c-.4 0-.7-.2-.8-.5-.2-.4.1-.9.5-1.1l11.9-4.2c.5-.2 1 .1 1.1.5.2.4-.1.9-.5 1.1l-11.9 4.2h-.3zM91.8 33.2c-.4 0-.7-.2-.8-.5-.2-.4.1-.9.5-1.1l11.9-4.2c.5-.2 1 .1 1.1.5.2.4-.1.9-.5 1.1l-11.9 4.2c0-.1-.1 0-.3 0zM91.8 22.3c-.4 0-.7-.2-.8-.5-.2-.4.1-.9.5-1.1l11.9-4.2c.5-.2 1 .1 1.1.5.2.4-.1.9-.5 1.1l-11.9 4.2h-.3z"/><g><path fill="#404447" d="M120.3 40.4c-.5 0-.9-.4-.9-.8v-9.8c0-.3.1-.5.4-.7.2-.2.5-.2.8-.1l7.3 2.6c.5.2.7.6.5 1.1-.2.4-.7.7-1.1.5l-6.1-2.2v8.5c0 .5-.4.9-.9.9z"/><path fill="#404447" d="M120.3 41.2c-.2 0-.4 0-.6-.1L107 36.6c-.7-.2-1.2-.9-1.2-1.6V1.7c0-.6.3-1.1.8-1.4.5-.3 1.1-.4 1.6-.2l19.9 7.1c.7.2 1.2.9 1.2 1.6v23.6c0 .4-.2.9-.5 1.2l-7.3 7.1c-.3.3-.7.5-1.2.5zm-10.8-7.3l10.4 3.7 6-5.9V9.9l-16.4-5.8v29.8z"/><path fill="#404447" d="M123.9 17.1c-.1 0-.2 0-.3-.1l-11.9-4.2c-.5-.2-.7-.6-.5-1.1.2-.4.7-.7 1.1-.5l11.9 4.2c.5.2.7.6.5 1.1-.1.3-.4.6-.8.6zM123.9 27.9c-.1 0-.2 0-.3-.1l-11.9-4.2c-.5-.2-.7-.6-.5-1.1.2-.4.7-.7 1.1-.5l11.9 4.2c.5.2.7.6.5 1.1-.1.4-.4.6-.8.6zM123.9 22.5c-.1 0-.2 0-.3-.1l-11.9-4.2c-.5-.2-.7-.6-.5-1.1.2-.4.7-.7 1.1-.5l11.9 4.2c.5.2.7.6.5 1.1-.1.4-.4.6-.8.6z"/></g></g></svg>