<svg xmlns="http://www.w3.org/2000/svg" viewBox="0 0 85.6 96.4"><path fill="#404447" d="M64.3 40.3H32.9c-1.1 0-2-.9-2-2V20.5c0-1.1.9-2 2-2h31.4c1.1 0 2 .9 2 2v17.7c0 1.2-.9 2.1-2 2.1zm-29.4-4.1h27.3V22.6H34.9v13.6z"/><path fill="#404447" d="M81.5 96.4H11.3c-2.3 0-4.1-1.8-4.1-4.1V4.1C7.2 1.8 9 0 11.3 0h70.2c2.3 0 4.1 1.8 4.1 4.1v88.3c0 2.2-1.9 4-4.1 4zm-66.2-8.1h62V8.2h-62v80.1z"/><path fill="#404447" d="M18.4 24.7H4.1c-2.3 0-4.1-1.8-4.1-4.1s1.8-4.1 4.1-4.1h14.3c2.3 0 4.1 1.8 4.1 4.1s-1.8 4.1-4.1 4.1zM18.4 42.9H4.1c-2.3 0-4.1-1.8-4.1-4.1s1.8-4.1 4.1-4.1h14.3c2.3 0 4.1 1.8 4.1 4.1s-1.8 4.1-4.1 4.1zM18.4 61.2H4.1c-2.3 0-4.1-1.8-4.1-4.1C0 54.9 1.8 53 4.1 53h14.3c2.3 0 4.1 1.8 4.1 4.1s-1.8 4.1-4.1 4.1zM18.4 79.5H4.1c-2.3 0-4.1-1.8-4.1-4.1s1.8-4.1 4.1-4.1h14.3c2.3 0 4.1 1.8 4.1 4.1s-1.8 4.1-4.1 4.1z"/><g><path fill="#404447" d="M46.8 83.7c-.2 0-.4-.1-.6-.2-.3-.2-.5-.5-.5-.9V61.3c0-.4.3-.8.7-1l12-4.5c.3-.1.7-.1 1 .1.3.2.5.5.5.9v21.3c0 .4-.3.8-.7 1l-12 4.5c-.2.1-.3.1-.4.1zm1.1-21.6v19l9.9-3.7v-19l-9.9 3.7z"/><path fill="#404447" d="M49.3 66.5c-.2 0-.4-.1-.5-.3-.1-.3 0-.6.3-.7l7.2-2.7c.3-.1.6 0 .7.3.1.3 0 .6-.3.7l-7.2 2.7h-.2zM49.3 73.4c-.2 0-.4-.1-.5-.3-.1-.3 0-.6.3-.7l7.2-2.7c.3-.1.6 0 .7.3.1.3 0 .6-.3.7l-7.2 2.7h-.2zM49.3 76.9c-.2 0-.4-.1-.5-.3-.1-.3 0-.6.3-.7l7.2-2.7c.3-.1.6 0 .7.3.1.3 0 .6-.3.7l-7.2 2.7h-.2zM49.3 70c-.2 0-.4-.1-.5-.3-.1-.3 0-.6.3-.7l7.2-2.7c.3-.1.6 0 .7.3.1.3 0 .6-.3.7L49.5 70h-.2z"/><g><path fill="#404447" d="M66.4 81.5c-.3 0-.5-.2-.5-.5v-6.2c0-.2.1-.3.2-.4.1-.1.3-.1.5-.1L71 76c.3.1.4.4.3.7-.1.3-.4.4-.7.3l-3.7-1.4V81c0 .2-.2.5-.5.5z"/><path fill="#404447" d="M66.4 82c-.1 0-.3 0-.4-.1L58.4 79c-.4-.2-.7-.6-.7-1V56.8c0-.4.2-.7.5-.9.3-.2.7-.2 1-.1l12 4.5c.4.2.7.6.7 1v15c0 .3-.1.5-.3.7l-4.4 4.5c-.3.4-.5.5-.8.5zm-6.5-4.7l6.2 2.4 3.6-3.7V62.1l-9.9-3.7v18.9h.1z"/><path fill="#404447" d="M68.5 66.6h-.2l-7.2-2.7c-.3-.1-.4-.4-.3-.7.1-.3.4-.4.7-.3l7.2 2.7c.3.1.4.4.3.7 0 .2-.2.3-.5.3zM68.5 73.5h-.2l-7.2-2.7c-.3-.1-.4-.4-.3-.7.1-.3.4-.4.7-.3l7.2 2.7c.3.1.4.4.3.7 0 .2-.2.3-.5.3zM68.5 70.1h-.2l-7.2-2.7c-.3-.1-.4-.4-.3-.7.1-.3.4-.4.7-.3l7.2 2.7c.3.1.4.4.3.7 0 .1-.2.3-.5.3z"/></g></g></svg>