<svg xmlns="http://www.w3.org/2000/svg" viewBox="0 0 94.2 92.7"><path fill="#404447" d="M90.2 92.7H4c-2.2 0-4-1.8-4-4V4c0-2.2 1.8-4 4-4h86.3c2.2 0 4 1.8 4 4v84.7c-.1 2.2-1.9 4-4.1 4zm-82.3-8h78.3V7.9H7.9v76.8z"/><path fill="#404447" d="M17.6 16.4v58.4H76V16.4H17.6zm29.3 9.9c4.4 0 8.5 1.5 11.8 3.9l-2 2.7c-2.7-2-6.1-3.2-9.8-3.2-6.9 0-12.8 4.3-15.2 10.4l-3.1-1.2c2.8-7.4 9.9-12.6 18.3-12.6zM34.3 46c0 5.3 3.3 9.8 7.9 11.7L41 60.8c-2.9-1.2-5.4-3.2-7.2-5.8-1.8-2.6-2.8-5.7-2.8-9h3.3zM32 40.2c1.2-3 3.2-5.5 5.8-7.3 2.6-1.8 5.7-2.8 9.1-2.8v3.3c-5.3 0-9.9 3.3-11.7 8L32 40.2zm2.7 5.8c0-6.7 5.5-12.2 12.2-12.2 5.9 0 10.8 4.2 11.9 9.7h-3.4c-1.1-3.7-4.5-6.4-8.5-6.4-4.9 0-8.9 4-8.9 8.9s4 8.9 8.9 8.9c4 0 7.4-2.7 8.5-6.4h3.4c-1.1 5.5-6.1 9.7-11.9 9.7-6.8 0-12.2-5.5-12.2-12.2zm16.4-2.5c-.6-1-1.4-1.7-2.5-2.1l1.3-3.3c2.4.9 4.3 2.9 5 5.4h-3.8zm3.8 4.9c-.8 2.5-2.6 4.5-5 5.4l-1.3-3.3c1-.4 1.9-1.2 2.5-2.1h3.8zm-13-2.4c0 .7.1 1.4.4 2l-3.2 1.4c-.5-1-.7-2.2-.7-3.4 0-4.7 3.8-8.4 8.4-8.4v3.5c-2.7 0-4.9 2.2-4.9 4.9zm5 4.9v3.5c-2.3 0-4.4-1-6-2.5l2.5-2.5c.9.9 2.1 1.5 3.5 1.5zm0 7.7c6.1 0 11.2-4.4 12.3-10.1h3.4C61.4 56.1 54.8 62 46.9 62v-3.4zm12.3-15.1c-.8-4.2-3.8-7.7-7.8-9.3l1.2-3.1c5.2 2 9.1 6.7 10 12.4h-3.4zM28.9 53.9c-.3-.7-.6-1.5-.8-2.2 0-.1 0-.1-.1-.2 0-.1-.1-.3-.1-.4 0-.1-.1-.2-.1-.3 0-.1-.1-.2-.1-.4 0-.1-.1-.3-.1-.4 0-.1 0-.2-.1-.3 0-.2-.1-.3-.1-.5V49c0-.2-.1-.4-.1-.6v-.1c-.1-.8-.1-1.6-.1-2.4h3.3c0 .7.1 1.5.1 2.2v.3c0 .1 0 .2.1.4v.2c0 .1.1.3.1.5v.1c0 .2.1.3.1.5.1.2.1.4.2.6.2.6.4 1.2.7 1.8l-2.9 1.4zm18 11.7c-5.4 0-10.3-2.2-13.9-5.8l2.4-2.4c3 3 7 4.8 11.5 4.8 8.2 0 15-6 16.1-13.9h3.4c-1.2 9.8-9.5 17.3-19.5 17.3zM63 43.5c-.3-2.2-1.1-4.3-2.3-6.2l2.8-1.8c1.5 2.4 2.5 5.1 2.8 7.9H63z"/></svg>