<svg xmlns="http://www.w3.org/2000/svg" viewBox="0 0 108.3 95"><path fill="#404447" d="M47.5 95C21.3 95 0 73.7 0 47.5S21.3 0 47.5 0 95 21.3 95 47.5c0 2.5-2 4.5-4.5 4.5S86 50 86 47.5C86 26.2 68.7 8.9 47.4 8.9 26.2 8.9 8.9 26.2 8.9 47.5s17.3 38.6 38.6 38.6c9.9 0 19.3-3.8 26.5-10.6 1.5-1.4 3-3 4.2-4.7 1.5-2 4.3-2.3 6.2-.8 2 1.5 2.3 4.3.8 6.2-1.6 2.1-3.3 4-5.2 5.8-8.7 8.4-20.3 13-32.5 13z"/><path fill="#404447" d="M90.3 58c-1.1 0-2.1-.4-3-1.1L73.8 44.7c-1.8-1.6-2-4.5-.3-6.3 1.6-1.8 4.5-2 6.3-.3l10.6 9.5 10.6-9.5c1.8-1.6 4.6-1.5 6.3.3 1.6 1.8 1.5 4.7-.3 6.3L93.3 56.9c-.9.7-1.9 1.1-3 1.1z"/></svg>