<svg xmlns="http://www.w3.org/2000/svg" viewBox="0 0 600 600"><path fill="#404447" d="M433.8 250.8H238.4c-6.8 0-12.4-5.6-12.4-12.4V127.6c0-6.8 5.6-12.4 12.4-12.4h195.4c6.8 0 12.4 5.6 12.4 12.4v110.2c.1 7.4-5.5 13-12.4 13zm-183-25.5h169.9v-84.6H250.8v84.6z"/><path fill="#404447" d="M540.9 600h-437c-14.3 0-25.5-11.2-25.5-25.5v-549C78.4 11.2 89.6 0 103.9 0h436.9c14.3 0 25.5 11.2 25.5 25.5v549.6c.1 13.7-11.7 24.9-25.4 24.9zm-412.1-50.4h385.9V51H128.8v498.6z"/><path fill="#404447" d="M148.1 153.7h-89c-14.3 0-25.5-11.2-25.5-25.5s11.2-25.5 25.5-25.5h89c14.3 0 25.5 11.2 25.5 25.5.1 14.3-11.2 25.5-25.5 25.5zM148.1 267h-89c-14.3 0-25.5-11.2-25.5-25.5S44.8 216 59.1 216h89c14.3 0 25.5 11.2 25.5 25.5.1 14.3-11.2 25.5-25.5 25.5zM148.1 380.9h-89c-14.3 0-25.5-11.2-25.5-25.5 0-13.7 11.2-25.5 25.5-25.5h89c14.3 0 25.5 11.2 25.5 25.5.1 14.3-11.2 25.5-25.5 25.5zM148.1 494.8h-89c-14.3 0-25.5-11.2-25.5-25.5s11.2-25.5 25.5-25.5h89c14.3 0 25.5 11.2 25.5 25.5.1 14.3-11.2 25.5-25.5 25.5z"/></svg>