<svg xmlns="http://www.w3.org/2000/svg" viewBox="0 0 74.4 97.5"><path fill="#404447" d="M74.4 95.5V2c0-1.1-.9-2-2-2H2C.9 0 0 .9 0 2v93.5c0 1.1.9 2 2 2h70.3c1.2 0 2.1-.9 2.1-2zm-28.2-85H56c1.1 0 2 .9 2 2s-.9 2-2 2h-9.9c-1.1 0-2-.9-2-2 .1-1.1 1-2 2.1-2zM55 21.1c0 1.1-.9 2-2 2H17.7c-1.1 0-2-.9-2-2s.9-2 2-2H53c1.1.1 2 1 2 2zM29.2 10.5H39c1.1 0 2 .9 2 2s-.9 2-2 2h-9.8c-1.1 0-2-.9-2-2s.9-2 2-2zm-17 0h9.9c1.1 0 2 .9 2 2s-.9 2-2 2h-9.9c-1.1 0-2-.9-2-2 .1-1.1.9-2 2-2zm33.9 29.1H17.7c-1.1 0-2-.9-2-2s.9-2 2-2h28.4c1.1 0 2 .9 2 2s-.9 2-2 2zm2 6.3c0 1.1-.9 2-2 2H17.7c-1.1 0-2-.9-2-2s.9-2 2-2h28.4c1.1 0 2 .9 2 2zm-26 19h-9.9c-1.1 0-2-.9-2-2s.9-2 2-2h9.9c1.1 0 2 .9 2 2s-.9 2-2 2zm39.3-8.5H17.7c-1.1 0-2-.9-2-2s.9-2 2-2h43.7c1.1 0 2 .9 2 2s-.9 2-2 2zm0-24.7H17.7c-1.1 0-2-.9-2-2s.9-2 2-2h43.7c1.1 0 2 .9 2 2s-.9 2-2 2z"/></svg>