<svg xmlns="http://www.w3.org/2000/svg" viewBox="0 0 77.9 77.5"><path fill="#404447" d="M1 76.4c-.6-.8-1.2-1.9-1-3L10 3.1c.3-1.9 2-3.2 3.9-3l27.7 2.7c.8.1 1.6.4 2.2 1l30.4 30.4c.6.6.9 1.4 1 2.2L77.9 64c.2 1.9-1.2 3.6-3.1 3.9L4 77.4c-1.1.2-2.2-.2-3-1zm15.6-69L7.7 69.8l62.7-8.5-2.3-23L39.6 9.7l-23-2.3z"/><path fill="#404447" d="M73.1 65.6L12.3 4.8c-.5-.5-.7-1.3-.3-2 .3-.7 1-1.1 1.8-1l27.7 2.7c.4 0 .8.2 1.1.5L73 35.4c.3.3.5.7.5 1.1l2.7 27.7c.1.7-.3 1.5-1 1.8-.8.3-1.6.1-2.1-.4zM18.3 5.8L72 59.5l-2.2-22.1L40.4 8 18.3 5.8z"/><path fill="#404447" d="M2.2 75.7c-.6-.6-.7-1.4-.3-2.1l37.5-67c.5-.9 1.6-1.2 2.4-.7.9.5 1.2 1.6.7 2.4L8.1 69.8l61.5-34.4c.9-.5 1.9-.2 2.4.7.5.9.2 1.9-.7 2.4L4.3 76c-.7.4-1.6.3-2.1-.3z"/><path fill="#404447" d="M42.8 35.1c-.3-.3-.5-.6-.5-1.1L39.2 7.7c-.1-1 .6-1.9 1.6-2 1-.1 1.9.6 2 1.6l2.9 25 25 2.9c1 .1 1.7 1 1.6 2-.1 1-1 1.7-2 1.6l-26.4-3.1c-.5-.1-.9-.3-1.1-.6z"/><path fill="#404447" d="M71.4 63.6c-.1-.1-.2-.3-.3-.4L52.4 25.5 14.7 6.7c-.8-.4-1.1-1.4-.7-2.2.4-.8 1.4-1.1 2.2-.7l38.1 19c.3.2.6.4.7.7l19 38.2c.4.8.1 1.8-.7 2.2-.6.3-1.4.2-1.9-.3z"/></svg>