<svg xmlns="http://www.w3.org/2000/svg" viewBox="0 0 100 100"><g fill="#404447"><path d="M811.7 1055.7c-142.1 0-257.9-115.8-257.9-257.9s115.8-257.9 257.9-257.9c117.2 0 216.8 79.1 247.6 186.1h99.6c-33.7-161.2-175.8-282.8-347.3-282.8-194.9 0-354.6 159.7-354.6 354.6s159.7 354.6 354.6 354.6c171.4 0 313.6-121.6 347.3-282.8h-99.6c-30.7 108.4-130.4 186.1-247.6 186.1"/><path d="M638.8 972.2c44 44 105.5 71.8 174.4 71.8V941.4c-39.6 0-74.7-16.1-101.1-42.5l-73.3 73.3zM565.6 797.8c0 35.2 7.3 68.9 20.5 99.6l93.8-41c-7.3-17.6-11.7-36.6-11.7-57.1 0-79.1 64.5-143.6 143.6-143.6V553.1c-134.9 0-246.2 109.9-246.2 244.7M901.1 569.2l-36.6 95.2c30.8 11.7 55.7 33.7 71.8 61.5h111.4c-22.1-71.7-76.3-128.8-146.6-156.7M864.5 931.1l36.6 95.2c70.3-27.8 124.5-85 146.5-158.2H936.3c-16.2 29.3-42.5 51.3-71.8 63M357.5 935.5c-1.5-5.9-2.9-10.3-4.4-16.1v-1.5c-1.5-4.4-2.9-10.3-4.4-14.7v-2.9c-1.5-4.4-1.5-8.8-2.9-13.2 0-1.5 0-4.4-1.5-5.9 0-2.9-1.5-7.3-1.5-10.3s-1.5-5.9-1.5-8.8c-2.9-20.5-4.4-42.5-4.4-63h-96.7c0 23.4 1.5 46.9 4.4 68.9v1.5c1.5 5.9 1.5 11.7 2.9 19 0 1.5 0 2.9 1.5 4.4 1.5 4.4 1.5 10.3 2.9 14.7 0 2.9 1.5 5.9 1.5 7.3 1.5 4.4 1.5 7.3 2.9 11.7 1.5 2.9 1.5 7.3 2.9 10.3s1.5 5.9 2.9 8.8c1.5 4.4 2.9 8.8 2.9 11.7 0 1.5 1.5 2.9 1.5 4.4 7.3 22 14.7 44 23.4 64.5l89.4-39.6c-10.1-14.5-15.9-32.1-21.8-51.2z"/><path d="M811.7 1274c-130.4 0-250.5-52.7-335.5-139.2l-68.9 68.9c104 104 246.2 167 404.4 167 291.6 0 533.3-218.3 568.5-501.1H1282c-35.1 228.6-231.5 404.4-470.3 404.4M811.7 323.1c107 0 205.1 35.2 284.2 95.2l58.6-77.7c-95.2-71.8-213.9-114.3-342.9-114.3-243.2 0-449.8 150.9-533.3 364.8l90.8 35.2c69-177.2 241.9-303.2 442.6-303.2M1282.1 727.5h98.2c-10.3-83.5-39.6-162.6-82.1-231.5l-82.1 51.3c32.3 52.7 55.7 114.2 66 180.2"/><path d="M1172.2 727.5h98.2C1244 561.9 1131.1 425.6 980.2 367L945 457.8c114.3 44 202.3 145.1 227.2 269.7M811.7 431.5v-96.7c-196.3 0-363.4 123.1-430.8 296l90.8 35.2c52.8-136.3 184.7-234.5 340-234.5M445.4 797.8h-96.7c0 194.9 120.1 361.9 291.6 430.8l36.6-89.4C540.7 1085 445.4 953.1 445.4 797.8M811.7 1165.6v96.7c231.5 0 423.4-170 457.1-391.2h-96.7c-33.6 167-181.6 294.5-360.4 294.5"/><path d="M1572.7 1569H27.3V31h1545.4v1538zm-1541.4-4h1537.4V35H31.3v1530z"/></g></svg>