<svg xmlns="http://www.w3.org/2000/svg" viewBox="0 0 94.9 106.7"><path fill="#404447" d="M91 106.7H70.7c-2.1 0-3.8-1.7-3.8-3.8V41.7c0-2.1 1.7-3.8 3.8-3.8H91c2.1 0 3.8 1.7 3.8 3.8v61.2c.1 2.1-1.6 3.8-3.8 3.8zm-16.5-7.6h12.7V45.5H74.5v53.6zM57.6 106.7H37.2c-2.1 0-3.8-1.7-3.8-3.8v-35c0-2.1 1.7-3.8 3.8-3.8h20.4c2.1 0 3.8 1.7 3.8 3.8v35c0 2.1-1.7 3.8-3.8 3.8zm-16.5-7.6h12.7V71.7H41.1v27.4zM24.2 106.7H3.8c-2.1 0-3.8-1.7-3.8-3.8v-16c0-2.1 1.7-3.8 3.8-3.8h20.4c2.1 0 3.8 1.7 3.8 3.8v16c0 2.1-1.7 3.8-3.8 3.8zM7.6 99.1h12.7v-8.4H7.6v8.4zM65.2 37.2c-1 0-2-.4-2.7-1.1-1.5-1.5-1.5-3.9 0-5.4l12.1-12.1L62.5 6.5C61 5 61 2.6 62.5 1.1c1.5-1.5 3.9-1.5 5.4 0l14.8 14.8c1.5 1.5 1.5 3.9 0 5.4L67.9 36.1c-.8.7-1.8 1.1-2.7 1.1z"/><path fill="#404447" d="M14.9 72.1c-.2 0-.5 0-.7-.1-2.1-.4-3.4-2.4-3-4.5C17.1 37 43.8 14.8 74.7 14.8c2.1 0 3.8 1.7 3.8 3.8 0 2.1-1.7 3.8-3.8 3.8-27.2 0-50.8 19.6-56 46.6-.4 1.9-2 3.1-3.8 3.1z"/></svg>