<svg xmlns="http://www.w3.org/2000/svg" viewBox="0 0 94.4 96"><path fill="#404447" d="M41.2 82.3C18.5 82.3 0 63.9 0 41.2 0 18.5 18.5 0 41.2 0c22.7 0 41.2 18.5 41.2 41.2-.1 22.7-18.5 41.1-41.2 41.1zm0-74C23 8.3 8.3 23 8.3 41.2c0 18.1 14.8 32.9 32.9 32.9 18.2 0 32.9-14.8 32.9-32.9C74.1 23 59.3 8.3 41.2 8.3z"/><path fill="#404447" d="M18 41.2h-4.1c0-15 12.2-27.3 27.3-27.3V18C28.4 18 18 28.4 18 41.2zM90.2 96c-1.1 0-2.1-.4-2.9-1.2l-23-23c-1.6-1.6-1.6-4.2 0-5.8 1.6-1.6 4.2-1.6 5.8 0l23 23c1.6 1.6 1.6 4.2 0 5.8-.8.8-1.8 1.2-2.9 1.2z"/></svg>