<svg xmlns="http://www.w3.org/2000/svg" viewBox="0 0 59.8 80"><path fill="#404447" d="M30.2 37.2c-9.2 0-16.6-8.3-16.6-18.6S21 0 30.2 0c9.2 0 16.6 8.3 16.6 18.6s-7.5 18.6-16.6 18.6zm0-30.3c-5.3 0-9.7 5.2-9.7 11.7 0 6.4 4.3 11.7 9.7 11.7 5.3 0 9.7-5.2 9.7-11.7 0-6.4-4.4-11.7-9.7-11.7zM55.2 80H4.6c-1.8 0-3.3-1.4-3.5-3.2L0 60.5c-.4-6 4.3-12.9 10.2-15.1 12.7-4.6 26.7-4.5 39.3 0 6 2.2 10.6 9.1 10.2 15.1l-1.1 16.3c-.1 1.8-1.6 3.2-3.4 3.2zM7.8 73.1H52l.8-13.1c.2-2.7-2.3-6.9-5.7-8.2-11.1-4-23.5-4-34.6 0C9.2 53 6.7 57.3 6.8 60l1 13.1z"/></svg>