<svg xmlns="http://www.w3.org/2000/svg" viewBox="0 0 112 99.7"><path fill="#404447" d="M71.8 25.1h-8.9c-.3 0-.6-.3-.6-.6v-5c0-.3.3-.6.6-.6h8.9c.3 0 .6.3.6.6v5c0 .3-.3.6-.6.6zm-8.3-1.2h7.8V20h-7.8v3.9z"/><path fill="#404447" d="M76.7 41.1h-20c-.6 0-1.2-.5-1.2-1.2V14.8c0-.6.5-1.2 1.2-1.2h20c.6 0 1.2.5 1.2 1.2v25.1c0 .7-.6 1.2-1.2 1.2zm-18.8-2.4h17.7V15.9H57.9v22.8z"/><path fill="#404447" d="M58.7 20.6h-4.1c-.6 0-1.2-.5-1.2-1.2 0-.6.5-1.2 1.2-1.2h4.1c.6 0 1.2.5 1.2 1.2s-.5 1.2-1.2 1.2zM58.7 25.8h-4.1c-.6 0-1.2-.5-1.2-1.2 0-.6.5-1.2 1.2-1.2h4.1c.6 0 1.2.5 1.2 1.2s-.5 1.2-1.2 1.2zM58.7 31h-4.1c-.6 0-1.2-.5-1.2-1.2 0-.6.5-1.2 1.2-1.2h4.1c.6 0 1.2.5 1.2 1.2s-.5 1.2-1.2 1.2zM58.7 36.2h-4.1c-.6 0-1.2-.5-1.2-1.2 0-.6.5-1.2 1.2-1.2h4.1c.6 0 1.2.5 1.2 1.2s-.5 1.2-1.2 1.2z"/><g><path fill="#404447" d="M66.7 54.8c-7.3 0-14.2-2.9-19.4-8-10.7-10.7-10.7-28.1 0-38.8 5.2-5.2 12.1-8 19.4-8s14.2 2.9 19.4 8c5.2 5.2 8 12.1 8 19.4 0 7.3-2.9 14.2-8 19.4-5.2 5.2-12.1 8-19.4 8zm0-50.4c-6.1 0-11.9 2.4-16.3 6.7-9 9-9 23.6 0 32.5 4.3 4.3 10.1 6.7 16.3 6.7 6.1 0 11.9-2.4 16.3-6.7 4.3-4.3 6.7-10.1 6.7-16.3 0-6.1-2.4-11.9-6.7-16.3-4.4-4.2-10.2-6.6-16.3-6.6z"/></g><g><path fill="#404447" d="M36.9 73.4c-1.9 0-3.7-1.3-4.3-3.2L17.9 16.4l-13.7-.6c-2.4-.1-4.3-2.2-4.2-4.6C.1 8.8 2 6.9 4.6 7l16.9.7c1.9.1 3.6 1.4 4.1 3.2l15.6 56.9c.6 2.4-.7 4.8-3.1 5.4-.4.2-.8.2-1.2.2z"/></g><g><path fill="#404447" d="M47.5 99.7c-6.7 0-12.1-5.4-12.1-12.1 0-6.7 5.5-12.1 12.1-12.1 6.7 0 12.1 5.4 12.1 12.1 0 6.6-5.4 12.1-12.1 12.1zm0-15.5c-1.8 0-3.3 1.5-3.3 3.3 0 1.8 1.5 3.3 3.3 3.3 1.8 0 3.3-1.5 3.3-3.3 0-1.8-1.5-3.3-3.3-3.3z"/></g><g><path fill="#404447" d="M84.3 99.7c-6.7 0-12.1-5.4-12.1-12.1 0-6.7 5.5-12.1 12.1-12.1 6.7 0 12.1 5.4 12.1 12.1 0 6.6-5.4 12.1-12.1 12.1zm0-15.5c-1.8 0-3.3 1.5-3.3 3.3 0 1.8 1.5 3.3 3.3 3.3 1.8 0 3.3-1.5 3.3-3.3 0-1.8-1.5-3.3-3.3-3.3z"/></g><g><path fill="#404447" d="M96.3 73.4H36.9c-2 0-3.7-1.3-4.3-3.2l-11.3-41c-.4-1.3-.1-2.8.7-3.8.8-1.1 2.1-1.7 3.5-1.7h15.9v8.8h-10l8.9 32.2h52.6l8.9-32.2h-10v-8.8h15.8c1.4 0 2.7.6 3.5 1.7.8 1.1 1.1 2.5.7 3.8l-11.3 41c-.5 1.9-2.2 3.2-4.2 3.2z"/></g></svg>