<svg xmlns="http://www.w3.org/2000/svg" viewBox="0 0 88.2 85.6"><path fill="#404447" d="M21.7 16.7c-1 0-2-.4-2.7-1.1l-6.2-6.1-6.1 6.1c-1.5 1.5-4 1.5-5.5 0s-1.5-4 0-5.5l8.8-9c1.5-1.5 4-1.5 5.5 0l8.9 8.9c1.5 1.5 1.5 4 0 5.5-.7.8-1.7 1.2-2.7 1.2z"/><path fill="#404447" d="M12.8 35.9c-2.1 0-3.9-1.7-3.9-3.9V6.2c0-2.1 1.7-3.9 3.9-3.9 2.1 0 3.9 1.7 3.9 3.9V32c0 2.2-1.8 3.9-3.9 3.9zM12.8 85.6c-1 0-2-.4-2.7-1.1l-8.9-8.9c-1.5-1.5-1.5-4 0-5.5s4-1.5 5.5 0l6.2 6.1 6.1-6.1c1.5-1.5 4-1.5 5.5 0s1.5 4 0 5.5l-8.9 8.9c-.8.7-1.8 1.1-2.8 1.1z"/><path fill="#404447" d="M12.8 83.2c-2.1 0-3.9-1.7-3.9-3.9V53.5c0-2.1 1.7-3.9 3.9-3.9 2.1 0 3.9 1.7 3.9 3.9v25.8c0 2.1-1.8 3.9-3.9 3.9zM84.3 7.8H31.8c-2.1 0-3.9-1.7-3.9-3.9S29.7 0 31.8 0h52.5c2.2 0 3.9 1.7 3.9 3.9s-1.7 3.9-3.9 3.9zM84.3 85.6H31.8c-2.1 0-3.9-1.7-3.9-3.9 0-2.1 1.7-3.9 3.9-3.9h52.5c2.2 0 3.9 1.7 3.9 3.9 0 2.1-1.7 3.9-3.9 3.9z"/><g><path fill="#404447" d="M84.3 59.6H31.8c-2.1 0-3.9-1.7-3.9-3.9 0-2.1 1.7-3.9 3.9-3.9h52.5c2.2 0 3.9 1.7 3.9 3.9s-1.7 3.9-3.9 3.9z"/></g><g><path fill="#404447" d="M84.3 33.7H31.8c-2.1 0-3.9-1.7-3.9-3.9s1.7-3.9 3.9-3.9h52.5c2.2 0 3.9 1.7 3.9 3.9s-1.7 3.9-3.9 3.9z"/></g></svg>