<svg xmlns="http://www.w3.org/2000/svg" viewBox="0 0 92 92.7"><path fill="#404447" d="M54.4 40.2c-.5 0-1-.2-1.4-.6-.8-.7-.8-2 0-2.7l6.1-6.1c.8-.8 2-.8 2.7 0 .8.7.8 2 0 2.7l-6.1 6.1c-.3.4-.8.6-1.3.6zM31.8 62.8c-.5 0-1-.2-1.4-.6-.8-.8-.8-2 0-2.7l6.1-6.1c.8-.8 2-.8 2.7 0 .8.8.8 2 0 2.7l-6.1 6.1c-.3.4-.8.6-1.3.6zM60.5 62.8c-.5 0-1-.2-1.4-.6L53 56.1c-.8-.8-.8-2 0-2.7.8-.8 2-.8 2.7 0l6.1 6.1c.8.8.8 2 0 2.7-.3.4-.8.6-1.3.6zM37.9 40.2c-.5 0-1-.2-1.4-.6l-6.1-6.1c-.8-.8-.8-2 0-2.7.8-.8 2-.8 2.7 0l6.1 6.1c.8.8.8 2 0 2.7-.3.4-.8.6-1.3.6zM46.2 53.5c-3.9 0-7-3.2-7-7 0-3.9 3.2-7 7-7 3.9 0 7 3.2 7 7 0 3.9-3.2 7-7 7zm0-10.2c-1.8 0-3.2 1.4-3.2 3.2 0 1.8 1.4 3.2 3.2 3.2 1.8 0 3.2-1.4 3.2-3.2 0-1.8-1.5-3.2-3.2-3.2zM23.9 27.8h-20c-2.1 0-3.9-1.7-3.9-3.9v-20C0 1.7 1.7 0 3.9 0H24c2.1 0 3.9 1.7 3.9 3.9V24c-.1 2.1-1.8 3.8-4 3.8zM7.7 20.1H20V7.7H7.7v12.4zM88.1 27.8H68c-2.1 0-3.9-1.7-3.9-3.9v-20C64.2 1.7 65.9 0 68 0h20.1C90.2 0 92 1.7 92 3.9V24c0 2.1-1.8 3.8-3.9 3.8zm-16.2-7.7h12.3V7.7H71.9v12.4zM23.9 92.7h-20C1.7 92.7 0 91 0 88.8v-20c0-2.1 1.7-3.9 3.9-3.9H24c2.1 0 3.9 1.7 3.9 3.9v20.1c-.1 2.1-1.8 3.8-4 3.8zM7.7 84.9H20V72.6H7.7v12.3zM88.1 92.7H68c-2.1 0-3.9-1.7-3.9-3.9v-20c0-2.1 1.7-3.9 3.9-3.9h20.1c2.1 0 3.9 1.7 3.9 3.9v20.1c0 2.1-1.8 3.8-3.9 3.8zm-16.2-7.8h12.3V72.6H71.9v12.3z"/></svg>