<svg xmlns="http://www.w3.org/2000/svg" viewBox="0 0 120.6 59.8"><path fill="#404447" d="M80.9 32.6H61.6c-1.5 0-2.7-1.2-2.7-2.7 0-1.5 1.2-2.7 2.7-2.7h18.2l15-15.9c.5-.5 1.2-.8 2-.8H117c1.5 0 2.7 1.2 2.7 2.7s-1.2 2.7-2.7 2.7H98L83 31.8c-.6.5-1.3.8-2.1.8z"/><path fill="#404447" d="M107.3 26.5c-.7 0-1.4-.3-1.9-.8-1.1-1.1-1.1-2.8 0-3.8l8.6-8.6-8.6-8.6c-1.1-1.1-1.1-2.8 0-3.8 1.1-1.1 2.8-1.1 3.8 0l10.5 10.5c1.1 1.1 1.1 2.8 0 3.8l-10.5 10.5c-.5.5-1.2.8-1.9.8zM117 49.4H96.8c-.7 0-1.5-.3-2-.8l-15-15.9H61.6c-1.5 0-2.7-1.2-2.7-2.7 0-1.5 1.2-2.7 2.7-2.7H81c.7 0 1.5.3 2 .8L98 44h19c1.5 0 2.7 1.2 2.7 2.7 0 1.4-1.2 2.7-2.7 2.7zM107.3 59.8c-.7 0-1.4-.3-1.9-.8-1.1-1.1-1.1-2.8 0-3.8l8.6-8.6-8.6-8.6c-1.1-1.1-1.1-2.8 0-3.8 1.1-1.1 2.8-1.1 3.8 0l10.5 10.5c1.1 1.1 1.1 2.8 0 3.8L109.3 59c-.6.5-1.3.8-2 .8z"/><g fill="#404447"><path d="M24.6 47.5c-11.2 0-20.7-2.9-24.5-6.9l-.1.1v6.5c3.3 4.4 13.3 7.6 25.1 7.6 11.6 0 21.5-3.1 24.9-7.4v-6.8c-.1-.2-.3-.3-.4-.5-3.4 4.3-13.3 7.4-25 7.4zM49.6 25.2c-1.2 1.5-3.2 2.9-5.9 4.1-4.8 2.1-11.6 3.4-19.1 3.4-7.5 0-14.3-1.3-19.1-3.4-2.3-1-4.2-2.2-5.4-3.5l-.1.1v6.5l.3.3c1.2 1.5 3.2 2.8 5.7 3.9 4.8 2.1 11.6 3.4 19.1 3.4s14.3-1.3 19.1-3.4c2.2-1 4-2.1 5.2-3.3.2-.2.4-.5.6-.7v-6.8c-.1-.3-.3-.5-.4-.6zM6.2 21.5C10.7 23.7 17.5 25 25 25c7.6 0 14.3-1.4 18.9-3.6 2.3-1.1 4-2.4 5-3.9.6-.9.9-1.8.9-2.8C49.8 9.1 38.7 4.5 25 4.5 11.3 4.7.2 9.2.2 14.9c0 .8.2 1.6.6 2.3.9 1.6 2.8 3.1 5.4 4.3z"/></g></svg>