<svg xmlns="http://www.w3.org/2000/svg" viewBox="0 0 99.7 90.4"><path fill="#404447" d="M90.9 90.4h-82c-4.9 0-8.8-4-8.8-8.8V24.3c0-4.9 4-8.8 8.8-8.8h82c4.9 0 8.8 4 8.8 8.8v57.3c0 4.9-3.9 8.8-8.8 8.8zM8.8 23.9c-.2 0-.4.2-.4.4v57.3c0 .2.2.4.4.4h82c.2 0 .4-.2.4-.4V24.3c0-.2-.2-.4-.4-.4h-82z"/><path fill="#404447" d="M66.7 23.5c-2.3 0-4.2-1.9-4.2-4.2V8.8c0-.2-.2-.4-.5-.4H37.7c-.2 0-.4.2-.4.4v10.4c0 2.3-1.9 4.2-4.2 4.2-2.3 0-4.2-1.9-4.2-4.2V8.8c0-4.9 4-8.8 8.8-8.8H62c4.9 0 8.8 4 8.8 8.8v10.4c.1 2.4-1.8 4.3-4.1 4.3zM40.8 49.2H5.9c-1.2 0-2.1-.9-2.1-2.1 0-1.1 1-2.1 2.1-2.1h34.8c1.2 0 2.1.9 2.1 2.1.1 1.2-.9 2.1-2 2.1zM92.3 49.2H57.5c-1.2 0-2.1-.9-2.1-2.1 0-1.2.9-2.1 2.1-2.1h34.8c1.2 0 2.1.9 2.1 2.1 0 1.2-.9 2.1-2.1 2.1z"/><path fill="#404447" d="M55.7 60.9H44.1c-1.2 0-2.1-.9-2.1-2.1V41.3c0-1.2.9-2.1 2.1-2.1h11.6c1.2 0 2.1.9 2.1 2.1v17.4c0 1.2-1 2.2-2.1 2.2zm-9.5-4.2h7.4V43.4h-7.4v13.3z"/></svg>