<svg xmlns="http://www.w3.org/2000/svg" viewBox="0 0 82.5 83"><path fill="#404447" d="M36.8 46.3c-2.5-2.4-2.5-6.4 0-8.9 2.4-2.5 6.4-2.5 8.9 0 2.5 2.4 2.5 6.4 0 8.9-2.5 2.4-6.5 2.4-8.9 0zm6.4-6.5c-1.1-1.1-2.9-1.1-4 0s-1.1 2.9 0 4 2.9 1.1 4 0 1.1-2.9 0-4zM49.3 83H33c-1.7 0-3.1-1.4-3.1-3.1V63.6c0-1.7 1.4-3.1 3.1-3.1h16.3c1.7 0 3.1 1.4 3.1 3.1v16.3c0 1.7-1.4 3.1-3.1 3.1zm-13.2-6.3h10v-10h-10v10zM49.4 22.5H33.1c-1.7 0-3.1-1.4-3.1-3.1V3.1C30 1.4 31.4 0 33.1 0h16.3c1.7 0 3.1 1.4 3.1 3.1v16.3c0 1.7-1.4 3.1-3.1 3.1zm-13.2-6.2h10v-10h-10v10zM19.4 83H3.1C1.4 83 0 81.6 0 79.9V63.6c0-1.7 1.4-3.1 3.1-3.1h16.3c1.7 0 3.1 1.4 3.1 3.1v16.3c0 1.7-1.4 3.1-3.1 3.1zM6.3 76.7h10v-10h-10v10zM79.3 83H63.1c-1.7 0-3.1-1.4-3.1-3.1V63.6c0-1.7 1.4-3.1 3.1-3.1h16.3c1.7 0 3.1 1.4 3.1 3.1v16.3c0 1.7-1.4 3.1-3.2 3.1zm-13.1-6.3h10v-10h-10v10z"/><path fill="#404447" d="M46.1 40.5h26.8v2.6H46.1zM8.8 40.5h26.9v2.6H8.8z"/><path fill="#404447" d="M70.4 42.3h2.5v19h-2.5zM8.8 42.3h2.7v19H8.8zM39.9 45.3h2.5v19h-2.5zM40.1 19.1h2.5v19h-2.5z"/></svg>