<svg xmlns="http://www.w3.org/2000/svg" viewBox="0 0 600 600"><path fill="#404447" d="M518 431.5H75.5c-11.2 0-20.2-8.9-20.2-20.2V130.1c0-11.2 8.9-20.2 20.2-20.2H518c11.2 0 20.2 8.9 20.2 20.2v281.7c-.5 10.8-9.4 19.7-20.2 19.7zM95.6 391.6h402.2V150.2H95.6v241.4z"/><path fill="#404447" d="M477.7 381.3H115.8c-5.6 0-9.8-4.7-9.8-9.8V170.4c0-5.6 4.7-9.8 9.8-9.8h361.9c5.6 0 9.8 4.7 9.8 9.8v201.1c0 5.1-4.2 9.8-9.8 9.8zm-352.1-20.1h341.7v-181H125.6v181zM579.8 490.1H20.2C8.9 490.1 0 481.2 0 469.9c0-11.2 8.9-20.2 20.2-20.2h559.7c11.2 0 20.2 8.9 20.2 20.2-.1 11.3-9 20.2-20.3 20.2z"/></svg>