<svg xmlns="http://www.w3.org/2000/svg" viewBox="0 0 100.7 101.3"><path fill="#404447" d="M86.6 37.9l-65.8-.2c-1.1 0-2.2-.5-3-1.3-.8-.8-1.2-1.9-1.2-3l.1-21.6c0-2.4 1.9-4.3 4.3-4.3l65.8.2c1.2 0 2.3.5 3.1 1.4L99.6 20c1.5 1.6 1.5 4.1 0 5.8l-9.9 10.8c-.8.8-1.9 1.3-3.1 1.3zM25 29.2l59.7.2 6-6.5-5.9-6.5-59.7-.2-.1 13zM79.9 72.1l-65.8-.2c-1.2 0-2.3-.5-3.2-1.4L1.1 59.7c-1.5-1.6-1.5-4.1 0-5.8L11 43.2c.8-.9 2-1.4 3.1-1.4L80 42c2.4 0 4.3 1.9 4.3 4.3l-.1 21.6c0 1.1-.5 2.2-1.3 3-.7.7-1.8 1.2-3 1.2zM16 63.3l59.7.2v-13L16 50.3l-6 6.5 6 6.5z"/><path fill="#404447" d="M47.4 101.3c-2.4 0-4.3-1.9-4.3-4.3l.1-29c0-2.4 1.9-4.3 4.3-4.3s4.3 1.9 4.3 4.3l-.1 29c-.1 2.4-2 4.3-4.3 4.3zM47.6 13.1c-2.4 0-4.3-1.9-4.3-4.3V4.3c0-2.4 1.9-4.3 4.3-4.3s4.3 1.9 4.3 4.3v4.5c0 2.4-1.9 4.3-4.3 4.3zM47.5 47.8c-2.4 0-4.3-1.9-4.3-4.3v-7.1c0-2.4 1.9-4.3 4.3-4.3s4.3 1.9 4.3 4.3v7.1c0 2.4-1.9 4.3-4.3 4.3z"/></svg>