<svg xmlns="http://www.w3.org/2000/svg" viewBox="0 0 104.2 102.1"><path fill="#404447" d="M42.9 8.4c2.8 0 6.2 4.5 9.2 4.5s6.3-4.5 9.2-4.5c.2 0 .4 0 .5.1 3 .7 4.1 6.9 6.8 8.2.5.3 1.2.4 1.9.4 2 0 4.5-.8 6.5-.8.9 0 1.7.2 2.3.6 2.4 1.9.7 8 2.6 10.4 1.9 2.4 8.2 2 9.5 4.8 1.3 2.7-2.9 7.4-2.2 10.5.7 2.9 6.5 5.4 6.5 8.5 0 3.1-5.8 5.6-6.5 8.5-.7 3 3.5 7.7 2.2 10.5-1.3 2.8-7.6 2.4-9.5 4.8-1.9 2.4-.2 8.5-2.6 10.4-.6.5-1.4.6-2.3.6-2 0-4.5-.8-6.5-.8-.7 0-1.3.1-1.9.4-2.7 1.3-3.8 7.5-6.8 8.2-.2 0-.4.1-.5.1-2.8 0-6.2-4.5-9.2-4.5s-6.3 4.5-9.2 4.5c-.2 0-.4 0-.5-.1-3-.7-4.1-6.9-6.8-8.2-.5-.3-1.2-.4-1.9-.4-2 0-4.5.8-6.5.8-.9 0-1.7-.2-2.3-.6-2.4-1.9-.7-8-2.6-10.4-1.9-2.4-8.2-2-9.5-4.8-1.3-2.7 2.9-7.4 2.2-10.5-.7-2.9-6.5-5.4-6.5-8.5 0-3.1 5.8-5.6 6.5-8.5.7-3-3.5-7.7-2.2-10.5 1.3-2.8 7.6-2.4 9.5-4.8 1.9-2.4.2-8.5 2.6-10.4.6-.5 1.4-.6 2.3-.6 2 0 4.5.8 6.5.8.7 0 1.3-.1 1.9-.4 2.7-1.3 3.8-7.5 6.8-8.2.2 0 .3-.1.5-.1m0-8.4c-.8 0-1.6.1-2.4.3-5.1 1.2-7.5 5.3-9 8-1.3-.2-2.7-.4-4.3-.4-3 0-5.5.8-7.6 2.5-4.1 3.2-4.5 8-4.6 11.1-3 .8-7.6 2.3-9.8 7-2.3 4.7-.5 9.2.6 12-2.3 2-5.8 5.4-5.8 10.6 0 5.2 3.5 8.5 5.8 10.6-1.2 2.8-2.9 7.4-.6 12 2.2 4.7 6.8 6.1 9.8 7 .2 3.1.6 7.9 4.6 11.1 2.1 1.6 4.6 2.5 7.6 2.5 1.5 0 3-.2 4.3-.4 1.5 2.7 4 6.9 9.1 8 .8.2 1.6.3 2.4.3 4 0 7-2 9.2-3.6 2.2 1.6 5.2 3.6 9.2 3.6.8 0 1.6-.1 2.4-.3 5.1-1.1 7.5-5.3 9-8 1.3.2 2.7.4 4.3.4 3 0 5.5-.8 7.6-2.5 4-3.2 4.5-8 4.6-11.1 3-.8 7.6-2.3 9.8-7 2.3-4.7.5-9.2-.7-12 2.3-2.1 5.8-5.4 5.8-10.6 0-5.2-3.5-8.5-5.8-10.6 1.2-2.8 2.9-7.3.7-12-2.3-4.7-6.8-6.2-9.8-7-.2-3.1-.6-7.9-4.6-11.1C82.5 8.7 80 7.9 77 7.9c-1.5 0-3 .2-4.3.4-1.5-2.7-4-6.9-9-8-.8-.2-1.6-.3-2.4-.3-4 0-7 2-9.2 3.6C49.9 2 46.9 0 42.9 0z"/><path fill="#404447" d="M72.6 73.1H31.9c-1 0-1.9-.8-1.9-1.9v-40c0-1 .8-1.9 1.9-1.9h40.7c1 0 1.9.8 1.9 1.9v40c-.1 1.1-.9 1.9-1.9 1.9zm-38.8-3.7h36.9V33.2H33.8v36.2z"/><path fill="#404447" d="M66.5 60.1H38c-.5 0-.9-.4-.9-.9V37.4c0-.5.4-.9.9-.9h28.5c.5 0 .9.4.9.9v21.8c0 .4-.4.9-.9.9zm-27.6-1.9h26.7V38.3H38.9v19.9z"/><g><path fill="#404447" d="M42.7 65.7c0-.4.4-.8.8-.8h3.9c.4 0 .8.4.8.8s-.4.8-.8.8h-3.9c-.4-.1-.8-.4-.8-.8zM49.5 65.7c0-.4.4-.8.8-.8h3.9c.4 0 .8.4.8.8s-.4.8-.8.8h-3.9c-.5-.1-.8-.4-.8-.8zM56.2 65.7c0-.4.4-.8.8-.8h3.9c.4 0 .8.4.8.8s-.4.8-.8.8H57c-.4-.1-.8-.4-.8-.8z"/></g></svg>