<svg xmlns="http://www.w3.org/2000/svg" viewBox="0 0 600 600"><path fill="#404447" d="M570 52.1H30.7c-14.5 0-26.4-11.9-26.4-26.4S16.2-.7 30.7-.7H570c14.5 0 26.4 11.9 26.4 26.4S583.8 52.1 570 52.1zM570 189.4H30.7c-14.5 0-26.4-11.9-26.4-26.4s11.9-26.4 26.4-26.4H570c14.5 0 26.4 11.9 26.4 26.4s-12.6 26.4-26.4 26.4zM570 326.1H30.7c-14.5 0-26.4-11.9-26.4-26.4 0-14.5 11.9-26.4 26.4-26.4H570c14.5 0 26.4 11.9 26.4 26.4-.7 15.2-12.6 26.4-26.4 26.4zM570 463.4H30.7c-14.5 0-26.4-11.9-26.4-26.4s11.9-26.4 26.4-26.4H570c14.5 0 26.4 11.9 26.4 26.4-.7 14.5-12.6 26.4-26.4 26.4zM570 600H30.7c-14.5 0-26.4-11.9-26.4-26.4s11.9-26.4 26.4-26.4H570c14.5 0 26.4 11.9 26.4 26.4-.7 15.2-12.6 26.4-26.4 26.4z"/></svg>