<svg xmlns="http://www.w3.org/2000/svg" viewBox="0 0 100.4 100.4"><path fill="#404447" d="M50.2 100.4C22.5 100.4 0 77.9 0 50.2 0 22.5 22.5 0 50.2 0c27.7 0 50.2 22.5 50.2 50.2 0 27.7-22.5 50.2-50.2 50.2zm0-91.9c-23 0-41.7 18.7-41.7 41.7 0 23 18.7 41.7 41.7 41.7s41.7-18.7 41.7-41.7c0-23-18.7-41.7-41.7-41.7z"/><path fill="#404447" d="M50.2 98.3c-15.8 0-28.7-21.6-28.7-48.1S34.4 2.1 50.2 2.1c15.8 0 28.7 21.6 28.7 48.1S66 98.3 50.2 98.3zm0-92C36.7 6.3 25.7 26 25.7 50.2S36.7 94 50.2 94s24.5-19.7 24.5-43.8c0-24.2-11-43.9-24.5-43.9z"/><path fill="#404447" d="M50.2 98.3c-1.2 0-2.1-.9-2.1-2.1v-92c0-1.2.9-2.1 2.1-2.1 26.5 0 48.1 21.6 48.1 48.1S76.7 98.3 50.2 98.3zm2.1-91.9V94C75.5 92.9 94 73.7 94 50.2 94 26.7 75.5 7.5 52.3 6.4z"/><path fill="#404447" d="M93.2 68.5h-86c-.9 0-1.7-.5-2-1.4-2.1-5.5-3.1-11.2-3.1-16.9 0-5.7 1-11.4 3.1-17 .3-.8 1.1-1.4 2-1.4h85.9c.9 0 1.7.5 2 1.4 2.1 5.5 3.1 11.2 3.1 17 0 5.7-1 11.4-3.1 16.9-.3.9-1.1 1.4-1.9 1.4zM8.7 64.3h83c1.6-4.6 2.4-9.3 2.4-14.1 0-4.8-.8-9.5-2.4-14.1h-83c-1.6 4.6-2.4 9.3-2.4 14.1 0 4.7.8 9.5 2.4 14.1z"/></svg>