<svg xmlns="http://www.w3.org/2000/svg" viewBox="0 0 93.7 100.2"><path fill="#404447" d="M89.4 100.2H4.2C1.9 100.2 0 98.4 0 96V25c0-2.3 1.9-4.2 4.2-4.2h85.2c2.3 0 4.2 1.9 4.2 4.2v71c.1 2.4-1.8 4.2-4.2 4.2zM8.5 91.8h76.7V29.2H8.5v62.6z"/><path fill="#404447" d="M76.7 85.4H16.9c-1.2 0-2.1-.9-2.1-2.1V37.7c0-1.2 1-2.1 2.1-2.1h59.8c1.2 0 2.1.9 2.1 2.1v45.6c.1 1.2-.9 2.1-2.1 2.1zm-57.6-4.2h55.6V39.8H19.1v41.4zM84 14.2H9.7c-1.2 0-2.1-.9-2.1-2.1 0-1.2 1-2.1 2.1-2.1H84c1.2 0 2.1.9 2.1 2.1 0 1.2-.9 2.1-2.1 2.1zM75.6 4.2H18.1C17 4.2 16 3.3 16 2.1 16 .9 17 0 18.1 0h57.4c1.2 0 2.1.9 2.1 2.1.1 1.2-.9 2.1-2 2.1z"/></svg>