<svg xmlns="http://www.w3.org/2000/svg" viewBox="0 0 600 600"><path fill="#404447" d="M240.8 495.1c-5.9 0-11.7-2.3-16.4-7-4.7-4.7-7-11.1-6.4-17.6l4.7-84.4c.6-5.9 2.9-11.1 6.4-15.2l251.4-251.4c8.8-8.8 24-8.8 32.8 0l79.7 79.7c8.8 8.8 8.8 23.4 0 32.8L341.6 483.4c-4.1 4.1-9.4 6.4-15.2 6.4l-84.4 4.7c0 .6-.6.6-1.2.6zm28.1-97.2l-2.9 49.8 49.8-2.9 229.1-229.1-46.9-47-229.1 229.2z"/><path fill="#404447" d="M532 263.7c-2.9 0-5.9-1.2-8.2-3.5l-71.5-70.9c-4.7-4.7-4.7-11.7 0-16.4 4.7-4.7 11.7-4.7 16.4 0l71.5 71.5c4.7 4.7 4.7 11.7 0 16.4-2.3 1.7-5.2 2.9-8.2 2.9zM254.3 412.5h-4.7s-2.9.6-4.7 1.2l-3.5 58.6 56.2-3.5c.6-2.3 1.2-4.1 1.2-6.4 2.4-28.2-17-49.9-44.5-49.9z"/><path fill="#404447" d="M375.6 584.2H52.7C23.4 584.2 0 560.7 0 531.4V97.9C0 85 10.5 74.4 23.4 74.4S46.9 85 46.9 97.9v433.6c0 3.5 2.9 6.4 6.4 6.4h322.9c3.5 0 6.4-2.9 6.4-6.4V394.9c0-12.9 10.5-23.4 23.4-23.4 12.9 0 23.4 10.5 23.4 23.4v136.5c-1.1 28.8-24.5 52.8-53.8 52.8zM404.9 250.2c-12.9 0-23.4-10.5-23.4-23.4v-61.5c0-3.5-2.9-6.4-6.4-6.4-12.9 0-23.4-10.5-23.4-23.4s10.5-23.4 23.4-23.4c29.3 0 52.7 23.4 52.7 52.7v62.1c.5 12.7-10 23.3-22.9 23.3z"/><path fill="#404447" d="M370.9 158.8H71.5C32.2 158.8 0 127.1 0 87.3 0 48 32.2 15.8 71.5 15.8h333.4c12.9 0 23.4 10.5 23.4 23.4s-10.5 23.4-23.4 23.4H71.5c-14.1 0-25.2 11.1-25.2 25.2S57.4 113 71.5 113h299.4c12.9 0 23.4 10.5 23.4 23.4s-10.5 22.4-23.4 22.4z"/><g><path fill="#404447" d="M249 244.3H107.2c-6.4 0-11.7-5.3-11.7-11.7s5.3-11.7 11.7-11.7H249c6.4 0 11.7 5.3 11.7 11.7-.5 6.5-5.2 11.7-11.7 11.7z"/></g><g><path fill="#404447" d="M249 308.2H107.2c-6.4 0-11.7-5.3-11.7-11.7 0-6.4 5.3-11.7 11.7-11.7H249c6.4 0 11.7 5.3 11.7 11.7-.5 6.4-5.2 11.7-11.7 11.7z"/></g></svg>