<svg xmlns="http://www.w3.org/2000/svg" viewBox="0 0 600 600"><path fill="#404447" d="M469 600H131c-25.4 0-46.2-22.5-46.2-50.1V173.5c0-27.6 20.8-50.1 46.2-50.1h338c25.4 0 46.2 22.5 46.2 50.1v376.3c0 27.7-20.8 50.2-46.2 50.2zm0-50.1v25.4-25.4zM131 173.5v376.3h338V173.5H131z"/><path fill="#404447" d="M383.4 232.1c-13 0-23.1-11.3-23.1-25.4V50.1H239.2v156.6c0 14.1-10.1 25.4-23.1 25.4-13 0-23.1-11.3-23.1-25.4V50.1C193 22.5 213.8 0 239.2 0h121.1c25.4 0 46.2 22.5 46.2 50.1v156.6c0 14.1-10.2 25.4-23.1 25.4z"/><g><path fill="#404447" d="M387.3 311H207.6c-7.3 0-13.5-6.2-13.5-13.5s6.2-13.5 13.5-13.5h179.7c7.3 0 13.5 6.2 13.5 13.5s-5.6 13.5-13.5 13.5zM387.3 396.1H207.6c-7.3 0-13.5-6.2-13.5-13.5s6.2-13.5 13.5-13.5h179.7c7.3 0 13.5 6.2 13.5 13.5s-5.6 13.5-13.5 13.5zM387.3 480.6H207.6c-7.3 0-13.5-6.2-13.5-13.5s6.2-13.5 13.5-13.5h179.7c7.3 0 13.5 6.2 13.5 13.5s-5.6 13.5-13.5 13.5z"/></g></svg>