<svg xmlns="http://www.w3.org/2000/svg" viewBox="0 0 87.1 108.4"><g fill="#404447"><path d="M52.1 57.3c-1.8 0 .3.9 2.7 1.3l1.8-1.5c-1.5.3-3 .3-4.5.2M61.7 54.9c1.1-1.5 1.8-3.1 2.1-4.8-.2 1.2-.9 2.2-1.5 3.3-3.4 2.1-.3-1.3 0-2.5-3.6 4.5-.5 2.7-.6 4M65.3 45.6c.2-3.2-.6-2.2-.9-1 .3.2.5 2.3.9 1M45.3 1.4c1 .2 2.1.3 1.9.5 1-.2 1.3-.4-1.9-.5M47.2 1.9l-.7.1.7-.1"/><path d="M77.1 46.9c.1 2.9-.8 4.3-1.7 6.8l-1.6.8c-1.3 2.4.1 1.5-.8 3.5-2 1.8-6 5.5-7.3 5.9-.9 0 .6-1.1.8-1.5-2.7 1.8-2.1 2.7-6.2 3.8l-.1-.3c-10 4.7-23.9-4.6-23.8-17.4-.1.8-.3.6-.5.9-.5-6.6 3-13.1 9-15.8 5.8-2.9 12.7-1.7 16.9 2.2-2.3-3-6.9-6.2-12.3-5.9-5.3.1-10.3 3.5-12 7.1-2.7 1.7-3 6.6-4.2 7.5-1.6 11.7 3 16.8 10.8 22.8 1.2.8.3 1 .5 1.6-2.6-1.2-5-3-6.9-5.3 1 1.5 2.1 3 3.6 4.1-2.4-.8-5.7-5.9-6.6-6.1 4.2 7.5 17.1 13.2 23.8 10.4-3.1.1-7.1.1-10.6-1.2-1.5-.8-3.5-2.3-3.1-2.6 9.2 3.4 18.7 2.6 26.6-3.8 2-1.6 4.2-4.3 4.9-4.3-1 1.4.2.7-.6 2 2-3.2-.9-1.3 2.1-5.6l1.1 1.5c-.4-2.7 3.3-6 3-10.2.9-1.3 1 1.4 0 4.4 1.3-3.3.3-3.9.7-6.6.4.9.8 1.9 1.1 2.9-.8-3.2.8-5.4 1.3-7.3-.4-.2-1.3 1.4-1.5-2.4 0-1.7.5-.9.6-1.3-.3-.2-1.2-1.5-1.7-3.9.4-.6 1 1.5 1.5 1.6-.3-1.9-.9-3.4-.9-4.9-1.5-3.1-.5.4-1.7-1.3-1.6-4.9 1.3-1.1 1.5-3.4 2.4 3.5 3.8 8.9 4.4 11.1-.5-2.7-1.3-5.4-2.2-7.9.7.3-1.2-5.6.9-1.7-2.3-8.4-9.7-16.2-16.6-19.8.8.7 1.9 1.7 1.5 1.8-3.4-2-2.8-2.2-3.3-3-2.8-1.1-3 .1-4.8 0-5.2-2.8-6.2-2.5-11.1-4.2l.2 1c-3.5-1.2-4 .4-7.8 0-.2-.2 1.2-.6 2.4-.8-3.3.4-3.2-.7-6.5.1.8-.6 1.7-.9 2.5-1.4-2.7.2-6.5 1.6-5.4.3-4.5 2-12.4 4.8-16.8 8.9l-.1-.9c-2 2.4-8.9 7.3-9.4 10.5l-.5.1c-1.1 1.8-1.7 3.8-2.6 5.7-1.4 2.4-2 .9-1.8 1.3-2.7 5.5-4.1 10.2-5.2 14 .8 1.2 0 7.5.3 12.5-1.4 24.7 17.3 48.7 37.8 54.2 3 1.1 7.5 1 11.2 1.1-4.5-1.3-5.1-.7-9.4-2.2-3.1-1.5-3.8-3.2-6.1-5.1l.9 1.6c-4.4-1.5-2.5-1.9-6.1-3l.9-1.2c-1.4-.1-3.7-2.4-4.4-3.6l-1.5.1c-1.9-2.3-2.9-3.9-2.8-5.2l-.4.6c-.6-1-6.8-8.6-3.6-6.8-.6-.6-1.4-.9-2.3-2.5l.7-.8c-1.6-2-2.9-4.6-2.8-5.5.8 1.1 1.4 1.3 2 1.5-4-9.8-4.2-.5-7.2-10l.6-.1c-.5-.7-.8-1.5-1.2-2.3l.3-2.8c-2.8-3.3-.8-14-.4-19.9.3-2.4 2.4-4.9 4-8.9l-1-.2c1.9-3.2 10.6-13 14.6-12.5 2-2.5-.4 0-.8-.6 4.3-4.5 5.7-3.1 8.6-3.9 3.1-1.9-2.7.7-1.2-.7 5.4-1.4 3.8-3.1 10.9-3.8.7.4-1.7.7-2.3 1.2 4.5-2.2 14.3-1.7 20.6 1.2 7.4 3.4 15.6 13.6 16 23.2l.4.1c-.2 3.8.6 8.2-.8 12.2l1-1.7"/><path d="M32.5 59.8l-.3 1.2c1.2 1.6 2.1 3.3 3.6 4.6-1.1-2.1-1.9-3-3.3-5.8M35.2 59.7c-.6-.7-1-1.5-1.4-2.4.4 1.5 1.2 2.7 2 4l-.6-1.6M84.7 48.9l-.3.7c-.5 3.4-1.5 6.8-3.1 10 1.7-3.4 2.9-7 3.4-10.7M45.6.5c1.2-.4 3-.2 4.3-.5-1.7.1-3.4.2-5 .4l.7.1M3 23.2c.3 2.6-1.9 3.6.5 1.9 1.3-2.9-.6-.8-.5-1.9M.1 35.2c.6-1.7.7-2.8.9-3.8-1.6 2-.8 2.5-.9 3.8"/></g></svg>