<svg xmlns="http://www.w3.org/2000/svg" viewBox="0 0 600 600"><path fill="#404447" d="M438.5 563.1H162.1c-8.7 0-16.3-4.3-20.6-11.9L3.3 311.7c-4.3-7.6-4.3-16.3 0-23.8l138.2-239c4.3-7.6 11.9-11.9 20.6-11.9h276.4c8.7 0 16.3 4.3 20.6 11.9l138.2 239.6c4.3 7.6 4.3 16.3 0 23.8l-138.2 239c-4.4 7.5-12.5 11.8-20.6 11.8zm-262.9-47.7h248.8l124.7-215.7L424.4 84H175.6L50.9 299.7l124.7 215.7z"/><path fill="#404447" d="M300.3 442.8c-79.1 0-143.1-64-143.1-143.1s64-143.1 143.1-143.1c78.6 0 143.1 64 143.1 143.1s-64.5 143.1-143.1 143.1zm0-237.9c-52.6 0-95.4 42.8-95.4 95.4s42.8 95.4 95.4 95.4 95.4-42.8 95.4-95.4-42.9-95.4-95.4-95.4z"/></svg>