<svg xmlns="http://www.w3.org/2000/svg" viewBox="0 0 97.5 104.2"><path fill="#404447" d="M4 104.2c-.8 0-1.6-.2-2.3-.7-1.1-.7-1.7-2-1.7-3.3V20.9c0-1.7 1-3.2 2.6-3.7L47.3.3C48.6-.2 50 0 51 .7c1.1.7 1.7 2 1.7 3.3v79.3c0 1.7-1 3.2-2.6 3.7L5.4 103.9c-.4.2-.9.3-1.4.3zm4-80.5v70.7l36.8-13.9V9.8L8 23.7z"/><path fill="#404447" d="M13.2 40.2c-.8 0-1.6-.5-1.9-1.3-.4-1 .1-2.2 1.2-2.6l26.7-10.1c1-.4 2.2.1 2.6 1.2.4 1-.1 2.2-1.2 2.6L13.9 40c-.2.1-.4.2-.7.2zM13.2 65.9c-.8 0-1.6-.5-1.9-1.3-.4-1 .1-2.2 1.2-2.6l26.8-10c1.1-.4 2.2.1 2.6 1.2.4 1-.1 2.2-1.2 2.6l-26.8 10c-.2.1-.4.1-.7.1zM13.2 78.8c-.8 0-1.6-.5-1.9-1.3-.4-1 .1-2.2 1.2-2.6l26.7-10.1c1-.4 2.2.1 2.6 1.2.4 1-.1 2.2-1.2 2.6L13.9 78.7c-.2 0-.4.1-.7.1zM13.2 53c-.8 0-1.6-.5-1.9-1.3-.4-1 .1-2.2 1.2-2.6L39.2 39c1.1-.4 2.2.1 2.6 1.2.4 1-.1 2.2-1.2 2.6L13.9 52.9c-.2.1-.4.1-.7.1z"/><g><path fill="#404447" d="M77.1 96c-1.1 0-2-.9-2-2V70.8c0-.7.3-1.3.9-1.6.5-.4 1.2-.5 1.8-.2l16.4 6.2c1 .4 1.6 1.5 1.2 2.6-.4 1-1.5 1.5-2.6 1.2l-13.7-5.2V94c0 1.1-.9 2-2 2z"/><path fill="#404447" d="M77.1 98c-.5 0-1-.1-1.4-.3L47.3 87c-1.6-.6-2.6-2.1-2.6-3.7V4c0-1.3.6-2.5 1.7-3.3C47.6 0 49-.2 50.2.3l44.7 16.9c1.6.6 2.6 2.1 2.6 3.7V77c0 1-.4 2-1.1 2.8L80 96.8c-.8.7-1.9 1.2-2.9 1.2zM52.8 80.5L76 89.3l13.5-13.9V23.7L52.8 9.8v70.7z"/><path fill="#404447" d="M85.2 40.5c-.2 0-.5 0-.7-.1L57.8 30.3c-1-.4-1.6-1.5-1.2-2.6.4-1 1.5-1.6 2.6-1.2l26.7 10.1c1 .4 1.6 1.5 1.2 2.6-.4.8-1.1 1.3-1.9 1.3zM85.2 66.3c-.2 0-.5 0-.7-.1L57.8 56c-1-.4-1.6-1.5-1.2-2.6.4-1 1.5-1.6 2.6-1.2l26.7 10.1c1 .4 1.6 1.5 1.2 2.6-.4.9-1.1 1.4-1.9 1.4zM85.2 53.4c-.2 0-.5 0-.7-.1L57.8 43.2c-1-.4-1.6-1.5-1.2-2.6.4-1 1.5-1.6 2.6-1.2l26.7 10.1c1 .4 1.6 1.5 1.2 2.6-.4.8-1.1 1.3-1.9 1.3z"/></g></svg>