<svg xmlns="http://www.w3.org/2000/svg" viewBox="0 0 94.2 93.8"><path fill="#404447" d="M3.9 38.5c-2.2 0-3.9-1.8-3.9-3.9V3.9C0 1.8 1.8 0 3.9 0h30.6c2.2 0 3.9 1.8 3.9 3.9 0 2.2-1.8 3.9-3.9 3.9H7.9v26.6c0 2.3-1.8 4.1-4 4.1zM90.3 38.5c-2.2 0-3.9-1.8-3.9-3.9V7.9H59.7c-2.2 0-3.9-1.8-3.9-3.9 0-2.2 1.8-3.9 3.9-3.9h30.6c2.2 0 3.9 1.8 3.9 3.9v30.6c0 2.1-1.7 3.9-3.9 3.9zM34.5 93.8H3.9c-2.1 0-3.9-1.8-3.9-4V59.3c0-2.2 1.8-3.9 3.9-3.9 2.2 0 3.9 1.8 3.9 3.9v26.6h26.6c2.2 0 3.9 1.8 3.9 3.9s-1.6 4-3.8 4zM90.3 93.8H59.7c-2.2 0-3.9-1.8-3.9-3.9s1.8-3.9 3.9-3.9h26.6V59.3c0-2.2 1.8-3.9 3.9-3.9 2.2 0 3.9 1.8 3.9 3.9v30.6c.1 2.1-1.6 3.9-3.8 3.9z"/></svg>