<svg xmlns="http://www.w3.org/2000/svg" viewBox="0 0 96.6 96.6"><path fill="#404447" d="M41.4 45.5H4.1c-2.3 0-4.1-1.8-4.1-4.1V4.1C0 1.8 1.8 0 4.1 0h37.3c2.3 0 4.1 1.8 4.1 4.1v37.3c0 2.3-1.8 4.1-4.1 4.1zM8.3 37.3h29v-29h-29v29zM92.5 45.5H55.2c-2.3 0-4.1-1.8-4.1-4.1V4.1c0-2.3 1.8-4.1 4.1-4.1h37.3c2.3 0 4.1 1.8 4.1 4.1v37.3c0 2.3-1.8 4.1-4.1 4.1zm-33.2-8.2h29v-29h-29v29zM41.4 96.6H4.1c-2.3 0-4.1-1.8-4.1-4.1V55.2C0 52.9 1.8 51 4.1 51h37.3c2.3 0 4.1 1.8 4.1 4.1v37.3c0 2.3-1.8 4.2-4.1 4.2zM8.3 88.3h29v-29h-29v29zM92.5 96.6H55.2c-2.3 0-4.1-1.8-4.1-4.1V55.2c0-2.3 1.8-4.1 4.1-4.1h37.3c2.3 0 4.1 1.8 4.1 4.1v37.3c0 2.2-1.8 4.1-4.1 4.1zm-33.2-8.3h29v-29h-29v29z"/></svg>