<svg xmlns="http://www.w3.org/2000/svg" viewBox="0 0 85.6 96.4"><path fill="#404447" d="M51.6 70c-3.8 0-6.8-3.1-6.8-6.8 0-3.8 3.1-6.8 6.8-6.8 3.8 0 6.8 3.1 6.8 6.8 0 3.7-3 6.8-6.8 6.8zm0-11.4c-2.5 0-4.6 2-4.6 4.6 0 2.5 2 4.6 4.6 4.6 2.5 0 4.6-2 4.6-4.6 0-2.5-2.1-4.6-4.6-4.6z"/><path fill="#404447" d="M47.3 60c-.3 0-.6-.1-.8-.3l-1.6-1.6c-.4-.4-.4-1.2 0-1.6.4-.4 1.2-.4 1.6 0l1.6 1.6c.4.4.4 1.2 0 1.6-.2.2-.5.3-.8.3zM57.5 70.2c-.3 0-.6-.1-.8-.3L54.8 68c-.4-.4-.4-1.2 0-1.6.4-.4 1.2-.4 1.6 0l1.9 1.9c.4.4.4 1.2 0 1.6-.2.2-.5.3-.8.3zM55.9 60c-.3 0-.6-.1-.8-.3-.4-.4-.4-1.2 0-1.6l1.6-1.6c.4-.4 1.2-.4 1.6 0 .4.4.4 1.2 0 1.6l-1.6 1.6c-.2.2-.5.3-.8.3zM45.7 70.2c-.3 0-.6-.1-.8-.3-.4-.4-.4-1.2 0-1.6l1.9-1.9c.4-.4 1.2-.4 1.6 0 .4.4.4 1.2 0 1.6l-1.9 1.9c-.2.2-.5.3-.8.3z"/><g><path fill="#404447" d="M51.6 58.2c-.6 0-1.1-.5-1.1-1.1v-2.2c0-.6.5-1.1 1.1-1.1.6 0 1.1.5 1.1 1.1v2.2c0 .6-.5 1.1-1.1 1.1zM51.6 72.6c-.6 0-1.1-.5-1.1-1.1v-2.6c0-.6.5-1.1 1.1-1.1.6 0 1.1.5 1.1 1.1v2.6c0 .6-.5 1.1-1.1 1.1z"/></g><g><path fill="#404447" d="M59.9 64.3h-2.2c-.6 0-1.1-.5-1.1-1.1 0-.6.5-1.1 1.1-1.1h2.2c.6 0 1.1.5 1.1 1.1.1.6-.5 1.1-1.1 1.1zM45.9 64.3h-2.6c-.6 0-1.1-.5-1.1-1.1 0-.6.5-1.1 1.1-1.1h2.6c.6 0 1.1.5 1.1 1.1.1.6-.4 1.1-1.1 1.1z"/></g><g><path fill="#404447" d="M67.5 77.7c-2.9 0-5.2-2.3-5.2-5.2 0-2.9 2.3-5.2 5.2-5.2 2.9 0 5.2 2.3 5.2 5.2 0 2.8-2.4 5.2-5.2 5.2zm0-8.7c-1.9 0-3.5 1.6-3.5 3.5s1.6 3.5 3.5 3.5 3.5-1.6 3.5-3.5c-.1-1.9-1.6-3.5-3.5-3.5z"/><path fill="#404447" d="M64.2 70.1c-.2 0-.4-.1-.6-.3l-1.2-1.2c-.3-.3-.3-.9 0-1.2.3-.3.9-.3 1.2 0l1.2 1.2c.3.3.3.9 0 1.2-.1.2-.4.3-.6.3zM72 77.8c-.2 0-.4-.1-.6-.3L70 76.1c-.3-.3-.3-.9 0-1.2.3-.3.9-.3 1.2 0l1.4 1.4c.3.3.3.9 0 1.2-.2.2-.4.3-.6.3zM70.7 70.1c-.2 0-.4-.1-.6-.3-.3-.3-.3-.9 0-1.2l1.2-1.2c.3-.3.9-.3 1.2 0 .3.3.3.9 0 1.2l-1.2 1.2c-.1.2-.3.3-.6.3zM63 77.8c-.2 0-.4-.1-.6-.3-.3-.3-.3-.9 0-1.2l1.4-1.4c.3-.3.9-.3 1.2 0 .3.3.3.9 0 1.2l-1.4 1.4c-.1.2-.4.3-.6.3z"/><g><path fill="#404447" d="M67.5 68.7c-.5 0-.9-.4-.9-.9v-1.7c0-.5.4-.9.9-.9s.9.4.9.9v1.7c-.1.6-.4.9-.9.9zM67.5 79.7c-.5 0-.9-.4-.9-.9v-2c0-.5.4-.9.9-.9s.9.4.9.9v2c-.1.5-.4.9-.9.9z"/></g><g><path fill="#404447" d="M73.8 73.3h-1.7c-.5 0-.9-.4-.9-.9s.4-.9.9-.9h1.7c.5 0 .9.4.9.9 0 .6-.4.9-.9.9zM63.2 73.3h-2c-.5 0-.9-.4-.9-.9s.4-.9.9-.9h2c.5 0 .9.4.9.9-.1.6-.4.9-.9.9z"/></g></g><g><path fill="#404447" d="M54.9 82.6c-2.1 0-3.8-1.7-3.8-3.8 0-2.1 1.7-3.8 3.8-3.8 2.1 0 3.8 1.7 3.8 3.8 0 2.1-1.7 3.8-3.8 3.8zm0-6.3c-1.4 0-2.5 1.1-2.5 2.5s1.1 2.5 2.5 2.5 2.5-1.1 2.5-2.5-1.1-2.5-2.5-2.5z"/><path fill="#404447" d="M52.6 77c-.2 0-.3-.1-.4-.2l-1-.8c-.2-.2-.2-.6 0-.9.2-.2.6-.2.9 0l.9.9c.2.2.2.6 0 .9-.1.1-.3.1-.4.1zM58.2 82.7c-.2 0-.3-.1-.4-.2l-1-1c-.2-.2-.2-.6 0-.9.2-.2.6-.2.9 0l1 1c.2.2.2.6 0 .9-.2.1-.4.2-.5.2zM57.3 77c-.2 0-.3-.1-.4-.2-.2-.2-.2-.6 0-.9l.9-.9c.2-.2.6-.2.9 0 .2.2.2.6 0 .9l-.9.9c-.2.2-.3.2-.5.2zM51.7 82.7c-.2 0-.3-.1-.4-.2-.2-.2-.2-.6 0-.9l1-1c.2-.2.6-.2.9 0 .2.2.2.6 0 .9l-1 1c-.2.1-.4.2-.5.2z"/><g><path fill="#404447" d="M54.9 76.1c-.3 0-.6-.3-.6-.6v-1.2c0-.3.3-.6.6-.6s.6.3.6.6v1.2c.1.3-.2.6-.6.6zM54.9 84c-.3 0-.6-.3-.6-.6v-1.5c0-.3.3-.6.6-.6s.6.3.6.6v1.5c.1.3-.2.6-.6.6z"/></g><g><path fill="#404447" d="M59.5 79.4h-1.2c-.3 0-.6-.3-.6-.6s.3-.6.6-.6h1.2c.3 0 .6.3.6.6.1.3-.2.6-.6.6zM51.8 79.4h-1.5c-.3 0-.6-.3-.6-.6s.3-.6.6-.6h1.5c.3 0 .6.3.6.6s-.3.6-.6.6z"/></g></g><g><path fill="#404447" d="M64.3 40.3H32.9c-1.1 0-2-.9-2-2V20.5c0-1.1.9-2 2-2h31.4c1.1 0 2 .9 2 2v17.7c0 1.2-.9 2.1-2 2.1zm-29.4-4.1h27.3V22.6H34.9v13.6z"/><path fill="#404447" d="M81.5 96.4H11.3c-2.3 0-4.1-1.8-4.1-4.1V4.1C7.2 1.8 9 0 11.3 0h70.2c2.3 0 4.1 1.8 4.1 4.1v88.3c0 2.2-1.9 4-4.1 4zm-66.2-8.1h62V8.2h-62v80.1z"/><path fill="#404447" d="M18.4 24.7H4.1c-2.3 0-4.1-1.8-4.1-4.1s1.8-4.1 4.1-4.1h14.3c2.3 0 4.1 1.8 4.1 4.1s-1.8 4.1-4.1 4.1zM18.4 42.9H4.1c-2.3 0-4.1-1.8-4.1-4.1s1.8-4.1 4.1-4.1h14.3c2.3 0 4.1 1.8 4.1 4.1s-1.8 4.1-4.1 4.1zM18.4 61.2H4.1c-2.3 0-4.1-1.8-4.1-4.1C0 54.9 1.8 53 4.1 53h14.3c2.3 0 4.1 1.8 4.1 4.1s-1.8 4.1-4.1 4.1zM18.4 79.5H4.1c-2.3 0-4.1-1.8-4.1-4.1s1.8-4.1 4.1-4.1h14.3c2.3 0 4.1 1.8 4.1 4.1s-1.8 4.1-4.1 4.1z"/></g></svg>