<svg xmlns="http://www.w3.org/2000/svg" viewBox="0 0 90 87.8"><path fill="#404447" d="M45 0C20.1 0 0 20.1 0 45c0 19.9 12.9 36.7 30.8 42.7 2.3.4 3.1-1 3.1-2.2 0-1.1 0-3.9-.1-7.7-12.5 2.7-15.2-6-15.2-6-2-5.2-5-6.6-5-6.6-4.1-2.8.3-2.7.3-2.7 4.5.3 6.9 4.6 6.9 4.6 4 6.9 10.5 4.9 13.1 3.7.4-2.9 1.6-4.9 2.9-6-10-1.1-20.5-5-20.5-22.2 0-4.9 1.8-8.9 4.6-12.1-.5-1.1-2-5.7.4-11.9 0 0 3.8-1.2 12.4 4.6 3.6-1 7.4-1.5 11.3-1.5 3.8 0 7.7.5 11.3 1.5 8.6-5.8 12.4-4.6 12.4-4.6 2.5 6.2.9 10.8.4 11.9 2.9 3.1 4.6 7.2 4.6 12.1 0 17.3-10.5 21.1-20.5 22.2 1.6 1.4 3.1 4.1 3.1 8.3 0 6-.1 10.9-.1 12.3 0 1.2.8 2.6 3.1 2.2C77.1 81.7 90 64.9 90 45 90 20.1 69.9 0 45 0z"/></svg>