<svg xmlns="http://www.w3.org/2000/svg" viewBox="0 0 100 88.1"><path fill="#404447" d="M51.8 80.4c-.9 0-1.8-.3-2.6-.8-2-1.4-2.4-4.2-1-6.1L69.7 44 48.3 14.7c-1.4-2-1-4.7 1-6.1 2-1.4 4.7-1 6.1 1l23.2 31.9c1.1 1.5 1.1 3.6 0 5.2L55.4 78.5c-.9 1.2-2.2 1.9-3.6 1.9z"/><path fill="#404447" d="M75.1 48.4H4.4C2 48.4 0 46.5 0 44s2-4.4 4.4-4.4h70.7c2.4 0 4.4 2 4.4 4.4s-2 4.4-4.4 4.4z"/><g><path fill="#404447" d="M95.6 88.1c-2.4 0-4.4-2-4.4-4.4V4.4c0-2.4 2-4.4 4.4-4.4C98 0 100 2 100 4.4v79.3c0 2.4-1.9 4.4-4.4 4.4z"/></g></svg>