<svg xmlns="http://www.w3.org/2000/svg" viewBox="0 0 100.2 73.7"><path fill="#404447" d="M76.7 67.7H23.5c-2.3 0-4.2-1.9-4.2-4.2V10.2c0-2.3 1.9-4.2 4.2-4.2h53.3c2.3 0 4.2 1.9 4.2 4.2v53.3c0 2.3-1.9 4.2-4.3 4.2zm-49-8.4h44.8V14.5H27.7v44.8zM2.1 73.7C1 73.7 0 72.8 0 71.6V2.1C0 .9 1 0 2.1 0c1.2 0 2.1.9 2.1 2.1v69.5c0 1.2-.9 2.1-2.1 2.1zM11.6 69.1c-1.2 0-2.1-.9-2.1-2.1V6.8c0-1.2 1-2.1 2.1-2.1 1.2 0 2.1.9 2.1 2.1V67c.1 1.1-.9 2.1-2.1 2.1zM98.1 73.7c-1.2 0-2.1-.9-2.1-2.1V2.1C96 .9 97 0 98.1 0c1.2 0 2.1.9 2.1 2.1v69.5c0 1.2-1 2.1-2.1 2.1zM88.5 69.1c-1.2 0-2.1-.9-2.1-2.1V6.8c0-1.2 1-2.1 2.1-2.1 1.2 0 2.1.9 2.1 2.1V67c0 1.1-.9 2.1-2.1 2.1z"/></svg>