<svg xmlns="http://www.w3.org/2000/svg" viewBox="0 0 128.6 81.6"><path fill="#404447" d="M111 69H16.2c-2.4 0-4.3-1.9-4.3-4.3V4.3c0-2.4 1.9-4.3 4.3-4.3H111c2.4 0 4.3 1.9 4.3 4.3v60.4c0 2.4-1.9 4.3-4.3 4.3zm-90.5-8.6h86.2V8.6H20.5v51.8z"/><path fill="#404447" d="M102.4 58.2H24.8c-1.2 0-2.2-1-2.2-2.2V12.9c0-1.2 1-2.2 2.2-2.2h77.6c1.2 0 2.2 1 2.2 2.2V56c-.1 1.2-1 2.2-2.2 2.2zm-75.5-4.3h73.3V15.1H26.9v38.8zM124.3 81.6H4.3c-2.4 0-4.3-1.9-4.3-4.3S1.9 73 4.3 73h120c2.4 0 4.3 1.9 4.3 4.3 0 2.3-1.9 4.3-4.3 4.3z"/></svg>