<svg xmlns="http://www.w3.org/2000/svg" viewBox="0 0 600 600"><path fill="#404447" d="M122.9 572.2c-19 0-35.5-6.7-47.7-19-29.4-29.4-24.5-81.3 11.6-117.4L203.7 319c9.2-9.2 24.5-9.2 33.6 0l72.2 72.2c4.3 4.3 6.7 10.4 6.7 16.5s-2.4 12.2-6.7 16.5L192.7 541.6c-19.6 19.6-44.7 30.6-69.8 30.6zm97.9-202.5l-100.3 99.7c-18.3 18.3-20.8 41-11.6 50.2 4.3 4.3 10.4 4.9 14.1 4.9 11.6 0 25.1-6.1 36.1-17.1l99.7-99.7-38-38zM513.1 173.4c-15.3 0-30-6.1-41-17.1-22.6-22.6-22.6-58.7 0-81.3l39.8-39.8c9.2-9.2 24.5-9.2 33.6 0l47.7 47.7c4.3 4.3 6.7 10.4 6.7 16.5s-2.4 12.2-6.7 16.5l-39.8 39.8c-10.9 11.6-25 17.7-40.3 17.7zm15.3-87.5l-22.6 22.6c-3.7 3.7-3.7 10.4 0 14.1 4.9 4.9 9.2 4.9 14.1 0l22.6-22.6-14.1-14.1z"/><path fill="#404447" d="M358.4 293.9c-6.1 0-12.2-2.4-16.5-6.7-9.2-9.2-9.2-24.5 0-33.6l130.3-130.3c9.2-9.2 24.5-9.2 33.6 0 9.2 9.2 9.2 24.5 0 33.6L374.9 286.5c-4.3 4.9-10.4 7.4-16.5 7.4z"/><g><path fill="#404447" d="M472.8 582c-24.5 0-47.1-9.8-64.8-26.9l-227-227c-49.5 8-99.7-8.6-135.2-43.4C3.1 241.3-11 176.5 10.4 119.6c3.1-7.3 9.2-13.5 17.1-14.7 8-1.8 15.9.6 22 6.1l64.2 64.2 34.9-9.2 9.2-34.9L93 67c-5.5-5.5-8-14.1-6.1-22 1.8-8 7.3-14.1 14.7-17.1 17.7-6.7 36.1-9.8 55-9.8 41.6 0 80.7 16.5 110.1 45.9 35.5 35.5 51.4 86.2 43.4 135.2L537 426c17.1 17.1 26.9 40.4 26.9 64.8s-9.8 47.1-26.9 64.8c-17.1 17.2-39.8 26.4-64.2 26.4zM189 278.6c6.1 0 12.2 2.4 16.5 6.7l236.1 236.1c16.5 16.5 45.3 16.5 62.4 0 8.6-8.6 12.8-19.6 12.8-31.2 0-11.6-4.9-22.6-12.8-31.2L267.3 223.5c-6.1-6.1-8-14.7-6.1-22.6 9.8-37.9-1.2-76.5-28.1-104-20.2-20.2-46.5-31.2-74.6-31.8l41.6 41.6c6.1 6.1 8.6 14.7 6.1 22.6l-16.5 61.2c-2.4 8-8.6 14.7-16.5 16.5L112 223.5c-8 2.4-17.1 0-23.2-6.1l-41.6-41.6c.6 27.5 11.6 54.4 31.8 74.6 26.9 26.9 66.7 37.9 104 28.1 1.7.7 3.5.1 6 .1z"/></g><path fill="#404447" d="M469.1 465.7c-11 0-19.6 8.6-19.6 19.6 0 11 8.6 19.6 19.6 19.6 11 0 19.6-8.6 19.6-19.6 0-10.4-8.6-19.6-19.6-19.6z"/></svg>