<svg xmlns="http://www.w3.org/2000/svg" viewBox="0 0 94.7 94.7"><path fill="#404447" d="M16.5 42.5c-2.2 0-4-1.8-4-4V16.7c0-2.2 1.8-4 4-4h21.9c2.2 0 4 1.8 4 4s-1.8 4-4 4H20.5v17.9c0 2.1-1.8 3.9-4 3.9zM78.2 42.5c-2.2 0-4-1.8-4-4V20.6H56.4c-2.2 0-4-1.8-4-4s1.8-4 4-4h21.9c2.2 0 4 1.8 4 4v21.9c-.1 2.2-1.9 4-4.1 4zM38.4 82.1H16.5c-2.2 0-4-1.8-4-4V56.2c0-2.2 1.8-4 4-4s4 1.8 4 4v17.9h17.9c2.2 0 4 1.8 4 4-.1 2.2-1.8 4-4 4zM78.2 82.1H56.4c-2.2 0-4-1.8-4-4s1.8-4 4-4h17.9V56.2c0-2.2 1.8-4 4-4s4 1.8 4 4v21.9c-.1 2.2-1.9 4-4.1 4z"/><g><path fill="#404447" d="M90.8 94.7H4c-2.2 0-4-1.8-4-4V4c0-2.2 1.8-4 4-4h86.8c2.2 0 4 1.8 4 4v86.8c-.1 2.2-1.8 3.9-4 3.9zM7.9 86.8h78.8V7.9H7.9v78.9z"/></g></svg>