<svg xmlns="http://www.w3.org/2000/svg" viewBox="0 0 600 600"><path fill="#404447" d="M247 54.4c16.1 0 35.7 25.9 53 25.9s36.3-25.9 53-25.9c1.2 0 2.3 0 2.9.6 17.3 4 23.6 39.7 39.2 47.2 2.9 1.7 6.9 2.3 10.9 2.3 11.5 0 25.9-4.6 37.4-4.6 5.2 0 9.8 1.2 13.2 3.5 13.8 10.9 4 46.1 15 59.9 10.9 13.8 47.2 11.5 54.7 27.6 7.5 15.5-16.7 42.6-12.7 60.5 4 16.7 37.4 31.1 37.4 48.9s-33.4 32.2-37.4 48.9c-4 17.3 20.2 44.3 12.7 60.5-7.5 16.1-43.8 13.8-54.7 27.6s-1.2 48.9-15 59.9c-3.5 2.9-8.1 3.5-13.2 3.5-11.5 0-25.9-4.6-37.4-4.6-4 0-7.5.6-10.9 2.3-15.5 7.5-21.9 43.2-39.2 47.2-1.2 0-2.3.6-2.9.6-16.1 0-35.7-25.9-53-25.9s-36.3 25.9-53 25.9c-1.2 0-2.3 0-2.9-.6-17.3-4-23.6-39.7-39.2-47.2-2.9-1.7-6.9-2.3-10.9-2.3-11.5 0-25.9 4.6-37.4 4.6-5.2 0-9.8-1.2-13.2-3.5-13.8-10.9-4-46.1-15-59.9-10.9-13.8-47.2-11.5-54.7-27.6-7.5-15.5 16.7-42.6 12.7-60.5-4-16.7-37.4-31.1-37.4-48.9s33.4-32.2 37.4-48.9c4-17.3-20.2-44.3-12.7-60.5 7.5-16.1 43.8-13.8 54.7-27.6 10.9-13.8 1.2-48.9 15-59.9 3.5-2.9 8.1-3.5 13.2-3.5 11.5 0 25.9 4.6 37.4 4.6 4 0 7.5-.6 10.9-2.3 15.5-7.5 21.9-43.2 39.2-47.2 1.2 0 1.8-.6 2.9-.6M247 6c-4.6 0-9.2.6-13.8 1.7-29.4 6.9-43.2 30.5-51.8 46.1-7.5-1.2-15.5-2.3-24.8-2.3-17.3 0-31.7 4.6-43.8 14.4-23.5 18.5-25.9 46.1-26.4 63.9-17.3 4.6-43.8 13.2-56.4 40.3-13.2 27.1-2.9 53 3.5 69.1C20.2 250.8 0 270.3 0 300.3s20.2 48.9 33.4 61c-6.9 16.1-16.7 42.6-3.5 69.1 12.7 27.1 39.2 35.1 56.4 40.3 1.2 17.9 3.5 45.5 26.5 63.9 12.1 9.2 26.5 14.4 43.8 14.4 8.6 0 17.3-1.2 24.8-2.3 8.6 15.5 23 39.7 52.4 46.1 4.6 1.2 9.2 1.7 13.8 1.7 23 0 40.3-11.5 53-20.7 12.7 9.2 29.9 20.7 53 20.7 4.6 0 9.2-.6 13.8-1.7 29.4-6.3 43.2-30.5 51.8-46.1 7.5 1.2 15.5 2.3 24.8 2.3 17.3 0 31.7-4.6 43.8-14.4 23-18.4 25.9-46.1 26.5-63.9 17.3-4.6 43.8-13.2 56.4-40.3 13.2-27.1 2.9-53-4-69.1 13.2-12.1 33.4-31.1 33.4-61s-20.2-48.9-33.4-61c6.9-16.1 16.7-42 4-69.1-13.2-27.1-39.2-35.7-56.4-40.3-1.2-17.9-3.5-45.5-26.5-63.9-12.7-9.8-27.1-14.4-44.3-14.4-8.6 0-17.3 1.2-24.8 2.3-8.6-15.5-23-39.7-51.8-46.1C362.2 6.6 357.6 6 353 6c-23 0-40.3 11.5-53 20.7C287.3 17.6 270.1 6 247 6z"/><path fill="#404447" d="M206.7 228.3c0-5.2 4-9.8 9.8-9.8h171c5.2 0 9.8 4 9.8 9.8 0 5.2-4 9.8-9.8 9.8h-171c-5.8-.6-9.8-4.6-9.8-9.8zM206.7 269.2c0-5.2 4-9.8 9.8-9.8h211.9c5.2 0 9.8 4 9.8 9.8 0 5.2-4 9.8-9.8 9.8H216.5c-5.8 0-9.8-4.6-9.8-9.8zM206.7 347.5c0-5.2 4-9.8 9.8-9.8h137.6c5.2 0 9.8 4 9.8 9.8 0 5.2-4 9.8-9.8 9.8H216.5c-5.8 0-9.8-4-9.8-9.8zM180.2 430.4c0-5.2 4-9.8 9.8-9.8h47.8c5.2 0 9.8 4 9.8 9.8 0 5.2-4 9.8-9.8 9.8H190c-5.7 0-9.8-4.6-9.8-9.8zM206.7 389c0-5.2 4-9.8 9.8-9.8h211.9c5.2 0 9.8 4 9.8 9.8 0 5.2-4 9.8-9.8 9.8H216.5c-5.8 0-9.8-4.7-9.8-9.8zM180.2 186.3c0-5.2 4-9.8 9.8-9.8h47.8c5.2 0 9.8 4 9.8 9.8 0 5.2-4 9.8-9.8 9.8H190c-5.7 0-9.8-4.6-9.8-9.8zM262.6 186.3c0-5.2 4-9.8 9.8-9.8h47.8c5.2 0 9.8 4 9.8 9.8 0 5.2-4 9.8-9.8 9.8h-47.8c-5.8 0-9.8-4.6-9.8-9.8zM344.9 186.3c0-5.2 4-9.8 9.8-9.8h47.8c5.2 0 9.8 4 9.8 9.8 0 5.2-4 9.8-9.8 9.8h-47.8c-5.8 0-9.8-4.6-9.8-9.8zM206.7 307.8c0-5.2 4-9.8 9.8-9.8h137.6c5.2 0 9.8 4 9.8 9.8s-4 9.8-9.8 9.8H216.5c-5.8 0-9.8-4.1-9.8-9.8z"/></svg>