<svg xmlns="http://www.w3.org/2000/svg" viewBox="0 0 600 600"><g fill="#404447"><path d="M553.4 282.1c0-10.6-4.1-19.4-12.3-25.8-2.3-1.8-2.9-3.5-2.9-5.9v-17c-.6-16.4-11.7-29.3-27-34.6-4.7-1.8-9.4-1.8-14.1-1.8h-400c-10 .6-18.2 4.7-25.2 11.7s-10.6 15.8-10.6 25.8v17c0 1.8-.6 3.5-2.3 4.7-.6.6-1.2.6-1.8 1.2-7 5.9-11.1 13.5-11.1 22.9v52.8c0 2.3 0 4.1.6 6.5 1.8 7.6 5.9 13.5 11.7 17.6 1.8 1.2 2.3 2.3 2.3 4.7v18.2c.6 17.6 12.9 32.3 29.9 35.8 4.7.6 8.8.6 12.9.6h398.2c16.4-1.2 28.2-9.4 34.6-24.6 1.8-4.7 2.3-9.4 2.3-14.7V362c0-2.3.6-4.1 2.9-5.9 8.2-6.5 12.3-15.2 12.3-25.8-.4-15.9-.4-31.8-.4-48.2zm-89.8 52.8H140.5c-2.9 0-5.3 0-8.2-.6-12.9-1.8-23.5-14.1-24-27-.6-14.1 10.6-26.4 22.9-28.2 2.9-.6 5.9-.6 8.8-.6h318.3c3.5 0 7 0 10 .6 11.7 2.3 21.7 13.5 22.3 25.8 1.8 15.3-9.4 29.4-27 30zM300 185.3H97.1c-8.2 0-7 .6-5.9-7 9.4-55.7 37-100.9 82.1-135.5 17.6-13.5 37.5-23.5 58.7-31.1 16.4-5.9 33.4-9.4 50.4-10.6C301.8-.7 320.5.5 339.3 4c34 6.5 64.5 19.9 91.5 41.1 27.6 21.7 48.7 48.1 63.3 79.8 7.6 16.4 12.9 33.4 15.8 51 .6 2.9 1.2 5.3 1.2 8.2 0 1.2-.6 1.8-1.8 1.8h-4.7c-68.5-.6-136.6-.6-204.6-.6zM300 600H185c-34.6-2.3-59.8-18.8-75.7-49.3-6.5-11.7-9.4-24.6-10-38.1v-44-34-4.1c0-.6.6-1.2 1.2-1.2h46.3s1.8.6 1.8 1.8v78.6c0 10 2.9 18.8 9.4 26.4 7.6 8.8 17.6 14.1 29.3 14.7 7.6.6 15.2 0 22.9 0 5.9 0 10-2.3 13.5-7 7.6-10 15.2-19.9 22.9-29.3 1.2-1.2 1.8-2.3 2.9-3.5 2.9-3.5 7-5.3 11.7-5.3H338c5.3 0 8.8 1.8 12.3 5.9 3.5 4.1 6.5 8.2 9.4 12.3 4.7 6.5 9.4 12.3 14.7 18.8.6 1.2 1.8 2.3 2.9 3.5 2.9 3.5 6.5 5.3 10.6 5.3h22.9c12.9-.6 23.5-5.3 31.1-14.7 6.5-7.6 8.8-15.8 9.4-25.8v-14.1-62.2c0-4.7 0-4.7 5.3-4.7h42.8c1.2 0 1.8.6 1.8 1.8v81.5c-.6 25.2-10 46.3-28.2 63.3-15.8 15.2-35.2 23.5-57.5 24.6h-9.4C371 600 335.2 600 300 600z"/><path d="M300 446.9h70.9c2.3 0 3.5.6 5.3 2.3 4.7 5.9 10 11.1 14.7 17 .6.6 1.2 1.8 2.3 2.3 1.2 1.8 1.2 2.3-.6 3.5-5.3 4.7-10.6 9.4-15.8 13.5-1.2 1.2-1.8 1.2-2.9 0-2.9-3.5-5.9-6.5-8.8-10-1.8-2.3-3.5-2.9-6.5-2.9H243.1c-7 0-5.3-.6-9.4 4.1-2.3 2.9-4.7 5.3-7 8.2-1.8 2.3-2.3 2.3-4.7 0l-14.1-12.3c-2.3-2.3-2.3-2.3-.6-4.7 1.8-1.8 2.9-3.5 4.7-5.3 3.5-4.1 7.6-8.8 11.1-12.9 1.8-2.3 3.5-3.5 6.5-2.9h2.9c22.3.1 45.2.1 67.5.1z"/></g></svg>