<svg xmlns="http://www.w3.org/2000/svg" viewBox="0 0 99.3 87.9"><path fill="#404447" d="M93.7 71.7H62.5c-1.4 0-2.7-.7-3.5-1.9l-8.2-12.5c-1.3-1.9-.7-4.5 1.2-5.8 1.9-1.3 4.5-.7 5.8 1.2l7 10.6h29c2.3 0 4.2 1.9 4.2 4.2-.1 2.4-1.9 4.2-4.3 4.2zM42 37.5c-1.4 0-2.8-.7-3.6-2l-6.6-10.9H4.2c-2.3 0-4.2-1.9-4.2-4.2 0-2.3 1.9-4.2 4.2-4.2h30c1.5 0 2.8.8 3.6 2l7.9 13c1.2 2 .6 4.6-1.4 5.8-.8.3-1.5.5-2.3.5z"/><path fill="#404447" d="M34.2 71.7h-30c-2.3 0-4.2-1.9-4.2-4.2 0-2.3 1.9-4.2 4.2-4.2h27.6l27.1-45.1c.8-1.3 2.1-2 3.6-2h31.2c2.3 0 4.2 1.9 4.2 4.2 0 2.3-1.9 4.2-4.2 4.2H64.9L37.8 69.7c-.8 1.3-2.1 2-3.6 2z"/><path fill="#404447" d="M78.8 41c-1.1 0-2.2-.4-3-1.2-1.6-1.6-1.6-4.3 0-5.9l13.3-13.3L75.9 7.2c-1.6-1.6-1.6-4.3 0-5.9 1.6-1.6 4.3-1.6 5.9 0l16.3 16.3c1.6 1.6 1.6 4.3 0 5.9L81.8 39.7c-.8.8-1.9 1.3-3 1.3zM78.8 87.9c-1.1 0-2.2-.4-3-1.2-1.6-1.6-1.6-4.3 0-5.9l13.3-13.3-13.2-13.4c-1.6-1.6-1.6-4.3 0-5.9 1.6-1.6 4.3-1.6 5.9 0l16.3 16.3c1.6 1.6 1.6 4.3 0 5.9L81.8 86.7c-.8.8-1.9 1.2-3 1.2z"/></svg>