<svg xmlns="http://www.w3.org/2000/svg" viewBox="0 0 90 80.2"><path fill="#404447" d="M30.3 37.7c-9.3 0-16.9-8.4-16.9-18.8C13.4 8.4 21 0 30.3 0c9.3 0 16.8 8.4 16.8 18.8s-7.5 18.9-16.8 18.9zm0-29.9c-5 0-9.1 5-9.1 11.1S25.3 30 30.3 30s9.1-5 9.1-11.1c0-6.2-4.1-11.1-9.1-11.1zM54.9 80.2H5c-2 0-3.7-1.6-3.9-3.6L0 60.5c-.4-6.2 4.2-13.1 10.4-15.4 12.7-4.5 26.6-4.5 39.1 0 6.2 2.3 10.8 9.2 10.4 15.4l-1.1 16.1c-.1 2-1.8 3.6-3.9 3.6zM8.6 72.5h42.7l.9-12.5c.2-2.5-2.2-6.4-5.3-7.6-10.8-3.9-22.9-3.9-33.8 0-3.1 1.2-5.4 5.1-5.3 7.6l.8 12.5z"/><path fill="#404447" d="M54.9 80.2H5c-2 0-3.7-1.6-3.9-3.6L0 60.5c-.4-6.2 4.2-13.1 10.4-15.4 12.7-4.5 26.6-4.5 39.1 0 6.2 2.3 10.8 9.2 10.4 15.4l-1.1 16.1c-.1 2-1.8 3.6-3.9 3.6zM8.6 72.5h42.7l.9-12.5c.2-2.5-2.2-6.4-5.3-7.6-10.8-3.9-22.9-3.9-33.8 0-3.1 1.2-5.4 5.1-5.3 7.6l.8 12.5zM85.2 80.2H65.3c-2.1 0-3.9-1.7-3.9-3.9 0-2.1 1.7-3.9 3.9-3.9h16.3l.7-10.3c.1-2-1.8-5.1-4.2-6-4.3-1.6-8.9-2.4-13.6-2.5-2.1 0-3.8-1.8-3.8-3.9 0-2.1 1.8-3.9 3.9-3.8 5.5.1 10.9 1.1 16.1 2.9 5.5 2 9.7 8.3 9.3 13.9l-1 13.9c-.1 2-1.8 3.6-3.8 3.6zM69.9 41.8c-7.7 0-14-7-14-15.5s6.3-15.5 14-15.5 14 7 14 15.5-6.3 15.5-14 15.5zm0-23.4c-3.4 0-6.2 3.5-6.2 7.8s2.8 7.8 6.2 7.8c3.4 0 6.2-3.5 6.2-7.8s-2.8-7.8-6.2-7.8z"/></svg>