<svg xmlns="http://www.w3.org/2000/svg" viewBox="0 0 108.6 99.6"><path fill="#404447" d="M54.3 99.6c-.7 0-1.4-.1-2-.4L2.8 76.7C1.1 75.9 0 74.2 0 72.3v-45c0-1.9 1.1-3.6 2.8-4.4L52.3.4c1.3-.6 2.7-.6 4 0l49.5 22.5c1.7.8 2.8 2.5 2.8 4.4v45c0 1.9-1.1 3.6-2.8 4.4L56.3 99.1c-.7.3-1.3.5-2 .5zM9.7 69.2l44.6 20.3 44.6-20.3V30.4L54.3 10.2 9.7 30.4v38.8z"/><path fill="#404447" d="M54.3 55.8c-.7 0-1.4-.1-2-.4L2.8 32.9c-2.4-1.1-3.5-4-2.4-6.4 1.1-2.4 3.9-3.5 6.4-2.4l47.4 21.6 47.5-21.6c2.4-1.1 5.3 0 6.4 2.4 1.1 2.4 0 5.3-2.4 6.4L56.3 55.4c-.7.3-1.3.4-2 .4z"/><path fill="#404447" d="M80.9 42.5c-.3 0-.7-.1-1-.2L30.5 19.8c-1.2-.6-1.8-2-1.2-3.2.6-1.2 2-1.7 3.2-1.2l49.4 22.5c1.2.6 1.7 2 1.2 3.2-.4.9-1.2 1.4-2.2 1.4zM54.3 97.8c-2.7 0-4.8-2.2-4.8-4.8V55.7c0-2.7 2.2-4.8 4.8-4.8 2.7 0 4.8 2.2 4.8 4.8V93c0 2.7-2.1 4.8-4.8 4.8z"/></svg>