<svg xmlns="http://www.w3.org/2000/svg" viewBox="0 0 85.3 85.3"><path fill="#404447" d="M42.7 85.3C19.1 85.3 0 66.2 0 42.7 0 19.1 19.1 0 42.7 0c23.5 0 42.7 19.1 42.7 42.7-.1 23.5-19.2 42.6-42.7 42.6zm0-78C23.2 7.3 7.3 23.2 7.3 42.7S23.2 78 42.7 78 78 62.2 78 42.7 62.2 7.3 42.7 7.3z"/><path fill="#404447" d="M42.7 46.3c-2 0-3.7-1.6-3.7-3.7V16.3c0-2 1.6-3.7 3.7-3.7 2 0 3.7 1.6 3.7 3.7v26.4c-.1 2-1.7 3.6-3.7 3.6zM42.7 9.7C40.7 9.7 39 8 39 6V3.7c0-2 1.6-3.7 3.7-3.7 2 0 3.7 1.6 3.7 3.7V6c-.1 2-1.7 3.7-3.7 3.7zM42.7 85.3c-2 0-3.7-1.6-3.7-3.7v-2.4c0-2 1.6-3.7 3.7-3.7 2 0 3.7 1.6 3.7 3.7v2.4c-.1 2.1-1.7 3.7-3.7 3.7zM81.7 46.3h-2.4c-2 0-3.7-1.6-3.7-3.7 0-2 1.6-3.7 3.7-3.7h2.4c2 0 3.7 1.6 3.7 3.7-.1 2.1-1.7 3.7-3.7 3.7zM6 46.3H3.7c-2 0-3.7-1.6-3.7-3.7 0-2 1.6-3.7 3.7-3.7H6c2 0 3.7 1.6 3.7 3.7S8.1 46.3 6 46.3zM59.3 15.7c-.3 0-.6-.1-.9-.2-.9-.5-1.2-1.6-.7-2.5l1.1-1.9c.5-.9 1.6-1.2 2.5-.7.9.5 1.2 1.6.7 2.5l-1.1 1.9c-.3.6-1 .9-1.6.9zM25 75.2c-.3 0-.6-.1-.9-.2-.9-.5-1.2-1.6-.7-2.5l1.1-1.9c.5-.9 1.6-1.2 2.5-.7.9.5 1.2 1.6.7 2.5l-1.1 1.9c-.4.5-1 .9-1.6.9zM73.3 62.2c-.3 0-.6-.1-.9-.2l-1.9-1.1c-.9-.5-1.2-1.6-.7-2.5.5-.9 1.6-1.2 2.5-.7l1.9 1.1c.9.5 1.2 1.6.7 2.5-.3.6-.9.9-1.6.9zM13.9 27.9c-.3 0-.6-.1-.9-.2l-1.9-1.1c-.9-.5-1.2-1.6-.7-2.5.5-.9 1.6-1.2 2.5-.7l1.9 1.1c.9.5 1.2 1.6.7 2.5-.4.5-1 .9-1.6.9z"/><g><path fill="#404447" d="M26 15.7c-.6 0-1.2-.3-1.6-.9l-1.1-1.9c-.5-.9-.2-2 .7-2.5.9-.5 2-.2 2.5.7l1.1 1.9c.5.9.2 2-.7 2.5-.2.1-.5.2-.9.2zM60.4 75.2c-.6 0-1.2-.3-1.6-.9l-1.1-1.9c-.5-.9-.2-2 .7-2.5.9-.5 2-.2 2.5.7l1.1 1.9c.5.9.2 2-.7 2.5-.3.1-.6.2-.9.2zM12 62.2c-.6 0-1.3-.3-1.6-.9-.5-.9-.2-2 .7-2.5l1.9-1.1c.9-.5 2-.2 2.5.7.5.9.2 2-.7 2.5L12.9 62c-.3.1-.6.2-.9.2zM71.5 27.9c-.6 0-1.2-.3-1.6-.9-.5-.9-.2-2 .7-2.5l1.9-1.1c.9-.5 2-.2 2.5.7.5.9.2 2-.7 2.5l-1.9 1.1c-.3.1-.6.2-.9.2z"/></g><g><path fill="#404447" d="M31.6 57.4c-.9 0-1.9-.4-2.6-1.1-1.4-1.4-1.4-3.7 0-5.2l10.6-10.6c1.4-1.4 3.7-1.4 5.2 0 1.4 1.4 1.4 3.7 0 5.2L34.2 56.3c-.7.7-1.6 1.1-2.6 1.1z"/></g></svg>