<svg xmlns="http://www.w3.org/2000/svg" viewBox="0 0 93.2 93.2"><path fill="#404447" d="M89.2 93.2H3.9c-2.2 0-3.9-1.7-3.9-3.9V3.9C0 1.7 1.7 0 3.9 0h85.3c2.2 0 3.9 1.7 3.9 3.9v85.3c.1 2.2-1.7 4-3.9 4zM7.8 85.3h77.5V7.8H7.8v77.5z"/><path fill="#404447" d="M71.9 73.7H22c-1.3 0-2.3-1-2.3-2.3V21.5c0-1.3 1-2.3 2.3-2.3h49.8c1.3 0 2.3 1 2.3 2.3v49.8c.1 1.3-1 2.4-2.2 2.4zm-47.6-4.6h45.3V23.8H24.3v45.3z"/><path fill="#404447" d="M65.2 66.2H28.9c-.9 0-1.7-.7-1.7-1.7V28.2c0-.9.7-1.7 1.7-1.7h36.3c.9 0 1.7.7 1.7 1.7v36.3c0 .9-.7 1.7-1.7 1.7zm-34.6-3.4h33v-33h-33v33z"/><path fill="#404447" d="M59.1 59.7h-24c-.6 0-1.1-.5-1.1-1.1v-24c0-.6.5-1.1 1.1-1.1h24c.6 0 1.1.5 1.1 1.1v24c0 .6-.5 1.1-1.1 1.1zm-22.9-2.2H58V35.7H36.2v21.8z"/></svg>