<svg xmlns="http://www.w3.org/2000/svg" viewBox="0 0 600 600"><path fill="#404447" d="M469 600H131c-25.4 0-46.2-22.5-46.2-50.1V173.5c0-27.6 20.8-50.1 46.2-50.1h338c25.4 0 46.2 22.5 46.2 50.1v376.3c0 27.7-20.8 50.2-46.2 50.2zm0-50.1v25.4-25.4zM131 173.5v376.3h338V173.5H131z"/><path fill="#404447" d="M383.4 232.1c-13 0-23.1-11.3-23.1-25.4V50.1H239.2v156.6c0 14.1-10.1 25.4-23.1 25.4-13 0-23.1-11.3-23.1-25.4V50.1C193 22.5 213.8 0 239.2 0h121.1c25.4 0 46.2 22.5 46.2 50.1v156.6c0 14.1-10.2 25.4-23.1 25.4z"/><g><path fill="#404447" d="M265.6 487.9c-6.2 0-11.8-2.3-15.8-6.8L193 420.8c-8.5-9-7.9-22.5.6-31 9-8.5 22.5-7.9 31 .6l40 41.7L375 297.5c7.9-9.6 21.4-10.7 31-2.8 9.6 7.9 10.7 21.4 2.8 31L283.1 480c-3.9 5.1-10.1 7.9-16.3 7.9h-1.2z"/></g></svg>