<svg xmlns="http://www.w3.org/2000/svg" viewBox="0 0 93.4 93.4"><path fill="#404447" d="M89.5 93.4H3.9c-2.2 0-3.9-1.8-3.9-3.9V3.9C0 1.8 1.8 0 3.9 0h85.6c2.2 0 3.9 1.8 3.9 3.9v85.6c0 2.2-1.7 3.9-3.9 3.9zM7.9 85.6h77.7V7.9H7.9v77.7z"/><path fill="#404447" d="M88.1 28.8H5.3c-1.1 0-2-.9-2-2s.9-2 2-2h82.8c1.1 0 2 .9 2 2s-.9 2-2 2zM17.9 11.5c-2.7 0-5 2.2-5 5 0 2.7 2.2 4.9 5 4.9 2.7 0 5-2.2 5-4.9-.1-2.7-2.3-5-5-5zM31.3 11.5c-2.7 0-5 2.2-5 5 0 2.7 2.2 4.9 5 4.9 2.7 0 5-2.2 5-4.9-.1-2.7-2.3-5-5-5zM44.7 11.5c-2.7 0-5 2.2-5 5 0 2.7 2.2 4.9 5 4.9 2.7 0 5-2.2 5-4.9-.1-2.7-2.3-5-5-5z"/><g><path fill="#404447" d="M46.7 44.6H19.9c-1.1 0-2-.9-2-2s.9-2 2-2h26.9c1.1 0 2 .9 2 2-.1 1.1-1 2-2.1 2zM46.7 57H19.9c-1.1 0-2-.9-2-2s.9-2 2-2h26.9c1.1 0 2 .9 2 2-.1 1.1-1 2-2.1 2zM46.7 69.5H19.9c-1.1 0-2-.9-2-2s.9-2 2-2h26.9c1.1 0 2 .9 2 2-.1 1.1-1 2-2.1 2zM73.6 69.5h-17c-1.1 0-2-.9-2-2V42.6c0-1.1.9-2 2-2h17c1.1 0 2 .9 2 2v24.9c-.1 1.1-.9 2-2 2zm-15.1-4h13.1v-21H58.5v21z"/></g></svg>