<svg xmlns="http://www.w3.org/2000/svg" viewBox="0 0 115.4 94.5"><path fill="#404447" d="M17.2 35.3c-1 0-1.9-.3-2.7-1L1.9 23.5C.8 22.6.3 21.1.5 19.7c.2-1.4 1.2-2.6 2.5-3.1L38.8 2.3c1.5-.6 3.1-.3 4.2.7l12.6 10.8c1.1.9 1.6 2.4 1.4 3.8-.2 1.4-1.2 2.6-2.5 3.1L18.7 35c-.5.2-1 .3-1.5.3zm-4.8-13.6l5.5 4.8L45 15.7l-5.5-4.8-27.1 10.8zM52.2 94.5c-.9 0-1.7-.3-2.4-.8-1.1-.8-1.7-2-1.7-3.3V50c0-2.3 1.8-4.1 4.1-4.1s4.1 1.8 4.1 4.1v34.7l34.6-11V55.4c0-2.3 1.8-4.1 4.1-4.1s4.1 1.8 4.1 4.1v21.4c0 1.8-1.2 3.4-2.9 3.9L53.5 94.3c-.4.1-.9.2-1.3.2z"/><path fill="#404447" d="M75.6 63.7c-1 0-1.9-.3-2.7-1L60.3 51.9c-1.1-.9-1.6-2.4-1.4-3.8.2-1.4 1.2-2.6 2.5-3.1l35.7-14.3c1.4-.6 3.1-.3 4.2.7L114 42.2c1.1.9 1.6 2.4 1.4 3.8-.2 1.4-1.2 2.6-2.5 3.1L77.1 63.4c-.5.2-1 .3-1.5.3zm-4.8-13.6l5.5 4.8L103.5 44 98 39.2 70.8 50.1zM95.1 34.5c-.5 0-1-.1-1.5-.3L57.8 19.9c-1.3-.5-2.2-1.7-2.5-3-.3-1.4.2-2.8 1.2-3.7l12.3-12C70 .1 71.7-.3 73.2.3L109 14.6c1.3.5 2.2 1.7 2.5 3 .3 1.4-.2 2.8-1.2 3.7L98 33.3c-.8.8-1.8 1.2-2.9 1.2zM66.7 14.6l27.4 11 5.8-5.7-27.4-11-5.8 5.7zM51.5 94.5c-.5 0-1-.1-1.6-.3l-33-13.6c-1.5-.6-2.6-2.1-2.6-3.8V57c0-2.3 1.8-4.1 4.1-4.1s4.1 1.8 4.1 4.1v17L53 86.5c2.1.9 3.1 3.3 2.3 5.4-.6 1.6-2.2 2.6-3.8 2.6zM39.9 66.1c-.5 0-1-.1-1.5-.3L2.6 51.5c-1.3-.5-2.2-1.7-2.5-3-.3-1.4.2-2.8 1.2-3.7l12.3-11.9c1.2-1.1 2.9-1.5 4.4-.9l35.8 14.3c1.3.5 2.2 1.7 2.5 3 .3 1.4-.2 2.8-1.2 3.7L42.8 65c-.8.7-1.8 1.1-2.9 1.1zM11.5 46.2l27.4 11 5.8-5.7-27.5-11-5.7 5.7z"/></svg>