<svg xmlns="http://www.w3.org/2000/svg" viewBox="0 0 600 600"><g fill="#404447"><path d="M304.9 574c-153 0-277.8-124.7-277.8-277.8S151.9 18.5 304.9 18.5s277.8 124.7 277.8 277.8S458.5 574 304.9 574zm0-504.1c-124.7 0-226.4 101.6-226.4 226.4s101.6 226.4 226.4 226.4S531.3 421 531.3 296.2c.6-124.7-101.1-226.3-226.4-226.3z"/><path d="M37 597.7c-6.4 0-13.3-2.3-17.9-7.5-9.8-9.8-9.8-26 0-36.4l210.2-210.2c7.5-7.5 18.5-9.2 27.7-5.8 9.8 4 15.6 13.3 15.6 23.7v84.3c0 13.9-11.5 25.4-25.4 25.4-13.9 0-25.4-11.5-25.4-25.4v-22.5L54.9 590.2c-4.7 5.2-11 7.5-17.9 7.5z"/><path d="M247.2 387.5h-83.7c-13.9 0-25.4-11.5-25.4-25.4s11.5-25.4 25.4-25.4h84.3c13.9 0 25.4 11.5 25.4 25.4s-12.2 25.4-26 25.4zM560.2 600c-6.4 0-13.3-2.3-17.9-7.5L332.1 382.3c-7.5-7.5-9.2-18.5-5.8-27.7 4-9.8 13.3-15.6 23.7-15.6h84.3c13.9 0 25.4 11.5 25.4 25.4 0 13.9-11.5 25.4-25.4 25.4h-22.5l166.3 166.3c9.8 9.8 9.8 26 0 36.4-4.7 5.2-11.6 7.5-17.9 7.5z"/><path d="M350 474.1c-13.9 0-25.4-11.5-25.4-25.4v-84.3c0-13.9 11.5-25.4 25.4-25.4s25.4 11.5 25.4 25.4v84.3c0 13.9-11 25.4-25.4 25.4z"/><g><path d="M352.8 261c-3.5 0-6.4-.6-9.8-1.7-9.8-4-15.6-13.3-15.6-23.7v-83.7c0-13.9 11.5-25.4 25.4-25.4s25.4 11.5 25.4 25.4v22.5L545.1 7.5c9.8-9.8 26-9.8 36.4 0 9.8 9.8 9.8 26 0 36.4L370.7 253.5c-4.6 5.2-11.5 7.5-17.9 7.5z"/><path d="M436.6 261h-83.7c-13.9 0-25.4-11.5-25.4-25.4 0-13.9 11.5-25.4 25.4-25.4h84.3c13.9 0 25.4 11.5 25.4 25.4 0 13.9-11.6 25.4-26 25.4z"/></g><g><path d="M248.9 262.8h-84.3c-13.9 0-25.4-11.5-25.4-25.4 0-13.9 11.5-25.4 25.4-25.4h22.5L20.8 45c-9.8-9.8-9.8-26 0-36.4 9.8-9.8 26-9.8 36.4 0l209.6 210.8c7.5 7.5 9.2 18.5 5.8 27.7-4.1 9.3-13.3 15.7-23.7 15.7zM248.9 262.8c-13.9 0-25.4-11.5-25.4-25.4v-83.7c0-13.9 11.5-25.4 25.4-25.4 13.9 0 25.4 11.5 25.4 25.4V238c0 13.2-11.5 24.8-25.4 24.8z"/></g></g></svg>