<svg xmlns="http://www.w3.org/2000/svg" viewBox="0 0 87.3 87.7"><g fill="#404447"><path d="M43.8 63.6c-10.9 0-19.7-8.9-19.7-19.7 0-10.9 8.9-19.7 19.7-19.7 9 0 16.6 6 19 14.3h7.6C67.9 26 56.9 16.7 43.8 16.7c-15 0-27.2 12.2-27.2 27.2s12.2 27.2 27.2 27.2c13.1 0 24.1-9.3 26.6-21.7h-7.6c-2.4 8.1-10 14.2-19 14.2"/><path d="M30.5 57.1c3.4 3.4 8.1 5.5 13.3 5.5v-7.9c-3 0-5.8-1.2-7.7-3.2l-5.6 5.6zM25 43.8c0 2.7.6 5.3 1.6 7.6l7.2-3.2c-.6-1.3-.9-2.8-.9-4.4 0-6.1 4.9-11 11-11V25C33.4 25 25 33.4 25 43.8M50.7 26.3l-2.9 7.3c2.3.9 4.3 2.6 5.5 4.7h8.5c-1.6-5.5-5.8-9.9-11.1-12M47.8 54l2.9 7.3c5.3-2.1 9.5-6.5 11.2-12.1h-8.5c-1.3 2.3-3.3 3.9-5.6 4.8M9 54.4c-.1-.4-.2-.8-.4-1.2v-.1l-.3-1.2c0-.1 0-.2-.1-.2-.1-.3-.1-.7-.2-1v-.5c0-.3-.1-.5-.1-.8 0-.2-.1-.5-.1-.7-.2-1.6-.3-3.2-.3-4.8H0c0 1.8.1 3.5.3 5.3v.1c.1.5.1.9.2 1.4 0 .1 0 .3.1.4.1.4.1.8.2 1.2 0 .2.1.4.1.6.1.3.1.6.2.9.1.3.1.5.2.8.1.2.1.5.2.7l.3.9c0 .1.1.3.1.4.5 1.7 1.1 3.4 1.8 5l6.8-3c-.6-1.5-1.1-2.8-1.5-4.2z"/><path d="M43.8 80.2c-10 0-19.1-4.1-25.7-10.7l-5.3 5.3c7.9 7.9 18.9 12.8 31 12.8 22.4 0 40.8-16.7 43.5-38.4h-7.5c-2.6 17.6-17.8 31-36 31M43.8 7.4c8.2 0 15.7 2.7 21.8 7.2l4.5-6C62.7 3.2 53.7 0 43.8 0 25.2 0 9.3 11.6 3 27.9l6.9 2.7C15.2 17.1 28.4 7.4 43.8 7.4M79.8 38.4h7.5c-.8-6.5-3-12.5-6.3-17.7l-6.3 3.9c2.6 4.1 4.4 8.8 5.1 13.8"/><path d="M71.4 38.4h7.5c-2-12.6-10.6-23.1-22.2-27.6L54 17.7c8.8 3.4 15.5 11.2 17.4 20.7M43.8 15.8V8.4c-15 0-27.9 9.4-33.1 22.6l6.9 2.7c4.2-10.5 14.3-17.9 26.2-17.9M15.8 43.8H8.4c0 14.9 9.2 27.7 22.3 32.9l2.8-6.9c-10.4-4.1-17.7-14.2-17.7-26M43.8 71.9v7.4c17.7 0 32.4-13 35.1-30h-7.5c-2.6 12.9-14 22.6-27.6 22.6"/></g></svg>