<svg xmlns="http://www.w3.org/2000/svg" viewBox="0 0 94.2 92.7"><path fill="#404447" d="M76 32H19.3c-.7 0-1.3-.6-1.3-1.3 0-.7.6-1.3 1.3-1.3H76c.7 0 1.3.6 1.3 1.3.1.7-.5 1.3-1.3 1.3zM24 21.2c-1.3 0-2.4 1.1-2.4 2.4 0 1.3 1.1 2.4 2.4 2.4 1.3 0 2.4-1.1 2.4-2.4 0-1.3-1-2.4-2.4-2.4zM30.6 21.2c-1.3 0-2.4 1.1-2.4 2.4 0 1.3 1.1 2.4 2.4 2.4 1.3 0 2.4-1.1 2.4-2.4 0-1.3-1.1-2.4-2.4-2.4zM37.1 21.2c-1.3 0-2.4 1.1-2.4 2.4 0 1.3 1.1 2.4 2.4 2.4 1.3 0 2.4-1.1 2.4-2.4 0-1.3-1.1-2.4-2.4-2.4zM47.5 55.3H35.3c-1.1 0-1.9-.9-1.9-1.9 0-1.1.9-1.9 1.9-1.9h12.2c1.1 0 1.9.9 1.9 1.9 0 1-.8 1.9-1.9 1.9zM24.6 55.3c-.5 0-1-.2-1.4-.6-.7-.7-.7-2 0-2.7l5.6-5.6-5.6-5.6c-.7-.7-.7-2 0-2.7.7-.7 2-.7 2.7 0l6.9 6.9c.7.7.7 2 0 2.7l-6.9 6.9c-.3.5-.8.7-1.3.7z"/><g><path fill="#404447" d="M90.2 92.7H4c-2.2 0-4-1.8-4-4V4c0-2.2 1.8-4 4-4h86.3c2.2 0 4 1.8 4 4v84.7c-.1 2.2-1.9 4-4.1 4zm-82.3-8h78.3V7.9H7.9v76.8z"/><path fill="#404447" d="M77.4 65H16.8c-1.1 0-2-.9-2-2V16.8c0-1.1.9-2 2-2h60.5c1.1 0 2 .9 2 2V63c.1 1.1-.8 2-1.9 2zm-58.6-4h56.6V18.8H18.8V61z"/></g></svg>