<svg xmlns="http://www.w3.org/2000/svg" viewBox="0 0 600 600"><g fill="#404447"><path d="M415.6 462V9.7c0-5.4-4.3-9.7-9.7-9.7H65.8c-5.4 0-9.7 4.3-9.7 9.7V462c0 5.4 4.3 9.7 9.7 9.7H406c5.3 0 9.6-4.3 9.6-9.7zM279.2 51.2h47.4c5.4 0 9.7 4.3 9.7 9.7s-4.3 9.7-9.7 9.7h-47.4c-5.4 0-9.7-4.3-9.7-9.7.6-5.9 4.9-9.7 9.7-9.7zm43.2 51.2c0 5.4-4.3 9.7-9.7 9.7H141.8c-5.4 0-9.7-4.3-9.7-9.7 0-5.4 4.3-9.7 9.7-9.7h170.9c5.4 0 9.7 4.3 9.7 9.7zM197.3 51.2h47.4c5.4 0 9.7 4.3 9.7 9.7s-4.3 9.7-9.7 9.7h-47.4c-5.4 0-9.7-4.3-9.7-9.7 0-5.9 4.3-9.7 9.7-9.7zm-81.9 0h47.4c5.4 0 9.7 4.3 9.7 9.7s-4.3 9.7-9.7 9.7h-47.4c-5.4 0-9.7-4.3-9.7-9.7 0-5.9 4.3-9.7 9.7-9.7zm163.8 140.7H141.8c-5.4 0-9.7-4.3-9.7-9.7 0-5.4 4.3-9.7 9.7-9.7h137.5c5.4 0 9.7 4.3 9.7 9.7-.6 5.4-4.9 9.7-9.8 9.7zm9.2 30.2c0 5.4-4.3 9.7-9.7 9.7H141.8c-5.4 0-9.7-4.3-9.7-9.7s4.3-9.7 9.7-9.7h137.5c4.8 0 9.1 4.3 9.1 9.7zm-125.6 91.6h-47.4c-5.4 0-9.7-4.3-9.7-9.7s4.3-9.7 9.7-9.7h47.4c5.4 0 9.7 4.3 9.7 9.7 0 5.4-4.3 9.7-9.7 9.7zm190.3-40.9H141.8c-5.4 0-9.7-4.3-9.7-9.7s4.3-9.7 9.7-9.7h211.3c5.4 0 9.7 4.3 9.7 9.7s-4.3 9.7-9.7 9.7zm0-119.7H141.8c-5.4 0-9.7-4.3-9.7-9.7 0-5.4 4.3-9.7 9.7-9.7h211.3c5.4 0 9.7 4.3 9.7 9.7 0 5.4-4.3 9.7-9.7 9.7z"/><path d="M470.1 535.8H129.9c-5.4 0-9.7-4.3-9.7-9.7V504h318.1c5.4 0 9.7-4.3 9.7-9.7V64.2h22.6c5.4 0 9.7 4.3 9.7 9.7v452.3c-.5 5.3-4.8 9.6-10.2 9.6z"/><path d="M543.9 138v452.3c0 5.4-4.3 9.7-9.7 9.7H194.1c-5.4 0-9.7-4.3-9.7-9.7v-22.1h318.1c5.4 0 9.7-4.3 9.7-9.7V128.3h22.1c5.3 0 9.6 4.3 9.6 9.7z"/></g></svg>