<svg xmlns="http://www.w3.org/2000/svg" viewBox="0 0 96.4 96.4"><path fill="#404447" d="M92.3 96.4H4c-2.2 0-4-1.8-4-4V4c0-2.2 1.8-4 4-4h88.3c2.2 0 4 1.8 4 4v88.3c.1 2.2-1.8 4.1-4 4.1zM8.1 88.3h80.2V8.1H8.1v80.2z"/><path fill="#404447" d="M76.3 39.4H60.7c-2.2 0-4-1.8-4-4s1.8-4 4-4h15.6c2.2 0 4 1.8 4 4 .1 2.2-1.7 4-4 4zM33.9 39.4h-13c-2.2 0-4-1.8-4-4s1.8-4 4-4h13c2.2 0 4 1.8 4 4s-1.8 4-4 4zM33.9 69.1h-13c-2.2 0-4-1.8-4-4s1.8-4 4-4h13c2.2 0 4 1.8 4 4s-1.8 4-4 4z"/><path fill="#404447" d="M48.5 46.2H35c-2.2 0-4-1.8-4-4V28.6c0-2.2 1.8-4 4-4h13.5c2.2 0 4 1.8 4 4v13.5c.1 2.3-1.8 4.1-4 4.1zm-9.4-8.1h5.4v-5.4h-5.4v5.4zM76.3 69.1H60.7c-2.2 0-4-1.8-4-4s1.8-4 4-4h15.6c2.2 0 4 1.8 4 4 .1 2.2-1.7 4-4 4zM48.5 75.8H35c-2.2 0-4-1.8-4-4V58.3c0-2.2 1.8-4 4-4h13.5c2.2 0 4 1.8 4 4v13.5c.1 2.2-1.8 4-4 4zm-9.4-8.1h5.4v-5.4h-5.4v5.4zM18.9 69.1c-2.2 0-4-1.8-4-4V18.3c0-2.2 1.8-4 4-4s4 1.8 4 4V65c0 2.3-1.8 4.1-4 4.1z"/></svg>