<svg xmlns="http://www.w3.org/2000/svg" viewBox="0 0 93.1 93.1"><path fill="#404447" d="M89.2 93.1H3.9c-2.2 0-3.9-1.8-3.9-3.9V3.9C0 1.8 1.8 0 3.9 0h85.2C91.3 0 93 1.8 93 3.9v85.2c.1 2.2-1.7 4-3.8 4zM7.8 85.2h77.4V7.8H7.8v77.4z"/><path fill="#404447" d="M87.8 28.7H5.3c-1.1 0-2-.9-2-2s.9-2 2-2h82.4c1.1 0 2 .9 2 2s-.9 2-1.9 2zM17.8 11.5c-2.7 0-4.9 2.2-4.9 4.9s2.2 4.9 4.9 4.9 4.9-2.2 4.9-4.9-2.2-4.9-4.9-4.9zM31.2 11.5c-2.7 0-4.9 2.2-4.9 4.9s2.2 4.9 4.9 4.9 4.9-2.2 4.9-4.9-2.2-4.9-4.9-4.9zM44.5 11.5c-2.7 0-4.9 2.2-4.9 4.9s2.2 4.9 4.9 4.9 4.9-2.2 4.9-4.9c.1-2.7-2.2-4.9-4.9-4.9z"/><g><path fill="#404447" d="M70 73.1H45c-2.2 0-3.9-1.8-3.9-3.9 0-2.2 1.8-3.9 3.9-3.9h25c2.2 0 3.9 1.8 3.9 3.9.1 2.2-1.7 3.9-3.9 3.9zM23 73.1c-1 0-2-.4-2.8-1.1-1.5-1.5-1.5-4 0-5.5L31.7 55 20.3 43.5c-1.5-1.5-1.5-4 0-5.5s4-1.5 5.5 0L40 52.2c1.5 1.5 1.5 4 0 5.5L25.8 72c-.7.7-1.7 1.1-2.8 1.1z"/></g></svg>