<svg xmlns="http://www.w3.org/2000/svg" viewBox="0 0 600 600"><path fill="#404447" d="M574.2 600H25.1C11 600 0 589 0 574.9V25.1C0 11 11 0 25.1 0s25.1 11 25.1 25.1v524h524c14.2 0 25.1 11 25.1 25.1.7 14.2-10.9 25.8-25.1 25.8z"/><path fill="#404447" d="M208.8 508.5H116c-12.9 0-23.2-10.3-23.2-23.2V355.1c0-12.9 10.3-23.2 23.2-23.2h92.8c12.9 0 23.2 10.3 23.2 23.2v130.2c0 12.9-10.3 23.2-23.2 23.2zm-69.6-46.4h46.4v-83.8h-46.4v83.8zM567.1 508.5h-92.8c-12.9 0-23.2-10.3-23.2-23.2V25.1c0-12.9 10.3-23.2 23.2-23.2h92.8c12.9 0 23.2 10.3 23.2 23.2v460.2c0 12.9-10.3 23.2-23.2 23.2zm-69.6-46.4h46.4V48.3h-46.4v413.8zM388 508.5h-92.8c-12.9 0-23.2-10.3-23.2-23.2V194c0-12.9 10.3-23.2 23.2-23.2H388c12.9 0 23.2 10.3 23.2 23.2v291.3c0 12.9-10.3 23.2-23.2 23.2zm-69.6-46.4h46.4V217.2h-46.4v244.9z"/></svg>