<svg xmlns="http://www.w3.org/2000/svg" viewBox="0 0 119 86.2"><path fill="#404447" d="M59.8 39.9c-9.9 0-17.9-8.9-17.9-19.9C41.9 8.9 50 0 59.8 0s17.9 8.9 17.9 19.9c.1 11-8 20-17.9 20zm0-30.4c-4.7 0-8.5 4.7-8.5 10.5s3.8 10.5 8.5 10.5 8.4-4.7 8.4-10.5c.1-5.8-3.7-10.5-8.4-10.5zM84.9 86.2H34.1c-2.5 0-4.6-1.9-4.7-4.4-.4-5.5-.8-11-1.1-16.4-.5-6.6 4.5-14 11-16.4 13-4.7 27.4-4.7 40.3 0 6.6 2.4 11.6 9.8 11.1 16.5l-1.1 16.4c-.2 2.4-2.2 4.3-4.7 4.3zm-46.4-9.5h41.9l.8-12c.1-2-1.8-5.8-4.9-6.9-10.8-3.9-22.9-3.9-33.8 0-3 1.1-5 4.9-4.8 6.9.3 4 .6 8 .8 12z"/><path fill="#404447" d="M84.9 86.2H34.1c-2.5 0-4.6-1.9-4.7-4.4-.4-5.5-.8-11-1.1-16.4-.5-6.6 4.5-14 11-16.4 13-4.7 27.4-4.7 40.3 0 6.6 2.4 11.6 9.8 11.1 16.5l-1.1 16.4c-.2 2.4-2.2 4.3-4.7 4.3zm-46.4-9.5h41.9l.8-12c.1-2-1.8-5.8-4.9-6.9-10.8-3.9-22.9-3.9-33.8 0-3 1.1-5 4.9-4.8 6.9.3 4 .6 8 .8 12zM115.6 78.5H95.4c-1.3 0-2.4-1.1-2.4-2.4 0-1.3 1.1-2.4 2.4-2.4h18l.8-11.9c.2-2.6-2.1-6.5-5.3-7.7-4.6-1.6-9.4-2.5-14.3-2.6-1.3 0-2.3-1.1-2.3-2.4 0-1.3 1.1-2.3 2.4-2.3 5.4.1 10.8 1.1 15.9 2.9 4.9 1.8 8.8 7.5 8.4 12.5l-1 14.1c-.1 1.2-1.2 2.2-2.4 2.2zM100 41.7c-7 0-12.7-6.4-12.7-14.2 0-7.8 5.7-14.2 12.7-14.2 7 0 12.6 6.4 12.6 14.2.1 7.8-5.6 14.2-12.6 14.2zm0-23.7c-4.4 0-7.9 4.2-7.9 9.5 0 5.2 3.6 9.5 7.9 9.5 4.4 0 7.9-4.3 7.9-9.5 0-5.3-3.5-9.5-7.9-9.5zM23.6 78.5H3.4c-1.2 0-2.3-1-2.4-2.2L0 62.2c-.3-5 3.5-10.7 8.4-12.5 5.1-1.8 10.5-2.8 15.9-2.9 1.4.2 2.4 1 2.4 2.3 0 1.3-1 2.4-2.3 2.4-4.9.1-9.7 1-14.4 2.6-3.2 1.2-5.5 5.1-5.3 7.7l.8 11.9h18c1.3 0 2.4 1.1 2.4 2.4 0 1.4-1 2.4-2.3 2.4zM18.9 41.7c-7 0-12.6-6.4-12.6-14.2 0-7.8 5.7-14.2 12.6-14.2 7 0 12.7 6.4 12.7 14.2 0 7.8-5.7 14.2-12.7 14.2zm0-23.7c-4.4 0-7.9 4.2-7.9 9.5 0 5.2 3.5 9.5 7.9 9.5s7.9-4.3 7.9-9.5c0-5.3-3.5-9.5-7.9-9.5z"/></svg>