<svg xmlns="http://www.w3.org/2000/svg" viewBox="0 0 98.5 89.8"><path fill="#404447" d="M81.3 50.5c-.2-1.1-.5-2.1-1-3-.6-1.1-1.3-2.2-2.2-3-.8-.7-1.7-1.4-2.6-1.9-1.1-.6-2.3-1-3.6-1.1-.5-.1-1.1-.1-1.6-.1s-1.1 0-1.6.1c-1.3.2-2.5.6-3.6 1.1-.9.5-1.8 1.1-2.6 1.9-.9.9-1.6 1.9-2.2 3-.5.9-.8 2-1 3.1-.1.6-.2 1.2-.2 1.9 0 .6.1 1.3.2 1.9.2 1.1.5 2.1 1 3 .6 1.1 1.3 2.1 2.2 3 .6.6 1.3 1.2 2.1 1.6.2.1.3.2.5.3 1.1.6 2.3 1 3.5 1.1.5.1 1.1.1 1.6.1s1.1 0 1.6-.1c1.2-.2 2.4-.6 3.5-1.1.2-.1.4-.2.5-.3.8-.4 1.5-1 2.1-1.6.9-.9 1.6-1.9 2.2-3 .5-.9.8-2 1-3 .1-.6.2-1.2.2-1.9.2-.7.1-1.4 0-2zm-13.4-4.6c.2-.1.5-.2.7-.2.6-.2 1.2-.2 1.8-.2.6 0 1.2.1 1.8.2.2.1.5.1.7.2 1.1.4 2.1 1.2 2.9 2.1.2.2.3.4.4.6.6 1 1 2.1 1.1 3.4v.8c-.1 1.2-.4 2.4-1.1 3.4-.1.2-.3.4-.4.6-.8.9-1.8 1.7-2.9 2.1-.2.1-.5.2-.7.2-.6.2-1.2.2-1.8.2-.6 0-1.2-.1-1.8-.2-.2-.1-.5-.1-.7-.2-1.1-.4-2.1-1.2-2.9-2.1-.2-.2-.3-.4-.4-.6-.6-1-1-2.1-1.1-3.4v-.4-.4c.1-1.2.5-2.4 1.1-3.4.1-.2.3-.4.4-.6.7-.9 1.7-1.6 2.9-2.1z"/><path fill="#404447" d="M98.5 4.1v73.5c0 2.3-1.8 4.1-4.1 4.1h-36v-8.3h31.9V8.3h-82v65.3h3.1v8.3H4.1C1.8 81.8 0 80 0 77.7V4.1C0 1.9 1.8 0 4.1 0h90.2c2.3 0 4.2 1.9 4.2 4.1z"/><path fill="#404447" d="M83.1 18.2c0 1.2-.9 2.1-2.1 2.1H17.4c-1.2 0-2.1-.9-2.1-2.1 0-1.1.9-2.1 2.1-2.1H81c1.2.1 2.1 1 2.1 2.1zM67.1 36.5H31.4c-1.1 0-2.1-.9-2.1-2.1s.9-2.1 2.1-2.1h35.7c1.1 0 2.1.9 2.1 2.1s-1 2.1-2.1 2.1zM77.4 26.3c0 1.1-.9 2.1-2.1 2.1H23.2c-1.1 0-2.1-.9-2.1-2.1 0-1.1.9-2.1 2.1-2.1h52.1c1.1.1 2.1 1 2.1 2.1zM81.8 51.3l-.5-.7-.9-1.4-.1-1.7v-.9c0-.8-.6-1.6-1.4-1.9l-.8-.3-1.6-.6-1-1.3-.5-.6c-.5-.7-1.4-.9-2.2-.7l-.8.2-1.6.5-1.6-.5-.8-.2c-.8-.2-1.7.1-2.2.7l-.5.7-1 1.3-1.6.6-.8.3c-.8.3-1.3 1-1.4 1.9v.9l-.1 1.7-.9 1.4-.5.6c-.5.7-.5 1.6 0 2.3l.5.7.9 1.4.1 1.7v.9c0 .9.6 1.6 1.4 1.9l.8.3 1.6.6.6.9.4.5.5.7c.5.7 1.4 1 2.2.7l.8-.2 1.6-.5 1.6.5.8.2c.2 0 .4.1.6.1.6 0 1.2-.3 1.6-.8l.5-.7.4-.5.7-.9 1.6-.6.8-.3c.8-.3 1.3-1 1.4-1.9v-.9l.1-1.7.9-1.4.5-.7c.4-.7.4-1.6-.1-2.3zm-4.5 1.5l-.7 1c-.2.3-.3.7-.4 1.1v1.8l-.4.2-1.2.4c-.4.1-.7.4-.9.7l-.8 1-.3.4-.4-.1-1.2-.5c-.4-.1-.8-.1-1.1 0l-1.2.3-.4.1-.3-.4-.8-1c-.2-.3-.6-.5-.9-.7l-1.3-.3-.4-.2v-1.7c0-.4-.1-.8-.4-1.1l-.7-1-.3-.4.3-.4.7-1c.2-.3.3-.7.4-1.1v-1.8l.4-.1 1.2-.4c.4-.1.7-.4.9-.7l.8-1 .3-.4.4.1 1.2.4c.4.1.8.1 1.1 0l1.2-.4.4-.1.3.4.8 1c.2.3.6.5.9.7l1.2.4.4.1V49.8c0 .4.1.8.4 1.1l.7 1 .3.4-.2.5z"/><path fill="#404447" d="M77.3 69.1c-.6 0-1.3-.3-1.7-.8l-3.4-4.6c-.7-.9-.5-2.2.4-2.9.9-.7 2.2-.5 2.9.4l3.4 4.6c.7.9.5 2.2-.4 2.9-.4.2-.8.4-1.2.4zM63.5 69.1c-.4 0-.9-.1-1.2-.4-.9-.7-1.1-2-.4-2.9l3.4-4.6c.7-.9 2-1.1 2.9-.4.9.7 1.1 2 .4 2.9l-3.4 4.6c-.5.5-1.1.8-1.7.8z"/><g><path fill="#404447" d="M49.6 89.8H19.2c-1.9 0-3.4-1.5-3.4-3.4v-18c0-1.9 1.5-3.4 3.4-3.4h30.3c1.9 0 3.4 1.5 3.4 3.4v18c.1 1.8-1.5 3.4-3.3 3.4zM19.2 68.4v18h30.3v-18H19.2z"/><path fill="#404447" d="M45.2 68c-.9 0-1.7-.8-1.7-1.7v-4.6c0-5-4.1-9.1-9.1-9.1s-9.1 4.1-9.1 9.1v4.6c0 .9-.8 1.7-1.7 1.7-.9 0-1.7-.8-1.7-1.7v-4.6c0-6.9 5.6-12.5 12.5-12.5s12.5 5.6 12.5 12.5v4.6c0 .9-.7 1.7-1.7 1.7zM34.4 71.6c-1.9 0-3.5 1.6-3.5 3.5 0 1.3.7 2.5 1.8 3.1v4h3.4v-4c1.1-.6 1.8-1.7 1.8-3.1 0-1.9-1.5-3.5-3.5-3.5z"/></g></svg>