<svg xmlns="http://www.w3.org/2000/svg" viewBox="0 0 600 600"><g fill="#404447"><path d="M502.8 324.5l-37.3-90.1c-1.9-4.5-7.7-8.4-12.2-8.4h-59.9c-5.2 0-9.7 3.9-10.3 9l-29 145.5v1.3l-1.3 7.7h18c0-25.8 21.2-46.4 47.6-46.4s47.6 20.6 47.6 46.4h20.6c5.2 0 9.7-3.9 10.9-9l8.4-39.3c-.5-5.1-1.2-12.2-3.1-16.7zm-28.3-21.9l-77.3-21.2c-2.6-.6-3.9-3.2-3.2-5.8l5.2-27.7c.6-2.6 2.6-4.5 5.2-4.5h46.4c2.6 0 5.2 1.9 6.4 3.9l21.2 51.5c-.1 3.1-1.4 4.4-3.9 3.8z"/><ellipse cx="189.3" cy="389.5" rx="34.1" ry="32.8"/><path d="M379.8 189.9c1.9-9.7-4.5-17.4-14.2-17.4H159c-9.7 0-19.3 7.7-21.2 17.4l-37.3 181.5c-1.9 9.7 4.5 17.4 14.2 17.4h26.9c0-25.8 21.2-46.4 47.6-46.4s47.6 20.6 47.6 46.4h103l7.7-41.2 32.3-157.7zm-138.4-2.6c16.1 0 30.9 5.2 43.1 14.2l-7.1 9.7c-10.3-7.7-22.5-12.2-36.1-12.2-25.1 0-47 16.1-56 38l-11.6-4.5c11.1-26.5 37.5-45.2 67.7-45.2zm0 27.1c21.2 0 39.9 15.5 43.8 35.4h-12.9c-3.9-13.5-16.7-23.2-30.9-23.2-18 0-32.2 14.8-32.2 32.2 0 18 14.8 32.2 32.2 32.2 14.8 0 27-9.7 30.9-23.2h12.9c-3.9 20.6-22.5 35.4-43.8 35.4-24.5 0-44.4-20-44.4-44.4s20-44.4 44.4-44.4zm-54.1 23.8c8.4-21.9 29.6-37.3 54.7-37.3v12.2c-19.3 0-36.1 12.2-43.1 29.6l-11.6-4.5zm70.2 30.3h14.2c-2.6 9-9.7 16.7-18.7 20l-4.5-12.2c3.2-2.1 6.4-4.6 9-7.8zm-9.6-25.8l4.5-12.2c9 3.2 15.5 10.9 18.7 20h-13.5c-2.7-3.9-5.9-6.5-9.7-7.8zm-24.5 16.7c0 2.6.6 5.2 1.3 7.1l-11.6 5.2c-1.9-3.9-2.6-7.7-2.6-12.2 0-17.4 14.2-30.9 30.9-30.9v12.9c-9.6-.1-18 7.6-18 17.9zm18 18.1v12.9c-8.4 0-16.1-3.2-21.9-9l9-9c3.9 3.1 8.4 5.1 12.9 5.1zm0 27.7c22.5 0 41.2-16.1 45.1-37.3h12.2c-4.5 27.7-28.3 49.6-57.9 49.6v-12.2h.6zm45.7-54.8c-3.2-15.5-14.2-28.3-28.3-34.1l4.5-11.6c19.3 7.7 33.5 24.5 36.7 45.7h-12.9zm-111.3 38c-1.3-2.6-1.9-5.2-3.2-8.4v-.6c0-.6 0-1.3-.6-1.3v-1.3-1.3s0-1.3-.6-1.3v-1.3c0-.6 0-1.3-.6-1.9v-.6c0-.6 0-1.3-.6-2.6-.6-2.6-.6-5.8-.6-8.4h12.2c0 2.6 0 5.2.6 7.7v3.2c0 .6 0 1.3.6 1.9v.6s0 1.3.6 1.9c0 .6.6 1.3.6 1.9.6 2.6 1.3 4.5 2.6 7.1l-11 4.7zm7.7-29h12.2c0 19.3 12.2 36.1 29 43.1l-4.5 11.6c-21.9-9.6-36.7-30.2-36.7-54.7zm57.9 72.1c-20 0-38-8.4-50.9-21.2l8.4-8.4c10.9 10.9 25.8 17.4 42.5 17.4 30.3 0 54.7-21.9 59.2-50.9h12.2c-3.8 35.5-34.7 63.1-71.4 63.1zm59.2-81.1c-1.3-8.4-3.9-16.1-8.4-22.5l10.3-6.4c5.2 8.4 9 18.7 10.3 29h-12.2z"/><ellipse cx="417.8" cy="389.5" rx="34.1" ry="32.8"/></g><path fill="#404447" d="M574.2 600H25.1C10.9 600 0 589.1 0 574.9V25.1C0 10.9 10.9 0 25.1 0h549.1c14.2 0 25.1 10.9 25.1 25.1v549.1c.7 14.2-10.9 25.8-25.1 25.8zm-524-50.9h498.9V50.2H50.2v498.9z"/></svg>