<svg xmlns="http://www.w3.org/2000/svg" viewBox="0 0 94.2 92.7"><path fill="#404447" d="M90.2 92.7H4c-2.2 0-4-1.8-4-4V4c0-2.2 1.8-4 4-4h86.3c2.2 0 4 1.8 4 4v84.7c-.1 2.2-1.9 4-4.1 4zm-82.3-8h78.3V7.9H7.9v76.8z"/><path fill="#404447" d="M77.4 65H16.8c-1.1 0-2-.9-2-2V16.8c0-1.1.9-2 2-2h60.5c1.1 0 2 .9 2 2V63c.1 1.1-.8 2-1.9 2zm-58.6-4h56.6V18.8H18.8V61z"/><g><path fill="#404447" d="M27 76.8c0-.9.7-1.7 1.7-1.7H37c.9 0 1.7.7 1.7 1.7 0 .9-.7 1.7-1.7 1.7h-8.3c-.9 0-1.7-.7-1.7-1.7zM41.3 76.8c0-.9.7-1.7 1.7-1.7h8.3c.9 0 1.7.7 1.7 1.7 0 .9-.7 1.7-1.7 1.7H43c-.9 0-1.7-.7-1.7-1.7zM55.6 76.8c0-.9.7-1.7 1.7-1.7h8.3c.9 0 1.7.7 1.7 1.7 0 .9-.7 1.7-1.7 1.7h-8.3c-1 0-1.7-.7-1.7-1.7z"/></g></svg>