<svg xmlns="http://www.w3.org/2000/svg" viewBox="0 0 94.7 94.7"><path fill="#404447" d="M90.8 94.7H4c-2.2 0-4-1.8-4-4V4c0-2.2 1.8-4 4-4h86.8c2.2 0 4 1.8 4 4v86.8c-.1 2.2-1.8 3.9-4 3.9zM7.9 86.8h78.8V7.9H7.9v78.9z"/><path fill="#404447" d="M71.6 66.7H46c-2.2 0-4-1.8-4-4s1.8-4 4-4h25.6c2.2 0 4 1.8 4 4s-1.8 4-4 4zM23.3 66.7c-1 0-2.1-.4-2.8-1.2-1.6-1.6-1.6-4.1 0-5.7L32.2 48 20.5 36.3c-1.6-1.6-1.6-4.1 0-5.7 1.6-1.6 4.1-1.6 5.7 0l14.6 14.6c1.6 1.6 1.6 4.1 0 5.7L26.2 65.5c-.8.8-1.8 1.2-2.9 1.2z"/></svg>