<svg xmlns="http://www.w3.org/2000/svg" viewBox="0 0 600 600"><path fill="#404447" d="M246.5 556.7c-14 0-24.8-11.5-24.8-24.8V377.7H68.2c-14 0-24.8-11.5-24.8-24.8 0-14 11.5-24.8 24.8-24.8h178.3c14 0 24.8 11.5 24.8 24.8v178.3c.7 14-10.8 25.5-24.8 25.5z"/><path fill="#404447" d="M24.8 600c-6.4 0-12.7-2.5-17.8-7.6-9.6-9.6-9.6-25.5 0-35.7L229.3 335c9.6-9.6 25.5-9.6 35.7 0 9.6 9.6 9.6 25.5 0 35.7L42.7 592.4c-4.5 5.1-11.5 7.6-17.9 7.6zM352.9 556.7c-14 0-24.8-11.5-24.8-24.8V353.5c0-14 11.5-24.8 24.8-24.8h178.3c14 0 24.8 11.5 24.8 24.8 0 14-11.5 24.8-24.8 24.8H377.7v153.5c0 13.4-10.8 24.9-24.8 24.9z"/><path fill="#404447" d="M574.5 600c-6.4 0-12.7-2.5-17.8-7.6L335 370.7c-9.6-9.6-9.6-25.5 0-35.7 9.6-9.6 25.5-9.6 35.7 0l221.7 222.3c9.6 9.6 9.6 25.5 0 35.7-5.1 4.5-11.5 7-17.9 7z"/><g><path fill="#404447" d="M531.2 272H352.9c-14 0-24.8-11.5-24.8-24.8V68.8c0-14 11.5-24.8 24.8-24.8 14 0 24.8 11.5 24.8 24.8v153.5h153.5c14 0 24.8 11.5 24.8 24.8.7 14-10.8 24.9-24.8 24.9z"/><path fill="#404447" d="M352.9 272c-6.4 0-12.7-2.5-17.8-7.6-9.6-9.6-9.6-25.5 0-35.7l222.3-221c9.6-9.6 25.5-9.6 35.7 0 9.6 9.6 9.6 25.5 0 35.7L370.7 265c-5.1 4.4-11.5 7-17.8 7z"/></g><g><path fill="#404447" d="M246.5 272H68.2c-14 0-24.8-11.5-24.8-24.8 0-14 11.5-24.8 24.8-24.8h153.5V68.8c0-14 11.5-24.8 24.8-24.8 14 0 24.8 11.5 24.8 24.8v178.3c.7 14-10.8 24.9-24.8 24.9z"/><path fill="#404447" d="M246.5 272c-6.4 0-12.7-2.5-17.8-7.6L7.6 42.7C-2 33.1-2 17.2 7.6 7c9.6-9.6 25.5-9.6 35.7 0l221 222.3c9.6 9.6 9.6 25.5 0 35.7-4.4 4.4-10.8 7-17.8 7z"/></g></svg>