<svg xmlns="http://www.w3.org/2000/svg" viewBox="0 0 600 600"><path fill="#404447" d="M200.2 410.1c-3.9 0-7.7-1.3-10.9-4.5l-41.2-39.3c-6.4-6.4-6.4-16.1-.6-22.5 5.8-6.4 16.1-6.4 22.5-.6l41.2 39.9c6.4 6.4 6.4 16.1.6 22.5-2.6 3.2-7.1 4.5-11.6 4.5zM268.5 404.3c-3.9 0-8.4-1.3-11.6-4.5-6.4-6.4-6.4-16.1 0-22.5l148.7-148.7c2.6-2.6 5.8-4.5 9.7-4.5l63.1-6.4c9-.6 16.7 5.2 17.4 14.2.6 9-5.2 16.7-14.2 17.4l-56.7 5.8-145.5 144.7c-2.6 3.2-7.1 4.5-10.9 4.5zM233.7 365c-4.5 0-8.4-1.9-11.6-4.5l-94-94c-3.2-3.2-4.5-7.1-4.5-11.6s1.9-8.4 4.5-11.6l94-94c6.4-6.4 16.1-6.4 22.5 0l94 94c6.4 6.4 6.4 16.1 0 22.5l-93.3 94.6c-3.2 3.3-7.1 4.6-11.6 4.6zm-71.5-110.1l71.5 71.5 71.5-71.5-71.5-71.5-71.5 71.5z"/><path fill="#404447" d="M256.2 254.9l-22.5-22.5 36-35.4 22.6 22.5M235 471.2c-13.5 0-26.4-5.2-36.1-14.8s-14.8-22.5-14.8-36.1c0-13.5 5.2-26.4 14.8-36.1 19.3-19.3 52.8-19.3 71.5 0 9.7 9.7 14.8 22.5 14.8 36.1 0 13.5-5.2 26.4-14.8 36.1-9 9.7-21.9 14.8-35.4 14.8zm0-69.5c-5.2 0-9.7 1.9-13.5 5.8-3.9 3.9-5.8 8.4-5.8 13.5 0 5.2 1.9 9.7 5.8 13.5 7.1 7.1 19.3 7.1 26.4 0 7.1-7.1 7.1-19.3 0-26.4-2.6-4.5-7.8-6.4-12.9-6.4z"/><g><path fill="#404447" d="M574.2 600H25.1C10.9 600 0 589.1 0 574.9V25.1C0 10.9 10.9 0 25.1 0h549.1c14.2 0 25.1 10.9 25.1 25.1v549.1c.7 14.2-10.9 25.8-25.1 25.8zm-524-50.9h498.9V50.2H50.2v498.9z"/></g></svg>