<svg xmlns="http://www.w3.org/2000/svg" viewBox="0 0 97.9 84.6"><path fill="#404447" d="M77 65.4h-4.5v-7.9H77c3 0 5.9-1.3 7.9-3.5 3.4-3.1 5.1-7 5.1-11.1 0-8.1-6.6-14.6-14.6-14.6-1.5 0-3 .2-4.5.7-1.1.4-2.4.2-3.4-.5s-1.6-1.7-1.8-2.9c-1-10.1-9.4-17.7-19.6-17.7-10.9 0-19.7 8.8-19.7 19.7 0 1.3.1 2.6.4 3.9.2 1.2-.1 2.4-.8 3.3-.7.9-1.9 1.4-3 1.4h-4.4c-5.9 0-10.7 4.8-10.7 10.7 0 5.9 4.8 10.7 10.7 10.7h9v7.9h-9C8.3 65.4 0 57.1 0 46.8c0-10.2 8.3-18.6 18.6-18.6v-.7C18.6 12.4 30.9 0 46.1 0c12.8 0 23.6 8.6 26.7 20.6.8-.1 1.7-.1 2.5-.1 12.4 0 22.5 10.1 22.5 22.5 0 6.3-2.7 12.4-7.4 16.6-3.2 3.6-8.2 5.8-13.4 5.8z"/><path fill="#404447" d="M64.4 84.6H35.6c-3.1 0-5.5-2.5-5.5-5.5v-17c0-3.1 2.5-5.5 5.5-5.5h28.8c3.1 0 5.5 2.5 5.5 5.5v17.1c0 3-2.5 5.4-5.5 5.4zm-26.5-7.8H62V64.4H37.9v12.4z"/><path fill="#404447" d="M60.2 64c-2.2 0-3.9-1.8-3.9-3.9v-4.4c0-3.5-2.8-6.3-6.3-6.3s-6.3 2.8-6.3 6.3v4.4c0 2.2-1.8 3.9-3.9 3.9-2.2 0-3.9-1.8-3.9-3.9v-4.4c0-7.8 6.4-14.2 14.2-14.2 7.8 0 14.2 6.4 14.2 14.2v4.4c-.1 2.1-1.9 3.9-4.1 3.9zM50 65.1c-1.8 0-3.3 1.5-3.3 3.3 0 1.3.7 2.3 1.7 2.9v3.8h3.2v-3.8c1-.6 1.7-1.6 1.7-2.9 0-1.8-1.5-3.3-3.3-3.3z"/></svg>