<svg xmlns="http://www.w3.org/2000/svg" viewBox="0 0 94.2 92.7"><path fill="#404447" d="M90.2 92.7H4c-2.2 0-4-1.8-4-4V4c0-2.2 1.8-4 4-4h86.3c2.2 0 4 1.8 4 4v84.7c-.1 2.2-1.9 4-4.1 4zm-82.3-8h78.3V7.9H7.9v76.8z"/><g fill="#404447"><path d="M47.1 60.8c-7.9 0-14.3-6.4-14.3-14.3s6.4-14.3 14.3-14.3c6.5 0 12 4.4 13.7 10.3h5.5c-1.8-8.9-9.8-15.7-19.2-15.7-10.8 0-19.6 8.8-19.6 19.6S36.3 66 47.1 66c9.5 0 17.4-6.7 19.2-15.7h-5.5c-1.7 6.2-7.2 10.5-13.7 10.5"/><path d="M37.5 56.2c2.5 2.5 5.9 4 9.6 4v-5.7c-2.2 0-4.2-.9-5.6-2.3l-4 4zM33.5 46.5c0 1.9.4 3.8 1.2 5.5l5.2-2.3c-.4-1-.7-2.1-.7-3.2 0-4.4 3.5-7.9 7.9-7.9v-5.7c-7.5 0-13.6 6.1-13.6 13.6M52.1 33.9L50 39.2c1.7.7 3.1 1.9 4 3.4h6.2c-1.3-4-4.3-7.2-8.1-8.7M50 53.9l2.1 5.3c3.9-1.5 6.9-4.7 8.1-8.7H54c-.9 1.6-2.3 2.8-4 3.4M21.9 54.2l-.3-.9v-.1c-.1-.3-.1-.6-.2-.8v-.2c-.1-.2-.1-.5-.2-.7 0-.1 0-.2-.1-.3 0-.2-.1-.4-.1-.6 0-.2 0-.3-.1-.5-.2-1.1-.2-2.3-.2-3.5h-5.4c0 1.3.1 2.6.2 3.8v.1c0 .3.1.7.1 1v.3c0 .3.1.6.1.8 0 .1.1.3.1.4 0 .2.1.4.1.7 0 .2.1.4.1.6 0 .2.1.3.1.5.1.2.1.5.2.7 0 .1.1.2.1.3.4 1.2.8 2.4 1.3 3.6l4.9-2.2c0-1-.4-2-.7-3z"/><path d="M47.1 72.9c-7.3 0-13.8-3-18.6-7.7L24.7 69c5.7 5.7 13.7 9.3 22.4 9.3 16.2 0 29.5-12.1 31.4-27.7h-5.4c-1.9 12.5-12.8 22.3-26 22.3M47.1 20.2c5.9 0 11.3 1.9 15.7 5.2l3.2-4.3c-5.3-4-11.8-6.3-19-6.3-13.5 0-24.9 8.4-29.5 20.2l5 2c3.9-9.8 13.5-16.8 24.6-16.8M73.2 42.6h5.4c-.6-4.7-2.2-9-4.6-12.8l-4.6 2.9c1.9 2.9 3.2 6.3 3.8 9.9"/><path d="M67 42.6h5.4c-1.4-9.1-7.7-16.7-16.1-19.9l-1.9 5c6.5 2.4 11.3 8 12.6 14.9M47.1 26.2v-5.4c-10.9 0-20.2 6.8-23.9 16.4l5 1.9c3-7.5 10.3-12.9 18.9-12.9M26.8 46.5h-5.4c0 10.8 6.7 20 16.1 23.8l2-5c-7.4-2.9-12.7-10.2-12.7-18.8M47.1 66.8v5.4c12.8 0 23.4-9.4 25.4-21.7H67c-1.8 9.3-10 16.3-19.9 16.3"/></g></svg>