<svg xmlns="http://www.w3.org/2000/svg" viewBox="0 0 600 600"><path fill="#404447" d="M574.5 600h-549C11.5 600 0 588.5 0 574.5v-549C0 11.5 11.5 0 25.5 0h549.1c14 0 25.5 11.5 25.5 25.5v549.1c-.1 13.9-11.6 25.4-25.6 25.4zM50.9 549.1h498.2V50.9H50.9v498.2z"/><path fill="#404447" d="M493.7 506.5H106.3c-7 0-12.7-5.7-12.7-12.7V106.3c0-7 5.7-12.7 12.7-12.7h386.9c7 0 12.7 5.7 12.7 12.7v386.9c.6 7.5-5.2 13.3-12.2 13.3zM119.6 481H481V119.6H119.6V481z"/><path fill="#404447" d="M106.3 251.3c-14 0-25.5-11.5-25.5-25.5V194c0-14 11.5-25.5 25.5-25.5s25.5 11.5 25.5 25.5v31.8c.5 14.1-10.9 25.5-25.5 25.5zM106.3 431.4c-14 0-25.5-11.5-25.5-25.5v-31.8c0-14 11.5-25.5 25.5-25.5s25.5 11.5 25.5 25.5v31.8c.5 14-10.9 25.5-25.5 25.5z"/><g><path fill="#404447" d="M300.3 376.7c-42.6 0-77-34.4-77-77s34.4-77 77-77 77 34.4 77 77c-.6 42.6-35 77-77 77zm0-127.9c-28 0-51.5 22.9-51.5 51.5s22.9 51.5 51.5 51.5 51.5-22.9 51.5-51.5c-.6-28.6-23.5-51.5-51.5-51.5z"/><path fill="#404447" d="M252 264.7c-3.2 0-6.4-1.3-8.9-3.8l-17.8-17.8c-5.1-5.1-5.1-13.4 0-17.8 5.1-5.1 13.4-5.1 17.8 0l17.8 17.8c5.1 5.1 5.1 13.4 0 17.8-2.6 2.5-5.8 3.8-8.9 3.8zM366.5 379.2c-3.2 0-6.4-1.3-8.9-3.8l-21-21c-5.1-5.1-5.1-13.4 0-17.8 5.1-5.1 13.4-5.1 17.8 0l21 21c5.1 5.1 5.1 13.4 0 17.8-2.5 2.5-5.7 3.8-8.9 3.8zM348.7 264.7c-3.2 0-6.4-1.3-8.9-3.8-5.1-5.1-5.1-13.4 0-17.8l17.8-17.8c5.1-5.1 13.4-5.1 17.8 0 5.1 5.1 5.1 13.4 0 17.8l-17.8 17.8c-2.6 2.5-5.7 3.8-8.9 3.8zM233.5 379.2c-3.2 0-6.4-1.3-8.9-3.8-5.1-5.1-5.1-13.4 0-17.8l21-21c5.1-5.1 13.4-5.1 17.8 0 5.1 5.1 5.1 13.4 0 17.8l-20.4 21c-2.5 2.5-5.7 3.8-9.5 3.8z"/><g><path fill="#404447" d="M300.3 244.3c-7 0-12.7-5.7-12.7-12.7v-25.5c0-7 5.7-12.7 12.7-12.7s12.7 5.7 12.7 12.7v25.5c0 7-5.7 12.7-12.7 12.7zM300.3 406.6c-7 0-12.7-5.7-12.7-12.7V364c0-7 5.7-12.7 12.7-12.7 7 0 12.7 5.7 12.7 12.7v29.9c0 6.9-5.7 12.7-12.7 12.7z"/></g><g><path fill="#404447" d="M393.8 313h-25.5c-7 0-12.7-5.7-12.7-12.7s5.7-12.7 12.7-12.7h25.5c7 0 12.7 5.7 12.7 12.7s-5.7 12.7-12.7 12.7zM236.1 313h-29.9c-7 0-12.7-5.7-12.7-12.7s5.7-12.7 12.7-12.7h29.9c7 0 12.7 5.7 12.7 12.7s-5.7 12.7-12.7 12.7z"/></g></g></svg>