<svg xmlns="http://www.w3.org/2000/svg" viewBox="0 0 94.7 94.7"><path fill="#404447" d="M47.7 68.7c-12 0-21.8-9.8-21.8-21.8s9.8-21.8 21.8-21.8 21.8 9.8 21.8 21.8-9.7 21.8-21.8 21.8zm0-36.4c-8 0-14.6 6.5-14.6 14.6 0 8 6.5 14.6 14.6 14.6 8 0 14.6-6.5 14.6-14.6s-6.5-14.6-14.6-14.6z"/><path fill="#404447" d="M34 36.8c-.9 0-1.9-.4-2.6-1.1l-5.1-5.1c-1.4-1.4-1.4-3.7 0-5.1 1.4-1.4 3.7-1.4 5.1 0l5.1 5.1c1.4 1.4 1.4 3.7 0 5.1-.6.7-1.6 1.1-2.5 1.1zM66.5 69.3c-.9 0-1.9-.4-2.6-1.1l-6-6c-1.4-1.4-1.4-3.7 0-5.1 1.4-1.4 3.7-1.4 5.1 0l6 6c1.4 1.4 1.4 3.7 0 5.1-.6.7-1.6 1.1-2.5 1.1zM61.4 36.8c-.9 0-1.9-.4-2.6-1.1-1.4-1.4-1.4-3.7 0-5.1l5.1-5.1c1.4-1.4 3.7-1.4 5.1 0 1.4 1.4 1.4 3.7 0 5.1l-5 5.1c-.7.7-1.6 1.1-2.6 1.1zM28.9 69.3c-.9 0-1.9-.4-2.6-1.1-1.4-1.4-1.4-3.7 0-5.1l6-6c1.4-1.4 3.7-1.4 5.1 0 1.4 1.4 1.4 3.7 0 5.1l-6 6c-.6.7-1.5 1.1-2.5 1.1z"/><g><path fill="#404447" d="M47.7 31.1c-2 0-3.6-1.6-3.6-3.6v-7.2c0-2 1.6-3.6 3.6-3.6s3.6 1.6 3.6 3.6v7.2c.1 2-1.6 3.6-3.6 3.6zM47.7 77.1c-2 0-3.6-1.6-3.6-3.6V65c0-2 1.6-3.6 3.6-3.6s3.6 1.6 3.6 3.6v8.5c0 1.9-1.6 3.6-3.6 3.6z"/></g><g><path fill="#404447" d="M74.3 50.5h-7.2c-2 0-3.6-1.6-3.6-3.6s1.6-3.6 3.6-3.6h7.2c2 0 3.6 1.6 3.6 3.6s-1.6 3.6-3.6 3.6zM29.6 50.5h-8.5c-2 0-3.6-1.6-3.6-3.6s1.6-3.6 3.6-3.6h8.5c2 0 3.6 1.6 3.6 3.6s-1.6 3.6-3.6 3.6z"/></g><g><path fill="#404447" d="M90.8 94.7H4c-2.2 0-4-1.8-4-4V4c0-2.2 1.8-4 4-4h86.8c2.2 0 4 1.8 4 4v86.8c-.1 2.2-1.8 3.9-4 3.9zM7.9 86.8h78.8V7.9H7.9v78.9z"/></g></svg>