<svg xmlns="http://www.w3.org/2000/svg" viewBox="0 0 600 600"><path fill="#404447" d="M440.3 581.7c-6.3 0-12.6-2.3-17.7-7.4l-96.2-96.2c-9.7-9.7-9.7-25.2 0-34.9l96.2-96.2c9.7-9.7 25.2-9.7 34.9 0s9.7 25.2 0 34.9l-77.9 79 78.4 78.4c9.7 9.7 9.7 25.8 0 34.9-5.1 5.2-11.4 7.5-17.7 7.5z"/><path fill="#404447" d="M507.3 487.8H376.1c-12.6 0-22.9-10.3-22.9-22.9s10.3-22.9 22.9-22.9h131.1c25.8 0 46.4-20.6 46.4-46.4V111.1c0-25.8-20.6-46.4-46.4-46.4H92.7c-25.8 0-46.4 20.6-46.4 46.4v284c0 25.8 20.6 46.4 46.4 46.4h131.1c12.6 0 22.9 10.3 22.9 22.9s-10.3 22.9-22.9 22.9H92.7C41.8 487.8 0 446 0 395V111c0-51 41.8-92.7 92.7-92.7h414.5c51 0 92.7 41.8 92.7 92.7v284c.1 51-41.7 92.8-92.6 92.8z"/><g><path fill="#404447" d="M215.3 336.1c-45.2 0-82.4-37.2-82.4-82.4s37.2-82.4 82.4-82.4c45.8 0 82.4 37.2 82.4 82.4 0 45.7-37.2 82.4-82.4 82.4zm0-137.4c-30.3 0-55 24.6-55 55s24.6 55 55 55 55-24.6 55-55c-.1-30.4-24.7-55-55-55z"/><path fill="#404447" d="M163.2 215.3c-3.4 0-6.9-1.1-9.7-4l-18.9-18.9c-5.2-5.2-5.2-14.3 0-19.5 5.2-5.2 14.3-5.2 19.5 0l18.9 18.9c5.2 5.2 5.2 14.3 0 19.5-3 2.8-6.4 4-9.8 4zM286.3 338.4c-3.4 0-6.9-1.1-9.7-4l-22.3-22.9c-5.2-5.2-5.2-14.3 0-19.5 5.2-5.2 14.3-5.2 19.5 0l22.3 22.9c5.2 5.2 5.2 14.3 0 19.5-3 2.8-6.4 4-9.8 4zM266.8 215.8c-3.4 0-6.9-1.1-9.7-4-5.2-5.2-5.2-14.3 0-19.5l18.9-18.9c5.2-5.2 14.3-5.2 19.5 0 5.2 5.2 5.2 14.3 0 19.5l-18.9 18.9c-2.4 2.3-6.4 4-9.8 4zM144.3 338.4c-3.4 0-6.9-1.1-9.7-4-5.2-5.2-5.2-14.3 0-19.5l22.9-22.3c5.2-5.2 14.3-5.2 19.5 0 5.2 5.2 5.2 14.3 0 19.5l-23 22.3c-2.9 2.8-6.3 4-9.7 4z"/><g><path fill="#404447" d="M215.3 194.1c-7.4 0-13.7-6.3-13.7-13.7v-26.9c0-7.4 6.3-13.7 13.7-13.7 7.4 0 13.7 6.3 13.7 13.7v26.9c0 7.4-6.3 13.7-13.7 13.7zM215.3 368.1c-7.4 0-13.7-6.3-13.7-13.7v-32.1c0-7.4 6.3-13.7 13.7-13.7 7.4 0 13.7 6.3 13.7 13.7v32.1c0 7.4-6.3 13.7-13.7 13.7z"/></g><g><path fill="#404447" d="M315.5 267.4h-26.9c-7.4 0-13.7-6.3-13.7-13.7s6.3-13.7 13.7-13.7h26.9c7.4 0 13.7 6.3 13.7 13.7 0 7.4-6.3 13.7-13.7 13.7zM146.6 267.4h-32.1c-7.4 0-13.7-6.3-13.7-13.7s6.3-13.7 13.7-13.7h32.1c7.4 0 13.7 6.3 13.7 13.7 0 7.4-6.3 13.7-13.7 13.7z"/></g></g><g><path fill="#404447" d="M419.7 247.9c-31.5 0-56.7-25.2-56.7-56.7s25.2-56.7 56.7-56.7 56.7 25.2 56.7 56.7c-.1 30.9-25.8 56.7-56.7 56.7zm0-94.5c-20.6 0-37.8 17.2-37.8 37.8S399 229 419.7 229s37.8-17.2 37.8-37.8c-.1-21.2-17.2-37.8-37.8-37.8z"/><path fill="#404447" d="M384.2 164.9c-2.3 0-4.6-1.1-6.9-2.9l-13.2-13.2c-3.4-3.4-3.4-9.7 0-13.2 3.4-3.4 9.7-3.4 13.2 0l13.2 13.2c3.4 3.4 3.4 9.7 0 13.2-1.8 1.7-4 2.9-6.3 2.9zM468.3 249c-2.3 0-4.6-1.1-6.9-2.9L446 230.7c-3.4-3.4-3.4-9.7 0-13.2 3.4-3.4 9.7-3.4 13.2 0l15.5 15.5c3.4 3.4 3.4 9.7 0 13.2-1.8 2.3-4.1 2.8-6.4 2.8zM455.2 164.9c-2.3 0-4.6-1.1-6.9-2.9-3.4-3.4-3.4-9.7 0-13.2l13.2-13.2c3.4-3.4 9.7-3.4 13.2 0 3.4 3.4 3.4 9.7 0 13.2L461.5 162c-1.8 1.7-4.1 2.9-6.3 2.9zM371 249c-2.3 0-4.6-1.1-6.9-2.9-3.4-3.4-3.4-9.7 0-13.2l15.5-15.5c3.4-3.4 9.7-3.4 13.2 0 3.4 3.4 3.4 9.7 0 13.2l-15.5 15.5c-1.7 2.4-4 2.9-6.3 2.9z"/><g><path fill="#404447" d="M419.7 150c-5.2 0-9.2-4-9.2-9.2v-18.3c0-5.2 4-9.2 9.2-9.2s9.2 4 9.2 9.2v18.3c-.1 5.2-4.1 9.2-9.2 9.2zM419.7 269.7c-5.2 0-9.2-4-9.2-9.2v-21.8c0-5.2 4-9.2 9.2-9.2 5.2 0 9.2 4 9.2 9.2v21.8c-.1 4.6-4.1 9.2-9.2 9.2z"/></g><g><path fill="#404447" d="M488.4 200.4H470c-5.2 0-9.2-4-9.2-9.2 0-5.2 4-9.2 9.2-9.2h18.3c5.2 0 9.2 4 9.2 9.2.6 5.2-4 9.2-9.1 9.2zM372.7 200.4H351c-5.2 0-9.2-4-9.2-9.2 0-5.2 4-9.2 9.2-9.2h21.8c5.2 0 9.2 4 9.2 9.2s-4.1 9.2-9.3 9.2z"/></g></g></svg>