<svg xmlns="http://www.w3.org/2000/svg" viewBox="0 0 90.5 111.3"><g fill="#404447"><path d="M66.7 85.7V1.8c0-1-.8-1.8-1.8-1.8H1.8C.8 0 0 .8 0 1.8v83.9c0 1 .8 1.8 1.8 1.8h63.1c1 0 1.8-.8 1.8-1.8zM41.4 9.5h8.8c1 0 1.8.8 1.8 1.8s-.8 1.8-1.8 1.8h-8.8c-1 0-1.8-.8-1.8-1.8.1-1.1.9-1.8 1.8-1.8zm8 9.5c0 1-.8 1.8-1.8 1.8H15.9c-1 0-1.8-.8-1.8-1.8s.8-1.8 1.8-1.8h31.7c1 0 1.8.8 1.8 1.8zM26.2 9.5H35c1 0 1.8.8 1.8 1.8s-.8 1.8-1.8 1.8h-8.8c-1 0-1.8-.8-1.8-1.8 0-1.1.8-1.8 1.8-1.8zM11 9.5h8.8c1 0 1.8.8 1.8 1.8s-.8 1.8-1.8 1.8H11c-1 0-1.8-.8-1.8-1.8 0-1.1.8-1.8 1.8-1.8zm30.4 26.1H15.9c-1 0-1.8-.8-1.8-1.8s.8-1.8 1.8-1.8h25.5c1 0 1.8.8 1.8 1.8-.1 1-.9 1.8-1.8 1.8zm1.7 5.6c0 1-.8 1.8-1.8 1.8H15.9c-1 0-1.8-.8-1.8-1.8s.8-1.8 1.8-1.8h25.5c.9 0 1.7.8 1.7 1.8zm-23.3 17H11c-1 0-1.8-.8-1.8-1.8s.8-1.8 1.8-1.8h8.8c1 0 1.8.8 1.8 1.8s-.8 1.8-1.8 1.8zm35.3-7.6H15.9c-1 0-1.8-.8-1.8-1.8s.8-1.8 1.8-1.8h39.2c1 0 1.8.8 1.8 1.8s-.8 1.8-1.8 1.8zm0-22.2H15.9c-1 0-1.8-.8-1.8-1.8s.8-1.8 1.8-1.8h39.2c1 0 1.8.8 1.8 1.8s-.8 1.8-1.8 1.8z"/><path d="M76.8 99.4H13.7c-1 0-1.8-.8-1.8-1.8v-4.1h59c1 0 1.8-.8 1.8-1.8V11.9h4.2c1 0 1.8.8 1.8 1.8v83.9c-.1 1-.9 1.8-1.9 1.8z"/><path d="M90.5 25.6v83.9c0 1-.8 1.8-1.8 1.8H25.6c-1 0-1.8-.8-1.8-1.8v-4.1h59c1 0 1.8-.8 1.8-1.8V23.8h4.1c1 0 1.8.8 1.8 1.8z"/></g></svg>