<svg xmlns="http://www.w3.org/2000/svg" viewBox="0 0 74.4 97.5"><path fill="#404447" d="M72.3 0H2C.9 0 0 .9 0 2v93.5c0 1.1.9 2 2 2h70.3c1.1 0 2-.9 2-2V2c.1-1.1-.8-2-2-2zm-8.9 29.7c0 1.1-.9 2-2 2H17.7c-1.1 0-2-.9-2-2s.9-2 2-2h43.7c1.1 0 2 .9 2 2zM17.7 43.9h28.4c1.1 0 2 .9 2 2s-.9 2-2 2H17.7c-1.1 0-2-.9-2-2s.9-2 2-2zm-2-6.3c0-1.1.9-2 2-2h28.4c1.1 0 2 .9 2 2s-.9 2-2 2H17.7c-1.1 0-2-.9-2-2zm2 14.8h43.7c1.1 0 2 .9 2 2s-.9 2-2 2H17.7c-1.1 0-2-.9-2-2s.9-2 2-2zm-2-31.3c0-1.1.9-2 2-2H53c1.1 0 2 .9 2 2s-.9 2-2 2H17.7c-1.1 0-2-.9-2-2zm30.5-10.6H56c1.1 0 2 .9 2 2s-.9 2-2 2h-9.8c-1.1 0-2-.9-2-2s.9-2 2-2zm-17 0H39c1.1 0 2 .9 2 2s-.9 2-2 2h-9.8c-1.1 0-2-.9-2-2s.9-2 2-2zm-17 0h9.9c1.1 0 2 .9 2 2s-.9 2-2 2h-9.9c-1.1 0-2-.9-2-2s.9-2 2-2zm9.9 54.4h-9.9c-1.1 0-2-.9-2-2s.9-2 2-2h9.9c1.1 0 2 .9 2 2s-.9 2-2 2zm48.5 21.8l-6.5 6.8c-.3.3-.7.5-1.1.5-.4 0-.8-.1-1.1-.4-.6-.6-.7-1.6-.1-2.2l3.8-4-16.6.2c-.9 0-1.6-.7-1.6-1.5 0-.9.7-1.6 1.5-1.6l16.7-.4-4-3.8c-.6-.6-.7-1.6 0-2.2.6-.6 1.6-.7 2.2 0l6.7 6.4c.7.5.7 1.5.1 2.2z"/></svg>