<svg xmlns="http://www.w3.org/2000/svg" viewBox="0 0 600 600"><path fill="#404447" d="M361.4 430.6c-6.5 0-12.9-2.6-18.1-7.1-9.7-9.7-9.7-25.9 0-35.6l87.9-87.9-87.2-87.9c-9.7-9.7-9.7-25.9 0-35.6s25.9-9.7 35.6 0L485 281.9c9.7 9.7 9.7 25.9 0 35.6l-105.4 106c-5.2 4.5-11.7 7.1-18.2 7.1z"/><path fill="#404447" d="M133.2 325.2c-13.6 0-25.2-11-25.2-25.2 0-13.6 11-25.2 25.2-25.2h305.2c14.2 0 25.2 11 25.2 25.2 0 13.6-11 25.2-25.2 25.2H133.2z"/><g><path fill="#404447" d="M574.8 600H25.2C11 600 0 589 0 574.8V25.2C0 11 11 0 25.2 0h549.6C589 0 600 11 600 25.2v549.6c0 14.2-11 25.2-25.2 25.2zM50.4 549.6h499.1V50.4H50.4v499.2z"/></g></svg>