<svg xmlns="http://www.w3.org/2000/svg" viewBox="0 0 98.1 92.2"><path fill="#404447" d="M20.1 90.6c-3.1 0-5.8-1.1-7.8-3.1-4.8-4.8-4-13.3 1.9-19.2l19.1-19.1c1.5-1.5 4-1.5 5.5 0L50.6 61c.7.7 1.1 1.7 1.1 2.7 0 1-.4 2-1.1 2.7L31.5 85.6c-3.2 3.2-7.3 5-11.4 5zm16-33.1L19.7 73.8c-3 3-3.4 6.7-1.9 8.2.7.7 1.7.8 2.3.8 1.9 0 4.1-1 5.9-2.8l16.3-16.3-6.2-6.2zM83.9 25.4c-2.5 0-4.9-1-6.7-2.8-3.7-3.7-3.7-9.6 0-13.3l6.5-6.5c1.5-1.5 4-1.5 5.5 0l7.8 7.8c.7.7 1.1 1.7 1.1 2.7 0 1-.4 2-1.1 2.7l-6.5 6.5c-1.8 1.9-4.1 2.9-6.6 2.9zm2.5-14.3l-3.7 3.7c-.6.6-.6 1.7 0 2.3.8.8 1.5.8 2.3 0l3.7-3.7-2.3-2.3z"/><path fill="#404447" d="M58.6 45.1c-1 0-2-.4-2.7-1.1-1.5-1.5-1.5-4 0-5.5l21.3-21.3c1.5-1.5 4-1.5 5.5 0s1.5 4 0 5.5L61.3 43.9c-.7.8-1.7 1.2-2.7 1.2z"/><g><path fill="#404447" d="M77.3 92.2c-4 0-7.7-1.6-10.6-4.4L29.6 50.7c-8.1 1.3-16.3-1.4-22.1-7.1-7-7.1-9.3-17.7-5.8-27 .5-1.2 1.5-2.2 2.8-2.4 1.3-.3 2.6.1 3.6 1l10.5 10.5 5.7-1.5 1.5-5.7L15.2 8c-.9-.9-1.3-2.3-1-3.6.3-1.3 1.2-2.3 2.4-2.8C19.5.5 22.5 0 25.6 0c6.8 0 13.2 2.7 18 7.5 5.8 5.8 8.4 14.1 7.1 22.1l37.1 37.1c2.8 2.8 4.4 6.6 4.4 10.6s-1.6 7.7-4.4 10.6c-2.8 2.8-6.5 4.3-10.5 4.3zM30.9 42.6c1 0 2 .4 2.7 1.1l38.6 38.6c2.7 2.7 7.4 2.7 10.2 0 1.4-1.4 2.1-3.2 2.1-5.1 0-1.9-.8-3.7-2.1-5.1L43.7 33.6c-1-1-1.3-2.4-1-3.7 1.6-6.2-.2-12.5-4.6-17-3.3-3.3-7.6-5.1-12.2-5.2l6.8 6.8c1 1 1.4 2.4 1 3.7l-2.7 10c-.4 1.3-1.4 2.4-2.7 2.7l-10 2.7c-1.3.4-2.8 0-3.8-1l-6.8-6.8c.1 4.5 1.9 8.9 5.2 12.2 4.4 4.4 10.9 6.2 17 4.6.3.1.6 0 1 0z"/></g><path fill="#404447" d="M76.7 73.2c-1.8 0-3.2 1.4-3.2 3.2 0 1.8 1.4 3.2 3.2 3.2 1.8 0 3.2-1.4 3.2-3.2 0-1.7-1.4-3.2-3.2-3.2z"/></svg>