<svg xmlns="http://www.w3.org/2000/svg" viewBox="0 0 74.2 97.3"><path fill="#404447" d="M72.2 0H2C.9 0 0 .9 0 2v93.3c0 1.1.9 2 2 2h70.2c1.1 0 2-.9 2-2V2c0-1.1-.9-2-2-2zM23.1 40.4h28.2c.6 0 1 .4 1 1s-.4 1-1 1H23.1c-.5 0-1-.4-1-1s.4-1 1-1zm-1.9 3.9h32c.5 0 1 .4 1 1 0 .5-.4 1-1 1h-32c-.6 0-1-.4-1-1 0-.5.4-1 1-1zm38.5 36.2c0 1.1-.9 2-2 2H16.1c-1.1 0-2-.9-2-2v-14c0-1.1.9-2 2-2h.8V50.3c0-1.1.9-2 2-2h36.7c1.1 0 2 .9 2 2v14.2h.2c1.1 0 2 .9 2 2v14zM46.9 69.2c0 2.2-1.8 4-4 4H31c-2.2 0-4-1.8-4-4v-.8h-8.9v10.1h37.6V68.4h-8.9v.8zM31 66.4v2.8h11.9v-2.8c0-1.1.9-2 2-2h8.7V52.3H20.9v12.2H29c1.1 0 2 .9 2 1.9z"/></svg>