<svg xmlns="http://www.w3.org/2000/svg" viewBox="0 0 90.4 90"><path fill="#404447" d="M3.8 23.5c-2.1 0-3.8-1.7-3.8-3.8V3.8C0 1.7 1.7 0 3.8 0h15.9c2.1 0 3.8 1.7 3.8 3.8 0 2.1-1.7 3.8-3.8 3.8H7.6v12.1c0 2.1-1.7 3.8-3.8 3.8zM86.6 23.5c-2.1 0-3.8-1.7-3.8-3.8V7.6H70.7c-2.1 0-3.8-1.7-3.8-3.8C67 1.7 68.6 0 70.7 0h15.9c2.1 0 3.8 1.7 3.8 3.8v15.9c0 2.1-1.7 3.8-3.8 3.8zM19.7 90H3.8C1.7 90 0 88.3 0 86.2V70.3c0-2.1 1.7-3.8 3.8-3.8s3.8 1.7 3.8 3.8v12.1h12.1c2.1 0 3.8 1.7 3.8 3.8 0 2.1-1.7 3.8-3.8 3.8zM86.6 90H70.7c-2.1 0-3.8-1.7-3.8-3.8 0-2.1 1.7-3.8 3.8-3.8h12.1V70.3c0-2.1 1.7-3.8 3.8-3.8 2.1 0 3.8 1.7 3.8 3.8v15.9c0 2.1-1.7 3.8-3.8 3.8z"/><g><path fill="#404447" d="M71.4 75H19c-2.1 0-3.8-1.7-3.8-3.8V18.8c0-2.1 1.7-3.8 3.8-3.8h52.4c2.1 0 3.8 1.7 3.8 3.8v52.4c0 2.1-1.7 3.8-3.8 3.8zm-48.6-7.6h44.9V22.6H22.8v44.8z"/></g></svg>