<svg xmlns="http://www.w3.org/2000/svg" viewBox="0 0 94.7 94.7"><path fill="#404447" d="M27.7 41.7c-.5 0-1-.2-1.4-.5l-6.5-5.6c-.6-.5-.8-1.2-.7-2 .1-.7.6-1.4 1.3-1.6L39 24.6c.7-.3 1.6-.2 2.2.4l6.5 5.6c.6.5.8 1.2.7 2-.1.7-.6 1.4-1.3 1.6l-18.6 7.4c-.3.1-.5.1-.8.1zm-2.5-7.1l2.9 2.5 14.1-5.6-2.9-2.5-14.1 5.6zM45.9 72.5c-.4 0-.9-.1-1.3-.4-.6-.4-.9-1-.9-1.7v-21c0-1.2 1-2.1 2.1-2.1s2.1 1 2.1 2.1v18l18-5.7v-9.6c0-1.2 1-2.1 2.1-2.1 1.2 0 2.1 1 2.1 2.1v11.1c0 .9-.6 1.8-1.5 2l-22.3 7.1c.1.2-.2.2-.4.2z"/><path fill="#404447" d="M58.1 56.5c-.5 0-1-.2-1.4-.5l-6.5-5.6c-.6-.5-.8-1.2-.7-2 .1-.7.6-1.4 1.3-1.6l18.6-7.4c.7-.3 1.6-.2 2.2.4l6.5 5.6c.6.5.8 1.2.7 2-.1.7-.6 1.4-1.3 1.6l-18.6 7.4c-.3.1-.6.1-.8.1zm-2.5-7.1l2.9 2.5 14.1-5.6-2.9-2.5-14.1 5.6zM68.2 41.3c-.3 0-.5-.1-.8-.2l-18.6-7.4c-.7-.3-1.2-.9-1.3-1.6-.1-.7.1-1.4.6-2l6.4-6.2c.6-.6 1.5-.8 2.3-.5L75.4 31c.7.3 1.2.9 1.3 1.6.1.7-.1 1.4-.6 2l-6.4 6.2c-.4.3-.9.5-1.5.5zM53.5 31l14.3 5.7 3-2.9L56.5 28l-3 3zM45.6 72.5c-.3 0-.5-.1-.8-.2l-17.2-7.1c-.8-.3-1.3-1.1-1.3-2V53c0-1.2 1-2.1 2.1-2.1 1.2 0 2.1 1 2.1 2.1v8.9l15.9 6.5c1.1.4 1.6 1.7 1.2 2.8-.4.8-1.2 1.3-2 1.3zM39.5 57.7c-.3 0-.5-.1-.8-.2L20.1 50c-.7-.3-1.2-.9-1.3-1.6-.1-.7.1-1.4.6-2l6.4-6.2c.6-.6 1.5-.8 2.3-.5l18.6 7.4c.7.3 1.2.9 1.3 1.6.1.7-.1 1.4-.6 2L41 57.1c-.4.4-.9.6-1.5.6zM24.7 47.4L39 53.1l3-2.9-14.3-5.7-3 2.9z"/><g><path fill="#404447" d="M90.8 94.7H4c-2.2 0-4-1.8-4-4V4c0-2.2 1.8-4 4-4h86.8c2.2 0 4 1.8 4 4v86.8c-.1 2.2-1.8 3.9-4 3.9zM7.9 86.8h78.8V7.9H7.9v78.9z"/></g></svg>