<svg xmlns="http://www.w3.org/2000/svg" viewBox="0 0 94.2 92.7"><path fill="#404447" d="M90.2 92.7H4c-2.2 0-4-1.8-4-4V4c0-2.2 1.8-4 4-4h86.3c2.2 0 4 1.8 4 4v84.7c-.1 2.2-1.9 4-4.1 4zm-82.3-8h78.3V7.9H7.9v76.8z"/><path fill="#404447" d="M31.5 58.2c-.3 0-.6-.1-.8-.2-.4-.3-.6-.7-.6-1.2V29c0-.6.4-1.1.9-1.3l15.7-5.9c.4-.2.9-.1 1.3.2.4.3.6.7.6 1.2V51c0 .6-.4 1.1-.9 1.3L32 58.1c-.2.1-.3.1-.5.1zM32.9 30v24.8l12.9-4.9V25.1L32.9 30z"/><path fill="#404447" d="M34.7 35.8c-.3 0-.6-.2-.7-.5-.1-.4 0-.8.4-.9l9.4-3.5c.4-.1.8 0 .9.4.1.4 0 .8-.4.9L35 35.7c-.1.1-.2.1-.3.1zM34.7 44.8c-.3 0-.6-.2-.7-.5-.1-.4 0-.8.4-.9l9.4-3.5c.4-.1.8 0 .9.4.1.4 0 .8-.4.9L35 44.8h-.3zM34.7 49.3c-.3 0-.6-.2-.7-.5-.1-.4 0-.8.4-.9l9.4-3.5c.4-.1.8 0 .9.4.1.4 0 .8-.4.9L35 49.3h-.3zM34.7 40.3c-.3 0-.6-.2-.7-.5-.1-.4 0-.8.4-.9l9.4-3.5c.4-.1.8 0 .9.4.1.4 0 .8-.4.9L35 40.3h-.3z"/><g><path fill="#404447" d="M57.1 55.3c-.4 0-.7-.3-.7-.7v-8.1c0-.2.1-.4.3-.6.2-.1.4-.2.6-.1l5.8 2.2c.4.1.5.5.4.9-.1.4-.5.5-.9.4l-4.8-1.8v7.1c0 .4-.3.7-.7.7z"/><path fill="#404447" d="M57.1 56c-.2 0-.3 0-.5-.1l-9.9-3.7c-.5-.2-.9-.7-.9-1.3V23.1c0-.5.2-.9.6-1.2.4-.3.9-.3 1.3-.2l15.7 5.9c.5.2.9.7.9 1.3v19.7c0 .4-.1.7-.4 1l-5.8 5.9c-.2.4-.6.5-1 .5zm-8.5-6.1l8.2 3.1 4.7-4.9V30l-12.9-4.9v24.8z"/><path fill="#404447" d="M60 35.9h-.2l-9.4-3.5c-.4-.1-.5-.5-.4-.9.1-.4.5-.5.9-.4l9.4 3.5c.4.1.5.5.4.9-.2.2-.5.4-.7.4zM60 44.9h-.2l-9.4-3.5c-.4-.1-.5-.5-.4-.9.1-.4.5-.5.9-.4l9.4 3.5c.4.1.5.5.4.9-.2.3-.5.4-.7.4zM60 40.4h-.2l-9.4-3.5c-.4-.1-.5-.5-.4-.9.1-.4.5-.5.9-.4l9.4 3.5c.4.1.5.5.4.9-.2.2-.5.4-.7.4z"/></g><g><path fill="#404447" d="M77.4 65H16.8c-1.1 0-2-.9-2-2V16.8c0-1.1.9-2 2-2h60.5c1.1 0 2 .9 2 2V63c.1 1.1-.8 2-1.9 2zm-58.6-4h56.6V18.8H18.8V61z"/></g></svg>