<svg xmlns="http://www.w3.org/2000/svg" viewBox="0 0 85.6 96.4"><path fill="#404447" d="M45.6 83.1c-.2 0-.4-.1-.6-.2-.3-.2-.5-.5-.5-.9V60.4c0-.5.3-.9.7-1l12.2-4.6c.3-.1.7-.1 1 .1.3.2.5.5.5.9v21.6c0 .5-.3.9-.7 1L46 83c-.1.1-.3.1-.4.1zm1.1-21.9v19.3l10-3.8V57.4l-10 3.8z"/><path fill="#404447" d="M70.1 83.1c-.1 0-.3 0-.4-.1l-12.2-4.6c-.4-.2-.7-.6-.7-1V55.8c0-.4.2-.7.5-.9.3-.2.7-.2 1-.1l12.2 4.6c.4.2.7.6.7 1V82c0 .4-.2.7-.5.9-.1.1-.4.2-.6.2zM59 76.6l10 3.8V61.2l-10-3.8v19.2z"/><g><path fill="#404447" d="M64.3 40.3H32.9c-1.1 0-2-.9-2-2V20.5c0-1.1.9-2 2-2h31.4c1.1 0 2 .9 2 2v17.7c0 1.2-.9 2.1-2 2.1zm-29.4-4.1h27.3V22.6H34.9v13.6z"/><path fill="#404447" d="M81.5 96.4H11.3c-2.3 0-4.1-1.8-4.1-4.1V4.1C7.2 1.8 9 0 11.3 0h70.2c2.3 0 4.1 1.8 4.1 4.1v88.3c0 2.2-1.9 4-4.1 4zm-66.2-8.1h62V8.2h-62v80.1z"/><path fill="#404447" d="M18.4 24.7H4.1c-2.3 0-4.1-1.8-4.1-4.1s1.8-4.1 4.1-4.1h14.3c2.3 0 4.1 1.8 4.1 4.1s-1.8 4.1-4.1 4.1zM18.4 42.9H4.1c-2.3 0-4.1-1.8-4.1-4.1s1.8-4.1 4.1-4.1h14.3c2.3 0 4.1 1.8 4.1 4.1s-1.8 4.1-4.1 4.1zM18.4 61.2H4.1c-2.3 0-4.1-1.8-4.1-4.1C0 54.9 1.8 53 4.1 53h14.3c2.3 0 4.1 1.8 4.1 4.1s-1.8 4.1-4.1 4.1zM18.4 79.5H4.1c-2.3 0-4.1-1.8-4.1-4.1s1.8-4.1 4.1-4.1h14.3c2.3 0 4.1 1.8 4.1 4.1s-1.8 4.1-4.1 4.1z"/></g></svg>