<svg xmlns="http://www.w3.org/2000/svg" viewBox="0 0 106 106"><path fill="#404447" d="M71.9 101.4c0-1.2.5-2.4 1.4-3.3l21.6-21.5L73.3 55c-1.8-1.8-1.8-4.7 0-6.5 1.8-1.8 4.7-1.8 6.5 0l24.8 24.9c1.8 1.8 1.8 4.7 0 6.5l-24.9 24.8c-1.8 1.8-4.7 1.8-6.5 0-.8-1-1.3-2.2-1.3-3.3z"/><path fill="#404447" d="M0 76.4c0-2.6 2.1-4.6 4.6-4.6l90 .1c2.6 0 4.6 2.1 4.6 4.6 0 2.5-2.1 4.6-4.6 4.6l-90-.1c-2.5.1-4.6-2-4.6-4.6z"/><g><path fill="#404447" d="M24.2 54.3c0-1.2.5-2.4 1.4-3.3l21.6-21.5L25.6 7.9c-1.8-1.8-1.8-4.7 0-6.5 1.8-1.8 4.7-1.8 6.5 0l24.8 24.9c1.8 1.8 1.8 4.7 0 6.5L32.1 57.6c-1.8 1.8-4.7 1.8-6.5 0-1-.9-1.4-2.1-1.4-3.3z"/><path fill="#404447" d="M.1 29.4c0-2.5 2.1-4.6 4.6-4.6h42.2c2.6 0 4.6 2.1 4.6 4.6 0 2.6-2.1 4.6-4.6 4.6H4.7c-2.6.1-4.6-2-4.6-4.6z"/></g></svg>