<svg xmlns="http://www.w3.org/2000/svg" viewBox="0 0 600 600"><path fill="#404447" d="M7.7 590c-4.6-6.2-9.2-14.6-7.7-23.1L77 25.4C79.3 10.8 92.4.8 107 2.3l213.4 20.8c6.2.8 12.3 3.1 16.9 7.7L571.5 265c4.6 4.6 6.9 10.8 7.7 16.9L600 494.5c1.5 14.6-9.2 27.7-23.9 30L30.8 597.7c-8.5 1.5-16.9-1.6-23.1-7.7zM127.9 58.5L59.3 539.2l482.9-65.5-17.7-177.2L305 76.3 127.9 58.5z"/><path fill="#404447" d="M563 506.8L94.7 38.5c-3.9-3.9-5.4-10-2.3-15.4 2.3-5.4 7.7-8.5 13.9-7.7l213.4 20.8c3.1 0 6.2 1.5 8.5 3.9l234.1 234.1c2.3 2.3 3.9 5.4 3.9 8.5L586.9 496c.8 5.4-2.3 11.6-7.7 13.9-6.2 2.3-12.3.8-16.2-3.1zM140.9 46.2l413.6 413.6-16.9-170.2L311.2 63.2l-170.3-17z"/><path fill="#404447" d="M16.9 584.6c-4.6-4.6-5.4-10.8-2.3-16.2l288.8-516c3.9-6.9 12.3-9.2 18.5-5.4 6.9 3.9 9.2 12.3 5.4 18.5l-265 473.7 473.7-265c6.9-3.9 14.6-1.5 18.5 5.4s1.5 14.6-5.4 18.5l-516 288.8c-5.4 3.1-12.3 2.3-16.2-2.3z"/><path fill="#404447" d="M329.7 271.9c-2.3-2.3-3.9-4.6-3.9-8.5L301.9 60.8c-.8-7.7 4.6-14.6 12.3-15.4 7.7-.8 14.6 4.6 15.4 12.3L352 250.3l192.6 22.3c7.7.8 13.1 7.7 12.3 15.4s-7.7 13.1-15.4 12.3l-203.3-23.9c-3.9-.7-7-2.2-8.5-4.5z"/><path fill="#404447" d="M549.9 491.4c-.8-.8-1.5-2.3-2.3-3.1l-144-290.4L113.2 53.1c-6.2-3.1-8.5-10.8-5.4-16.9 3.1-6.2 10.8-8.5 16.9-5.4l293.5 146.3c2.3 1.5 4.6 3.1 5.4 5.4L570 476.8c3.1 6.2.8 13.9-5.4 16.9-4.7 2.3-10.8 1.6-14.7-2.3z"/></svg>