<svg xmlns="http://www.w3.org/2000/svg" viewBox="0 0 98.3 90.8"><path fill="#404447" d="M94.1 90.8H4.3c-2.4 0-4.3-1.9-4.3-4.3V56.2C0 53.9 1.9 52 4.3 52h27.8c2.4 0 4.3 1.9 4.3 4.3v6H62v-6c0-2.4 1.9-4.3 4.3-4.3h27.8c2.4 0 4.3 1.9 4.3 4.3v30.3c-.1 2.3-2 4.2-4.3 4.2zM8.6 82.2h81.2V60.5H70.5v1.8c0 4.7-3.8 8.6-8.6 8.6H36.3c-4.7 0-8.6-3.8-8.6-8.6v-1.8H8.6v21.7z"/><path fill="#404447" d="M89.3 59.9c-2.4 0-4.3-1.9-4.3-4.3V25.7H14.5v29.9c0 2.4-1.9 4.3-4.3 4.3S5.9 58 5.9 55.6V21.4c0-2.4 1.9-4.3 4.3-4.3h79.1c2.4 0 4.3 1.9 4.3 4.3v34.2c0 2.3-2 4.3-4.3 4.3zM84.3 12.8H15.2c-1.2 0-2.1-1-2.1-2.1 0-1.2 1-2.1 2.1-2.1h69.1c1.2 0 2.1 1 2.1 2.1 0 1.2-.9 2.1-2.1 2.1zM80.2 4.3H19.3c-1.2 0-2.1-1-2.1-2.1 0-1.2 1-2.1 2.1-2.1h60.9c1.2 0 2.1 1 2.1 2.1s-.9 2.1-2.1 2.1z"/></svg>